<?xml version="1.0" standalone="no"?>
<!DOCTYPE svg PUBLIC "-//W3C//DTD SVG 20010904//EN"
 "http://www.w3.org/TR/2001/REC-SVG-20010904/DTD/svg10.dtd">
<svg version="1.0" xmlns="http://www.w3.org/2000/svg"
 width="304.000000pt" height="518.000000pt" viewBox="0 0 304.000000 518.000000"
 preserveAspectRatio="xMidYMid meet">
<g transform="translate(0.000000,518.000000) scale(0.100000,-0.100000)"
fill="#000000" stroke="none">
<path d="M1033 5136 c-9 -16 -29 -19 -184 -21 -288 -5 -542 -14 -584 -21 -22
-4 -78 -8 -125 -10 -47 -1 -97 -3 -112 -3 -26 -1 -28 -4 -28 -42 l0 -41 45 7
c53 7 105 -1 105 -18 0 -7 -10 -18 -21 -25 -14 -9 -18 -17 -11 -24 7 -7 16 -6
29 1 11 5 29 8 40 5 11 -3 25 1 33 11 12 14 12 18 -1 26 -8 5 -22 9 -32 9 -33
0 -12 25 29 34 21 4 51 14 66 22 18 10 29 11 33 3 4 -6 -2 -13 -14 -16 -12 -3
-21 -8 -21 -11 0 -2 8 -11 17 -17 12 -9 23 -10 35 -4 12 6 25 6 38 -1 14 -7
20 -7 20 0 0 5 7 10 15 10 8 0 15 5 15 10 0 6 -18 10 -40 10 -29 0 -40 4 -40
15 0 12 13 15 55 15 52 0 55 -1 55 -25 0 -14 -4 -25 -10 -25 -5 0 -14 -9 -20
-19 -7 -14 -6 -31 3 -57 9 -29 18 -38 37 -40 14 -1 49 5 79 13 41 13 57 14 72
5 13 -8 26 -9 44 -2 41 16 48 13 42 -18 -3 -15 -2 -34 2 -41 7 -11 10 -11 17
0 11 19 13 79 3 106 -10 26 -37 26 -91 -1 -34 -16 -38 -17 -62 -1 -28 19 -56
14 -56 -9 0 -20 -25 -27 -45 -12 -13 9 -16 20 -11 43 4 17 14 34 23 37 12 5
13 9 4 20 -18 22 2 28 77 25 37 -2 73 0 80 5 7 4 26 3 42 -4 17 -7 44 -10 62
-6 18 3 40 7 48 8 8 0 21 5 27 10 7 6 18 8 25 5 8 -2 34 -1 60 3 30 4 51 3 58
-4 7 -7 16 -7 28 0 9 5 32 7 51 4 30 -4 34 -9 37 -40 4 -45 -4 -70 -22 -70
-19 0 -18 -13 5 -38 14 -17 18 -36 16 -78 -1 -46 -6 -60 -25 -74 -13 -10 -20
-22 -16 -29 6 -9 11 -9 22 0 12 10 14 0 14 -64 0 -54 -4 -78 -15 -87 -12 -10
-18 -10 -30 0 -20 17 -19 27 5 35 27 9 25 27 -2 23 -27 -4 -34 -32 -18 -72 8
-22 13 -26 24 -17 11 9 17 8 29 -3 12 -12 14 -38 12 -128 -2 -62 -7 -376 -10
-698 -11 -1107 -17 -1464 -24 -1480 -5 -8 -7 -226 -6 -485 2 -259 0 -474 -5
-480 -4 -5 -2 -84 4 -175 11 -170 8 -256 -9 -254 -5 1 -15 10 -20 21 -6 11
-18 27 -27 37 -16 16 -18 15 -33 -14 -17 -33 -19 -30 29 -44 15 -5 46 -60 46
-83 0 -7 7 -13 16 -13 13 0 15 -7 9 -40 -6 -33 -4 -40 9 -40 9 0 16 -4 16 -10
0 -5 7 -10 15 -10 22 0 18 28 -6 40 -15 9 -18 15 -9 25 6 7 26 16 45 19 25 5
35 12 35 25 0 23 -10 33 -24 22 -6 -4 -22 -11 -36 -14 -23 -6 -25 -3 -26 28 0
25 3 32 11 25 7 -6 15 -6 22 1 8 8 13 8 17 0 10 -16 36 -13 36 4 0 8 -4 15
-10 15 -5 0 -10 11 -10 25 0 14 -7 28 -15 31 -8 4 -15 13 -15 21 0 10 6 12 19
8 17 -5 19 0 17 52 -1 32 -5 63 -9 70 -10 16 -6 142 4 149 5 3 9 12 9 20 0 11
-7 14 -22 10 -13 -3 -17 -3 -10 0 7 3 12 24 12 49 0 24 4 46 9 49 5 4 8 14 6
24 -2 9 -4 17 -5 17 -1 0 -3 81 -4 180 -2 99 -6 187 -10 197 -4 9 0 37 8 62
19 56 20 135 2 158 -10 14 -11 30 -3 70 6 29 10 71 9 93 0 27 6 44 19 56 25
22 24 37 -3 41 -24 3 -23 -6 -19 157 1 17 5 21 17 17 9 -3 29 -6 45 -6 17 0
36 -8 46 -20 10 -11 20 -20 24 -20 4 0 10 15 13 33 4 23 14 36 36 45 30 14 30
15 24 65 -5 34 -14 57 -28 68 -12 10 -22 13 -24 8 -2 -5 -8 -9 -13 -9 -6 0 -7
5 -4 10 9 15 -14 40 -37 40 -13 0 -18 6 -16 18 2 13 11 16 36 14 27 -3 32 0
32 17 0 18 -3 19 -26 10 -15 -5 -35 -7 -46 -3 -14 4 -18 1 -16 -9 2 -9 -1 -15
-6 -14 -5 1 -10 19 -12 40 -1 23 -10 44 -21 52 -10 7 -15 16 -11 20 11 11 48
-5 48 -21 0 -19 19 -18 26 1 4 8 10 15 15 15 4 0 6 -6 4 -12 -3 -7 6 -18 19
-24 22 -10 24 -9 24 15 2 66 -6 61 107 61 82 0 104 3 109 15 3 8 15 15 26 15
11 0 20 7 20 15 0 19 -7 19 -25 1 -11 -10 -52 -12 -197 -9 -101 2 -193 6 -206
9 l-22 4 22 31 c21 28 23 29 36 12 11 -16 33 -18 195 -21 149 -2 179 0 166 10
-8 7 -18 21 -22 31 -4 10 -12 15 -17 12 -8 -5 -8 -11 0 -20 8 -9 6 -14 -7 -19
-10 -4 -22 -1 -28 7 -10 14 -47 15 -78 2 -9 -4 -29 -5 -44 -2 -15 3 -37 1 -50
-4 -18 -7 -28 -4 -43 11 -11 11 -20 14 -22 8 -3 -7 -10 -8 -17 -3 -10 6 -12
27 -8 85 5 82 -5 123 -18 73 -8 -28 -8 -28 -15 11 -9 47 -3 76 16 76 9 0 14
12 14 35 0 26 -3 33 -15 29 -18 -7 -19 11 -4 55 8 23 8 35 0 45 -7 8 -9 25 -5
40 16 67 26 262 14 286 -13 26 -1 40 33 34 29 -4 27 -2 -13 16 -45 21 -45 21
-23 38 11 9 24 32 28 50 5 25 3 32 -9 32 -8 0 -20 9 -26 19 -13 26 -13 31 5
31 27 0 16 17 -15 24 -16 3 -30 10 -30 16 0 6 4 9 9 6 9 -6 28 15 47 49 6 11
11 46 12 78 1 42 -2 57 -11 54 -7 -2 -12 -19 -12 -38 0 -19 -4 -34 -10 -34
-11 0 -11 -11 -19 349 -5 195 -3 272 5 282 7 8 9 31 6 53 -3 22 -2 42 1 45 3
4 13 28 22 54 13 36 21 46 36 44 19 -3 49 -32 56 -53 6 -19 43 -1 61 31 20 34
52 42 42 11 -6 -21 9 -36 25 -26 8 5 7 11 -1 21 -8 10 -8 14 0 14 6 0 11 -4
11 -10 0 -16 58 -11 68 6 7 13 10 13 21 1 8 -11 9 -27 1 -60 -6 -27 -6 -55 -1
-69 l8 -23 7 23 c4 12 12 22 18 22 5 0 7 7 4 16 -8 21 10 88 27 103 10 8 21 7
40 -2 28 -13 38 -31 12 -21 -8 4 -15 1 -15 -5 0 -6 7 -11 15 -11 8 0 15 -9 15
-20 0 -11 7 -20 15 -20 18 0 18 5 5 31 -8 15 -6 22 10 36 11 10 20 28 20 40 0
13 5 23 10 23 10 0 15 -20 11 -54 -1 -19 25 -45 47 -46 6 0 12 7 12 15 0 18 9
19 46 4 24 -9 31 -7 47 13 13 16 20 19 24 11 2 -7 11 -13 20 -13 10 0 12 6 8
19 -7 24 11 37 30 21 10 -8 24 -8 54 0 22 6 43 15 46 20 9 15 25 12 25 -5 0
-8 4 -15 9 -15 5 0 25 -16 45 -36 21 -21 36 -46 36 -59 0 -13 5 -27 10 -30 6
-3 10 1 10 9 0 23 28 46 48 39 14 -6 15 -4 4 9 -11 14 -8 17 29 23 39 7 41 8
35 37 -3 17 -6 35 -6 40 0 5 -10 8 -22 6 -19 -2 -22 -8 -20 -32 3 -27 2 -28
-30 -23 -18 3 -42 8 -53 10 -11 3 -23 6 -27 6 -15 2 -8 21 7 21 8 0 15 5 15
10 0 6 -5 10 -12 10 -6 0 -20 7 -30 17 -15 14 -42 16 -184 15 -104 -1 -171 -5
-179 -12 -10 -8 -29 -8 -67 -1 -29 5 -57 6 -63 2 -5 -4 -34 -7 -63 -6 -29 1
-55 -2 -58 -7 -3 -4 8 -8 25 -8 42 0 48 -17 8 -23 -21 -3 -48 3 -81 18 -46 22
-76 24 -76 5 0 -5 5 -12 10 -15 17 -10 11 -27 -7 -23 -10 2 -18 12 -18 23 0
18 -7 20 -70 21 -39 0 -75 -3 -81 -8 -6 -4 -25 -5 -43 -2 -22 5 -31 12 -31 26
0 13 9 20 29 24 46 9 54 54 10 54 -28 0 -15 17 28 38 20 9 35 22 35 27 -1 6
-18 13 -39 17 -96 18 -109 22 -119 36 -10 13 -12 13 -21 -2z m797 -234 c0 -19
-27 -40 -57 -46 -42 -7 -44 12 -5 36 29 18 62 24 62 10z m-520 -17 c0 -16 -27
-32 -37 -22 -3 4 -3 13 0 22 8 20 37 20 37 0z m-150 -2085 c0 -5 -6 -10 -14
-10 -8 0 -18 5 -21 10 -3 6 3 10 14 10 12 0 21 -4 21 -10z m-18 -190 c-2 -22
-8 -40 -13 -40 -5 0 -9 20 -9 45 0 32 4 43 13 39 8 -3 11 -18 9 -44z m58 26
c0 -15 -14 -35 -21 -30 -15 9 -10 34 6 34 8 0 15 -2 15 -4z m66 -77 c8 -6 14
-27 14 -45 0 -27 -6 -36 -30 -49 -16 -8 -34 -15 -39 -15 -16 0 -51 42 -51 61
0 10 5 30 12 45 11 23 17 25 46 20 19 -3 40 -10 48 -17z"/>
<path d="M1170 5140 c0 -5 9 -10 19 -10 11 0 23 5 26 10 4 6 -5 10 -19 10 -14
0 -26 -4 -26 -10z"/>
<path d="M1596 5133 c-4 -9 -3 -20 2 -25 6 -6 12 -1 15 11 6 25 -8 38 -17 14z"/>
<path d="M1917 5143 c-17 -16 -5 -33 23 -33 19 0 30 5 30 14 0 20 -39 34 -53
19z"/>
<path d="M3000 5131 c0 -11 5 -23 10 -26 6 -4 10 -14 9 -23 -3 -29 1 -42 11
-42 6 0 10 25 10 55 0 48 -2 55 -20 55 -13 0 -20 -7 -20 -19z"/>
<path d="M1852 5128 c3 -7 13 -15 22 -16 12 -3 17 1 14 10 -3 7 -13 15 -22 16
-12 3 -17 -1 -14 -10z"/>
<path d="M2040 5130 c0 -5 9 -10 20 -10 11 0 20 5 20 10 0 6 -9 10 -20 10 -11
0 -20 -4 -20 -10z"/>
<path d="M2160 5130 c0 -5 9 -10 20 -10 11 0 20 5 20 10 0 6 -9 10 -20 10 -11
0 -20 -4 -20 -10z"/>
<path d="M2908 5122 c-16 -9 -28 -20 -28 -24 0 -5 -18 -8 -39 -8 -45 0 -58
-12 -36 -30 8 -7 15 -19 15 -26 0 -8 7 -14 15 -14 9 0 12 6 9 15 -5 11 1 15
20 15 15 0 29 7 33 15 3 9 23 25 45 36 38 19 43 39 10 39 -9 0 -29 -8 -44 -18z"/>
<path d="M1437 5123 c-14 -13 -6 -24 15 -21 27 4 36 28 11 28 -11 0 -23 -3
-26 -7z"/>
<path d="M1360 5111 c-27 -5 -36 -11 -38 -30 -3 -20 -1 -23 15 -16 10 4 27 10
38 13 24 6 45 21 45 33 0 10 -6 10 -60 0z"/>
<path d="M1645 5084 c-17 -37 -46 -56 -53 -36 -2 7 -14 12 -27 12 -14 0 -25
-7 -28 -20 -6 -24 -47 -28 -47 -5 0 20 -54 20 -74 -1 -18 -17 -22 -49 -6 -39
6 4 17 2 25 -5 9 -8 86 -10 267 -7 139 3 259 5 266 5 6 1 22 1 35 1 72 -1 233
14 238 22 3 6 10 4 17 -4 8 -9 30 -13 71 -11 33 1 66 6 73 10 14 9 36 10 241
12 90 1 147 6 147 12 0 6 -5 10 -11 10 -6 0 -25 10 -41 22 -26 18 -35 20 -62
11 -18 -7 -88 -10 -166 -8 -111 3 -138 1 -152 -12 -14 -12 -23 -13 -45 -5 -18
7 -112 9 -263 7 -129 -2 -237 -4 -239 -4 -2 -1 2 -8 9 -16 9 -11 22 -14 44
-10 l31 7 -24 -17 c-22 -17 -25 -17 -63 4 -51 27 -72 27 -65 1 4 -17 2 -18
-13 -10 -11 6 -22 15 -25 20 -3 6 -17 7 -30 4 -32 -8 -40 12 -16 42 22 28 27
44 12 44 -5 0 -16 -16 -26 -36z m-188 -70 c-9 -9 -28 6 -21 18 4 6 10 6 17 -1
6 -6 8 -13 4 -17z m127 -17 c-23 -13 -38 3 -17 18 13 10 20 10 25 2 4 -7 1
-15 -8 -20z"/>
<path d="M1250 5101 c0 -5 7 -11 15 -15 24 -9 18 -36 -9 -36 -13 0 -29 -7 -36
-15 -10 -12 -10 -15 1 -15 8 0 27 7 43 15 34 18 39 19 31 5 -8 -13 13 -40 31
-40 22 0 16 22 -16 60 -16 19 -30 38 -30 43 0 4 -7 7 -15 7 -8 0 -15 -4 -15
-9z"/>
<path d="M842 5048 c-14 -14 -16 -38 -3 -38 5 0 11 -9 14 -20 4 -17 9 -19 32
-10 15 6 30 8 35 5 4 -3 10 2 14 10 3 10 -8 24 -32 40 -20 14 -39 25 -42 25
-3 0 -11 -5 -18 -12z"/>
<path d="M977 5037 c-3 -8 -1 -20 4 -28 6 -10 9 -7 9 14 0 29 -5 35 -13 14z"/>
<path d="M572 5013 c5 -25 28 -28 28 -4 0 12 -6 21 -16 21 -9 0 -14 -7 -12
-17z"/>
<path d="M2898 5016 c-34 -12 -36 -26 -4 -26 13 0 27 7 30 16 4 9 5 18 4 19
-2 1 -15 -3 -30 -9z"/>
<path d="M230 5000 c0 -5 6 -10 14 -10 8 0 18 5 21 10 3 6 -3 10 -14 10 -12 0
-21 -4 -21 -10z"/>
<path d="M758 4977 c-4 -34 8 -95 13 -67 6 36 5 100 -1 100 -5 0 -10 -15 -12
-33z"/>
<path d="M1254 4999 c-3 -6 -1 -16 5 -22 8 -8 11 -5 11 11 0 24 -5 28 -16 11z"/>
<path d="M480 4980 c0 -5 5 -10 10 -10 6 0 10 5 10 10 0 6 -4 10 -10 10 -5 0
-10 -4 -10 -10z"/>
<path d="M800 4978 c0 -9 4 -19 9 -22 5 -3 7 -15 4 -25 -6 -23 7 -32 35 -24
23 6 31 33 10 33 -7 0 -22 12 -35 28 -17 20 -22 23 -23 10z"/>
<path d="M3011 4969 c-19 -8 -21 -12 -11 -24 19 -23 40 -18 40 10 0 14 -1 25
-2 24 -2 0 -14 -5 -27 -10z"/>
<path d="M2110 4962 c0 -16 28 -34 47 -30 10 2 18 10 18 18 0 10 -12 16 -32
18 -18 2 -33 -1 -33 -6z"/>
<path d="M2883 4962 c-14 -9 -26 -99 -14 -107 5 -3 7 -14 4 -25 -4 -16 -8 -18
-19 -9 -8 6 -14 8 -15 3 -9 -104 -8 -124 8 -124 14 0 15 -10 9 -76 -4 -49 -2
-82 4 -90 8 -8 8 -14 0 -19 -5 -3 -10 -17 -10 -31 0 -14 -7 -27 -15 -30 -12
-5 -15 -33 -15 -165 0 -152 1 -159 20 -159 14 0 20 -7 20 -24 0 -15 -7 -26
-20 -29 -18 -5 -20 -14 -20 -94 -1 -48 -5 -189 -10 -313 -5 -124 -11 -319 -13
-435 -5 -214 -12 -259 -46 -268 -11 -3 -9 -5 5 -6 24 -1 35 -20 39 -65 2 -16
10 -33 19 -38 9 -5 16 -22 16 -39 0 -27 -2 -28 -20 -17 -11 7 -20 18 -20 25 0
7 -5 13 -11 13 -6 0 -8 -6 -5 -12 3 -7 9 -21 12 -30 4 -10 13 -18 20 -18 12 0
17 -26 14 -77 -1 -5 -10 -7 -20 -5 -16 3 -20 -3 -21 -30 -1 -18 -4 -44 -9 -58
l-7 -25 -11 25 -11 25 0 -28 c-1 -16 5 -30 14 -33 17 -7 21 -44 5 -44 -5 0
-10 7 -10 16 0 8 -4 13 -10 9 -13 -8 -1 -35 16 -35 16 0 16 0 14 -127 -1 -60
3 -93 9 -93 7 0 11 30 12 78 3 282 4 287 19 287 11 0 16 -13 18 -45 4 -85 2
-226 -9 -525 -7 -165 -13 -354 -14 -420 -2 -66 -4 -140 -5 -165 -1 -25 -1 -81
-1 -125 1 -44 -2 -99 -5 -122 -3 -22 -2 -49 3 -58 6 -10 6 -35 1 -63 -5 -26
-11 -92 -14 -146 -2 -55 -9 -105 -15 -112 -6 -7 -10 -44 -9 -81 3 -110 2 -121
-20 -128 -28 -9 -25 -25 5 -25 33 0 45 -28 19 -47 -14 -10 -20 -28 -22 -71 -1
-31 -3 -66 -4 -77 -1 -11 2 -32 6 -47 7 -23 5 -28 -8 -28 -10 0 -27 11 -40 25
-13 14 -28 25 -33 25 -5 0 -20 -11 -33 -25 -22 -23 -29 -25 -94 -21 -39 3
-154 8 -256 11 -102 4 -192 9 -202 11 -9 3 -19 1 -22 -4 -3 -5 -27 -5 -58 0
-29 4 -64 6 -76 3 -13 -3 -29 -2 -35 3 -7 5 -91 13 -187 16 -96 4 -204 9 -240
11 -36 2 -132 7 -215 11 -82 4 -161 7 -175 8 -22 1 -25 5 -22 36 2 29 0 32 -8
17 -13 -21 -40 -23 -40 -2 0 8 -4 15 -10 15 -13 0 -13 -26 1 -51 7 -14 16 -18
30 -14 21 7 24 -2 9 -39 -11 -31 -30 -34 -37 -6 -3 11 -8 20 -11 20 -2 0 -11
-8 -17 -17 -12 -17 -14 -17 -35 2 -27 24 -54 74 -45 83 4 4 17 -5 30 -20 25
-29 49 -36 60 -17 4 6 -1 16 -10 23 -9 6 -16 19 -14 27 2 7 -1 29 -5 47 -5 22
-13 32 -23 30 -9 -2 -21 -12 -27 -23 -13 -23 -32 -45 -40 -45 -2 0 -12 7 -20
16 -14 13 -16 13 -16 1 0 -8 -9 -17 -21 -20 -17 -4 -20 -12 -18 -39 2 -18 0
-39 -4 -45 -7 -10 -90 -12 -284 -4 -13 1 -23 7 -23 16 0 9 -10 15 -22 16 -13
0 -17 3 -10 6 15 6 16 50 1 55 -7 2 -5 16 8 40 15 27 23 34 34 27 10 -6 10 -9
2 -9 -19 0 -16 -14 7 -28 18 -11 21 -9 30 13 7 18 17 25 35 25 14 0 28 0 33 0
4 1 8 -9 10 -20 3 -16 7 -19 17 -10 19 16 29 -4 15 -30 -9 -16 -8 -25 1 -36
16 -20 37 -17 44 6 9 28 25 25 25 -5 0 -16 6 -25 15 -25 24 0 31 31 10 46 -17
13 -17 14 -2 14 16 0 21 15 18 53 -2 11 5 17 18 17 12 0 21 6 21 14 0 21 -21
31 -31 15 -6 -11 -14 -11 -37 -3 -29 11 -30 11 -22 -17 9 -31 5 -39 -22 -39
-13 0 -18 8 -18 28 0 27 -23 69 -44 84 -17 12 -31 -9 -17 -26 7 -8 10 -20 6
-26 -4 -7 -14 -5 -28 5 -28 19 -46 19 -69 -2 -17 -15 -20 -15 -28 -3 -5 8 -7
23 -4 33 3 10 -1 19 -9 23 -19 7 -29 42 -13 47 8 3 7 11 -3 29 -9 17 -11 41
-7 69 3 24 7 54 9 66 1 12 5 25 10 29 4 4 7 17 7 29 0 13 7 28 15 35 8 7 12
17 7 24 -4 6 -8 39 -8 73 -2 49 2 65 16 78 29 26 15 41 -38 40 -35 0 -47 -4
-50 -17 -2 -9 2 -19 7 -23 18 -11 12 -35 -8 -35 -15 0 -21 -8 -23 -33 -2 -18
3 -36 10 -42 16 -13 6 -45 -14 -45 -8 0 -14 10 -14 26 0 14 -5 24 -11 22 -6
-2 -10 -7 -10 -11 1 -4 1 -14 1 -22 0 -9 12 -18 29 -21 17 -4 32 -13 36 -22 3
-9 -3 -28 -15 -44 -22 -30 -26 -53 -10 -63 14 -9 12 -58 -4 -80 -10 -14 -11
-25 -2 -48 8 -23 8 -31 -1 -34 -23 -8 -13 -20 12 -15 24 4 25 2 25 -39 0 -29
-3 -39 -9 -30 -17 26 -35 4 -47 -58 -7 -34 -11 -68 -8 -75 3 -7 -3 -19 -12
-27 -13 -11 -18 -11 -21 -1 -3 6 -12 12 -22 12 -28 0 -95 -37 -110 -61 l-13
-22 66 6 c63 6 66 5 66 -16 0 -17 2 -19 9 -8 10 16 15 16 203 11 97 -3 128 -7
128 -17 0 -18 16 -16 51 4 25 15 35 15 77 5 26 -7 55 -10 64 -7 9 4 25 2 36
-4 12 -6 38 -7 71 -2 37 6 56 5 69 -5 26 -20 39 -17 54 16 7 16 15 30 18 30 3
0 14 -7 24 -15 20 -15 16 -19 -16 -16 -21 3 -22 -3 -7 -31 l11 -20 19 21 c22
24 45 27 52 9 2 -7 8 -10 12 -6 4 4 1 18 -8 32 -13 19 -14 25 -3 29 24 10 39
-9 33 -42 -5 -23 -3 -31 8 -31 8 0 19 9 26 21 8 17 13 18 22 9 9 -10 9 -14 0
-17 -25 -9 -12 -19 18 -15 20 3 29 9 25 18 -7 18 2 18 20 -1 9 -8 23 -15 32
-15 14 1 12 5 -7 21 -18 15 -21 23 -13 31 9 9 18 9 37 0 14 -6 25 -17 25 -24
0 -7 14 -29 30 -48 l29 -35 1 26 c0 15 -7 32 -15 39 -18 15 -18 20 -5 40 9 13
12 12 25 -4 14 -18 16 -18 33 -2 17 15 25 15 66 4 43 -11 46 -14 46 -45 0 -29
-3 -33 -27 -33 -26 0 -26 -1 -11 -17 14 -14 22 -15 43 -5 35 16 55 15 55 -3 0
-8 7 -15 15 -15 8 0 15 3 15 6 0 3 -19 23 -41 44 l-41 38 29 16 c18 9 43 13
64 10 19 -3 48 -6 64 -7 25 -2 31 -7 34 -32 4 -29 4 -30 10 -5 7 23 11 25 66
24 33 -1 200 -4 372 -8 172 -3 332 -11 355 -17 24 -6 54 -13 68 -15 23 -5 24
-4 7 9 -23 19 -9 28 36 22 25 -3 37 0 41 10 3 8 12 12 21 9 20 -8 31 24 16 48
-9 14 -9 23 -1 33 6 7 10 39 9 72 -1 32 2 68 8 78 5 11 8 69 7 128 0 59 3 110
7 113 15 9 10 24 -6 18 -10 -4 -14 -1 -11 7 15 51 15 50 36 37 11 -7 20 -20
20 -29 0 -9 7 -32 15 -51 12 -29 18 -35 38 -31 18 4 29 -2 41 -18 11 -17 19
-20 27 -12 19 19 6 48 -26 53 -24 5 -29 10 -28 28 2 19 -1 21 -30 15 -26 -5
-30 -3 -19 8 6 7 12 23 12 35 0 40 11 54 41 54 25 0 29 -4 29 -29 0 -17 5 -33
11 -36 15 -10 23 1 13 17 -15 23 -30 74 -26 86 2 7 10 12 18 12 8 0 14 6 14
14 0 8 -8 13 -17 12 -12 -1 -19 7 -21 24 -2 14 -7 34 -12 45 -5 11 -11 31 -13
45 -2 14 -2 -6 0 -45 3 -38 6 -74 7 -80 0 -5 -9 -11 -21 -13 -17 -3 -22 3 -26
25 -3 24 -4 23 -6 -8 0 -20 -4 -51 -7 -68 -5 -24 -12 -31 -30 -31 -32 0 -38
16 -14 40 24 24 26 31 5 24 -19 -8 -19 2 0 91 20 94 20 145 -1 145 -9 0 -14 6
-11 13 2 6 14 11 25 9 26 -4 29 10 6 28 -8 8 -20 22 -26 33 -9 18 -8 19 16 13
26 -6 26 -6 12 16 -26 42 -22 217 6 276 9 16 8 28 -2 46 -9 17 -11 42 -6 78 4
29 6 66 6 82 0 16 6 36 15 46 14 15 14 21 -1 56 -12 28 -14 54 -10 99 4 33 7
88 7 122 0 35 4 63 9 63 5 0 21 -5 35 -10 24 -9 26 -14 21 -48 -14 -84 -24
-157 -26 -187 -1 -5 3 -30 9 -55 5 -26 6 -49 0 -56 -5 -6 -5 -15 0 -20 4 -5 6
-28 3 -51 -3 -30 -9 -44 -23 -48 -13 -4 -19 -15 -18 -33 l0 -27 10 24 c7 17
13 21 20 14 12 -12 3 -109 -11 -118 -11 -7 -1 -42 16 -56 18 -15 18 -29 1 -29
-11 0 -12 -11 -5 -57 6 -38 6 -84 -1 -131 -14 -90 -14 -92 0 -92 6 0 9 9 6 20
-3 11 -1 23 4 26 5 3 23 3 39 -1 40 -9 40 -35 0 -35 -28 0 -30 -2 -24 -28 8
-33 14 -41 14 -18 0 13 6 15 25 10 15 -4 25 -2 25 4 0 6 9 14 20 17 16 5 20
15 20 46 0 32 -3 39 -19 39 -11 0 -23 -5 -26 -10 -4 -7 -14 -5 -28 5 -17 12
-21 23 -18 57 4 53 11 65 25 47 6 -8 23 -16 39 -17 21 -1 27 3 27 19 0 16 -4
19 -20 14 -11 -3 -20 -2 -20 3 0 5 -9 12 -20 15 -17 4 -20 14 -21 59 0 29 -1
89 -2 133 0 44 3 103 7 130 4 28 6 82 5 120 -4 180 5 498 16 515 11 19 15 322
3 337 -5 7 -5 14 1 17 12 8 3 36 -11 36 -6 0 -8 -7 -5 -15 4 -8 1 -17 -5 -21
-6 -4 -7 -21 -3 -48 11 -57 15 -279 5 -291 -4 -5 -10 -23 -14 -40 -4 -16 -13
-33 -19 -37 -9 -6 -9 -10 2 -17 8 -5 11 -16 7 -27 -8 -24 -53 -57 -66 -49 -6
4 -10 39 -9 78 1 40 -1 82 -5 95 -4 12 -3 22 1 22 8 0 13 49 14 149 0 24 5 35
20 38 20 6 26 28 9 38 -5 3 -10 13 -10 21 0 10 5 9 20 -6 11 -11 20 -26 21
-32 0 -7 5 -2 10 11 10 26 -3 51 -27 51 -20 0 -34 42 -34 100 0 55 8 83 21 74
18 -11 21 27 5 61 -13 28 -16 51 -11 103 4 37 2 78 -3 92 -6 15 -6 34 -1 48
11 28 18 222 8 222 -3 0 -9 19 -12 43 -4 29 -1 49 10 66 13 21 16 66 17 295 1
245 -1 275 -18 310 -19 40 -19 42 3 195 4 30 4 74 -1 98 -6 28 -6 54 0 72 11
32 9 382 -2 424 -5 17 -4 33 4 42 10 12 10 15 -1 15 -8 0 -19 -4 -26 -8z m-13
-198 c0 -21 -4 -33 -10 -29 -17 10 -11 65 7 65 2 0 3 -16 3 -36z m22 -406 c-9
-9 -15 -9 -24 0 -9 9 -7 12 12 12 19 0 21 -3 12 -12z m-27 -368 c0 -42 -4 -65
-12 -67 -10 -4 -13 14 -13 67 0 53 3 71 13 68 8 -3 12 -26 12 -68z m5 -269 c0
-26 -16 -35 -24 -15 -10 25 -7 34 9 34 8 0 15 -9 15 -19z m50 -22 c0 -5 -4 -9
-10 -9 -5 0 -10 7 -10 16 0 8 5 12 10 9 6 -3 10 -10 10 -16z m-50 -98 c0 -11
-4 -23 -10 -26 -6 -4 -10 -84 -10 -206 0 -118 -4 -198 -9 -195 -11 7 -7 353 4
409 8 39 25 51 25 18z m17 -313 c-3 -7 -5 -2 -5 12 0 14 2 19 5 13 2 -7 2 -19
0 -25z m-32 -236 c-3 -13 -10 -20 -15 -17 -12 7 -13 88 -3 99 11 10 24 -54 18
-82z m-7 -69 c-1 -21 2 -45 6 -54 5 -11 2 -19 -10 -23 -10 -4 -21 -3 -26 2 -5
5 -6 32 -2 61 4 33 11 51 20 51 9 0 13 -12 12 -37z m25 -93 c-3 -12 -8 -19
-11 -16 -5 6 5 36 12 36 2 0 2 -9 -1 -20z m2 -258 c-5 -15 -7 -15 -15 -2 -4 8
-6 29 -2 45 l5 30 10 -28 c5 -15 6 -35 2 -45z m-2465 -2138 c0 -14 -3 -14 -15
-4 -8 7 -15 14 -15 16 0 2 7 4 15 4 8 0 15 -7 15 -16z m-16 -59 c-3 -6 -20
-12 -39 -13 -26 -1 -33 2 -29 13 8 19 57 35 66 22 3 -6 4 -15 2 -22z m456 -22
c0 -24 -7 -28 -28 -15 -8 6 -10 19 -6 40 6 30 8 31 20 15 7 -10 14 -28 14 -40z
m50 3 c0 -8 -4 -18 -10 -21 -5 -3 -10 3 -10 14 0 12 5 21 10 21 6 0 10 -6 10
-14z"/>
<path d="M250 4942 c0 -11 -9 -27 -20 -37 -11 -10 -20 -23 -20 -29 0 -19 38
-46 65 -46 13 0 27 5 30 10 3 6 18 7 33 3 25 -6 26 -5 12 12 -14 17 -13 18 13
11 23 -5 29 -3 37 19 7 18 7 33 -1 47 l-11 20 -22 -21 c-12 -12 -27 -21 -33
-21 -7 0 -23 -14 -36 -31 -14 -18 -29 -29 -36 -25 -15 10 -14 33 3 43 8 4 18
20 21 36 6 23 4 27 -14 27 -14 0 -21 -6 -21 -18z"/>
<path d="M2195 4940 c3 -5 13 -10 21 -10 8 0 14 5 14 10 0 6 -9 10 -21 10 -11
0 -17 -4 -14 -10z"/>
<path d="M916 4925 c-9 -24 -7 -53 3 -59 15 -10 41 5 41 24 0 9 -8 25 -19 34
-17 15 -19 15 -25 1z"/>
<path d="M2427 4923 c-12 -11 -8 -23 7 -23 8 0 16 7 20 15 5 15 -14 21 -27 8z"/>
<path d="M2320 4891 c0 -17 4 -32 9 -35 15 -9 39 4 44 24 6 22 -10 40 -35 40
-13 0 -18 -8 -18 -29z"/>
<path d="M3010 4905 c0 -8 7 -15 15 -15 8 0 15 7 15 15 0 8 -7 15 -15 15 -8 0
-15 -7 -15 -15z"/>
<path d="M2800 4870 c0 -5 7 -10 15 -10 8 0 15 5 15 10 0 6 -7 10 -15 10 -8 0
-15 -4 -15 -10z"/>
<path d="M411 4846 c-18 -14 -28 -27 -22 -30 14 -9 61 23 61 40 0 8 -1 14 -3
14 -2 0 -18 -11 -36 -24z"/>
<path d="M828 4843 c6 -2 18 -2 25 0 6 3 1 5 -13 5 -14 0 -19 -2 -12 -5z"/>
<path d="M3018 4815 c2 -19 8 -35 13 -35 5 0 9 16 9 35 0 22 -5 35 -13 35 -9
0 -12 -11 -9 -35z"/>
<path d="M2320 4825 c0 -9 5 -15 11 -13 6 2 11 8 11 13 0 5 -5 11 -11 13 -6 2
-11 -4 -11 -13z"/>
<path d="M30 4822 c0 -14 11 -21 26 -15 21 8 17 23 -6 23 -11 0 -20 -4 -20 -8z"/>
<path d="M635 4810 c-3 -5 1 -10 10 -10 9 0 13 5 10 10 -3 6 -8 10 -10 10 -2
0 -7 -4 -10 -10z"/>
<path d="M2007 4814 c-3 -4 1 -16 9 -28 8 -13 11 -26 7 -29 -3 -4 -1 -18 6
-31 13 -23 14 -23 32 -5 11 11 19 33 19 53 0 26 -5 35 -22 40 -29 7 -43 7 -51
0z"/>
<path d="M2777 4803 c-3 -5 -3 -28 0 -51 4 -26 11 -42 19 -42 11 0 13 10 8 43
-7 44 -18 65 -27 50z"/>
<path d="M1316 4785 c-3 -8 -12 -15 -20 -15 -17 0 -28 -69 -13 -88 7 -9 15 -6
35 13 18 19 22 28 14 38 -9 10 -6 17 9 30 21 18 18 37 -6 37 -7 0 -15 -7 -19
-15z"/>
<path d="M1832 4791 c2 -7 7 -12 11 -12 12 1 9 15 -3 20 -7 2 -11 -2 -8 -8z"/>
<path d="M2400 4784 c0 -8 5 -12 10 -9 6 4 8 11 5 16 -9 14 -15 11 -15 -7z"/>
<path d="M535 4781 c-3 -6 -5 -21 -4 -34 2 -12 0 -28 -5 -35 -5 -8 -4 -17 0
-22 15 -13 121 -19 133 -7 17 17 13 24 -16 25 -16 0 -42 4 -60 7 -28 6 -30 9
-20 26 9 15 8 22 -5 35 -11 11 -18 12 -23 5z"/>
<path d="M2330 4775 c-7 -8 -21 -15 -30 -15 -28 0 -51 -11 -44 -21 10 -16 48
-9 78 15 15 13 24 26 18 30 -5 3 -15 -1 -22 -9z"/>
<path d="M225 4760 c3 -5 13 -10 21 -10 8 0 14 5 14 10 0 6 -9 10 -21 10 -11
0 -17 -4 -14 -10z"/>
<path d="M1710 4755 c-8 -9 -8 -15 -2 -15 12 0 26 19 19 26 -2 2 -10 -2 -17
-11z"/>
<path d="M3022 4757 c-13 -15 -15 -67 -6 -115 12 -63 24 -42 24 42 0 47 -2 86
-4 86 -2 0 -8 -6 -14 -13z"/>
<path d="M692 4743 c5 -25 28 -28 28 -4 0 12 -6 21 -16 21 -9 0 -14 -7 -12
-17z"/>
<path d="M1600 4746 c0 -2 5 -17 10 -31 8 -22 6 -32 -10 -55 -11 -15 -20 -31
-20 -34 0 -10 44 15 56 32 8 11 13 12 18 4 12 -20 26 -13 26 13 0 18 -5 25
-19 25 -13 0 -21 8 -23 22 -2 13 -11 24 -20 26 -10 2 -18 1 -18 -2z"/>
<path d="M766 4713 c9 -39 19 -47 34 -28 7 8 22 15 34 16 14 0 16 2 6 6 -8 4
-21 12 -28 20 -7 7 -22 13 -33 13 -16 0 -18 -5 -13 -27z"/>
<path d="M894 4726 c-6 -17 2 -36 17 -36 12 0 12 37 -1 45 -6 3 -13 -1 -16 -9z"/>
<path d="M2446 4725 c-9 -24 -8 -25 15 -25 14 0 19 5 17 17 -4 23 -24 27 -32
8z"/>
<path d="M2540 4719 c0 -11 4 -18 10 -14 5 3 7 12 3 20 -7 21 -13 19 -13 -6z"/>
<path d="M1178 4718 c9 -9 15 -9 24 0 9 9 7 12 -12 12 -19 0 -21 -3 -12 -12z"/>
<path d="M15 4710 c-4 -6 5 -10 20 -10 15 0 24 4 20 10 -3 6 -12 10 -20 10 -8
0 -17 -4 -20 -10z"/>
<path d="M1852 4711 c-10 -6 -7 -10 11 -15 29 -7 60 2 51 15 -7 11 -45 11 -62
0z"/>
<path d="M342 4699 c2 -7 10 -15 17 -17 8 -3 12 1 9 9 -2 7 -10 15 -17 17 -8
3 -12 -1 -9 -9z"/>
<path d="M2385 4690 c-7 -12 2 -30 16 -30 5 0 9 9 9 20 0 21 -15 27 -25 10z"/>
<path d="M2720 4685 c0 -8 5 -25 11 -39 8 -18 8 -40 0 -83 -6 -32 -13 -75 -16
-96 -4 -36 -3 -38 21 -35 25 3 27 7 32 68 7 97 5 156 -8 179 -12 24 -40 28
-40 6z"/>
<path d="M408 4683 c-21 -5 -24 -23 -4 -23 7 0 27 7 42 15 29 15 29 15 4 14
-14 -1 -33 -3 -42 -6z"/>
<path d="M2200 4674 c0 -8 5 -12 10 -9 6 4 8 11 5 16 -9 14 -15 11 -15 -7z"/>
<path d="M1810 4670 c0 -15 31 -27 88 -35 45 -6 52 -5 52 10 0 13 -6 16 -26
12 -16 -3 -28 0 -31 9 -6 16 -83 20 -83 4z"/>
<path d="M180 4656 c0 -9 -7 -19 -15 -22 -19 -8 -19 -24 0 -24 15 0 32 46 21
57 -3 4 -6 -1 -6 -11z"/>
<path d="M260 4660 c0 -5 4 -10 9 -10 6 0 13 5 16 10 3 6 -1 10 -9 10 -9 0
-16 -4 -16 -10z"/>
<path d="M2033 4657 c-18 -22 -31 -93 -21 -112 7 -11 7 -25 -1 -41 -7 -17 -7
-32 1 -55 8 -24 8 -33 -2 -39 -8 -5 -9 -13 -3 -26 5 -11 8 -43 5 -72 -3 -44
-6 -51 -18 -41 -18 15 -18 5 0 -29 10 -20 12 -46 6 -102 -4 -41 -4 -82 1 -90
9 -20 9 -194 -1 -229 -9 -32 -3 -51 16 -51 8 0 14 -9 14 -20 0 -11 -4 -20 -10
-20 -13 0 -13 -27 0 -35 6 -3 13 2 17 12 4 10 11 21 17 25 6 4 6 15 -2 32 -11
25 -17 207 -14 411 3 140 5 177 14 191 4 5 5 36 2 69 -4 41 -1 61 8 67 10 7 8
8 -4 4 -11 -3 -18 0 -18 8 0 23 22 76 31 76 5 0 9 5 9 10 0 6 -7 10 -16 10
-12 0 -15 6 -10 24 7 28 -7 42 -21 23z"/>
<path d="M1459 4658 c-5 -22 -4 -87 1 -112 7 -31 7 -31 14 14 4 25 9 57 12 73
4 20 2 27 -10 27 -9 0 -16 -1 -17 -2z"/>
<path d="M1775 4651 c-3 -5 -1 -12 5 -16 5 -3 10 1 10 9 0 18 -6 21 -15 7z"/>
<path d="M1340 4634 c0 -6 8 -14 18 -18 9 -3 23 -9 30 -12 10 -4 13 1 10 17
-2 19 -9 24 -30 24 -16 1 -28 -4 -28 -11z"/>
<path d="M2280 4631 c0 -12 5 -21 10 -21 6 0 10 6 10 14 0 8 -4 18 -10 21 -5
3 -10 -3 -10 -14z"/>
<path d="M2450 4635 c0 -8 5 -15 10 -15 6 0 10 7 10 15 0 8 -4 15 -10 15 -5 0
-10 -7 -10 -15z"/>
<path d="M796 4609 c-26 -31 -35 -69 -16 -69 6 0 10 9 10 20 0 13 10 24 25 30
14 5 25 16 25 24 0 28 -18 26 -44 -5z"/>
<path d="M1260 4613 c-11 -23 -14 -25 -17 -10 -5 21 -23 23 -23 2 0 -9 12 -18
30 -21 17 -4 30 -12 30 -18 0 -6 7 2 15 17 15 30 11 57 -9 57 -7 0 -19 -12
-26 -27z"/>
<path d="M2127 4634 c-4 -4 -7 -17 -7 -28 0 -19 1 -19 17 -3 12 11 14 20 7 27
-6 6 -13 7 -17 4z"/>
<path d="M397 4624 c-13 -13 -7 -24 14 -24 11 0 19 5 17 12 -5 14 -22 21 -31
12z"/>
<path d="M2190 4621 c0 -18 18 -21 30 -6 10 13 9 15 -9 15 -11 0 -21 -4 -21
-9z"/>
<path d="M2490 4605 c0 -14 5 -25 10 -25 6 0 10 11 10 25 0 14 -4 25 -10 25
-5 0 -10 -11 -10 -25z"/>
<path d="M1410 4610 c0 -5 5 -10 10 -10 6 0 10 5 10 10 0 6 -4 10 -10 10 -5 0
-10 -4 -10 -10z"/>
<path d="M310 4590 c0 -13 7 -20 19 -20 11 0 23 -4 26 -10 3 -5 13 -10 21 -10
8 0 14 5 14 10 0 6 -9 10 -20 10 -13 0 -20 7 -20 20 0 13 -7 20 -20 20 -13 0
-20 -7 -20 -20z"/>
<path d="M1784 4593 c-3 -10 -9 -25 -14 -34 -5 -9 -6 -20 -3 -23 10 -9 51 -7
57 3 3 5 3 23 0 40 -7 34 -31 42 -40 14z"/>
<path d="M176 4584 c-9 -22 5 -36 24 -24 13 8 13 11 -1 25 -15 15 -17 15 -23
-1z"/>
<path d="M1612 4576 c-7 -15 -12 -33 -12 -41 0 -10 -10 -15 -30 -15 -26 0 -30
-4 -30 -27 0 -25 1 -25 19 -9 18 17 21 17 45 1 21 -14 26 -14 27 -4 0 8 2 28
3 44 1 17 0 41 -4 54 l-6 23 -12 -26z"/>
<path d="M1952 4580 c-12 -10 -22 -21 -22 -24 0 -3 9 -6 20 -6 20 0 46 35 32
43 -4 3 -17 -3 -30 -13z"/>
<path d="M597 4584 c-4 -4 -7 -18 -7 -31 0 -28 23 -27 28 1 4 20 -11 40 -21
30z"/>
<path d="M2206 4575 c-15 -8 -36 -15 -45 -15 -9 0 -22 -9 -28 -20 -9 -14 -10
-27 -3 -45 6 -15 10 -44 10 -66 0 -21 4 -39 8 -39 5 0 18 14 30 30 13 17 18
30 12 30 -5 0 -10 -4 -10 -10 0 -5 -7 -10 -15 -10 -11 0 -15 11 -15 38 0 43
20 68 59 74 14 2 27 13 32 26 5 12 5 22 1 22 -4 0 -20 -7 -36 -15z"/>
<path d="M2291 4558 c-8 -21 -8 -35 -1 -42 13 -13 20 -5 27 38 7 45 -11 48
-26 4z"/>
<path d="M2402 4565 c0 -16 2 -22 5 -12 2 9 2 23 0 30 -3 6 -5 -1 -5 -18z"/>
<path d="M495 4558 c-9 -33 2 -68 21 -68 22 0 29 28 12 48 -9 9 -18 24 -20 32
-4 10 -8 6 -13 -12z"/>
<path d="M425 4560 c-4 -6 -1 -18 6 -26 9 -11 14 -12 20 -3 8 14 1 39 -11 39
-5 0 -12 -5 -15 -10z"/>
<path d="M3020 4529 c0 -36 -2 -40 -20 -34 -19 6 -27 -5 -13 -18 3 -4 8 -52 9
-107 2 -56 6 -105 9 -110 4 -6 13 -10 21 -10 12 0 14 27 14 160 0 100 -4 160
-10 160 -5 0 -10 -18 -10 -41z"/>
<path d="M1390 4543 c0 -28 15 -44 34 -37 25 10 16 48 -11 52 -17 3 -23 -2
-23 -15z"/>
<path d="M1550 4551 c0 -6 5 -13 10 -16 6 -3 10 1 10 9 0 9 -4 16 -10 16 -5 0
-10 -4 -10 -9z"/>
<path d="M1655 4551 c-3 -5 -1 -12 5 -16 5 -3 10 1 10 9 0 18 -6 21 -15 7z"/>
<path d="M298 4543 c6 -2 18 -2 25 0 6 3 1 5 -13 5 -14 0 -19 -2 -12 -5z"/>
<path d="M821 4536 c-10 -12 -8 -17 7 -25 13 -7 22 -7 30 1 7 7 12 18 12 25 0
17 -35 17 -49 -1z"/>
<path d="M1316 4542 c-3 -6 -2 -20 2 -33 l9 -23 6 25 c7 25 -6 48 -17 31z"/>
<path d="M957 4533 c-8 -7 11 -33 24 -33 5 0 9 9 9 20 0 19 -20 27 -33 13z"/>
<path d="M1876 4533 c-3 -4 -6 -15 -6 -25 0 -13 6 -18 17 -16 22 4 29 34 9 41
-8 3 -17 3 -20 0z"/>
<path d="M1272 4518 c-16 -16 -15 -28 3 -28 8 0 15 9 15 20 0 11 -1 20 -3 20
-2 0 -8 -5 -15 -12z"/>
<path d="M578 4513 c-10 -2 -18 -13 -18 -24 0 -16 3 -18 19 -9 27 14 31 13 31
-11 0 -11 5 -17 10 -14 14 9 12 34 -4 51 -8 8 -16 13 -18 13 -2 -1 -11 -3 -20
-6z"/>
<path d="M1730 4501 c0 -11 5 -23 10 -26 6 -3 10 -2 10 4 0 5 3 16 6 25 4 11
1 16 -10 16 -9 0 -16 -8 -16 -19z"/>
<path d="M1794 4493 c-3 -12 -13 -24 -23 -26 -9 -3 -4 -5 11 -6 32 -1 43 12
29 36 -10 17 -11 16 -17 -4z"/>
<path d="M1487 4494 c-8 -8 1 -24 14 -24 5 0 9 7 9 15 0 15 -12 20 -23 9z"/>
<path d="M2220 4441 c0 -23 5 -41 10 -41 6 0 10 15 10 34 0 19 -4 38 -10 41
-6 4 -10 -10 -10 -34z"/>
<path d="M2256 4471 c-4 -7 -5 -15 -2 -18 9 -9 19 4 14 18 -4 11 -6 11 -12 0z"/>
<path d="M820 4461 c0 -16 28 -20 34 -5 4 9 -1 14 -14 14 -11 0 -20 -4 -20 -9z"/>
<path d="M1450 4456 c0 -8 4 -17 9 -20 10 -7 23 19 14 28 -11 11 -23 6 -23 -8z"/>
<path d="M1893 4453 c9 -9 19 -14 23 -11 10 10 -6 28 -24 28 -15 0 -15 -1 1
-17z"/>
<path d="M1973 4457 c6 -17 -25 -55 -57 -67 -16 -6 -26 -17 -26 -29 0 -11 -4
-22 -9 -26 -5 -3 -9 -48 -7 -101 1 -52 -2 -98 -6 -100 -12 -7 2 -26 15 -21 9
3 12 22 16 132 2 29 2 29 14 8 l12 -22 13 29 c15 34 9 50 -19 50 -22 0 -24 9
-6 42 7 14 19 22 30 20 10 -2 17 3 17 13 0 8 7 18 15 21 17 7 21 64 4 64 -6 0
-9 -6 -6 -13z"/>
<path d="M1200 4450 c0 -5 6 -10 14 -10 8 0 17 -9 21 -19 4 -12 12 -18 21 -14
21 8 17 33 -5 33 -11 0 -23 5 -26 10 -3 6 -10 10 -16 10 -5 0 -9 -4 -9 -10z"/>
<path d="M1556 4443 c-7 -16 3 -43 15 -43 5 0 9 7 9 16 0 13 3 14 13 5 10 -8
18 -7 32 3 10 7 15 18 12 23 -10 15 -75 12 -81 -4z"/>
<path d="M329 4428 c-8 -16 -8 -23 2 -29 16 -10 49 7 49 25 0 8 -9 16 -20 19
-14 3 -24 -1 -31 -15z"/>
<path d="M440 4429 c0 -11 4 -18 10 -14 5 3 7 12 3 20 -7 21 -13 19 -13 -6z"/>
<path d="M916 4441 c-3 -5 -4 -16 0 -24 4 -12 10 -12 30 -3 13 6 24 15 24 19
0 5 -5 5 -10 2 -6 -4 -17 -2 -25 5 -8 7 -15 7 -19 1z"/>
<path d="M1295 4440 c-4 -6 -3 -16 3 -22 6 -6 12 -6 17 2 4 6 3 16 -3 22 -6 6
-12 6 -17 -2z"/>
<path d="M1515 4430 c-3 -5 1 -10 10 -10 9 0 13 5 10 10 -3 6 -8 10 -10 10 -2
0 -7 -4 -10 -10z"/>
<path d="M1755 4430 c-3 -4 9 -10 25 -12 17 -3 30 -1 30 3 0 10 -50 18 -55 9z"/>
<path d="M2295 4428 c-9 -24 -1 -103 10 -103 14 0 19 95 6 108 -7 7 -12 5 -16
-5z"/>
<path d="M1400 4412 c0 -12 -4 -22 -10 -22 -5 0 -13 -13 -17 -30 -6 -23 -11
-27 -23 -20 -12 8 -13 13 -2 30 10 17 10 21 -3 26 -9 4 -19 4 -22 0 -4 -4 -7
-32 -7 -64 -1 -43 -5 -57 -16 -57 -8 0 -16 -8 -18 -17 -6 -30 17 -20 63 28 30
31 49 61 56 90 7 25 9 48 5 51 -3 4 -6 -3 -6 -15z"/>
<path d="M1831 4416 c-6 -7 -8 -27 -5 -43 4 -22 2 -32 -9 -36 -10 -4 -13 -13
-10 -26 12 -47 38 -12 45 62 6 50 -2 66 -21 43z"/>
<path d="M2374 4419 c-3 -6 -1 -16 5 -22 8 -8 11 -5 11 11 0 24 -5 28 -16 11z"/>
<path d="M470 4405 c-14 -16 -5 -35 16 -35 15 0 20 35 5 44 -5 3 -14 -1 -21
-9z"/>
<path d="M0 4389 c0 -11 4 -17 10 -14 13 8 13 35 0 35 -5 0 -10 -9 -10 -21z"/>
<path d="M245 4396 c-17 -12 -17 -13 9 -20 34 -8 51 1 35 20 -14 17 -20 17
-44 0z"/>
<path d="M764 4399 c-8 -14 16 -31 34 -24 8 3 18 5 23 5 5 0 9 8 8 18 0 10 -3
12 -6 5 -6 -15 -33 -17 -33 -3 0 13 -17 13 -26 -1z"/>
<path d="M1483 4382 l-21 -27 -10 25 c-9 23 -9 23 -16 -13 -4 -23 -2 -51 6
-73 9 -26 10 -39 1 -53 -7 -11 -8 -22 -2 -28 11 -11 -11 -63 -27 -63 -6 0 -17
-6 -23 -14 -17 -20 3 -30 28 -14 11 7 23 9 27 5 9 -8 13 -69 6 -81 -2 -4 -4
-81 -4 -170 1 -88 -3 -198 -8 -244 -5 -45 -6 -92 -1 -104 16 -44 31 74 34 262
1 102 1 203 0 225 -1 22 -1 107 0 190 2 131 4 150 19 153 19 4 29 24 19 40 -5
8 -14 3 -28 -16z"/>
<path d="M860 4386 c0 -9 7 -16 16 -16 9 0 14 5 12 12 -6 18 -28 21 -28 4z"/>
<path d="M2779 4398 c0 -2 -2 -33 -3 -70 -2 -38 1 -68 5 -68 5 0 9 32 9 70 0
39 -2 70 -5 70 -3 0 -5 -1 -6 -2z"/>
<path d="M1600 4373 c0 -10 -9 -29 -20 -43 -11 -14 -20 -31 -20 -39 0 -11 3
-11 15 -1 12 10 15 10 15 -3 0 -8 -7 -17 -15 -21 -8 -3 -15 -12 -15 -20 0 -9
7 -12 20 -9 15 4 20 0 20 -15 0 -27 -16 -37 -28 -16 -6 10 -12 13 -16 6 -3 -6
2 -17 12 -24 10 -7 21 -21 25 -32 6 -14 10 -16 21 -7 10 8 16 8 25 -3 6 -8 20
-12 30 -9 15 4 21 -2 26 -26 7 -34 19 -40 29 -15 7 18 -10 54 -25 54 -5 0 -20
11 -33 25 -17 18 -25 22 -34 13 -9 -9 -12 -9 -12 0 0 24 2 27 16 24 13 -3 18
14 15 51 -2 11 5 17 19 17 18 0 19 3 9 21 -8 15 -14 18 -22 10 -6 -6 -17 -11
-24 -11 -10 0 -11 5 -4 19 7 13 7 26 -2 45 -14 30 -27 34 -27 9z"/>
<path d="M2696 4374 c-8 -20 -4 -25 11 -16 7 4 9 13 4 21 -6 10 -10 9 -15 -5z"/>
<path d="M667 4369 c-23 -13 -22 -36 3 -44 23 -7 40 1 40 19 0 22 -23 36 -43
25z"/>
<path d="M1660 4367 c0 -10 7 -17 15 -17 7 0 19 -8 24 -17 10 -17 10 -17 11 0
0 14 5 17 20 12 14 -4 20 -2 20 9 0 24 -22 31 -36 11 -13 -18 -14 -18 -34 0
-18 16 -20 16 -20 2z"/>
<path d="M346 4354 c-8 -22 -8 -24 7 -24 6 0 23 9 37 20 l25 20 -31 0 c-20 0
-34 -6 -38 -16z"/>
<path d="M2110 4361 c0 -5 -8 -8 -17 -7 -15 1 -17 -8 -16 -63 1 -35 4 -65 5
-67 2 -1 12 4 22 12 17 12 18 17 6 39 -11 21 -11 29 1 52 7 16 15 31 17 36 2
4 -1 7 -7 7 -6 0 -11 -4 -11 -9z"/>
<path d="M2510 4355 c0 -8 5 -15 10 -15 6 0 10 7 10 15 0 8 -4 15 -10 15 -5 0
-10 -7 -10 -15z"/>
<path d="M1513 4344 c-7 -18 11 -39 26 -30 17 11 13 46 -4 46 -9 0 -18 -7 -22
-16z"/>
<path d="M608 4320 c-18 -31 -15 -40 13 -40 15 0 17 6 12 33 -3 17 -6 33 -7
34 -1 1 -9 -11 -18 -27z"/>
<path d="M1165 4283 c4 -38 9 -70 11 -72 2 -3 14 6 26 19 17 18 19 26 10 41
-7 10 -12 32 -12 49 0 24 -4 30 -21 30 -20 0 -21 -3 -14 -67z"/>
<path d="M736 4321 c-4 -7 -5 -15 -2 -18 9 -9 19 4 14 18 -4 11 -6 11 -12 0z"/>
<path d="M2136 4305 c-9 -24 -7 -55 3 -55 15 0 33 28 29 46 -4 23 -24 29 -32
9z"/>
<path d="M2190 4274 c-11 -19 -11 -27 -1 -37 9 -9 14 -9 21 3 12 19 13 47 2
54 -5 3 -15 -6 -22 -20z"/>
<path d="M2741 4270 c0 -33 1 -34 11 -12 8 17 8 26 0 34 -9 9 -12 4 -11 -22z"/>
<path d="M690 4280 c19 -13 30 -13 30 0 0 6 -10 10 -22 10 -19 0 -20 -2 -8
-10z"/>
<path d="M430 4250 c-12 -16 -30 -30 -39 -30 -10 0 -24 -7 -31 -15 -7 -8 -19
-15 -26 -15 -16 0 -19 -16 -5 -25 6 -3 33 3 61 14 51 19 52 19 71 0 10 -10 24
-19 29 -19 15 0 12 36 -5 50 -8 7 -15 25 -15 41 0 16 -4 29 -9 29 -5 0 -19
-13 -31 -30z"/>
<path d="M1717 4273 c-13 -12 -7 -33 8 -33 8 0 15 9 15 20 0 20 -11 26 -23 13z"/>
<path d="M1780 4260 c0 -13 7 -20 19 -20 11 0 21 -3 24 -7 2 -5 2 -2 0 5 -1 8
-3 20 -3 28 0 8 -9 14 -20 14 -13 0 -20 -7 -20 -20z"/>
<path d="M2276 4253 c-12 -12 -6 -43 9 -43 8 0 15 9 15 19 0 21 -13 34 -24 24z"/>
<path d="M545 4240 c3 -5 10 -10 16 -10 5 0 9 5 9 10 0 6 -7 10 -16 10 -8 0
-12 -4 -9 -10z"/>
<path d="M627 4229 c-25 -14 -21 -29 8 -29 15 0 25 6 25 14 0 21 -12 26 -33
15z"/>
<path d="M3000 4220 c0 -18 2 -19 20 -8 11 7 20 16 20 20 0 5 -9 8 -20 8 -13
0 -20 -7 -20 -20z"/>
<path d="M697 4224 c-16 -16 -6 -34 19 -34 19 0 25 5 22 17 -3 19 -29 29 -41
17z"/>
<path d="M259 4218 c-4 -25 -6 -88 -1 -88 3 0 13 7 23 16 14 13 15 20 6 45 -6
16 -15 29 -19 29 -4 0 -8 -1 -9 -2z"/>
<path d="M1700 4205 c0 -8 7 -15 15 -15 8 0 15 4 15 9 0 5 -7 11 -15 15 -9 3
-15 0 -15 -9z"/>
<path d="M1926 4212 c-3 -6 -1 -14 5 -17 15 -10 25 3 12 16 -7 7 -13 7 -17 1z"/>
<path d="M845 4200 c3 -5 10 -10 16 -10 5 0 9 5 9 10 0 6 -7 10 -16 10 -8 0
-12 -4 -9 -10z"/>
<path d="M1328 4183 c-13 -34 -22 -40 -33 -23 -3 6 -13 10 -21 10 -12 0 -14
-10 -12 -42 2 -34 7 -43 23 -46 16 -3 17 -1 5 7 -12 8 -12 15 -4 28 6 10 23
19 37 21 30 4 43 33 28 59 -9 16 -12 14 -23 -14z"/>
<path d="M1774 4175 c1 -19 4 -35 9 -35 4 0 7 6 7 13 0 6 3 22 6 35 5 15 2 22
-8 22 -10 0 -14 -11 -14 -35z"/>
<path d="M2170 4192 c0 -10 -5 -23 -11 -29 -13 -13 -4 -33 16 -33 16 0 30 42
21 65 -8 21 -26 19 -26 -3z"/>
<path d="M1160 4172 c0 -33 16 -43 27 -16 3 8 -2 23 -11 32 -15 15 -16 14 -16
-16z"/>
<path d="M2924 4175 c-9 -14 -13 -32 -10 -41 6 -15 8 -15 26 1 21 19 28 65 10
65 -5 0 -17 -11 -26 -25z"/>
<path d="M30 4180 c0 -5 7 -7 15 -4 8 4 15 8 15 10 0 2 -7 4 -15 4 -8 0 -15
-4 -15 -10z"/>
<path d="M130 4181 c0 -6 5 -13 10 -16 6 -3 10 1 10 9 0 9 -4 16 -10 16 -5 0
-10 -4 -10 -9z"/>
<path d="M2078 4155 c-5 -42 4 -60 26 -52 18 7 22 37 5 37 -7 0 -9 10 -5 25 5
18 2 25 -8 25 -8 0 -15 -14 -18 -35z"/>
<path d="M2783 4125 c0 -38 2 -53 4 -32 2 20 2 52 0 70 -2 17 -4 1 -4 -38z"/>
<path d="M3020 4175 c0 -8 5 -15 10 -15 6 0 10 7 10 15 0 8 -4 15 -10 15 -5 0
-10 -7 -10 -15z"/>
<path d="M1924 4166 c-7 -19 3 -36 22 -36 10 0 14 8 12 22 -4 26 -26 36 -34
14z"/>
<path d="M2240 4144 c0 -22 2 -25 15 -14 8 7 15 19 15 26 0 8 -7 14 -15 14
-10 0 -15 -10 -15 -26z"/>
<path d="M543 4139 c-9 -9 -6 -17 14 -32 22 -17 28 -18 46 -8 17 11 22 10 29
-4 8 -13 13 -14 24 -4 20 16 17 29 -5 29 -11 0 -21 4 -23 9 -5 14 -73 22 -85
10z"/>
<path d="M1556 4143 c-12 -12 -6 -33 9 -33 8 0 15 6 15 14 0 17 -14 28 -24 19z"/>
<path d="M745 4130 c-3 -5 3 -10 15 -10 12 0 18 5 15 10 -3 6 -10 10 -15 10
-5 0 -12 -4 -15 -10z"/>
<path d="M3020 4110 c0 -11 5 -20 10 -20 6 0 10 9 10 20 0 11 -4 20 -10 20 -5
0 -10 -9 -10 -20z"/>
<path d="M1595 4090 c-4 -13 -12 -19 -21 -16 -8 3 -14 1 -14 -4 0 -16 36 -12
50 5 9 11 10 19 3 26 -8 8 -13 5 -18 -11z"/>
<path d="M480 4090 c0 -5 5 -10 10 -10 6 0 10 5 10 10 0 6 -4 10 -10 10 -5 0
-10 -4 -10 -10z"/>
<path d="M1313 4083 c-4 -10 -10 -21 -15 -24 -5 -3 -11 -36 -15 -74 -5 -56 -4
-67 8 -63 8 3 13 17 12 33 -3 36 14 57 38 50 13 -4 19 -1 19 9 0 21 18 30 34
17 11 -9 15 -6 18 12 2 12 3 28 0 35 -6 19 -22 14 -22 -8 0 -11 -6 -20 -14
-20 -8 0 -16 -5 -18 -12 -3 -7 -10 -8 -17 -4 -7 5 -10 18 -7 31 7 28 -11 44
-21 18z"/>
<path d="M1925 4090 c-3 -5 1 -10 9 -10 9 0 16 5 16 10 0 6 -4 10 -9 10 -6 0
-13 -4 -16 -10z"/>
<path d="M315 4080 c-10 -17 12 -37 25 -24 8 8 6 15 -4 23 -10 9 -16 9 -21 1z"/>
<path d="M740 4060 c12 -9 20 -22 17 -27 -8 -13 30 -49 40 -39 5 4 0 12 -10
17 -9 6 -17 20 -17 33 0 18 -7 25 -27 29 l-27 5 24 -18z"/>
<path d="M1800 4070 c0 -5 4 -10 9 -10 6 0 13 5 16 10 3 6 -1 10 -9 10 -9 0
-16 -4 -16 -10z"/>
<path d="M2080 4060 c0 -11 5 -20 10 -20 6 0 10 9 10 20 0 11 -4 20 -10 20 -5
0 -10 -9 -10 -20z"/>
<path d="M2940 4070 c0 -15 21 -23 32 -12 6 6 2 11 -11 15 -12 3 -21 1 -21 -3z"/>
<path d="M3000 4038 l0 -32 23 22 c19 19 20 24 7 32 -25 16 -30 12 -30 -22z"/>
<path d="M471 4051 c-7 -5 -11 -15 -9 -23 2 -13 6 -12 21 2 19 19 10 34 -12
21z"/>
<path d="M540 4044 c0 -8 5 -12 10 -9 6 4 8 11 5 16 -9 14 -15 11 -15 -7z"/>
<path d="M690 4041 c0 -20 13 -35 23 -25 7 8 -4 44 -14 44 -5 0 -9 -9 -9 -19z"/>
<path d="M875 4049 c-4 -6 -5 -13 -2 -16 8 -7 47 7 47 18 0 13 -37 11 -45 -2z"/>
<path d="M1734 4046 c-4 -10 -2 -22 4 -28 8 -8 13 -7 18 6 4 10 2 22 -4 28 -8
8 -13 7 -18 -6z"/>
<path d="M1920 4050 c0 -5 5 -10 10 -10 6 0 10 5 10 10 0 6 -4 10 -10 10 -5 0
-10 -4 -10 -10z"/>
<path d="M190 4040 c0 -5 9 -10 20 -10 11 0 20 5 20 10 0 6 -9 10 -20 10 -11
0 -20 -4 -20 -10z"/>
<path d="M572 4000 c-8 -16 -12 -36 -9 -42 3 -8 8 -6 13 7 4 11 16 26 26 33
23 17 23 32 0 32 -9 0 -23 -13 -30 -30z"/>
<path d="M1590 4021 c0 -19 12 -41 20 -36 10 6 1 45 -11 45 -5 0 -9 -4 -9 -9z"/>
<path d="M2252 4021 c2 -7 7 -12 11 -12 12 1 9 15 -3 20 -7 2 -11 -2 -8 -8z"/>
<path d="M492 4008 c-15 -15 -16 -38 -2 -38 6 0 10 -8 10 -18 0 -19 18 -42 32
-42 15 0 8 48 -8 54 -11 4 -14 13 -10 31 7 27 -3 32 -22 13z"/>
<path d="M1928 3998 c-21 -26 -23 -38 -5 -38 20 1 47 26 47 44 0 23 -22 20
-42 -6z"/>
<path d="M1531 3986 c-14 -17 -9 -46 8 -46 16 0 22 17 13 40 -7 19 -9 20 -21
6z"/>
<path d="M1820 3990 c0 -5 9 -10 21 -10 11 0 17 5 14 10 -3 6 -13 10 -21 10
-8 0 -14 -4 -14 -10z"/>
<path d="M1356 3975 c-3 -8 -1 -15 4 -15 13 0 22 18 11 24 -5 3 -11 -1 -15 -9z"/>
<path d="M1715 3980 c-9 -15 -1 -23 21 -18 15 3 16 4 1 16 -11 9 -17 10 -22 2z"/>
<path d="M296 3973 c-12 -12 -6 -43 9 -43 8 0 15 9 15 19 0 21 -13 34 -24 24z"/>
<path d="M694 3948 c0 -13 -2 -29 -5 -37 -2 -9 4 -17 15 -19 16 -3 18 0 12 23
-4 16 -2 33 5 41 9 11 8 14 -7 14 -13 0 -19 -7 -20 -22z"/>
<path d="M2190 3950 c0 -22 1 -23 24 -14 23 9 20 34 -4 34 -13 0 -20 -7 -20
-20z"/>
<path d="M2080 3931 c0 -33 10 -44 29 -32 9 6 10 11 2 15 -6 4 -11 16 -11 27
0 10 -4 19 -10 19 -5 0 -10 -13 -10 -29z"/>
<path d="M780 3936 c0 -9 5 -16 10 -16 6 0 10 4 10 9 0 6 -4 13 -10 16 -5 3
-10 -1 -10 -9z"/>
<path d="M1811 3937 c-14 -17 -4 -27 26 -27 26 0 32 25 7 34 -21 8 -20 8 -33
-7z"/>
<path d="M1241 3918 c-1 -29 37 -93 69 -115 11 -8 20 -18 20 -23 0 -5 -7 -16
-16 -25 -9 -9 -14 -18 -11 -21 6 -7 47 32 47 44 0 5 -13 21 -30 37 -16 16 -30
34 -30 41 0 7 -9 21 -19 31 -10 10 -21 27 -24 38 -4 15 -5 14 -6 -7z"/>
<path d="M556 3921 c-4 -7 -5 -15 -2 -18 9 -9 19 4 14 18 -4 11 -6 11 -12 0z"/>
<path d="M850 3916 c19 -19 70 -32 70 -18 0 5 -14 15 -31 21 -43 15 -56 14
-39 -3z"/>
<path d="M1587 3923 c-13 -12 -7 -23 13 -23 13 0 18 5 14 15 -7 16 -17 19 -27
8z"/>
<path d="M1661 3913 c-1 -12 4 -25 10 -28 14 -9 27 4 13 13 -6 4 -14 14 -17
22 -4 10 -6 8 -6 -7z"/>
<path d="M947 3896 c-21 -32 -22 -56 -2 -56 21 0 40 43 28 65 -9 15 -12 14
-26 -9z"/>
<path d="M1356 3898 c16 -54 54 -67 54 -18 0 21 -4 28 -14 24 -8 -3 -17 -1
-21 5 -12 20 -26 11 -19 -11z"/>
<path d="M1731 3911 c-10 -7 -10 -10 -1 -16 6 -4 16 -3 22 3 13 13 -4 23 -21
13z"/>
<path d="M2180 3910 c0 -5 7 -10 16 -10 8 0 12 5 9 10 -3 6 -10 10 -16 10 -5
0 -9 -4 -9 -10z"/>
<path d="M40 3875 c0 -8 5 -15 10 -15 6 0 10 7 10 15 0 8 -4 15 -10 15 -5 0
-10 -7 -10 -15z"/>
<path d="M2763 3845 c0 -27 2 -38 4 -22 2 15 2 37 0 50 -2 12 -4 0 -4 -28z"/>
<path d="M335 3811 c-9 -32 -16 -63 -14 -69 2 -6 19 2 38 17 35 29 35 29 17
55 -14 22 -15 30 -5 42 9 11 8 14 -3 14 -9 0 -21 -22 -33 -59z"/>
<path d="M460 3856 c0 -11 9 -16 26 -16 31 0 28 23 -4 28 -15 2 -22 -2 -22
-12z"/>
<path d="M1710 3855 c0 -8 5 -15 10 -15 6 0 10 7 10 15 0 8 -4 15 -10 15 -5 0
-10 -7 -10 -15z"/>
<path d="M2180 3860 c0 -13 11 -13 30 0 12 8 11 10 -7 10 -13 0 -23 -4 -23
-10z"/>
<path d="M680 3820 c0 -24 3 -28 18 -23 50 18 58 53 12 53 -27 0 -30 -3 -30
-30z"/>
<path d="M3002 3830 c0 -14 2 -19 5 -12 2 6 2 18 0 25 -3 6 -5 1 -5 -13z"/>
<path d="M1760 3830 c0 -5 7 -10 15 -10 8 0 15 5 15 10 0 6 -7 10 -15 10 -8 0
-15 -4 -15 -10z"/>
<path d="M1665 3821 c-6 -11 9 -23 19 -14 9 9 7 23 -3 23 -6 0 -12 -4 -16 -9z"/>
<path d="M2222 3809 c-16 -26 -10 -34 15 -20 10 5 26 12 36 15 27 8 20 26 -11
26 -17 0 -32 -8 -40 -21z"/>
<path d="M137 3813 c-11 -10 -8 -26 8 -47 7 -10 18 -15 24 -11 8 4 6 16 -4 36
-9 16 -17 29 -19 29 -1 0 -6 -3 -9 -7z"/>
<path d="M1360 3810 c0 -5 5 -10 10 -10 6 0 10 5 10 10 0 6 -4 10 -10 10 -5 0
-10 -4 -10 -10z"/>
<path d="M457 3763 c-5 -49 0 -76 13 -68 12 7 22 73 15 95 -11 34 -22 22 -28
-27z"/>
<path d="M996 3794 c-8 -21 -1 -28 19 -20 9 3 15 11 13 18 -7 19 -25 20 -32 2z"/>
<path d="M920 3780 c0 -5 5 -10 10 -10 6 0 10 5 10 10 0 6 -4 10 -10 10 -5 0
-10 -4 -10 -10z"/>
<path d="M1517 3784 c-9 -9 4 -34 18 -34 7 0 15 -4 17 -10 2 -6 8 -6 18 1 13
8 12 12 -9 29 -24 21 -34 24 -44 14z"/>
<path d="M213 3773 c-7 -2 -9 -11 -6 -19 6 -16 29 -19 37 -5 8 12 -16 30 -31
24z"/>
<path d="M1600 3765 c-6 -8 -9 -23 -5 -34 3 -11 1 -30 -5 -42 -10 -17 -9 -24
3 -37 14 -14 16 -13 21 9 3 13 8 45 11 72 6 48 -2 59 -25 32z"/>
<path d="M1840 3730 c0 -42 -18 -55 -27 -20 -7 25 -23 26 -24 3 0 -13 -3 -11
-11 7 l-11 25 -8 -35 c-4 -19 -6 -36 -5 -37 1 -2 24 -6 49 -9 l47 -7 0 41 c0
22 5 42 12 44 6 2 8 10 4 16 -14 24 -26 11 -26 -28z"/>
<path d="M2980 3760 c0 -5 5 -10 10 -10 6 0 10 5 10 10 0 6 -4 10 -10 10 -5 0
-10 -4 -10 -10z"/>
<path d="M810 3740 c0 -11 5 -20 10 -20 6 0 10 9 10 20 0 11 -4 20 -10 20 -5
0 -10 -9 -10 -20z"/>
<path d="M1905 3750 c-3 -5 1 -10 9 -10 9 0 16 5 16 10 0 6 -4 10 -9 10 -6 0
-13 -4 -16 -10z"/>
<path d="M1665 3740 c3 -5 10 -10 16 -10 5 0 9 5 9 10 0 6 -7 10 -16 10 -8 0
-12 -4 -9 -10z"/>
<path d="M150 3730 c0 -5 7 -10 15 -10 8 0 15 5 15 10 0 6 -7 10 -15 10 -8 0
-15 -4 -15 -10z"/>
<path d="M2990 3725 c0 -8 5 -15 10 -15 6 0 10 7 10 15 0 8 -4 15 -10 15 -5 0
-10 -7 -10 -15z"/>
<path d="M500 3720 c0 -5 5 -10 10 -10 6 0 10 5 10 10 0 6 -4 10 -10 10 -5 0
-10 -4 -10 -10z"/>
<path d="M575 3720 c3 -5 13 -10 21 -10 8 0 14 5 14 10 0 6 -9 10 -21 10 -11
0 -17 -4 -14 -10z"/>
<path d="M2206 3708 c7 -26 12 -33 18 -27 2 2 7 14 10 27 6 18 4 22 -14 22
-18 0 -20 -4 -14 -22z"/>
<path d="M1935 3690 c-4 -12 -5 -24 -2 -27 3 -2 8 5 12 17 4 12 5 24 2 27 -3
2 -8 -5 -12 -17z"/>
<path d="M792 3673 c2 -10 11 -19 21 -21 12 -2 17 3 17 17 0 15 -6 21 -21 21
-14 0 -19 -5 -17 -17z"/>
<path d="M278 3663 c6 -2 18 -2 25 0 6 3 1 5 -13 5 -14 0 -19 -2 -12 -5z"/>
<path d="M1267 3663 c-12 -11 -8 -23 8 -23 9 0 18 -7 21 -15 8 -20 20 -19 28
2 10 26 -38 56 -57 36z"/>
<path d="M480 3645 c0 -9 5 -15 11 -13 6 2 11 8 11 13 0 5 -5 11 -11 13 -6 2
-11 -4 -11 -13z"/>
<path d="M577 3654 c-13 -13 -7 -24 14 -24 11 0 19 5 17 12 -5 14 -22 21 -31
12z"/>
<path d="M2056 3643 c-8 -19 7 -38 22 -29 5 3 12 15 15 26 4 15 0 20 -13 20
-10 0 -21 -8 -24 -17z"/>
<path d="M225 3640 c3 -5 13 -10 21 -10 8 0 14 5 14 10 0 6 -9 10 -21 10 -11
0 -17 -4 -14 -10z"/>
<path d="M317 3629 c-3 -13 -11 -17 -21 -13 -9 3 -16 2 -16 -4 0 -6 26 -10 60
-9 42 0 60 4 60 13 0 17 -19 28 -52 30 -18 1 -28 -4 -31 -17z"/>
<path d="M880 3635 c-10 -12 -10 -19 -2 -27 8 -8 15 -8 26 1 8 7 12 19 9 27
-7 18 -17 18 -33 -1z"/>
<path d="M1740 3615 c-8 -15 -22 -31 -32 -36 -18 -9 -24 -39 -12 -52 13 -13
42 13 48 44 4 19 13 33 26 36 23 6 22 26 -1 31 -9 1 -22 -9 -29 -23z"/>
<path d="M2011 3628 c0 -7 4 -22 8 -32 7 -19 8 -18 14 4 3 13 4 27 1 32 -8 12
-24 10 -23 -4z"/>
<path d="M2954 3618 c3 -13 6 -27 6 -31 0 -5 5 -5 10 -2 6 3 10 17 10 31 0 15
-6 24 -16 24 -12 0 -15 -6 -10 -22z"/>
<path d="M150 3610 c0 -6 7 -10 15 -10 8 0 15 2 15 4 0 2 -7 6 -15 10 -8 3
-15 1 -15 -4z"/>
<path d="M611 3606 c-8 -9 -7 -20 2 -39 6 -15 15 -27 19 -27 9 0 28 34 28 49
0 6 -9 15 -19 20 -14 8 -22 7 -30 -3z"/>
<path d="M794 3599 c-3 -6 0 -15 7 -20 22 -14 29 -11 29 11 0 21 -24 27 -36 9z"/>
<path d="M1500 3590 c0 -5 5 -10 10 -10 6 0 10 5 10 10 0 6 -4 10 -10 10 -5 0
-10 -4 -10 -10z"/>
<path d="M1820 3591 c0 -7 6 -18 13 -25 10 -11 15 -11 25 0 7 7 12 18 12 25 0
8 -4 9 -13 0 -10 -8 -17 -7 -25 1 -9 9 -12 9 -12 -1z"/>
<path d="M1351 3573 c0 -10 4 -27 8 -38 7 -16 9 -13 13 18 3 26 0 37 -9 37 -7
0 -13 -8 -12 -17z"/>
<path d="M300 3560 c0 -5 7 -10 15 -10 8 0 15 5 15 10 0 6 -7 10 -15 10 -8 0
-15 -4 -15 -10z"/>
<path d="M450 3555 c-10 -12 -10 -18 0 -30 16 -19 30 -10 30 21 0 27 -12 31
-30 9z"/>
<path d="M490 3560 c0 -5 5 -10 10 -10 6 0 10 5 10 10 0 6 -4 10 -10 10 -5 0
-10 -4 -10 -10z"/>
<path d="M1914 3554 c3 -9 6 -21 6 -27 0 -8 3 -8 11 0 13 13 5 43 -12 43 -6 0
-8 -7 -5 -16z"/>
<path d="M1968 3558 c9 -9 15 -9 24 0 9 9 7 12 -12 12 -19 0 -21 -3 -12 -12z"/>
<path d="M1492 3538 c-13 -13 4 -54 24 -62 18 -7 23 4 17 36 -6 30 -25 42 -41
26z"/>
<path d="M2027 3543 c-13 -12 -7 -32 7 -27 19 7 29 34 12 34 -7 0 -16 -3 -19
-7z"/>
<path d="M893 3525 c-3 -9 -3 -18 0 -21 9 -9 27 6 27 22 0 19 -19 18 -27 -1z"/>
<path d="M695 3520 c-5 -8 -10 -34 -11 -57 -1 -37 1 -43 18 -43 17 0 18 3 8
15 -10 12 -10 18 0 30 8 10 9 23 3 42 -7 21 -11 24 -18 13z"/>
<path d="M1604 3516 c-18 -14 -18 -15 -1 -22 22 -8 46 11 31 26 -7 7 -17 5
-30 -4z"/>
<path d="M2680 3475 c0 -30 5 -55 10 -55 6 0 10 25 10 55 0 30 -4 55 -10 55
-5 0 -10 -25 -10 -55z"/>
<path d="M310 3491 c0 -17 5 -31 10 -31 6 0 10 11 10 24 0 14 -4 28 -10 31 -6
4 -10 -7 -10 -24z"/>
<path d="M1220 3485 c0 -21 28 -31 43 -16 9 9 8 14 -3 21 -22 14 -40 12 -40
-5z"/>
<path d="M1437 3471 c-4 -18 -13 -31 -22 -31 -8 0 -15 -5 -15 -11 0 -6 12 -9
28 -7 19 2 28 9 30 25 2 12 -1 30 -6 39 -7 13 -10 11 -15 -15z"/>
<path d="M2917 3494 c-11 -11 -8 -44 3 -44 15 0 24 30 13 41 -5 5 -12 6 -16 3z"/>
<path d="M1672 3467 c-12 -13 -22 -32 -22 -43 1 -18 1 -18 15 1 8 11 19 26 25
33 21 24 5 33 -18 9z"/>
<path d="M775 3459 c-4 -12 -2 -26 4 -32 8 -8 11 -2 11 21 0 18 -2 32 -4 32
-3 0 -8 -9 -11 -21z"/>
<path d="M1900 3471 c0 -5 7 -14 15 -21 13 -10 15 -9 15 9 0 12 -6 21 -15 21
-8 0 -15 -4 -15 -9z"/>
<path d="M434 3449 c-3 -6 -1 -16 5 -22 8 -8 11 -5 11 11 0 24 -5 28 -16 11z"/>
<path d="M22 3433 c2 -10 10 -18 18 -18 22 0 18 29 -3 33 -14 3 -18 -1 -15
-15z"/>
<path d="M1820 3440 c0 -5 5 -10 10 -10 6 0 10 5 10 10 0 6 -4 10 -10 10 -5 0
-10 -4 -10 -10z"/>
<path d="M1980 3424 c0 -8 5 -12 10 -9 6 4 8 11 5 16 -9 14 -15 11 -15 -7z"/>
<path d="M2972 3420 c-8 -13 -8 -21 -1 -26 6 -3 10 -34 9 -67 -2 -80 -1 -85 9
-68 8 12 6 169 -2 177 -1 2 -8 -5 -15 -16z"/>
<path d="M1723 3416 c-22 -10 -31 -26 -15 -26 10 1 46 29 41 33 -2 2 -14 -2
-26 -7z"/>
<path d="M1510 3400 c0 -5 5 -10 10 -10 6 0 10 5 10 10 0 6 -4 10 -10 10 -5 0
-10 -4 -10 -10z"/>
<path d="M1760 3400 c0 -5 5 -10 10 -10 6 0 10 5 10 10 0 6 -4 10 -10 10 -5 0
-10 -4 -10 -10z"/>
<path d="M624 3378 c3 -7 9 -21 12 -30 8 -22 21 -23 41 -2 18 18 10 29 -30 38
-22 5 -27 4 -23 -6z"/>
<path d="M1418 3380 c12 -5 22 -14 22 -20 0 -5 5 -10 10 -10 6 0 10 9 10 20 0
16 -6 20 -32 19 -30 0 -31 -1 -10 -9z"/>
<path d="M1313 3373 c-20 -7 -15 -23 6 -23 11 0 23 -9 26 -21 7 -21 26 -22 33
-1 2 7 -8 16 -21 21 -14 5 -26 14 -28 19 -2 5 -10 7 -16 5z"/>
<path d="M517 3363 c-13 -12 -7 -23 13 -23 11 0 20 7 20 15 0 15 -21 21 -33 8z"/>
<path d="M446 3333 c-12 -12 -5 -23 14 -23 11 0 20 4 20 9 0 11 -26 22 -34 14z"/>
<path d="M1437 3333 c-3 -5 -2 -15 2 -22 7 -10 10 -10 16 -1 4 6 3 16 -3 22
-5 5 -12 6 -15 1z"/>
<path d="M952 3313 c-7 -12 -12 -30 -12 -40 0 -13 5 -9 15 11 9 16 14 34 12
40 -2 6 -9 1 -15 -11z"/>
<path d="M342 3289 c-11 -17 -16 -18 -28 -8 -11 9 -21 9 -39 1 -14 -7 -25 -16
-25 -21 0 -15 18 -23 25 -11 9 15 48 12 74 -6 16 -11 26 -13 33 -6 6 6 7 18 3
29 -5 10 -7 24 -6 31 3 20 -23 14 -37 -9z"/>
<path d="M1276 3279 c-26 -30 -27 -35 -25 -148 1 -64 6 -124 11 -134 7 -13 18
-17 41 -15 30 3 32 6 35 45 2 30 7 40 16 37 10 -4 16 9 21 41 5 35 10 45 21
41 18 -7 18 18 0 47 -8 12 -14 34 -14 49 0 15 -6 34 -15 42 -9 9 -17 16 -20
16 -2 0 -2 -35 1 -78 3 -63 1 -80 -12 -91 -19 -16 -21 -38 -3 -44 8 -3 6 -7
-6 -12 -10 -4 -20 -5 -22 -3 -3 2 -6 50 -9 106 -3 82 -1 102 10 102 16 0 19
16 5 24 -5 4 -21 -8 -35 -25z m24 -244 c0 -8 -7 -15 -15 -15 -16 0 -20 12 -8
23 11 12 23 8 23 -8z"/>
<path d="M1390 3290 c0 -5 7 -10 16 -10 8 0 12 5 9 10 -3 6 -10 10 -16 10 -5
0 -9 -4 -9 -10z"/>
<path d="M510 3276 c0 -10 9 -16 21 -16 24 0 21 23 -4 28 -10 2 -17 -3 -17
-12z"/>
<path d="M610 3270 c0 -5 7 -10 15 -10 8 0 15 5 15 10 0 6 -7 10 -15 10 -8 0
-15 -4 -15 -10z"/>
<path d="M2690 3270 c0 -5 5 -10 10 -10 6 0 10 5 10 10 0 6 -4 10 -10 10 -5 0
-10 -4 -10 -10z"/>
<path d="M415 3260 c3 -5 10 -10 16 -10 5 0 9 5 9 10 0 6 -7 10 -16 10 -8 0
-12 -4 -9 -10z"/>
<path d="M780 3241 c0 -19 20 -22 42 -7 22 16 22 16 -10 16 -17 0 -32 -4 -32
-9z"/>
<path d="M1698 3243 c6 -2 18 -2 25 0 6 3 1 5 -13 5 -14 0 -19 -2 -12 -5z"/>
<path d="M2964 3226 c-14 -11 -16 -17 -6 -28 6 -8 11 -34 11 -59 -1 -84 9
-219 16 -222 4 -1 8 38 10 86 2 70 0 89 -11 94 -9 3 -11 10 -6 17 13 15 23
114 13 120 -4 3 -16 -1 -27 -8z"/>
<path d="M72 3138 c2 -15 10 -23 23 -23 13 0 21 8 23 23 3 18 -1 22 -23 22
-22 0 -26 -4 -23 -22z"/>
<path d="M715 3149 c-8 -12 14 -31 30 -26 6 2 10 10 10 18 0 17 -31 24 -40 8z"/>
<path d="M910 3150 c0 -5 9 -10 21 -10 11 0 17 5 14 10 -3 6 -13 10 -21 10 -8
0 -14 -4 -14 -10z"/>
<path d="M197 3143 c-4 -3 -7 -17 -7 -30 0 -16 6 -23 20 -23 13 0 20 7 20 19
0 21 -23 45 -33 34z"/>
<path d="M2744 3121 c0 -21 7 -36 16 -38 10 -3 11 -2 3 4 -6 4 -13 22 -16 38
-4 27 -5 27 -3 -4z"/>
<path d="M530 3100 c-6 -11 -9 -20 -6 -20 3 0 17 5 31 12 18 8 22 14 13 20
-20 12 -26 10 -38 -12z"/>
<path d="M835 3110 c-3 -5 3 -10 15 -10 12 0 18 5 15 10 -3 6 -10 10 -15 10
-5 0 -12 -4 -15 -10z"/>
<path d="M267 3093 c-11 -10 -8 -41 4 -49 13 -8 29 13 29 39 0 17 -20 23 -33
10z"/>
<path d="M1890 3080 c0 -5 5 -10 10 -10 6 0 10 5 10 10 0 6 -4 10 -10 10 -5 0
-10 -4 -10 -10z"/>
<path d="M766 3071 c-9 -14 4 -41 19 -41 17 0 38 27 30 40 -8 12 -42 13 -49 1z"/>
<path d="M434 3045 c-8 -20 4 -35 27 -35 14 0 19 7 19 25 0 18 -5 25 -20 25
-11 0 -23 -7 -26 -15z"/>
<path d="M637 3033 c-16 -15 -5 -23 32 -23 22 0 42 4 45 9 10 15 -63 29 -77
14z"/>
<path d="M890 3025 c-7 -9 -10 -18 -6 -22 8 -9 56 14 56 27 0 15 -36 12 -50
-5z"/>
<path d="M200 3005 c0 -9 5 -15 11 -13 6 2 11 8 11 13 0 5 -5 11 -11 13 -6 2
-11 -4 -11 -13z"/>
<path d="M800 2996 c0 -9 5 -16 10 -16 6 0 10 4 10 9 0 6 -4 13 -10 16 -5 3
-10 -1 -10 -9z"/>
<path d="M997 3004 c-3 -3 -3 -12 0 -20 3 -8 -1 -14 -11 -14 -18 0 -20 -8 -6
-30 7 -11 11 -9 19 13 6 15 15 27 21 27 5 0 10 7 10 15 0 15 -21 21 -33 9z"/>
<path d="M130 2990 c0 -21 33 -60 51 -60 37 0 31 32 -8 44 -13 4 -23 12 -23
17 0 5 -4 9 -10 9 -5 0 -10 -5 -10 -10z"/>
<path d="M286 2973 c-15 -21 -16 -27 -5 -34 9 -5 19 -3 28 6 10 10 12 20 5 34
-9 19 -10 19 -28 -6z"/>
<path d="M435 2990 c-4 -6 3 -10 14 -10 25 0 27 6 6 13 -8 4 -17 2 -20 -3z"/>
<path d="M1400 2970 c0 -16 4 -30 8 -30 5 0 7 14 4 30 -2 17 -6 30 -8 30 -2 0
-4 -13 -4 -30z"/>
<path d="M84 2979 c-3 -6 -1 -16 5 -22 9 -9 14 -8 21 3 5 8 10 18 10 23 0 11
-28 8 -36 -4z"/>
<path d="M390 2975 c12 -15 30 -12 30 6 0 5 -10 9 -21 9 -18 0 -19 -2 -9 -15z"/>
<path d="M1876 2971 c-4 -7 -5 -15 -2 -18 9 -9 19 4 14 18 -4 11 -6 11 -12 0z"/>
<path d="M515 2960 c-9 -14 -6 -17 20 -22 13 -2 20 3 20 12 0 18 -30 26 -40
10z"/>
<path d="M770 2935 c-6 -8 -10 -20 -8 -26 2 -6 12 0 21 15 18 27 8 37 -13 11z"/>
<path d="M1275 2940 c4 -6 11 -8 16 -5 14 9 11 15 -7 15 -8 0 -12 -5 -9 -10z"/>
<path d="M356 2932 c-7 -12 39 -36 53 -28 6 4 11 14 11 22 0 9 -10 14 -29 14
-17 0 -32 -4 -35 -8z"/>
<path d="M646 2925 c-8 -8 -29 -15 -46 -15 -28 0 -30 -2 -20 -20 6 -11 15 -20
20 -20 6 0 18 9 27 20 15 18 19 18 39 5 12 -8 24 -11 28 -8 3 4 6 17 6 30 0
16 -6 23 -19 23 -11 0 -26 -7 -35 -15z"/>
<path d="M265 2911 c-29 -7 -30 -7 -8 -19 32 -18 53 -15 53 8 0 11 -3 19 -7
19 -5 -1 -21 -4 -38 -8z"/>
<path d="M3020 2900 c0 -11 5 -20 10 -20 6 0 10 9 10 20 0 11 -4 20 -10 20 -5
0 -10 -9 -10 -20z"/>
<path d="M720 2894 c0 -8 5 -12 10 -9 6 4 8 11 5 16 -9 14 -15 11 -15 -7z"/>
<path d="M2737 2904 c-13 -13 -7 -24 14 -24 11 0 19 5 17 12 -5 14 -22 21 -31
12z"/>
<path d="M141 2895 c-1 -13 19 -35 31 -35 4 0 8 5 8 10 0 6 -6 10 -14 10 -8 0
-17 6 -19 13 -3 6 -6 7 -6 2z"/>
<path d="M2680 2876 c0 -9 5 -16 10 -16 6 0 10 4 10 9 0 6 -4 13 -10 16 -5 3
-10 -1 -10 -9z"/>
<path d="M2967 2883 c-12 -12 -7 -50 8 -63 13 -11 15 -7 15 29 0 38 -8 50 -23
34z"/>
<path d="M387 2873 c-13 -12 -7 -23 13 -23 11 0 20 7 20 15 0 15 -21 21 -33 8z"/>
<path d="M1760 2864 c0 -8 5 -12 10 -9 6 3 10 10 10 16 0 5 -4 9 -10 9 -5 0
-10 -7 -10 -16z"/>
<path d="M925 2850 c-3 -5 1 -10 9 -10 9 0 16 5 16 10 0 6 -4 10 -9 10 -6 0
-13 -4 -16 -10z"/>
<path d="M640 2833 c0 -9 -7 -24 -16 -34 -9 -10 -14 -25 -11 -34 8 -20 42 -19
80 3 18 9 34 18 36 19 2 1 -7 15 -19 30 -25 32 -70 42 -70 16z"/>
<path d="M824 2839 c-8 -13 13 -29 38 -29 26 0 31 18 9 29 -25 14 -38 14 -47
0z"/>
<path d="M2380 2805 c0 -14 5 -25 10 -25 6 0 10 11 10 25 0 14 -4 25 -10 25
-5 0 -10 -11 -10 -25z"/>
<path d="M230 2796 c0 -20 13 -27 30 -15 13 8 13 10 0 19 -21 14 -30 12 -30
-4z"/>
<path d="M300 2787 c0 -17 21 -27 56 -27 13 0 34 -11 46 -25 12 -14 28 -25 36
-25 25 0 7 34 -33 62 -42 28 -75 36 -75 17 0 -8 -5 -8 -15 1 -12 10 -15 10
-15 -3z"/>
<path d="M2694 2775 c-3 -8 -1 -22 5 -32 6 -10 11 -12 11 -5 0 7 9 16 19 20
19 7 18 8 -5 19 -20 9 -26 9 -30 -2z"/>
<path d="M116 2771 c-4 -5 -2 -12 3 -15 5 -4 12 -2 15 3 4 5 2 12 -3 15 -5 4
-12 2 -15 -3z"/>
<path d="M772 2768 c3 -7 13 -15 22 -16 12 -3 17 1 14 10 -3 7 -13 15 -22 16
-12 3 -17 -1 -14 -10z"/>
<path d="M190 2751 c0 -5 7 -14 15 -21 11 -9 19 -10 27 -2 5 5 7 15 4 21 -8
13 -46 15 -46 2z"/>
<path d="M280 2725 c-15 -18 -5 -35 21 -35 14 0 19 7 19 25 0 28 -21 33 -40
10z"/>
<path d="M1456 2711 c-4 -5 -13 -8 -21 -4 -10 3 -15 -2 -15 -17 0 -12 4 -18
10 -15 6 4 17 2 25 -5 10 -9 15 -6 20 10 8 24 -8 49 -19 31z"/>
<path d="M0 2691 c0 -12 6 -21 16 -21 9 0 14 7 12 17 -5 25 -28 28 -28 4z"/>
<path d="M336 2693 c-3 -10 -9 -24 -12 -31 -4 -10 2 -9 20 3 28 18 35 45 12
45 -7 0 -16 -8 -20 -17z"/>
<path d="M490 2688 c0 -23 16 -39 33 -32 21 8 22 30 1 38 -24 9 -34 7 -34 -6z"/>
<path d="M180 2670 c0 -18 3 -19 20 -10 22 12 18 30 -6 30 -8 0 -14 -9 -14
-20z"/>
<path d="M877 2683 c-10 -9 -9 -51 2 -57 13 -9 44 31 38 49 -7 15 -28 20 -40
8z"/>
<path d="M66 2664 c-9 -24 -7 -34 8 -34 13 0 26 20 26 41 0 15 -27 10 -34 -7z"/>
<path d="M2700 2666 c0 -9 8 -12 25 -8 14 2 25 8 25 13 0 5 -11 9 -25 9 -14 0
-25 -6 -25 -14z"/>
<path d="M407 2663 c-13 -12 -7 -23 13 -23 11 0 20 7 20 15 0 15 -21 21 -33 8z"/>
<path d="M120 2640 c6 -11 21 -20 33 -20 l22 1 -24 19 c-30 26 -45 26 -31 0z"/>
<path d="M673 2648 c-4 -7 -17 -18 -28 -24 -26 -15 -25 -35 3 -45 18 -7 22 -5
22 11 0 10 6 23 13 27 6 4 18 16 26 26 12 15 11 17 -7 17 -12 0 -25 -6 -29
-12z"/>
<path d="M1395 2611 c-3 -5 -1 -12 5 -16 5 -3 10 1 10 9 0 18 -6 21 -15 7z"/>
<path d="M1758 2603 c6 -2 18 -2 25 0 6 3 1 5 -13 5 -14 0 -19 -2 -12 -5z"/>
<path d="M214 2575 c-4 -8 -3 -23 1 -32 6 -17 7 -17 21 1 8 11 14 26 14 33 0
18 -29 16 -36 -2z"/>
<path d="M420 2580 c0 -5 7 -10 16 -10 8 0 12 5 9 10 -3 6 -10 10 -16 10 -5 0
-9 -4 -9 -10z"/>
<path d="M2920 2548 c0 -29 3 -36 15 -32 19 8 19 25 0 50 -13 18 -14 17 -15
-18z"/>
<path d="M500 2530 c0 -19 5 -30 14 -30 8 0 18 5 21 10 10 16 -5 50 -21 50 -9
0 -14 -11 -14 -30z"/>
<path d="M297 2543 c-4 -3 -7 -17 -7 -30 0 -13 -7 -35 -16 -48 -11 -17 -13
-29 -5 -42 9 -17 10 -17 17 2 4 11 15 39 25 62 11 23 19 47 19 52 0 12 -23 15
-33 4z"/>
<path d="M380 2525 c0 -8 8 -15 18 -15 10 0 23 -5 30 -12 18 -18 14 -1 -5 22
-21 24 -43 26 -43 5z"/>
<path d="M826 2525 c-10 -28 -7 -55 8 -55 7 0 19 7 27 16 9 11 10 20 3 32 -15
23 -31 26 -38 7z"/>
<path d="M1896 2531 c-4 -7 -5 -15 -2 -18 9 -9 19 4 14 18 -4 11 -6 11 -12 0z"/>
<path d="M475 2471 c-3 -5 -1 -12 5 -16 5 -3 10 1 10 9 0 18 -6 21 -15 7z"/>
<path d="M780 2472 c0 -6 -11 -14 -25 -18 -20 -5 -23 -9 -14 -20 18 -22 38
-17 45 11 4 14 4 29 0 32 -3 4 -6 1 -6 -5z"/>
<path d="M2914 2437 c-6 -21 -6 -42 0 -60 6 -15 14 -27 18 -27 9 0 7 109 -2
115 -3 2 -10 -11 -16 -28z"/>
<path d="M202 2448 c-7 -7 -12 -18 -12 -25 0 -7 -7 -13 -15 -13 -8 0 -15 -7
-15 -15 0 -8 5 -15 10 -15 6 0 10 4 10 10 0 5 6 7 13 4 8 -3 19 7 26 22 13 30
2 51 -17 32z"/>
<path d="M115 2441 c-3 -5 -1 -12 5 -16 5 -3 10 1 10 9 0 18 -6 21 -15 7z"/>
<path d="M437 2437 c-3 -7 -1 -20 3 -28 7 -11 10 -10 16 4 4 10 2 23 -3 28 -7
7 -12 6 -16 -4z"/>
<path d="M882 2437 c-9 -10 -8 -18 2 -33 11 -14 18 -16 26 -8 14 14 10 46 -6
51 -6 2 -16 -2 -22 -10z"/>
<path d="M347 2401 c-21 -20 -28 -35 -25 -56 2 -16 9 -31 17 -33 11 -4 12 3 7
31 -7 36 3 51 34 52 8 0 16 8 18 18 5 25 -19 20 -51 -12z"/>
<path d="M790 2380 c0 -5 5 -10 10 -10 6 0 10 5 10 10 0 6 -4 10 -10 10 -5 0
-10 -4 -10 -10z"/>
<path d="M256 2364 c-9 -25 -7 -64 4 -64 6 0 10 8 10 18 0 9 3 27 6 40 7 25
-11 31 -20 6z"/>
<path d="M434 2367 c-3 -9 -3 -21 1 -28 6 -8 11 -7 17 6 7 11 6 21 -1 28 -7 7
-12 6 -17 -6z"/>
<path d="M130 2345 c0 -8 7 -15 15 -15 8 0 15 7 15 15 0 8 -7 15 -15 15 -8 0
-15 -7 -15 -15z"/>
<path d="M40 2336 c0 -8 5 -18 10 -21 6 -3 10 1 10 9 0 8 -4 18 -10 21 -5 3
-10 -1 -10 -9z"/>
<path d="M852 2338 c3 -7 13 -15 22 -16 12 -3 17 1 14 10 -3 7 -13 15 -22 16
-12 3 -17 -1 -14 -10z"/>
<path d="M437 2303 c-4 -3 -7 -17 -7 -30 0 -24 15 -29 39 -14 10 7 11 13 2 30
-12 22 -23 26 -34 14z"/>
<path d="M777 2287 c-9 -23 -1 -97 11 -109 9 -9 12 3 12 55 0 37 -4 67 -9 67
-5 0 -11 -6 -14 -13z"/>
<path d="M880 2275 c0 -8 2 -15 4 -15 2 0 6 7 10 15 3 8 1 15 -4 15 -6 0 -10
-7 -10 -15z"/>
<path d="M1330 2280 c0 -5 5 -10 10 -10 6 0 10 5 10 10 0 6 -4 10 -10 10 -5 0
-10 -4 -10 -10z"/>
<path d="M842 2250 c0 -19 2 -27 5 -17 2 9 2 25 0 35 -3 9 -5 1 -5 -18z"/>
<path d="M2764 2239 c-8 -17 -11 -28 -5 -25 6 4 11 2 11 -3 0 -6 -5 -11 -11
-11 -6 0 -8 -11 -5 -27 3 -16 7 -72 8 -126 2 -84 4 -96 15 -81 10 13 13 57 11
161 -1 79 -3 143 -4 143 -2 0 -11 -14 -20 -31z"/>
<path d="M527 2254 c-4 -4 -7 -16 -7 -26 0 -15 6 -19 28 -16 19 2 27 9 27 23
0 13 -8 21 -20 23 -12 2 -24 0 -28 -4z"/>
<path d="M178 2199 c-24 -13 -23 -29 1 -29 21 0 45 23 34 33 -8 9 -15 8 -35
-4z"/>
<path d="M427 2174 c-9 -10 4 -34 19 -34 16 0 16 2 8 24 -6 17 -16 20 -27 10z"/>
<path d="M205 2153 c-21 -6 -55 -38 -82 -79 -8 -13 -20 -24 -25 -24 -5 0 -18
-10 -29 -22 -37 -45 -17 -69 37 -43 18 9 34 21 34 27 0 6 7 16 16 23 9 6 17
22 18 36 1 20 6 23 26 21 14 -2 35 -10 48 -18 24 -16 42 -11 42 10 0 18 27 40
32 26 2 -6 21 -13 43 -17 53 -9 110 -42 96 -56 -19 -19 -12 -48 19 -79 17 -16
30 -37 30 -46 -1 -14 -4 -13 -19 6 -11 12 -24 22 -30 22 -6 0 -11 -11 -11 -25
0 -18 7 -28 26 -35 22 -9 24 -13 14 -25 -17 -21 -6 -29 19 -15 14 7 21 21 21
40 0 22 5 29 23 32 12 2 22 10 22 18 0 8 -7 14 -16 12 -15 -2 -39 35 -39 60 0
24 -36 88 -52 93 -10 4 -18 11 -18 16 0 5 -9 9 -20 9 -12 0 -34 7 -49 15 -16
8 -42 14 -57 13 -16 -1 -45 0 -64 4 -19 3 -44 3 -55 1z"/>
<path d="M2718 2154 c-5 -4 -8 -16 -8 -28 0 -14 3 -17 11 -9 6 6 9 19 7 28 -1
9 -6 13 -10 9z"/>
<path d="M598 2143 c-10 -2 -18 -11 -18 -19 0 -11 5 -11 25 -2 14 6 25 15 25
20 0 8 -4 9 -32 1z"/>
<path d="M783 2070 c-8 -21 -8 -32 -1 -36 13 -9 40 25 36 45 -5 26 -23 22 -35
-9z"/>
<path d="M203 2013 c1 -19 -3 -28 -15 -31 -12 -2 -18 3 -18 13 0 9 -5 13 -11
9 -6 -3 -9 -18 -6 -33 7 -36 -32 -86 -61 -77 -16 5 -23 0 -35 -23 -8 -16 -12
-32 -9 -35 12 -13 43 -4 68 19 15 14 33 25 40 25 8 0 14 7 14 16 0 12 7 15 30
12 17 -3 33 -1 36 4 3 5 17 2 30 -7 22 -14 25 -14 30 0 5 12 10 11 25 -9 10
-13 19 -32 19 -41 0 -9 3 -14 8 -11 4 2 6 25 4 50 -3 35 -9 49 -26 58 -11 6
-34 12 -51 12 -24 1 -31 6 -33 25 -3 18 0 22 11 18 9 -3 18 0 21 8 5 15 -14
25 -49 25 -20 0 -23 -5 -22 -27z m37 -64 c0 -15 -4 -19 -16 -15 -9 3 -18 6
-20 6 -2 0 -4 7 -4 15 0 8 9 15 20 15 14 0 20 -7 20 -21z"/>
<path d="M1490 2026 c0 -8 5 -18 10 -21 6 -3 10 3 10 14 0 12 -4 21 -10 21 -5
0 -10 -6 -10 -14z"/>
<path d="M320 1995 c-16 -19 -10 -19 26 0 25 13 26 15 8 15 -12 0 -27 -7 -34
-15z"/>
<path d="M771 1978 c1 -13 5 -36 9 -53 l8 -30 1 30 c1 17 4 40 7 53 5 16 2 22
-10 22 -10 0 -16 -8 -15 -22z"/>
<path d="M1550 1986 c0 -2 9 -6 20 -9 11 -3 20 -1 20 4 0 5 -9 9 -20 9 -11 0
-20 -2 -20 -4z"/>
<path d="M2747 1924 c-4 -4 -7 -16 -7 -27 0 -17 2 -18 17 -6 9 8 19 13 22 12
3 -2 6 3 6 9 0 14 -27 22 -38 12z"/>
<path d="M380 1875 c-13 -15 -5 -55 11 -55 5 0 9 8 7 18 -2 13 5 18 30 20 31
3 33 4 15 17 -24 19 -48 19 -63 0z"/>
<path d="M554 1865 c-8 -20 4 -35 27 -35 10 0 19 -3 19 -6 0 -3 -11 -15 -25
-26 -14 -11 -25 -30 -25 -43 0 -15 -10 -31 -24 -40 -13 -9 -27 -27 -30 -41 -5
-17 -13 -24 -30 -24 -18 0 -23 -5 -23 -30 0 -16 6 -31 14 -34 7 -3 13 -16 13
-28 0 -24 22 -49 54 -61 21 -8 13 -21 -12 -23 -45 -3 -51 -5 -57 -23 -4 -14
-12 -18 -23 -14 -9 3 -5 -4 10 -15 14 -12 31 -22 36 -22 6 0 12 -8 14 -17 3
-18 -44 -73 -62 -73 -15 0 -12 16 5 30 8 7 15 22 15 33 0 19 -1 19 -21 -4 -11
-13 -29 -23 -38 -21 -23 4 -43 -21 -35 -42 6 -15 8 -15 21 1 13 16 14 14 8
-20 -3 -21 -9 -45 -12 -53 -3 -9 1 -14 12 -14 11 0 15 5 11 15 -3 10 1 15 14
15 10 0 22 -5 26 -11 4 -7 15 -1 28 16 19 24 25 26 43 17 19 -11 21 -9 25 24
3 22 -1 42 -9 49 -7 8 -13 32 -13 55 0 37 3 42 19 37 14 -3 23 3 31 24 7 15 9
33 5 39 -8 12 29 50 63 65 20 9 21 12 9 29 -12 17 -17 17 -50 5 -31 -11 -37
-18 -37 -41 0 -15 -5 -28 -11 -28 -11 0 -9 24 6 65 6 17 4 17 -14 -4 -12 -13
-23 -22 -24 -20 -14 20 -37 60 -37 64 0 4 10 5 23 3 17 -2 23 2 25 24 2 19 8
25 18 21 10 -3 17 1 20 13 5 18 64 64 83 64 14 0 41 -59 31 -65 -5 -3 -7 -12
-3 -20 3 -9 -1 -15 -10 -15 -8 0 -17 7 -21 15 -3 8 -13 15 -21 15 -11 0 -15
-7 -13 -22 2 -18 12 -25 46 -32 31 -7 42 -14 42 -27 0 -11 -7 -19 -16 -19 -13
0 -14 -3 -4 -15 10 -11 15 -12 24 -2 14 13 36 52 36 61 0 3 -7 6 -15 6 -8 0
-15 7 -15 15 0 18 16 20 23 3 3 -7 6 3 6 23 1 19 -6 44 -14 55 -8 10 -15 27
-15 36 0 9 -13 25 -30 35 -16 9 -30 21 -30 25 0 9 -60 48 -73 48 -4 0 -10 -7
-13 -15z"/>
<path d="M2744 1824 c-3 -25 -13 -48 -20 -51 -8 -3 -11 -9 -8 -14 3 -6 1 -15
-4 -22 -13 -15 -17 -67 -7 -89 4 -10 15 -18 24 -18 14 -1 14 -2 -1 -14 -19
-14 -24 -46 -8 -46 6 0 10 -7 10 -15 0 -8 -4 -15 -10 -15 -5 0 -10 -7 -10 -15
0 -8 5 -15 10 -15 6 0 10 -4 10 -10 0 -5 -5 -9 -12 -7 -6 1 -14 -7 -16 -18 -3
-18 -1 -18 22 5 22 22 25 34 26 95 0 39 0 77 -1 85 -1 18 9 119 17 173 4 23 2
37 -4 37 -6 0 -14 -21 -18 -46z"/>
<path d="M160 1831 c-27 -23 -32 -32 -23 -42 15 -16 44 -4 50 21 3 11 8 20 12
20 4 0 16 -7 28 -15 13 -9 24 -11 28 -6 9 16 -18 51 -40 51 -12 0 -36 -13 -55
-29z"/>
<path d="M2640 1830 c0 -5 6 -11 13 -14 8 -3 2 -13 -16 -29 -21 -17 -25 -26
-15 -29 14 -6 68 34 68 49 0 4 -11 13 -25 20 -14 6 -25 7 -25 3z"/>
<path d="M270 1810 c0 -24 15 -27 24 -4 9 22 8 24 -9 24 -8 0 -15 -9 -15 -20z"/>
<path d="M423 1810 c-3 -11 -9 -20 -14 -20 -5 0 -9 -16 -9 -35 0 -19 4 -35 9
-35 5 0 12 20 15 45 7 43 18 56 31 35 9 -15 48 -12 42 3 -2 6 -14 11 -26 10
-11 -2 -21 2 -21 7 0 18 -22 10 -27 -10z"/>
<path d="M1740 1815 c7 -8 20 -14 29 -14 13 1 13 2 -1 6 -10 2 -18 9 -18 14 0
5 -5 9 -11 9 -8 0 -8 -5 1 -15z"/>
<path d="M760 1795 c7 -8 16 -15 21 -15 5 0 6 7 3 15 -4 8 -13 15 -21 15 -13
0 -13 -3 -3 -15z"/>
<path d="M84 1792 c-19 -12 -22 -36 -8 -63 7 -15 11 -29 8 -32 -3 -2 0 -25 7
-51 11 -44 18 -51 47 -47 6 1 12 -5 12 -13 0 -8 -6 -16 -13 -19 -9 -3 -9 -8 2
-18 10 -11 15 -11 18 -1 7 18 24 15 50 -10 17 -16 26 -19 35 -10 8 8 8 15 -2
27 -8 9 -8 15 -2 15 6 0 13 -4 17 -10 3 -5 12 -7 20 -4 12 5 10 11 -7 35 -25
33 -46 37 -55 12 -4 -10 -11 -21 -16 -24 -15 -11 -48 30 -54 67 -3 19 -9 34
-13 34 -5 0 -6 10 -3 21 4 14 0 27 -11 35 -14 10 -15 17 -7 33 6 11 11 22 11
25 0 8 -23 7 -36 -2z"/>
<path d="M204 1775 c3 -9 1 -24 -6 -34 -6 -10 -8 -27 -4 -37 6 -16 10 -13 27
20 14 29 16 43 8 53 -16 18 -33 17 -25 -2z"/>
<path d="M310 1771 c0 -15 6 -21 21 -21 14 0 19 5 17 17 -2 10 -11 19 -21 21
-12 2 -17 -3 -17 -17z"/>
<path d="M1610 1776 c0 -9 7 -16 16 -16 17 0 14 22 -4 28 -7 2 -12 -3 -12 -12z"/>
<path d="M486 1771 c-3 -5 1 -14 8 -20 10 -8 16 -9 21 -1 7 11 -2 30 -15 30
-5 0 -11 -4 -14 -9z"/>
<path d="M1700 1760 c0 -5 5 -10 10 -10 6 0 10 5 10 10 0 6 -4 10 -10 10 -5 0
-10 -4 -10 -10z"/>
<path d="M257 1753 c-13 -12 -7 -44 9 -50 20 -7 33 12 27 38 -5 19 -24 25 -36
12z"/>
<path d="M1658 1705 c-3 -22 -2 -44 3 -49 15 -17 19 -1 11 45 l-8 44 -6 -40z"/>
<path d="M2636 1733 c-7 -7 13 -33 25 -33 5 0 9 6 9 14 0 15 -24 28 -34 19z"/>
<path d="M3002 1668 c2 -60 6 -73 21 -76 15 -3 17 6 17 72 0 70 -2 76 -20 76
-19 0 -21 -5 -18 -72z"/>
<path d="M1597 1724 c-4 -4 -7 -14 -7 -23 0 -11 3 -12 11 -4 6 6 10 16 7 23
-2 6 -7 8 -11 4z"/>
<path d="M2575 1720 c3 -5 12 -7 20 -3 21 7 19 13 -6 13 -11 0 -18 -4 -14 -10z"/>
<path d="M16 1684 c-8 -22 1 -31 16 -16 9 9 9 15 1 23 -7 7 -12 5 -17 -7z"/>
<path d="M195 1670 c-3 -5 1 -10 10 -10 9 0 13 5 10 10 -3 6 -8 10 -10 10 -2
0 -7 -4 -10 -10z"/>
<path d="M300 1668 c0 -14 50 -41 59 -32 3 3 0 13 -5 22 -14 21 -54 29 -54 10z"/>
<path d="M1570 1643 c0 -20 3 -33 6 -30 11 10 13 67 3 67 -5 0 -9 -16 -9 -37z"/>
<path d="M376 1638 c-9 -12 -16 -30 -16 -39 0 -10 -13 -23 -30 -31 -30 -13
-40 -41 -19 -54 6 -3 23 5 38 20 24 23 28 24 37 9 6 -9 15 -13 22 -9 18 11 14
26 -7 26 -32 0 -35 19 -7 45 28 26 34 55 12 55 -8 0 -22 -10 -30 -22z"/>
<path d="M1651 1608 c-8 -13 -9 -24 -3 -30 6 -6 12 0 16 17 4 15 5 29 4 31 -2
2 -10 -6 -17 -18z"/>
<path d="M290 1605 c0 -8 5 -15 10 -15 6 0 10 7 10 15 0 8 -4 15 -10 15 -5 0
-10 -7 -10 -15z"/>
<path d="M1280 1605 c0 -9 5 -15 11 -13 6 2 11 8 11 13 0 5 -5 11 -11 13 -6 2
-11 -4 -11 -13z"/>
<path d="M1575 1590 c-3 -5 -1 -10 5 -10 6 0 15 -10 20 -22 9 -23 9 -23 9 -2
1 25 -24 51 -34 34z"/>
<path d="M1646 1547 c-12 -24 1 -67 20 -67 12 0 14 3 6 13 -6 6 -12 26 -14 42
-3 24 -6 27 -12 12z"/>
<path d="M800 1521 c0 -12 5 -21 10 -21 6 0 10 6 10 14 0 8 -4 18 -10 21 -5 3
-10 -3 -10 -14z"/>
<path d="M1280 1530 c0 -6 7 -10 15 -10 8 0 15 2 15 4 0 2 -7 6 -15 10 -8 3
-15 1 -15 -4z"/>
<path d="M3017 1534 c-8 -8 1 -24 14 -24 5 0 9 7 9 15 0 15 -12 20 -23 9z"/>
<path d="M157 1516 c-2 -6 1 -19 7 -28 8 -14 4 -24 -24 -53 -32 -33 -36 -34
-47 -18 -17 22 -16 33 2 33 8 0 15 6 15 14 0 20 -39 46 -67 46 -21 0 -21 -1
-7 -27 7 -16 14 -36 14 -46 0 -10 9 -28 21 -40 18 -20 20 -30 14 -102 -3 -50
-11 -85 -21 -96 -14 -16 -14 -20 6 -48 24 -31 21 -61 -5 -61 -8 0 -15 -7 -15
-15 0 -8 5 -15 10 -15 6 0 10 5 10 10 0 6 7 10 16 10 12 0 15 -6 10 -24 -4
-17 1 -31 19 -50 13 -14 28 -26 33 -26 5 0 12 -9 15 -20 3 -11 12 -20 21 -20
9 0 13 6 10 14 -7 17 12 31 21 15 4 -6 2 -16 -4 -22 -15 -15 -14 -58 2 -56 6
1 26 -3 42 -10 29 -13 29 -13 8 -21 -12 -5 -24 -19 -28 -31 -7 -22 -8 -22 -22
-3 -14 18 -14 17 -8 -13 6 -29 3 -34 -19 -44 -28 -13 -33 -37 -15 -71 9 -17 6
-25 -17 -49 -16 -17 -39 -32 -51 -35 -26 -7 -31 -35 -9 -53 12 -10 19 -8 35 8
12 12 21 26 21 31 0 18 28 10 42 -12 18 -28 13 -48 -12 -48 -13 0 -20 -9 -22
-27 -2 -19 -9 -29 -24 -31 -11 -2 -26 4 -33 12 -8 10 -22 13 -41 10 -21 -5
-29 -2 -32 11 -2 12 -7 8 -15 -14 -6 -17 -7 -28 -2 -25 6 3 21 3 35 0 34 -9
19 -29 -17 -24 -29 4 -29 4 -29 -44 0 -26 4 -48 9 -48 5 0 18 -3 28 -6 17 -5
17 -5 1 6 -26 16 -22 30 8 30 14 0 34 5 44 10 13 7 21 7 25 0 12 -19 35 -10
47 18 6 15 12 32 12 39 1 6 13 20 27 31 17 14 30 18 40 11 18 -11 30 -11 48 0
12 8 12 12 2 25 -11 13 -11 19 -1 31 8 10 12 45 12 95 -1 44 -3 84 -6 88 -3 5
2 21 10 36 8 16 18 54 23 85 8 52 7 58 -16 80 -18 19 -22 31 -18 51 5 22 2 28
-16 33 -27 7 -39 1 -39 -19 0 -16 -16 -19 -25 -4 -3 6 1 13 9 16 9 3 16 15 16
25 0 10 5 19 10 19 16 0 11 27 -6 34 -12 5 -15 17 -12 53 2 30 -1 48 -9 50
-17 6 -28 -44 -14 -61 8 -9 9 -16 2 -20 -6 -4 -8 -21 -5 -39 l5 -32 -20 23
c-14 16 -27 22 -40 17 -15 -4 -20 -1 -20 12 -2 37 -8 69 -15 82 -5 7 -1 18 10
26 23 16 37 9 29 -15 -3 -10 -1 -21 5 -25 5 -3 11 0 12 7 0 7 2 18 3 23 2 6 3
20 4 33 1 15 7 22 21 22 12 0 20 -7 21 -17 0 -12 4 -8 11 10 5 15 16 27 24 27
8 0 14 7 14 15 0 8 8 15 18 15 9 0 22 11 28 24 8 17 8 28 -2 41 -12 15 -11 20
4 31 14 10 15 15 4 26 -11 11 -15 10 -23 -4 -6 -10 -17 -18 -24 -18 -8 0 -15
-4 -15 -10 0 -5 -4 -10 -10 -10 -5 0 -10 9 -10 21 0 12 -11 30 -25 41 -29 23
-25 38 11 38 13 0 24 5 24 11 0 5 -5 7 -12 3 -6 -4 -16 0 -22 8 -14 19 -54 29
-59 14z m-83 -37 c-3 -5 -10 -7 -15 -3 -5 3 -7 10 -3 15 3 5 10 7 15 3 5 -3 7
-10 3 -15z m136 -86 c0 -15 -9 -16 -29 -4 -9 6 -11 16 -6 32 7 22 8 22 21 4 8
-10 14 -25 14 -32z m-50 -14 c0 -15 5 -19 15 -15 16 6 20 -10 9 -38 -8 -22
-21 -20 -27 4 -3 13 -10 18 -21 14 -19 -7 -21 9 -4 36 17 26 28 25 28 -1z
m109 -45 c-6 -8 -21 -14 -33 -14 -20 0 -20 1 4 19 27 21 48 18 29 -5z m-55
-39 c3 -10 -1 -15 -12 -15 -10 0 -23 -5 -30 -12 -9 -9 -12 -7 -12 9 0 31 43
46 54 18z m-65 -272 c0 -25 -1 -26 -9 -8 -12 27 -12 35 0 35 6 0 10 -12 9 -27z
m98 -80 c-3 -10 -5 -4 -5 12 0 17 2 24 5 18 2 -7 2 -21 0 -30z m40 -129 c7
-19 -16 -64 -34 -64 -16 0 -17 52 -1 68 16 16 27 15 35 -4z m-19 -112 c2 -7
-2 -10 -12 -6 -9 3 -16 11 -16 16 0 13 23 5 28 -10z m-24 -48 c3 -9 6 -22 6
-30 0 -11 -4 -10 -20 3 -11 10 -20 23 -20 30 0 18 27 16 34 -3z"/>
<path d="M1570 1450 c0 -33 4 -60 10 -60 5 0 8 26 7 60 -1 33 -5 60 -9 60 -5
0 -8 -27 -8 -60z"/>
<path d="M360 1466 c0 -21 21 -31 31 -15 5 8 3 17 -4 21 -18 12 -27 10 -27 -6z"/>
<path d="M615 1470 c-3 -6 3 -22 14 -35 22 -29 35 -19 25 20 -6 25 -28 34 -39
15z"/>
<path d="M1640 1434 c0 -8 5 -24 10 -34 8 -15 6 -21 -7 -30 -17 -10 -16 -10 2
-8 16 3 21 12 23 46 2 33 0 42 -12 42 -9 0 -16 -7 -16 -16z"/>
<path d="M2725 1440 c3 -5 12 -10 20 -10 8 0 17 5 20 10 4 6 -5 10 -20 10 -15
0 -24 -4 -20 -10z"/>
<path d="M2696 1412 c-8 -26 2 -48 15 -35 6 6 6 19 1 34 l-9 24 -7 -23z"/>
<path d="M2737 1413 c-8 -13 -6 -83 3 -83 11 0 21 73 11 83 -5 5 -11 5 -14 0z"/>
<path d="M653 1382 c-7 -12 -8 -24 -2 -33 7 -12 11 -11 25 3 9 9 14 24 11 32
-8 21 -20 20 -34 -2z"/>
<path d="M1700 1350 c0 -5 7 -10 16 -10 8 0 12 5 9 10 -3 6 -10 10 -16 10 -5
0 -9 -4 -9 -10z"/>
<path d="M2995 1351 c-3 -5 -1 -12 5 -16 5 -3 10 1 10 9 0 18 -6 21 -15 7z"/>
<path d="M12 1310 c-6 -11 -12 -26 -12 -34 0 -20 23 -36 39 -27 14 9 11 73 -4
78 -6 2 -16 -6 -23 -17z"/>
<path d="M611 1306 c-25 -27 -18 -38 17 -25 13 5 22 17 22 29 0 11 -4 20 -8
20 -5 0 -19 -11 -31 -24z"/>
<path d="M2748 1314 c-11 -11 -10 -64 1 -64 15 0 18 12 12 43 -3 16 -9 25 -13
21z"/>
<path d="M335 1243 c0 -15 4 -27 10 -26 15 3 16 17 2 37 -12 16 -13 15 -12
-11z"/>
<path d="M2687 1243 c-4 -3 -7 -19 -7 -33 0 -17 -8 -33 -22 -42 -20 -13 -20
-16 -6 -36 8 -12 18 -19 21 -15 4 3 7 20 7 36 0 28 1 29 36 24 25 -4 34 -3 31
6 -3 7 -9 11 -15 10 -5 -1 -12 11 -16 27 -5 29 -16 37 -29 23z"/>
<path d="M258 1202 c-3 -12 2 -24 14 -31 10 -6 23 -9 28 -6 5 3 13 -2 18 -11
8 -15 13 -15 39 -4 23 10 28 17 19 26 -7 8 -15 9 -23 2 -9 -7 -15 -6 -19 6 -3
9 -14 16 -24 16 -11 0 -22 5 -25 10 -10 16 -22 12 -27 -8z"/>
<path d="M653 1193 c-7 -15 -13 -33 -13 -40 0 -8 -13 -13 -35 -13 -28 0 -35
-4 -35 -19 0 -13 9 -20 30 -23 17 -3 33 -1 36 4 3 5 13 6 22 4 10 -3 24 -1 32
4 13 9 12 13 -8 28 -18 14 -21 23 -16 50 4 17 5 32 3 32 -2 0 -10 -12 -16 -27z"/>
<path d="M3015 1120 c-3 -11 -11 -20 -16 -20 -5 0 -9 -11 -9 -25 0 -14 4 -25
8 -25 17 0 42 37 42 63 0 32 -16 36 -25 7z"/>
<path d="M504 1099 c-8 -14 18 -31 30 -19 9 9 0 30 -14 30 -5 0 -12 -5 -16
-11z"/>
<path d="M871 1096 c-9 -10 -9 -16 -1 -21 6 -4 10 -18 8 -30 -2 -13 1 -24 6
-25 12 0 17 78 6 85 -4 3 -13 -2 -19 -9z"/>
<path d="M804 1089 c-3 -6 -1 -16 5 -22 8 -8 14 -8 22 0 12 12 4 33 -11 33 -5
0 -12 -5 -16 -11z"/>
<path d="M2714 1076 c-3 -8 -4 -27 -2 -43 2 -18 10 -29 23 -32 16 -3 17 -1 7
12 -8 9 -10 26 -7 40 7 27 -11 48 -21 23z"/>
<path d="M640 1064 c0 -8 5 -12 10 -9 6 3 10 10 10 16 0 5 -4 9 -10 9 -5 0
-10 -7 -10 -16z"/>
<path d="M540 1035 c0 -8 4 -15 9 -15 5 0 11 7 15 15 3 9 0 15 -9 15 -8 0 -15
-7 -15 -15z"/>
<path d="M20 1035 c0 -3 7 -22 15 -42 19 -44 19 -53 1 -53 -16 0 -25 -36 -18
-79 3 -21 10 -31 22 -31 10 0 21 7 24 16 9 22 8 24 -9 18 -25 -10 -18 26 11
52 14 13 30 24 37 25 7 0 3 4 -8 8 -11 5 -20 12 -21 17 0 5 -4 17 -7 27 -4 9
-9 24 -12 32 -4 14 -35 22 -35 10z"/>
<path d="M2530 1030 c0 -5 5 -10 10 -10 6 0 10 5 10 10 0 6 -4 10 -10 10 -5 0
-10 -4 -10 -10z"/>
<path d="M3020 1025 c0 -8 5 -15 10 -15 6 0 10 7 10 15 0 8 -4 15 -10 15 -5 0
-10 -7 -10 -15z"/>
<path d="M743 1019 c-6 -6 -9 -18 -6 -25 4 -10 -4 -14 -27 -14 -22 0 -33 -5
-37 -18 -2 -10 -14 -22 -26 -27 -34 -15 -27 -39 11 -43 40 -4 72 6 55 16 -6 4
-13 16 -15 27 -2 14 2 20 15 19 10 -1 25 10 34 25 9 14 23 32 32 39 13 10 12
12 -5 12 -11 0 -25 -5 -31 -11z"/>
<path d="M2630 1017 c0 -8 8 -17 18 -21 9 -3 23 -9 30 -12 6 -3 12 1 12 9 0 8
-8 17 -17 21 -10 3 -24 9 -30 12 -7 3 -13 -1 -13 -9z"/>
<path d="M795 1000 c4 -6 11 -8 16 -5 14 9 11 15 -7 15 -8 0 -12 -5 -9 -10z"/>
<path d="M535 980 c3 -5 10 -10 16 -10 5 0 9 5 9 10 0 6 -7 10 -16 10 -8 0
-12 -4 -9 -10z"/>
<path d="M2610 950 c0 -11 6 -20 14 -20 21 0 31 21 15 31 -22 14 -29 11 -29
-11z"/>
<path d="M1900 944 c0 -8 5 -12 10 -9 6 4 8 11 5 16 -9 14 -15 11 -15 -7z"/>
<path d="M1760 924 c0 -8 5 -12 10 -9 6 4 8 11 5 16 -9 14 -15 11 -15 -7z"/>
<path d="M87 895 c-4 -8 7 -27 24 -45 l31 -30 28 22 c29 23 34 46 9 39 -8 -2
-23 -4 -34 -5 -14 -1 -19 4 -17 17 2 11 -4 17 -16 17 -11 0 -22 -7 -25 -15z"/>
<path d="M2580 900 c0 -5 5 -10 10 -10 6 0 10 5 10 10 0 6 -4 10 -10 10 -5 0
-10 -4 -10 -10z"/>
<path d="M2676 901 c-7 -11 14 -51 26 -51 12 0 9 23 -6 43 -9 11 -17 14 -20 8z"/>
<path d="M810 885 c0 -19 36 -55 54 -55 28 0 26 18 -4 29 -17 5 -30 17 -30 25
0 9 -4 16 -10 16 -5 0 -10 -7 -10 -15z"/>
<path d="M540 870 c0 -5 7 -10 15 -10 8 0 15 5 15 10 0 6 -7 10 -15 10 -8 0
-15 -4 -15 -10z"/>
<path d="M652 871 c-9 -6 -9 -11 2 -27 14 -18 15 -18 22 -1 8 22 -6 39 -24 28z"/>
<path d="M690 870 c0 -5 5 -10 10 -10 6 0 10 5 10 10 0 6 -4 10 -10 10 -5 0
-10 -4 -10 -10z"/>
<path d="M2616 872 c-1 -4 -4 -38 -5 -75 -1 -51 2 -68 11 -65 7 3 16 24 20 49
4 24 10 54 13 65 3 16 -1 23 -15 27 -11 3 -22 2 -24 -1z"/>
<path d="M902 858 c5 -15 28 -23 28 -10 0 5 -7 13 -16 16 -10 4 -14 1 -12 -6z"/>
<path d="M1830 851 c0 -5 3 -17 6 -26 5 -13 8 -14 15 -3 13 20 11 38 -6 38 -8
0 -15 -4 -15 -9z"/>
<path d="M2097 854 c-10 -10 2 -24 16 -18 7 2 21 -4 31 -15 10 -11 23 -18 27
-15 17 10 9 22 -25 38 -38 18 -40 18 -49 10z"/>
<path d="M716 836 c7 -19 38 -22 32 -3 -3 6 -12 13 -21 15 -12 2 -15 -1 -11
-12z"/>
<path d="M1330 843 c0 -5 5 -15 10 -23 8 -12 10 -11 10 8 0 12 -4 22 -10 22
-5 0 -10 -3 -10 -7z"/>
<path d="M2042 838 c-17 -22 -23 -56 -12 -63 7 -4 17 -2 23 4 7 7 14 7 23 0
19 -15 27 7 9 24 -8 9 -15 23 -15 31 0 19 -14 21 -28 4z"/>
<path d="M2334 834 c3 -9 6 -18 6 -20 0 -2 5 -4 10 -4 6 0 10 9 10 20 0 12 -7
20 -16 20 -11 0 -14 -5 -10 -16z"/>
<path d="M2422 832 c-22 -18 -34 -57 -17 -57 6 0 9 3 7 8 -1 4 9 12 23 17 24
9 34 34 17 44 -4 2 -17 -3 -30 -12z"/>
<path d="M2195 829 c-10 -15 3 -25 16 -12 7 7 7 13 1 17 -6 3 -14 1 -17 -5z"/>
<path d="M2250 815 c-11 -20 -11 -30 1 -62 8 -21 19 -36 24 -33 6 3 9 12 7 20
-2 8 -5 33 -7 54 -3 21 -6 41 -8 42 -2 2 -10 -7 -17 -21z"/>
<path d="M0 820 c0 -6 7 -13 15 -17 24 -9 27 1 5 15 -13 8 -20 8 -20 2z"/>
<path d="M1620 805 c0 -15 4 -24 10 -20 6 3 10 12 10 20 0 8 -4 17 -10 20 -6
4 -10 -5 -10 -20z"/>
<path d="M1684 819 c-3 -6 -1 -16 5 -22 17 -17 13 -44 -11 -67 -17 -15 -19
-23 -10 -32 9 -9 18 -5 39 16 22 22 25 31 16 45 -6 9 -9 29 -6 44 4 20 1 27
-10 27 -9 0 -19 -5 -23 -11z"/>
<path d="M603 813 c-20 -4 -21 -7 -12 -24 7 -15 14 -17 23 -10 6 6 22 8 34 4
18 -4 22 -1 22 16 0 21 -14 24 -67 14z"/>
<path d="M1944 805 c-3 -8 -14 -17 -25 -20 -22 -7 -49 -32 -49 -46 0 -5 9 -9
20 -9 14 0 20 -6 18 -17 -2 -11 5 -19 17 -21 11 -3 24 -11 30 -19 9 -13 13
-13 22 -1 15 17 5 34 -22 39 -14 3 -21 14 -23 37 -3 27 1 35 17 39 12 3 21 12
21 19 0 19 -19 18 -26 -1z"/>
<path d="M2542 795 c0 -16 2 -22 5 -12 2 9 2 23 0 30 -3 6 -5 -1 -5 -18z"/>
<path d="M905 785 c-16 -14 -36 -25 -42 -25 -7 0 -13 -11 -13 -25 0 -14 -9
-34 -20 -45 -25 -25 -43 -68 -36 -86 3 -7 17 -11 33 -9 15 2 32 4 36 4 5 1 6
15 2 31 -4 19 -2 37 6 46 10 12 14 12 21 2 7 -10 11 -9 22 5 13 17 14 16 19
-3 3 -11 1 -20 -4 -20 -5 0 -9 -8 -8 -17 0 -15 3 -14 16 5 16 23 46 30 41 10
-1 -7 4 -36 12 -65 12 -45 15 -50 26 -35 12 16 13 16 19 0 12 -31 26 -19 20
16 -4 20 -2 43 5 56 9 16 9 25 1 33 -8 8 -15 6 -25 -8 -12 -17 -14 -14 -21 33
-5 39 -11 52 -24 52 -10 0 -21 12 -26 32 -6 17 -14 33 -20 34 -5 2 -23 -8 -40
-21z m35 -61 c0 -8 -7 -14 -15 -14 -17 0 -18 2 -9 24 7 18 24 12 24 -10z"/>
<path d="M1570 785 c0 -14 5 -25 10 -25 6 0 10 11 10 25 0 14 -4 25 -10 25 -5
0 -10 -11 -10 -25z"/>
<path d="M716 791 c-4 -5 -2 -12 3 -15 5 -4 12 -2 15 3 4 5 2 12 -3 15 -5 4
-12 2 -15 -3z"/>
<path d="M1256 775 c-7 -19 3 -47 15 -39 12 7 12 54 0 54 -5 0 -11 -7 -15 -15z"/>
<path d="M790 765 c0 -8 5 -15 10 -15 6 0 10 7 10 15 0 8 -4 15 -10 15 -5 0
-10 -7 -10 -15z"/>
<path d="M2124 766 c-13 -10 -16 -18 -8 -25 14 -15 47 9 36 26 -6 10 -12 10
-28 -1z"/>
<path d="M15 747 c-10 -15 -15 -43 -14 -76 1 -28 6 -51 10 -51 5 0 14 18 20
41 11 34 16 39 33 34 53 -17 66 -17 72 -2 3 9 1 24 -5 34 -6 10 -11 12 -11 6
0 -7 -9 -13 -19 -13 -13 0 -21 8 -23 23 -4 32 -42 35 -63 4z"/>
<path d="M496 749 c-27 -21 -36 -59 -13 -59 21 1 57 37 57 59 0 12 -4 21 -9
21 -4 0 -20 -9 -35 -21z"/>
<path d="M1990 760 c0 -5 5 -10 10 -10 6 0 10 5 10 10 0 6 -4 10 -10 10 -5 0
-10 -4 -10 -10z"/>
<path d="M550 745 c0 -8 7 -15 15 -15 8 0 15 7 15 15 0 8 -7 15 -15 15 -8 0
-15 -7 -15 -15z"/>
<path d="M651 752 c-17 -6 -13 -30 7 -36 25 -8 77 8 77 25 0 9 -12 14 -36 14
-21 1 -42 -1 -48 -3z"/>
<path d="M2178 738 c9 -9 15 -9 24 0 9 9 7 12 -12 12 -19 0 -21 -3 -12 -12z"/>
<path d="M1100 731 c0 -5 4 -21 9 -35 7 -17 16 -23 28 -20 11 3 33 -9 58 -32
l40 -36 -37 -32 c-21 -18 -38 -38 -38 -44 0 -6 -7 -15 -16 -20 -11 -6 -13 -12
-6 -16 6 -3 28 10 49 29 21 19 43 35 50 35 16 0 22 22 12 42 -10 18 -2 48 12
48 5 0 9 7 9 15 0 8 -9 15 -20 15 -11 0 -20 -4 -20 -10 0 -19 -30 -10 -46 15
-9 14 -27 28 -40 31 -13 3 -24 10 -24 15 0 5 -4 9 -10 9 -5 0 -10 -4 -10 -9z"/>
<path d="M1760 730 c0 -5 17 -10 38 -10 27 0 33 3 22 10 -20 13 -60 13 -60 0z"/>
<path d="M2925 729 c-10 -15 1 -23 20 -15 9 3 13 10 10 16 -8 13 -22 13 -30
-1z"/>
<path d="M1562 710 c-8 -14 -23 -20 -46 -20 -19 0 -37 -4 -41 -10 -3 -5 -12
-7 -20 -3 -10 3 -15 -2 -15 -16 0 -12 5 -30 11 -40 11 -17 14 -16 40 13 31 35
49 29 29 -8 -14 -28 -6 -61 13 -53 46 19 46 19 49 -14 3 -34 37 -65 45 -41 6
16 34 15 60 -3 20 -14 21 -14 13 20 -8 34 -7 35 18 33 22 -3 27 2 32 27 5 27
9 30 42 30 20 0 42 6 49 13 10 10 3 12 -40 12 l-53 0 7 30 c8 35 -4 39 -30 10
-10 -11 -25 -20 -34 -21 -9 0 -2 -5 16 -10 24 -7 30 -13 26 -29 -3 -11 -11
-20 -19 -20 -7 0 -20 -12 -28 -27 -11 -23 -21 -28 -52 -28 -32 0 -39 3 -39 20
0 11 -8 28 -17 38 -22 21 -23 60 -3 77 16 13 21 40 7 40 -4 0 -13 -9 -20 -20z"/>
<path d="M2860 720 c0 -5 5 -10 10 -10 6 0 10 5 10 10 0 6 -4 10 -10 10 -5 0
-10 -4 -10 -10z"/>
<path d="M1284 709 c-3 -6 -2 -15 4 -21 7 -7 22 -6 46 2 20 6 40 9 45 6 12 -8
41 3 41 15 0 13 -128 11 -136 -2z"/>
<path d="M2117 714 c-13 -13 -7 -24 14 -24 11 0 19 5 17 12 -5 14 -22 21 -31
12z"/>
<path d="M2475 710 c-3 -5 1 -10 9 -10 9 0 16 5 16 10 0 6 -4 10 -9 10 -6 0
-13 -4 -16 -10z"/>
<path d="M2600 680 c0 -13 7 -20 20 -20 23 0 26 10 8 28 -18 18 -28 15 -28 -8z"/>
<path d="M60 655 c0 -8 5 -15 10 -15 6 0 10 7 10 15 0 8 -4 15 -10 15 -5 0
-10 -7 -10 -15z"/>
<path d="M1347 640 c-3 -12 -14 -20 -26 -20 -27 0 -27 -17 -1 -25 25 -8 41 1
34 20 -4 8 1 18 10 21 9 3 13 10 10 15 -9 15 -21 10 -27 -11z"/>
<path d="M2427 633 c-12 -11 -8 -23 8 -23 8 0 15 7 15 15 0 16 -12 20 -23 8z"/>
<path d="M2505 629 c-4 -6 -4 -13 -1 -16 8 -8 36 5 36 17 0 13 -27 13 -35 -1z"/>
<path d="M1380 610 c0 -10 -8 -21 -37 -54 -10 -11 -9 -17 4 -28 15 -11 16 -11
10 4 -4 13 1 18 23 23 16 4 34 4 40 0 5 -3 10 0 10 7 0 7 3 23 6 36 6 19 3 22
-25 22 -17 0 -31 -5 -31 -10z"/>
<path d="M1152 599 c2 -6 8 -10 13 -10 5 0 11 4 13 10 2 6 -4 11 -13 11 -9 0
-15 -5 -13 -11z"/>
<path d="M1982 593 c-5 -10 -7 -24 -5 -31 4 -10 8 -10 19 -1 16 13 19 49 4 49
-5 0 -13 -8 -18 -17z"/>
<path d="M2931 585 c-7 -16 -17 -38 -22 -47 -12 -24 -11 -28 6 -28 21 0 37 36
33 73 l-4 32 -13 -30z"/>
<path d="M1890 590 c0 -5 7 -10 16 -10 8 0 12 5 9 10 -3 6 -10 10 -16 10 -5 0
-9 -4 -9 -10z"/>
<path d="M2560 590 c0 -5 5 -10 10 -10 6 0 10 5 10 10 0 6 -4 10 -10 10 -5 0
-10 -4 -10 -10z"/>
<path d="M1935 580 c-7 -12 2 -30 16 -30 12 0 12 27 0 35 -5 3 -12 1 -16 -5z"/>
<path d="M2042 548 c-2 -43 0 -48 20 -48 19 0 20 1 5 13 -9 6 -18 28 -20 47
-3 29 -4 27 -5 -12z"/>
<path d="M2680 580 c0 -5 7 -7 15 -4 8 4 15 8 15 10 0 2 -7 4 -15 4 -8 0 -15
-4 -15 -10z"/>
<path d="M2860 580 c0 -5 5 -10 10 -10 6 0 10 5 10 10 0 6 -4 10 -10 10 -5 0
-10 -4 -10 -10z"/>
<path d="M855 560 c4 -6 11 -8 16 -5 14 9 11 15 -7 15 -8 0 -12 -5 -9 -10z"/>
<path d="M1258 549 c-22 -12 -23 -29 -4 -29 8 0 16 -6 19 -12 3 -9 12 -6 28
10 20 19 22 24 9 32 -19 12 -31 12 -52 -1z"/>
<path d="M2680 524 c0 -22 2 -25 15 -14 12 10 13 16 4 26 -6 8 -13 14 -15 14
-2 0 -4 -12 -4 -26z"/>
<path d="M1980 523 c0 -11 7 -26 15 -33 12 -10 15 -10 15 1 0 8 -7 23 -15 33
-15 19 -15 19 -15 -1z"/>
<path d="M1810 520 c0 -5 5 -10 10 -10 6 0 10 5 10 10 0 6 -4 10 -10 10 -5 0
-10 -4 -10 -10z"/>
<path d="M1872 518 c-8 -8 -8 -15 -1 -24 10 -12 23 -9 59 14 6 4 -22 22 -35
22 -6 0 -16 -5 -23 -12z"/>
<path d="M2266 510 c-22 -11 -53 -20 -70 -20 -26 -1 -28 -2 -13 -11 9 -6 15
-14 12 -20 -10 -16 5 -10 27 10 17 16 24 18 40 8 16 -10 22 -8 39 12 20 24 25
41 12 41 -5 -1 -26 -10 -47 -20z"/>
<path d="M535 501 c-3 -5 -2 -12 3 -15 12 -7 52 4 52 15 0 12 -47 12 -55 0z"/>
<path d="M1737 484 c-17 -18 -3 -24 51 -23 48 1 52 2 27 9 -16 5 -39 11 -50
15 -11 3 -24 3 -28 -1z"/>
<path d="M1940 475 c0 -8 5 -15 10 -15 6 0 10 7 10 15 0 8 -4 15 -10 15 -5 0
-10 -7 -10 -15z"/>
<path d="M1670 470 c20 -13 40 -13 40 0 0 6 -12 10 -27 10 -22 0 -25 -2 -13
-10z"/>
<path d="M1895 460 c3 -5 14 -10 23 -10 15 0 15 2 2 10 -20 13 -33 13 -25 0z"/>
<path d="M2013 462 c-24 -2 -43 -7 -43 -12 0 -13 143 -7 147 6 3 10 -24 12
-104 6z"/>
<path d="M2836 415 c-3 -9 1 -18 10 -22 19 -7 39 11 30 26 -10 16 -33 13 -40
-4z"/>
<path d="M190 355 c0 -9 9 -15 21 -15 18 0 19 2 9 15 -7 8 -16 15 -21 15 -5 0
-9 -7 -9 -15z"/>
<path d="M725 360 c4 -6 11 -8 16 -5 14 9 11 15 -7 15 -8 0 -12 -5 -9 -10z"/>
<path d="M1493 343 c-7 -15 -11 -28 -9 -31 8 -7 26 9 26 24 0 8 10 14 25 14
14 0 25 5 25 10 0 6 -12 10 -27 10 -20 0 -31 -7 -40 -27z"/>
<path d="M2837 350 c-5 -19 -9 -21 -21 -11 -9 8 -16 9 -21 2 -3 -6 5 -16 20
-23 33 -15 49 -1 37 32 l-9 24 -6 -24z"/>
<path d="M2902 343 c2 -10 12 -18 23 -18 11 0 21 8 23 18 3 13 -3 17 -23 17
-20 0 -26 -4 -23 -17z"/>
<path d="M80 334 c0 -8 5 -12 10 -9 6 3 10 10 10 16 0 5 -4 9 -10 9 -5 0 -10
-7 -10 -16z"/>
<path d="M695 333 c-5 -17 -15 -23 -35 -23 -17 0 -30 7 -34 17 -6 15 -8 15
-16 3 -6 -8 -10 -18 -10 -22 0 -4 16 -15 35 -24 22 -10 35 -23 35 -35 0 -11
-7 -19 -15 -19 -9 0 -15 9 -15 25 0 14 -5 25 -10 25 -17 0 -23 -29 -11 -44 7
-8 8 -17 4 -19 -7 -4 -9 -42 -4 -66 1 -2 8 2 16 9 9 7 13 20 10 30 -4 12 0 16
17 16 19 -1 24 7 35 54 7 30 11 64 9 75 -3 19 -4 19 -11 -2z"/>
<path d="M1735 325 c16 -13 31 -23 33 -21 2 2 -3 13 -10 25 -7 12 -22 21 -33
21 -18 -1 -16 -4 10 -25z"/>
<path d="M370 330 c0 -5 -9 -10 -19 -10 -30 0 -32 -13 -5 -39 18 -18 24 -19
24 -8 0 9 7 20 17 25 10 6 14 16 10 26 -7 17 -27 22 -27 6z"/>
<path d="M420 314 c-6 -15 -8 -34 -5 -43 5 -13 7 -14 16 -1 8 13 10 13 18 0 6
-8 13 -11 18 -7 4 5 3 11 -3 15 -6 4 -11 18 -10 31 1 34 -22 38 -34 5z"/>
<path d="M474 328 c-6 -10 14 -20 26 -13 6 3 10 -1 10 -9 0 -10 9 -16 24 -16
29 0 43 17 28 32 -12 12 -82 17 -88 6z"/>
<path d="M2013 326 c4 -10 7 -22 7 -27 0 -5 5 -9 11 -9 15 0 7 43 -10 48 -10
3 -12 0 -8 -12z"/>
<path d="M2098 323 c-10 -2 -18 -11 -18 -19 0 -20 14 -17 35 6 18 20 16 22
-17 13z"/>
<path d="M2253 323 c15 -2 39 -2 55 0 15 2 2 4 -28 4 -30 0 -43 -2 -27 -4z"/>
<path d="M2465 320 c-9 -14 -6 -17 25 -22 17 -2 25 2 25 12 0 18 -40 26 -50
10z"/>
<path d="M225 301 c-9 -28 -45 -38 -61 -16 -7 9 -17 14 -23 11 -6 -4 -26 -9
-46 -11 -26 -4 -35 -1 -35 10 0 10 -10 15 -30 15 -26 0 -30 -4 -30 -26 0 -18
4 -25 14 -21 9 4 12 0 10 -11 -3 -11 7 -24 26 -37 32 -21 47 -54 36 -81 -5
-14 -9 -14 -22 -3 -8 7 -26 13 -40 14 -33 1 -32 -32 1 -47 13 -6 27 -20 31
-30 5 -18 7 -18 19 -2 11 16 13 14 24 -18 10 -31 27 -48 47 -48 10 0 -11 56
-24 66 -9 7 -13 18 -9 29 5 12 15 16 32 12 14 -2 28 0 31 5 3 4 10 6 15 3 5
-4 5 -13 -1 -25 -5 -10 -10 -21 -10 -23 0 -3 11 -7 25 -9 14 -3 25 -4 25 -1 0
2 -5 12 -12 22 -9 15 -9 25 0 46 17 36 16 50 -3 35 -8 -7 -26 -9 -44 -5 -22 5
-28 10 -24 26 3 11 14 19 27 19 11 0 31 3 44 6 15 5 22 2 22 -9 0 -8 8 -21 17
-28 18 -15 18 -17 -3 51 -4 12 -2 20 5 20 6 0 11 -7 11 -15 0 -8 7 -15 15 -15
8 0 15 7 15 15 0 8 -4 15 -10 15 -16 0 -12 30 5 36 8 4 15 10 15 16 0 5 -5 6
-10 3 -6 -4 -22 0 -35 9 -13 9 -26 16 -29 16 -3 0 -7 -9 -11 -19z m-65 -37 c0
-10 -7 -14 -22 -12 -32 5 -35 28 -4 28 17 0 26 -5 26 -16z m96 -13 c-4 -6 -14
-11 -22 -11 -12 0 -13 4 -3 21 7 14 14 18 21 11 6 -6 7 -15 4 -21z m-49 -38
c-3 -3 -11 -2 -17 2 -9 6 -9 10 1 16 8 5 15 4 18 -2 1 -6 1 -13 -2 -16z"/>
<path d="M820 298 c0 -18 -4 -20 -32 -14 -18 3 -35 11 -39 17 -11 18 -29 1
-29 -27 0 -17 8 -28 26 -36 l26 -12 -27 -22 c-28 -22 -27 -44 2 -44 9 0 26
-11 39 -26 17 -18 24 -21 24 -10 0 9 -4 16 -9 16 -5 0 -14 14 -21 31 -10 22
-10 33 -1 42 6 6 11 19 11 29 0 13 8 18 26 18 23 0 25 -3 19 -31 -6 -24 -4
-30 6 -27 8 3 13 17 12 32 -2 25 0 26 37 22 22 -3 42 -1 45 5 4 5 -2 9 -13 9
-26 0 -34 11 -21 27 9 10 8 13 -2 14 -8 1 -29 2 -46 4 -27 2 -33 -1 -33 -17z
m40 -18 c0 -5 -4 -10 -9 -10 -6 0 -13 5 -16 10 -3 6 1 10 9 10 9 0 16 -4 16
-10z"/>
<path d="M1840 289 c0 -23 4 -30 15 -25 8 3 18 -2 23 -11 8 -13 11 -10 16 13
6 21 3 31 -10 41 -30 22 -44 16 -44 -18z"/>
<path d="M2155 310 c-4 -6 3 -10 14 -10 25 0 27 6 6 13 -8 4 -17 2 -20 -3z"/>
<path d="M1060 285 c-13 -14 -32 -25 -42 -25 -25 0 -23 -12 7 -38 15 -14 27
-17 31 -11 4 8 9 7 15 -2 17 -27 10 -40 -16 -33 -28 7 -33 -7 -10 -26 8 -7 15
-20 15 -29 0 -9 12 -25 27 -35 l26 -19 -7 28 c-16 63 -18 85 -8 85 5 0 12 -7
16 -15 3 -8 12 -15 21 -15 8 0 15 7 15 15 0 10 10 15 29 15 42 0 81 17 81 35
0 12 12 15 55 15 30 0 55 4 55 9 0 5 12 12 28 16 l27 7 -24 9 c-17 7 -28 5
-41 -6 -20 -18 -44 -19 -73 -4 -16 9 -22 9 -25 0 -5 -16 -44 -14 -68 4 -26 20
-34 19 -34 -6 0 -15 -4 -19 -16 -15 -9 4 -23 1 -31 -5 -22 -19 -36 2 -24 34 6
14 7 29 2 31 -4 3 -19 -6 -31 -19z"/>
<path d="M480 290 c0 -5 5 -10 10 -10 6 0 10 5 10 10 0 6 -4 10 -10 10 -5 0
-10 -4 -10 -10z"/>
<path d="M1295 290 c-3 -5 3 -10 15 -10 12 0 18 5 15 10 -3 6 -10 10 -15 10
-5 0 -12 -4 -15 -10z"/>
<path d="M2573 293 c-7 -2 -13 -18 -13 -34 0 -16 -4 -29 -10 -29 -5 0 -10 -10
-10 -22 0 -17 3 -19 12 -10 7 7 22 12 34 12 12 0 24 7 28 15 4 11 -1 15 -19
15 -18 0 -25 5 -25 20 0 10 8 24 18 29 17 11 7 13 -15 4z"/>
<path d="M2700 283 c0 -15 -15 -15 -70 0 -8 2 -12 2 -7 0 4 -3 7 -12 7 -20 0
-11 7 -14 26 -9 15 4 32 2 40 -5 8 -7 14 -7 14 -1 0 15 51 25 63 13 15 -15 27
-14 27 3 0 16 -23 27 -67 32 -25 2 -33 -1 -33 -13z"/>
<path d="M960 280 c0 -5 9 -10 20 -10 11 0 20 5 20 10 0 6 -9 10 -20 10 -11 0
-20 -4 -20 -10z"/>
<path d="M2357 279 c8 -8 16 -8 30 0 16 9 14 10 -11 11 -22 0 -27 -3 -19 -11z"/>
<path d="M2937 283 c-4 -3 -7 -19 -7 -35 0 -17 5 -28 13 -28 21 0 47 -34 47
-61 -1 -34 11 -89 19 -89 3 0 12 4 19 9 11 7 11 9 -1 14 -12 4 -14 19 -11 66
3 55 2 61 -16 61 -13 0 -20 7 -20 18 0 21 -33 56 -43 45z"/>
<path d="M1920 269 c0 -5 6 -9 14 -9 8 0 22 -3 32 -7 12 -4 15 -2 12 8 -5 15
-58 23 -58 8z"/>
<path d="M2020 264 c0 -8 5 -12 10 -9 6 3 10 10 10 16 0 5 -4 9 -10 9 -5 0
-10 -7 -10 -16z"/>
<path d="M565 260 c-3 -5 -17 -10 -31 -10 -13 0 -24 -4 -24 -10 0 -5 -19 -10
-43 -10 -33 0 -49 -6 -66 -24 -16 -17 -19 -26 -10 -31 8 -6 7 -10 -5 -17 -19
-11 -21 -38 -3 -38 7 0 25 -6 40 -12 17 -9 27 -21 27 -35 0 -32 -37 -31 -49 1
-13 32 -38 40 -51 16 -8 -16 -8 -20 4 -20 12 0 14 -5 6 -26 -6 -14 -10 -30
-10 -35 0 -17 25 -9 39 13 12 19 14 20 23 5 6 -12 16 -15 34 -11 14 4 24 2 24
-5 0 -6 18 -11 43 -11 30 0 48 6 60 20 9 11 26 20 36 20 11 0 23 5 27 12 5 7
11 5 21 -7 12 -18 13 -18 13 2 0 25 15 39 25 23 8 -13 25 -13 25 0 0 16 -66
44 -85 36 -11 -4 -15 -13 -12 -26 6 -23 -7 -34 -30 -26 -12 5 -13 9 -4 20 8
10 9 16 2 21 -6 3 -22 -5 -35 -19 -13 -14 -31 -26 -40 -26 -9 0 -19 -7 -22
-15 -4 -8 -10 -15 -15 -15 -11 0 -11 51 0 69 5 7 24 13 44 13 37 0 82 31 71
49 -4 6 -13 4 -25 -7 -21 -19 -49 -13 -49 11 0 9 7 18 16 22 9 3 20 15 24 27
l9 21 0 -22 c1 -37 21 -37 21 1 0 19 3 41 6 50 4 10 1 16 -9 16 -9 0 -19 -4
-22 -10z m-71 -64 c-3 -8 0 -17 6 -21 8 -5 6 -13 -6 -26 -9 -10 -23 -19 -31
-19 -17 0 -17 46 0 65 16 18 38 19 31 1z m-60 -57 c-3 -5 -10 -7 -15 -3 -5 3
-7 10 -3 15 3 5 10 7 15 3 5 -3 7 -10 3 -15z"/>
<path d="M1504 256 c27 -13 28 -13 6 -19 -12 -3 -19 -10 -16 -16 7 -10 70 -10
81 1 4 3 -3 16 -14 27 -13 13 -33 21 -53 20 l-33 -1 29 -12z"/>
<path d="M2210 255 c0 -8 7 -15 15 -15 8 0 15 7 15 15 0 8 -7 15 -15 15 -8 0
-15 -7 -15 -15z"/>
<path d="M2445 251 c-2 -5 12 -11 33 -13 35 -5 51 -3 41 6 -11 9 -69 14 -74 7z"/>
<path d="M319 223 c-8 -22 -6 -30 12 -47 19 -18 21 -19 16 -3 -4 11 -1 20 7
23 11 4 11 10 2 30 -6 13 -14 24 -19 24 -4 0 -12 -12 -18 -27z"/>
<path d="M956 242 c-3 -6 -20 -13 -37 -17 -39 -9 -54 -44 -34 -82 8 -15 15
-36 15 -45 0 -20 26 -25 32 -6 3 8 12 7 34 -3 25 -13 29 -19 26 -52 -2 -22 1
-37 7 -37 6 0 12 6 13 13 9 76 -1 98 -61 123 -64 27 -63 61 0 61 22 0 43 3 46
7 4 4 -2 16 -14 27 -12 13 -23 17 -27 11z"/>
<path d="M1432 234 c1 -9 9 -19 16 -22 9 -3 13 2 10 14 -1 9 -9 19 -16 22 -9
3 -13 -2 -10 -14z"/>
<path d="M1766 235 c5 -12 2 -13 -12 -8 -18 6 -18 6 -2 -10 9 -9 21 -17 27
-17 5 0 14 -8 20 -17 5 -10 12 -15 16 -11 3 3 2 14 -4 25 -5 10 -12 26 -15 36
-3 9 -12 17 -20 17 -10 0 -13 -6 -10 -15z"/>
<path d="M1650 230 c0 -5 7 -10 15 -10 8 0 15 5 15 10 0 6 -7 10 -15 10 -8 0
-15 -4 -15 -10z"/>
<path d="M1362 214 c-7 -13 -12 -14 -29 -3 -11 6 -28 9 -37 6 -14 -6 -14 -10
-4 -27 13 -21 52 -27 63 -10 3 6 17 10 31 10 27 0 33 24 8 34 -21 8 -22 8 -32
-10z"/>
<path d="M2160 226 c0 -9 30 -14 35 -6 4 6 -3 10 -14 10 -12 0 -21 -2 -21 -4z"/>
<path d="M2790 210 c0 -13 7 -20 20 -20 11 0 20 4 20 10 0 5 -9 14 -20 20 -17
9 -20 8 -20 -10z"/>
<path d="M1610 214 c0 -3 12 -18 28 -34 20 -21 32 -26 47 -20 18 7 17 9 -12
26 -18 11 -33 22 -33 27 0 4 -7 7 -15 7 -8 0 -15 -2 -15 -6z"/>
<path d="M1695 211 c-3 -5 4 -13 16 -16 12 -4 18 -12 15 -21 -3 -8 1 -14 9
-14 18 0 19 19 1 43 -14 19 -32 22 -41 8z"/>
<path d="M1880 214 c0 -3 7 -12 15 -21 19 -19 15 -37 -9 -41 -22 -5 -47 18
-28 25 20 8 14 22 -8 16 -28 -7 -27 -49 1 -56 12 -3 18 -10 14 -16 -10 -17
-29 -13 -55 9 -17 14 -26 17 -31 9 -4 -7 -17 -9 -32 -5 -33 8 -45 -11 -15 -23
17 -7 19 -10 6 -10 -24 -1 -23 -21 1 -21 10 0 21 -7 25 -15 6 -17 66 -21 66
-5 0 6 -4 10 -10 10 -5 0 -10 7 -10 15 0 9 9 15 25 15 14 0 25 -4 25 -10 0 -5
5 -10 10 -10 6 0 10 7 10 16 0 11 5 14 16 10 9 -3 20 -6 25 -6 19 0 8 -19 -13
-22 -15 -2 -24 -11 -26 -25 -2 -15 2 -23 11 -23 9 0 17 6 20 13 3 9 10 9 31
-2 19 -10 30 -11 37 -4 8 8 8 13 0 17 -16 10 -13 26 4 26 8 0 15 -4 15 -10 0
-5 8 -10 17 -10 9 0 24 -7 34 -16 10 -9 25 -14 34 -10 21 8 11 44 -20 71 -12
11 -26 29 -30 40 -7 18 -8 19 -12 2 -3 -10 0 -24 6 -31 14 -16 2 -29 -15 -15
-8 7 -14 7 -19 -1 -11 -18 -25 -11 -25 13 0 13 9 32 20 42 11 10 20 24 20 32
0 8 -13 0 -30 -19 -16 -18 -30 -39 -30 -47 0 -11 -4 -10 -14 5 -8 11 -12 30
-9 46 4 19 0 29 -15 37 -23 12 -32 14 -32 5z m-85 -124 c-5 -8 -11 -8 -17 -2
-6 6 -7 16 -3 22 5 8 11 8 17 2 6 -6 7 -16 3 -22z"/>
<path d="M2020 210 c0 -5 3 -10 8 -10 4 0 13 -13 20 -29 16 -36 42 -49 42 -21
0 11 5 20 10 20 6 0 10 5 10 10 0 6 -13 10 -29 10 -16 0 -31 6 -35 15 -6 17
-26 21 -26 5z"/>
<path d="M2252 204 c4 -21 22 -23 26 -1 2 10 -3 17 -13 17 -10 0 -15 -6 -13
-16z"/>
<path d="M2327 202 c-10 -10 -15 -21 -12 -24 3 -2 18 -3 35 0 25 4 28 7 19 23
-5 10 -13 19 -18 19 -4 0 -15 -8 -24 -18z"/>
<path d="M1470 205 c0 -12 24 -55 32 -55 15 0 8 48 -8 54 -19 7 -24 8 -24 1z"/>
<path d="M1960 195 c0 -8 2 -15 4 -15 2 0 6 7 10 15 3 8 1 15 -4 15 -6 0 -10
-7 -10 -15z"/>
<path d="M1567 193 c-4 -3 -7 -15 -7 -25 0 -26 24 -17 28 10 3 21 -8 29 -21
15z"/>
<path d="M2700 178 c0 -18 2 -19 18 -7 9 7 18 14 20 15 1 1 -6 4 -18 7 -15 4
-20 0 -20 -15z"/>
<path d="M2856 182 c-2 -4 -1 -14 4 -22 7 -11 12 -12 21 -3 6 6 8 16 5 22 -8
13 -23 14 -30 3z"/>
<path d="M830 165 c-14 -16 -6 -35 16 -35 8 0 14 10 14 25 0 28 -12 32 -30 10z"/>
<path d="M696 154 c-4 -10 -1 -14 6 -12 15 5 23 28 10 28 -5 0 -13 -7 -16 -16z"/>
<path d="M660 144 c0 -8 5 -12 10 -9 6 4 8 11 5 16 -9 14 -15 11 -15 -7z"/>
<path d="M2160 133 c0 -16 6 -23 20 -23 13 0 18 -5 14 -15 -10 -26 5 -36 31
-19 28 18 37 7 29 -34 -5 -27 -9 -29 -25 -19 -20 12 -35 5 -24 -12 4 -7 43
-10 103 -9 91 1 93 2 32 7 -58 5 -65 9 -68 29 -3 16 5 27 27 40 32 18 41 42
16 42 -8 0 -15 -4 -15 -10 0 -5 -7 -10 -15 -10 -11 0 -13 8 -8 30 7 37 -14 41
-23 5 -3 -14 -13 -25 -21 -25 -10 0 -12 6 -8 19 5 16 0 19 -30 23 -31 4 -35 1
-35 -19z"/>
<path d="M290 140 c0 -5 5 -10 10 -10 6 0 10 5 10 10 0 6 -4 10 -10 10 -5 0
-10 -4 -10 -10z"/>
<path d="M1255 140 c-3 -5 -23 -10 -44 -10 -33 0 -39 -3 -44 -25 -3 -18 1 -29
15 -36 12 -7 18 -19 16 -36 -2 -15 3 -28 10 -31 10 -3 13 5 10 29 -2 25 1 34
14 37 12 2 15 -2 11 -18 -4 -16 -2 -19 11 -14 12 5 19 0 23 -15 6 -24 23 -18
23 8 0 20 32 33 56 24 8 -3 14 -11 14 -19 0 -8 5 -14 11 -14 13 0 2 41 -16 56
-9 7 -10 15 -4 25 5 8 9 16 9 19 0 3 -16 6 -35 7 -32 1 -35 -1 -35 -27 0 -32
-15 -48 -24 -25 -3 10 -19 15 -42 15 -24 0 -34 4 -32 13 3 6 18 13 34 15 33 4
51 17 36 26 -6 3 -13 2 -17 -4z m80 -50 c3 -5 -1 -10 -9 -10 -9 0 -16 5 -16
10 0 6 4 10 9 10 6 0 13 -4 16 -10z"/>
<path d="M1403 107 c1 -30 6 -46 13 -43 6 2 17 -1 23 -7 8 -8 11 -7 11 6 0 9
-4 17 -10 17 -5 0 -10 8 -10 18 0 10 -6 27 -14 38 -13 17 -14 15 -13 -29z"/>
<path d="M2345 140 c-3 -5 1 -10 9 -10 9 0 16 5 16 10 0 6 -4 10 -9 10 -6 0
-13 -4 -16 -10z"/>
<path d="M1460 115 c0 -24 44 -78 54 -67 3 3 6 13 6 23 0 12 -10 21 -27 25
-23 6 -24 8 -10 19 10 7 17 14 17 16 0 3 -9 5 -20 6 -15 1 -20 -4 -20 -22z"/>
<path d="M2710 127 c0 -23 12 -27 34 -12 11 8 23 15 27 15 3 0 18 -11 33 -25
22 -21 34 -24 61 -19 28 5 34 3 40 -16 9 -28 31 -20 27 11 -2 13 -5 26 -7 28
-2 1 -21 4 -42 6 -21 2 -54 8 -73 14 -49 15 -100 14 -100 -2z"/>
<path d="M762 110 c0 -14 2 -19 5 -12 2 6 2 18 0 25 -3 6 -5 1 -5 -13z"/>
<path d="M1640 115 c0 -8 9 -15 20 -15 11 0 20 2 20 5 0 2 -9 9 -20 15 -16 9
-20 8 -20 -5z"/>
<path d="M2442 107 c2 -17 11 -23 36 -25 45 -4 42 21 -4 36 -33 10 -35 9 -32
-11z"/>
<path d="M312 109 c2 -7 10 -15 17 -17 8 -3 12 1 9 9 -2 7 -10 15 -17 17 -8 3
-12 -1 -9 -9z"/>
<path d="M1110 110 c0 -5 5 -10 10 -10 6 0 10 5 10 10 0 6 -4 10 -10 10 -5 0
-10 -4 -10 -10z"/>
<path d="M262 101 c-13 -3 -22 -10 -21 -16 8 -35 13 -45 23 -45 14 0 39 52 29
60 -5 4 -18 4 -31 1z"/>
<path d="M813 83 c-10 -16 -13 -16 -22 -3 -10 13 -11 13 -11 0 1 -8 20 -30 45
-48 29 -22 52 -32 67 -29 20 4 20 4 -4 6 -32 1 -37 21 -12 45 8 9 12 16 7 16
-5 0 -14 -5 -21 -12 -9 -9 -15 -9 -23 -1 -8 8 -8 13 0 17 6 4 11 11 11 17 0
15 -24 10 -37 -8z"/>
<path d="M2122 91 c-10 -6 -10 -11 3 -21 14 -12 18 -11 26 1 5 8 9 17 9 22 0
9 -22 9 -38 -2z"/>
<path d="M1556 75 c-3 -9 0 -18 9 -21 17 -7 8 -34 -11 -34 -8 0 -14 -4 -14
-10 0 -5 11 -10 24 -10 15 0 26 7 29 20 3 12 11 18 19 15 8 -3 22 3 32 14 18
20 18 21 -8 31 -35 13 -46 13 -46 -1 0 -8 -4 -8 -14 0 -11 9 -15 8 -20 -4z"/>
<path d="M2390 59 c-7 -11 -9 -23 -6 -26 7 -7 36 22 36 36 0 18 -19 12 -30
-10z"/>
<path d="M1030 56 c0 -22 17 -28 24 -10 9 22 8 24 -9 24 -8 0 -15 -6 -15 -14z"/>
<path d="M2704 35 c-8 -25 -8 -35 0 -35 10 0 36 44 36 62 0 4 -6 8 -13 8 -6 0
-17 -16 -23 -35z"/>
<path d="M15 50 c-4 -6 -3 -16 3 -22 6 -6 12 -6 17 2 4 6 3 16 -3 22 -6 6 -12
6 -17 -2z"/>
<path d="M1693 53 c-7 -3 -13 -16 -13 -29 0 -21 4 -24 40 -24 32 0 38 3 33 16
-3 8 -12 13 -19 10 -8 -3 -14 1 -14 9 0 17 -11 24 -27 18z"/>
<path d="M2776 53 c-3 -3 -3 -10 0 -14 7 -12 34 -11 34 0 0 11 -26 22 -34 14z"/>
<path d="M213 33 c-7 -3 -13 -12 -13 -21 0 -15 2 -15 17 1 18 18 16 27 -4 20z"/>
<path d="M1805 20 c-18 -19 -17 -20 2 -20 22 0 47 23 36 33 -10 11 -19 8 -38
-13z"/>
<path d="M2146 24 c-9 -8 -16 -17 -16 -20 0 -2 11 -4 25 -4 18 0 25 5 25 20 0
24 -13 26 -34 4z"/>
<path d="M710 15 c-11 -13 -8 -15 15 -15 23 0 26 2 15 15 -7 8 -14 15 -15 15
-1 0 -8 -7 -15 -15z"/>
<path d="M255 10 c-3 -5 3 -10 15 -10 12 0 18 5 15 10 -3 6 -10 10 -15 10 -5
0 -12 -4 -15 -10z"/>
<path d="M1915 10 c-4 -6 6 -10 22 -10 22 0 25 2 13 10 -19 12 -27 12 -35 0z"/>
</g>
</svg>
