<?xml version="1.0" standalone="no"?>
<!DOCTYPE svg PUBLIC "-//W3C//DTD SVG 20010904//EN"
 "http://www.w3.org/TR/2001/REC-SVG-20010904/DTD/svg10.dtd">
<svg version="1.0" xmlns="http://www.w3.org/2000/svg"
 width="152.000000pt" height="259.000000pt" viewBox="0 0 152.000000 259.000000"
 preserveAspectRatio="xMidYMid meet">
<g transform="translate(0.000000,259.000000) scale(0.100000,-0.100000)"
fill="#000000" stroke="none">
<path d="M517 2566 c-10 -25 -9 -29 8 -22 11 4 15 -2 15 -24 0 -17 -5 -30 -12
-30 -9 0 -9 -3 0 -12 15 -15 16 -74 2 -83 -5 -3 -10 -12 -10 -18 0 -7 4 -6 10
3 10 14 5 -1137 -5 -1250 -6 -67 -7 -629 -1 -638 3 -5 2 -22 -3 -38 l-8 -29
-13 25 c-9 17 -10 25 -1 28 6 2 11 9 11 15 -1 7 -10 1 -20 -12 -21 -25 -27
-46 -10 -36 6 3 15 -6 20 -21 9 -23 7 -33 -11 -58 -17 -23 -18 -28 -6 -23 12
4 16 1 15 -11 -1 -9 0 -28 1 -42 1 -20 3 -22 11 -10 8 12 10 11 10 -7 0 -12
-4 -25 -10 -28 -5 -3 -10 0 -10 7 0 10 -2 10 -9 -1 -10 -16 -18 -4 -15 27 1
13 -3 21 -10 19 -6 -2 -10 -12 -8 -22 2 -9 -1 -14 -7 -11 -5 4 -12 2 -15 -3
-3 -5 -14 -7 -25 -4 -14 4 -18 0 -17 -19 1 -22 -1 -23 -80 -23 -50 0 -80 4
-78 10 5 15 -14 41 -23 32 -4 -5 -1 -12 6 -16 8 -5 9 -11 3 -15 -6 -3 -13 0
-15 6 -3 8 -6 6 -6 -4 -1 -21 -36 -25 -47 -5 -4 6 -4 9 1 5 14 -13 45 11 38
29 -4 10 -2 14 4 10 27 -17 51 64 26 85 -15 12 -16 9 -10 -21 6 -29 5 -32 -8
-21 -20 17 -23 12 -28 -34 -3 -34 -8 -39 -29 -40 -14 -1 -32 -9 -42 -18 -15
-16 -14 -16 19 -11 31 5 35 4 29 -13 -4 -13 -3 -15 3 -7 6 9 38 12 98 12 57 0
83 -4 74 -10 -9 -5 -10 -9 -2 -9 6 0 15 4 18 10 3 5 14 10 23 10 12 0 13 -3 5
-8 -7 -4 14 -7 47 -6 32 1 63 5 69 8 5 4 13 1 17 -5 5 -9 11 -7 19 5 13 17 50
12 39 -5 -3 -5 -10 -7 -15 -4 -5 4 -9 1 -9 -4 0 -14 17 -14 25 -1 4 6 11 7 17
4 7 -5 9 -1 5 9 -3 10 -2 17 3 17 6 0 10 -4 10 -9 0 -4 10 -7 23 -6 12 1 22 3
22 4 0 1 19 3 43 5 23 1 42 0 42 -3 0 -3 37 -6 83 -7 186 -1 479 -15 504 -25
14 -5 28 -8 30 -5 7 7 -60 26 -111 31 -28 3 -114 7 -191 10 -77 2 -183 7 -235
10 -111 6 -248 13 -271 14 -13 1 -14 10 -9 51 5 40 4 50 -7 46 -9 -4 -13 4
-13 28 0 21 6 36 15 40 9 3 12 12 8 22 -4 11 -2 15 4 11 7 -5 9 1 6 15 -4 19
-3 21 7 8 10 -13 11 -12 5 5 -16 46 -18 125 -4 142 9 10 9 14 2 10 -9 -6 -12
22 -11 120 1 71 -2 135 -7 142 -6 10 -4 12 5 6 10 -6 11 -2 6 19 -5 20 -4 26
5 20 8 -5 9 -3 4 6 -11 17 -12 58 -3 93 6 24 5 27 -7 17 -19 -16 -20 1 -3 33
15 29 19 79 5 70 -6 -3 -7 -1 -3 6 4 6 8 68 8 137 0 129 8 153 37 118 24 -30
47 -35 48 -12 2 15 -3 19 -18 15 -12 -3 -19 -1 -17 5 3 7 31 11 74 9 69 -1
102 8 90 27 -9 15 -56 20 -111 12 -48 -7 -46 -7 28 -9 43 0 76 -4 74 -8 -3 -5
-20 -7 -39 -7 -18 1 -66 2 -107 3 -72 1 -74 2 -57 20 10 10 13 21 9 24 -10 6
-8 230 2 254 2 8 1 12 -4 9 -5 -3 -7 20 -5 52 3 31 4 64 3 72 -5 73 4 457 11
499 7 38 7 58 -1 68 -6 7 -8 13 -4 13 4 0 3 6 -2 13 -6 6 -9 33 -8 60 1 33 -2
47 -11 47 -7 0 -14 5 -16 12 -3 7 -7 5 -11 -6z m-31 -2335 c22 4 34 -2 34 -16
0 -8 -4 -15 -10 -15 -5 0 -10 5 -10 11 0 8 -4 8 -14 0 -11 -10 -17 -7 -30 11
-9 13 -16 17 -16 9 0 -8 -2 -12 -5 -9 -3 3 -3 13 1 22 6 15 8 16 24 1 10 -9
21 -15 26 -14z m-57 -23 c1 -5 -5 -8 -13 -8 -9 0 -12 8 -8 27 5 25 6 25 13 8
4 -11 8 -23 8 -27z m26 2 c3 -5 1 -10 -4 -10 -6 0 -11 5 -11 10 0 6 2 10 4 10
3 0 8 -4 11 -10z"/>
<path d="M801 2564 c0 -11 3 -14 6 -6 3 7 2 16 -1 19 -3 4 -6 -2 -5 -13z"/>
<path d="M960 2570 c0 -5 5 -10 11 -10 5 0 7 5 4 10 -3 6 -8 10 -11 10 -2 0
-4 -4 -4 -10z"/>
<path d="M1460 2560 c0 -5 7 -7 15 -4 8 4 15 8 15 10 0 2 -7 4 -15 4 -8 0 -15
-4 -15 -10z"/>
<path d="M339 2556 c-2 -2 -78 -6 -168 -10 -90 -3 -166 -7 -168 -9 -2 -2 4
-10 13 -17 9 -9 18 -10 22 -4 4 5 27 11 52 12 51 3 291 13 363 15 79 3 52 17
-31 17 -43 0 -81 -2 -83 -4z"/>
<path d="M665 2550 c-3 -5 -1 -10 4 -10 6 0 11 5 11 10 0 6 -2 10 -4 10 -3 0
-8 -4 -11 -10z"/>
<path d="M588 2543 c7 -3 16 -2 19 1 4 3 -2 6 -13 5 -11 0 -14 -3 -6 -6z"/>
<path d="M1418 2533 c7 -3 16 -2 19 1 4 3 -2 6 -13 5 -11 0 -14 -3 -6 -6z"/>
<path d="M426 2522 c-9 -14 9 -29 26 -23 17 6 16 7 -2 18 -10 7 -21 9 -24 5z"/>
<path d="M775 2520 c-3 -5 -1 -10 4 -10 6 0 11 5 11 10 0 6 -2 10 -4 10 -3 0
-8 -4 -11 -10z"/>
<path d="M948 2523 c7 -3 16 -2 19 1 4 3 -2 6 -13 5 -11 0 -14 -3 -6 -6z"/>
<path d="M1072 2523 c-13 -5 -7 -23 9 -23 6 0 7 5 4 10 -3 6 0 10 9 10 8 0 16
-5 18 -12 3 -7 7 -6 11 5 5 13 1 17 -16 16 -12 0 -28 -3 -35 -6z"/>
<path d="M490 2511 c0 -6 4 -13 10 -16 6 -3 7 1 4 9 -7 18 -14 21 -14 7z"/>
<path d="M1318 2513 c6 -2 18 -2 25 0 6 3 1 5 -13 5 -14 0 -19 -2 -12 -5z"/>
<path d="M338 2483 c-9 -2 -19 -10 -22 -18 -4 -12 -1 -12 19 -3 14 6 25 15 25
20 0 4 -1 7 -2 7 -2 -1 -10 -3 -20 -6z"/>
<path d="M265 2470 c-3 -5 -1 -10 4 -10 6 0 11 5 11 10 0 6 -2 10 -4 10 -3 0
-8 -4 -11 -10z"/>
<path d="M976 2472 c-3 -6 11 -12 34 -14 42 -4 42 6 -1 17 -15 4 -30 2 -33 -3z"/>
<path d="M460 2450 c0 -19 3 -21 12 -12 9 9 9 15 0 24 -9 9 -12 7 -12 -12z"/>
<path d="M795 2459 c-4 -6 -5 -12 -2 -15 2 -3 7 2 10 11 7 17 1 20 -8 4z"/>
<path d="M893 2463 c15 -2 37 -2 50 0 12 2 0 4 -28 4 -27 0 -38 -2 -22 -4z"/>
<path d="M1440 2405 c-2 -144 -5 -170 -20 -183 -13 -12 -13 -13 2 -9 17 6 34
-33 19 -43 -5 -3 -7 -27 -5 -55 6 -99 7 -336 0 -342 -11 -11 -7 -225 4 -218 6
3 10 1 10 -4 0 -6 -5 -11 -11 -11 -7 0 -9 -11 -5 -30 3 -19 2 -29 -4 -25 -6 3
-7 -1 -4 -9 3 -9 11 -13 16 -10 6 4 8 -3 4 -17 -3 -13 -3 -18 0 -11 3 6 10 10
15 6 5 -3 9 2 9 10 0 8 -4 17 -9 20 -4 3 -7 56 -5 118 2 71 0 107 -6 98 -10
-16 -8 43 3 70 10 27 13 89 3 83 -5 -4 -6 11 -2 38 15 91 17 135 6 114 -8 -16
-9 -14 -6 16 2 20 11 48 21 62 11 17 13 27 6 27 -6 0 -16 -10 -21 -22 -8 -21
-16 -10 -11 16 8 39 8 331 1 349 -7 17 -9 9 -10 -38z m7 -757 c-3 -8 -6 -5 -6
6 -1 11 2 17 5 13 3 -3 4 -12 1 -19z m0 -40 c-3 -8 -6 -5 -6 6 -1 11 2 17 5
13 3 -3 4 -12 1 -19z"/>
<path d="M705 2439 c-11 -4 -15 -8 -10 -8 6 -1 3 -6 -5 -12 -11 -8 -9 -9 10
-3 30 8 33 10 29 22 -2 5 -13 6 -24 1z"/>
<path d="M746 2419 c-3 -17 -6 -41 -6 -53 1 -31 16 -1 23 47 7 45 -8 50 -17 6z"/>
<path d="M810 2434 c0 -8 5 -12 10 -9 6 3 10 10 10 16 0 5 -4 9 -10 9 -5 0
-10 -7 -10 -16z"/>
<path d="M1112 2435 c-11 -12 -10 -15 3 -15 8 0 15 7 15 15 0 18 -2 18 -18 0z"/>
<path d="M350 2429 c0 -5 5 -7 10 -4 6 3 10 8 10 11 0 2 -4 4 -10 4 -5 0 -10
-5 -10 -11z"/>
<path d="M496 2432 c-3 -5 1 -9 9 -9 8 0 12 4 9 9 -3 4 -7 8 -9 8 -2 0 -6 -4
-9 -8z"/>
<path d="M645 2420 c-10 -11 -14 -20 -9 -20 5 0 15 9 22 20 7 11 11 20 9 20
-2 0 -12 -9 -22 -20z"/>
<path d="M900 2431 c-20 -6 -22 -8 -8 -13 9 -4 22 -1 28 8 7 8 11 14 9 13 -2
-1 -15 -4 -29 -8z"/>
<path d="M1053 2422 c11 -11 16 -26 12 -31 -3 -6 -2 -11 3 -11 9 0 26 30 20
35 -2 1 -14 8 -28 15 -25 13 -25 13 -7 -8z"/>
<path d="M405 2420 c-3 -6 1 -7 9 -4 18 7 21 14 7 14 -6 0 -13 -4 -16 -10z"/>
<path d="M845 2420 c3 -5 10 -10 16 -10 5 0 9 5 9 10 0 6 -7 10 -16 10 -8 0
-12 -4 -9 -10z"/>
<path d="M316 2401 c-4 -5 -2 -12 3 -15 5 -4 12 -2 15 3 4 5 2 12 -3 15 -5 4
-12 2 -15 -3z"/>
<path d="M1007 2398 c4 -7 8 -16 8 -20 0 -19 20 -11 23 10 3 17 -2 22 -18 22
-14 0 -19 -4 -13 -12z"/>
<path d="M1103 2395 c0 -8 4 -12 9 -9 5 3 6 10 3 15 -9 13 -12 11 -12 -6z"/>
<path d="M660 2390 c0 -5 5 -10 10 -10 6 0 10 5 10 10 0 6 -4 10 -10 10 -5 0
-10 -4 -10 -10z"/>
<path d="M270 2380 c0 -5 5 -10 10 -10 6 0 10 5 10 10 0 6 -4 10 -10 10 -5 0
-10 -4 -10 -10z"/>
<path d="M640 2364 c0 -22 2 -25 15 -14 12 10 13 16 4 26 -16 20 -19 18 -19
-12z"/>
<path d="M851 2376 c-10 -12 -8 -13 8 -9 12 3 18 9 15 14 -7 12 -10 11 -23 -5z"/>
<path d="M808 2358 c3 -14 1 -19 -6 -14 -8 5 -10 1 -5 -10 5 -13 3 -15 -7 -9
-9 5 -11 4 -6 -4 6 -9 11 -9 22 0 15 13 19 59 5 59 -5 0 -7 -10 -3 -22z"/>
<path d="M1138 2373 c7 -3 16 -2 19 1 4 3 -2 6 -13 5 -11 0 -14 -3 -6 -6z"/>
<path d="M324 2362 c5 -8 -2 -10 -25 -5 -23 4 -30 3 -25 -5 9 -14 52 -16 61
-3 3 5 0 13 -6 17 -8 4 -9 3 -5 -4z"/>
<path d="M386 2355 c4 -8 10 -12 15 -9 14 8 10 24 -6 24 -9 0 -12 -6 -9 -15z"/>
<path d="M688 2353 c7 -3 16 -2 19 1 4 3 -2 6 -13 5 -11 0 -14 -3 -6 -6z"/>
<path d="M923 2353 c9 -2 23 -2 30 0 6 3 -1 5 -18 5 -16 0 -22 -2 -12 -5z"/>
<path d="M210 2340 c-8 -5 -10 -10 -5 -10 6 0 17 5 25 10 8 5 11 10 5 10 -5 0
-17 -5 -25 -10z"/>
<path d="M1056 2338 c3 -4 9 -8 15 -8 5 0 9 4 9 8 0 5 -7 9 -15 9 -8 0 -12 -4
-9 -9z"/>
<path d="M506 2333 c-10 -11 -7 -28 10 -49 14 -18 15 -18 4 5 -9 18 -9 25 0
31 7 5 8 10 2 13 -5 4 -12 4 -16 0z"/>
<path d="M737 2333 c-4 -3 -6 -22 -6 -42 l1 -36 8 40 c8 42 8 49 -3 38z"/>
<path d="M920 2330 c19 -13 30 -13 30 0 0 6 -10 10 -22 10 -19 0 -20 -2 -8
-10z"/>
<path d="M610 2310 c-6 -11 -8 -20 -6 -20 3 0 10 9 16 20 6 11 8 20 6 20 -3 0
-10 -9 -16 -20z"/>
<path d="M670 2325 c0 -2 7 -8 15 -15 12 -10 15 -10 15 2 0 8 -7 15 -15 15 -8
0 -15 -1 -15 -2z"/>
<path d="M200 2310 c0 -5 5 -10 11 -10 5 0 7 5 4 10 -3 6 -8 10 -11 10 -2 0
-4 -4 -4 -10z"/>
<path d="M400 2306 c-6 -9 -10 -21 -7 -28 4 -9 6 -7 6 4 1 9 7 18 14 21 6 2 9
7 6 11 -3 4 -12 0 -19 -8z"/>
<path d="M642 2300 c0 -14 2 -19 5 -12 2 6 2 18 0 25 -3 6 -5 1 -5 -13z"/>
<path d="M1060 2309 c0 -5 5 -7 10 -4 6 3 10 8 10 11 0 2 -4 4 -10 4 -5 0 -10
-5 -10 -11z"/>
<path d="M1382 2295 c0 -16 2 -22 5 -12 2 9 2 23 0 30 -3 6 -5 -1 -5 -18z"/>
<path d="M160 2301 c0 -5 7 -12 16 -15 24 -9 27 -7 10 9 -17 17 -26 19 -26 6z"/>
<path d="M900 2296 c0 -8 -6 -17 -12 -19 -8 -3 -6 -6 5 -6 11 -1 17 6 17 19 0
11 -2 20 -5 20 -3 0 -5 -6 -5 -14z"/>
<path d="M1010 2282 c0 -15 -6 -34 -12 -41 -8 -9 -8 -11 -2 -8 7 4 15 0 18 -9
5 -12 1 -14 -17 -9 -19 5 -20 4 -4 -5 20 -13 25 -86 5 -74 -10 6 -10 4 -2 -7
6 -8 10 -62 10 -126 -1 -62 3 -113 7 -113 5 0 5 -10 1 -22 -3 -13 -3 -20 1
-16 4 3 7 100 7 215 1 114 5 216 10 226 6 12 5 17 -7 17 -10 0 -15 -9 -15 -28z"/>
<path d="M805 2280 c-3 -11 -13 -20 -21 -20 -8 0 -14 -3 -14 -7 0 -5 11 -8 24
-8 18 0 23 6 24 28 1 32 -4 35 -13 7z"/>
<path d="M977 2293 c-4 -3 -7 -11 -7 -17 0 -6 5 -5 12 2 6 6 9 14 7 17 -3 3
-9 2 -12 -2z"/>
<path d="M1201 2284 c0 -11 3 -14 6 -6 3 7 2 16 -1 19 -3 4 -6 -2 -5 -13z"/>
<path d="M215 2280 c-3 -5 -1 -10 4 -10 6 0 11 5 11 10 0 6 -2 10 -4 10 -3 0
-8 -4 -11 -10z"/>
<path d="M250 2273 c0 -13 5 -23 10 -23 13 0 13 11 0 30 -8 12 -10 11 -10 -7z"/>
<path d="M1081 2279 c-15 -6 -21 -14 -17 -25 3 -9 6 -24 6 -35 0 -10 4 -19 8
-19 4 0 6 16 4 35 -4 33 2 41 31 36 4 0 7 4 7 9 0 12 -7 12 -39 -1z"/>
<path d="M1511 2274 c0 -11 3 -14 6 -6 3 7 2 16 -1 19 -3 4 -6 -2 -5 -13z"/>
<path d="M415 2270 c-3 -5 -2 -10 4 -10 5 0 13 5 16 10 3 6 2 10 -4 10 -5 0
-13 -4 -16 -10z"/>
<path d="M700 2270 c0 -5 5 -10 10 -10 6 0 10 5 10 10 0 6 -4 10 -10 10 -5 0
-10 -4 -10 -10z"/>
<path d="M485 2260 c3 -5 8 -10 11 -10 2 0 4 5 4 10 0 6 -5 10 -11 10 -5 0 -7
-4 -4 -10z"/>
<path d="M940 2260 c0 -5 5 -10 10 -10 6 0 10 5 10 10 0 6 -4 10 -10 10 -5 0
-10 -4 -10 -10z"/>
<path d="M1486 2257 c3 -10 9 -15 12 -12 3 3 0 11 -7 18 -10 9 -11 8 -5 -6z"/>
<path d="M870 2251 c0 -6 4 -13 10 -16 6 -3 7 1 4 9 -7 18 -14 21 -14 7z"/>
<path d="M901 2244 c0 -11 3 -14 6 -6 3 7 2 16 -1 19 -3 4 -6 -2 -5 -13z"/>
<path d="M1509 2233 c-6 -37 -5 -94 2 -99 5 -3 9 20 9 50 0 31 -2 56 -5 56 -3
0 -6 -3 -6 -7z"/>
<path d="M780 2222 c0 -4 9 -8 20 -9 11 -1 20 2 20 8 0 5 -9 9 -20 9 -11 0
-20 -4 -20 -8z"/>
<path d="M165 2210 c-3 -5 -2 -10 4 -10 5 0 13 5 16 10 3 6 2 10 -4 10 -5 0
-13 -4 -16 -10z"/>
<path d="M620 2209 c0 -5 5 -7 10 -4 6 3 10 8 10 11 0 2 -4 4 -10 4 -5 0 -10
-5 -10 -11z"/>
<path d="M696 2205 c-3 -9 -6 -22 -5 -28 0 -7 5 -1 10 12 5 13 8 26 5 28 -2 2
-6 -3 -10 -12z"/>
<path d="M751 2203 c-10 -20 13 -51 24 -33 3 6 1 10 -6 10 -6 0 -9 8 -6 20 6
25 1 26 -12 3z"/>
<path d="M890 2213 c22 -9 30 -25 24 -48 -4 -11 -3 -17 1 -12 13 11 13 51 1
59 -6 4 -18 7 -26 7 -13 -1 -13 -1 0 -6z"/>
<path d="M1109 2213 c0 -5 -3 -19 -5 -32 -2 -14 -2 -22 1 -19 8 8 17 58 10 58
-3 0 -5 -3 -6 -7z"/>
<path d="M1152 2195 c0 -16 2 -22 5 -12 2 9 2 23 0 30 -3 6 -5 -1 -5 -18z"/>
<path d="M724 2143 c1 -40 6 -76 9 -80 10 -9 7 108 -3 132 -5 13 -7 -6 -6 -52z"/>
<path d="M128 2193 c7 -3 16 -2 19 1 4 3 -2 6 -13 5 -11 0 -14 -3 -6 -6z"/>
<path d="M375 2190 c-3 -6 1 -7 9 -4 18 7 21 14 7 14 -6 0 -13 -4 -16 -10z"/>
<path d="M660 2175 c0 -14 4 -25 9 -25 5 0 8 11 7 25 -1 33 -16 33 -16 0z"/>
<path d="M805 2181 c5 -15 4 -21 -3 -17 -6 3 -14 1 -18 -5 -4 -8 -3 -9 4 -5 7
4 12 2 12 -3 0 -6 4 -11 9 -11 11 0 7 47 -4 58 -4 4 -4 -4 0 -17z"/>
<path d="M335 2180 c-3 -5 1 -10 10 -10 9 0 13 5 10 10 -3 6 -8 10 -10 10 -2
0 -7 -4 -10 -10z"/>
<path d="M855 2179 c-4 -6 -4 -13 -1 -16 3 -4 6 -1 6 6 0 7 5 9 12 5 7 -4 8
-3 4 4 -9 15 -13 15 -21 1z"/>
<path d="M1053 2183 c-7 -2 -13 -20 -13 -39 0 -22 4 -33 10 -29 6 4 8 16 5 26
-4 11 -1 26 5 34 13 16 12 16 -7 8z"/>
<path d="M1411 2174 c0 -11 3 -14 6 -6 3 7 2 16 -1 19 -3 4 -6 -2 -5 -13z"/>
<path d="M586 2172 c-3 -5 -1 -22 4 -38 8 -29 8 -29 9 9 1 36 -3 45 -13 29z"/>
<path d="M306 2155 c-3 -8 -1 -15 4 -15 6 0 10 7 10 15 0 8 -2 15 -4 15 -2 0
-6 -7 -10 -15z"/>
<path d="M940 2162 c0 -7 6 -20 14 -27 12 -12 15 -12 20 1 3 8 2 12 -3 9 -6
-3 -14 3 -20 12 -6 11 -11 13 -11 5z"/>
<path d="M1070 2144 c0 -8 5 -12 10 -9 6 3 10 10 10 16 0 5 -4 9 -10 9 -5 0
-10 -7 -10 -16z"/>
<path d="M1101 2134 c0 -11 3 -14 6 -6 3 7 2 16 -1 19 -3 4 -6 -2 -5 -13z"/>
<path d="M640 2130 c0 -5 7 -7 15 -4 8 4 15 8 15 10 0 2 -7 4 -15 4 -8 0 -15
-4 -15 -10z"/>
<path d="M890 2131 c0 -5 7 -11 14 -14 10 -4 13 -1 9 9 -6 15 -23 19 -23 5z"/>
<path d="M347 2114 c3 -7 9 -14 14 -14 14 0 10 17 -5 23 -10 4 -13 1 -9 -9z"/>
<path d="M942 2110 c0 -14 2 -19 5 -12 2 6 2 18 0 25 -3 6 -5 1 -5 -13z"/>
<path d="M315 2110 c3 -5 8 -10 11 -10 2 0 4 5 4 10 0 6 -5 10 -11 10 -5 0 -7
-4 -4 -10z"/>
<path d="M1500 2115 c0 -5 5 -17 10 -25 5 -8 10 -10 10 -5 0 6 -5 17 -10 25
-5 8 -10 11 -10 5z"/>
<path d="M190 2099 c0 -5 5 -7 10 -4 6 3 10 8 10 11 0 2 -4 4 -10 4 -5 0 -10
-5 -10 -11z"/>
<path d="M236 2097 c3 -10 9 -15 12 -12 3 3 0 11 -7 18 -10 9 -11 8 -5 -6z"/>
<path d="M672 2090 c0 -14 2 -19 5 -12 2 6 2 18 0 25 -3 6 -5 1 -5 -13z"/>
<path d="M1087 2090 c-3 -11 -1 -20 4 -20 5 0 9 9 9 20 0 11 -2 20 -4 20 -2 0
-6 -9 -9 -20z"/>
<path d="M1040 2073 c0 -14 3 -23 7 -19 10 10 11 46 1 46 -4 0 -8 -12 -8 -27z"/>
<path d="M130 2079 c0 -5 5 -7 10 -4 6 3 10 8 10 11 0 2 -4 4 -10 4 -5 0 -10
-5 -10 -11z"/>
<path d="M630 2071 c0 -25 6 -27 13 -6 4 8 2 17 -3 20 -6 4 -10 -3 -10 -14z"/>
<path d="M820 2080 c0 -5 5 -10 10 -10 6 0 10 5 10 10 0 6 -4 10 -10 10 -5 0
-10 -4 -10 -10z"/>
<path d="M312 2056 c7 -8 17 -12 22 -9 4 3 2 9 -5 14 -22 13 -31 11 -17 -5z"/>
<path d="M850 2054 c0 -8 5 -12 10 -9 6 4 8 11 5 16 -9 14 -15 11 -15 -7z"/>
<path d="M582 2030 c0 -14 2 -19 5 -12 2 6 2 18 0 25 -3 6 -5 1 -5 -13z"/>
<path d="M656 2035 c-9 -26 -7 -32 5 -12 6 10 9 21 6 23 -2 3 -7 -2 -11 -11z"/>
<path d="M1501 2024 c0 -11 3 -14 6 -6 3 7 2 16 -1 19 -3 4 -6 -2 -5 -13z"/>
<path d="M1408 1888 c-1 -79 -3 -165 -4 -193 -7 -176 -5 -250 5 -253 6 -2 11
-15 11 -28 0 -18 -4 -23 -12 -18 -9 6 -9 3 0 -9 11 -13 13 -64 8 -252 -3 -129
-7 -239 -9 -243 -3 -4 -5 -71 -5 -149 0 -113 2 -143 14 -147 8 -3 14 -1 14 4
0 6 -4 10 -10 10 -5 0 -10 14 -10 31 0 25 3 30 16 25 14 -5 15 -4 4 9 -13 16
-10 103 5 139 6 15 5 17 -5 11 -9 -5 -11 -4 -6 3 4 7 2 12 -5 12 -7 0 -8 4 -2
13 5 6 10 28 12 47 2 19 7 36 11 38 5 2 5 15 -1 29 -13 36 -1 143 17 143 8 0
14 8 14 18 0 14 -2 15 -10 2 -15 -24 -20 -7 -20 66 -1 75 2 104 12 120 4 5 2
16 -4 24 -8 12 -9 12 -4 -2 3 -10 1 -20 -4 -23 -6 -4 -10 5 -10 19 0 29 18 44
26 22 3 -9 11 -16 16 -16 6 0 5 6 -2 15 -6 8 -9 19 -5 26 6 8 2 8 -14 0 -14
-8 -21 -8 -21 -1 0 5 4 10 9 10 13 0 7 28 -10 49 -14 15 -15 57 -11 304 3 158
2 287 -2 287 -3 0 -7 -64 -8 -142z"/>
<path d="M286 2004 c-9 -24 -7 -27 9 -10 17 17 19 26 6 26 -5 0 -12 -7 -15
-16z"/>
<path d="M733 1945 c0 -44 2 -61 4 -37 2 23 2 59 0 80 -2 20 -4 1 -4 -43z"/>
<path d="M965 1999 c-11 -16 -1 -19 13 -3 7 8 8 14 3 14 -5 0 -13 -5 -16 -11z"/>
<path d="M642 1980 c0 -14 2 -19 5 -12 2 6 2 18 0 25 -3 6 -5 1 -5 -13z"/>
<path d="M765 1991 c-3 -5 -1 -12 5 -16 5 -3 10 1 10 9 0 18 -6 21 -15 7z"/>
<path d="M1040 1970 c0 -11 4 -20 9 -20 5 0 7 9 4 20 -3 11 -7 20 -9 20 -2 0
-4 -9 -4 -20z"/>
<path d="M255 1970 c3 -5 8 -10 11 -10 2 0 4 5 4 10 0 6 -5 10 -11 10 -5 0 -7
-4 -4 -10z"/>
<path d="M345 1960 c-3 -5 -1 -10 4 -10 6 0 11 5 11 10 0 6 -2 10 -4 10 -3 0
-8 -4 -11 -10z"/>
<path d="M620 1964 c0 -5 7 -18 15 -28 8 -11 15 -16 15 -10 0 5 -7 18 -15 28
-8 11 -15 16 -15 10z"/>
<path d="M438 1953 c7 -3 16 -2 19 1 4 3 -2 6 -13 5 -11 0 -14 -3 -6 -6z"/>
<path d="M476 1944 c-4 -9 -4 -19 -1 -22 2 -3 7 3 11 12 4 9 4 19 1 22 -2 3
-7 -3 -11 -12z"/>
<path d="M680 1952 c0 -12 19 -26 26 -19 2 2 -2 10 -11 17 -9 8 -15 8 -15 2z"/>
<path d="M1382 1925 c0 -16 2 -22 5 -12 2 9 2 23 0 30 -3 6 -5 -1 -5 -18z"/>
<path d="M235 1930 c3 -5 8 -10 11 -10 2 0 4 5 4 10 0 6 -5 10 -11 10 -5 0 -7
-4 -4 -10z"/>
<path d="M1498 1907 c-3 -19 -2 -25 4 -19 6 6 8 18 6 28 -3 14 -5 12 -10 -9z"/>
<path d="M1116 1904 c-5 -14 -4 -15 9 -4 17 14 19 20 6 20 -5 0 -12 -7 -15
-16z"/>
<path d="M166 1894 c-9 -24 -7 -27 9 -10 17 17 19 26 6 26 -5 0 -12 -7 -15
-16z"/>
<path d="M500 1900 c0 -5 5 -10 10 -10 6 0 10 5 10 10 0 6 -4 10 -10 10 -5 0
-10 -4 -10 -10z"/>
<path d="M675 1899 c-4 -6 -5 -12 -2 -15 2 -3 7 2 10 11 7 17 1 20 -8 4z"/>
<path d="M110 1880 c0 -5 5 -10 11 -10 5 0 7 5 4 10 -3 6 -8 10 -11 10 -2 0
-4 -4 -4 -10z"/>
<path d="M881 1854 c0 -11 3 -14 6 -6 3 7 2 16 -1 19 -3 4 -6 -2 -5 -13z"/>
<path d="M726 1843 c-4 -9 -2 -21 4 -27 7 -7 10 -2 10 17 0 31 -5 34 -14 10z"/>
<path d="M400 1840 c0 -5 5 -10 11 -10 5 0 7 5 4 10 -3 6 -8 10 -11 10 -2 0
-4 -4 -4 -10z"/>
<path d="M445 1820 c-3 -5 -1 -10 4 -10 6 0 11 5 11 10 0 6 -2 10 -4 10 -3 0
-8 -4 -11 -10z"/>
<path d="M1482 1810 c0 -14 2 -19 5 -12 2 6 2 18 0 25 -3 6 -5 1 -5 -13z"/>
<path d="M308 1793 c7 -3 16 -2 19 1 4 3 -2 6 -13 5 -11 0 -14 -3 -6 -6z"/>
<path d="M723 1785 c-3 -9 -3 -18 -1 -21 3 -3 8 4 11 16 6 23 -1 27 -10 5z"/>
<path d="M863 1793 c-15 -5 -17 -23 -4 -23 5 0 11 7 15 15 3 8 4 15 3 14 -1 0
-8 -3 -14 -6z"/>
<path d="M750 1766 c0 -8 5 -18 10 -21 6 -3 10 1 10 9 0 8 -4 18 -10 21 -5 3
-10 -1 -10 -9z"/>
<path d="M722 1730 c0 -14 2 -19 5 -12 2 6 2 18 0 25 -3 6 -5 1 -5 -13z"/>
<path d="M1488 1718 c-2 -7 -1 -31 3 -53 6 -40 6 -39 8 13 1 51 -3 65 -11 40z"/>
<path d="M660 1686 c0 -2 8 -10 18 -17 15 -13 16 -12 3 4 -13 16 -21 21 -21
13z"/>
<path d="M642 1640 c-12 -20 -17 -107 -6 -134 3 -9 12 -16 20 -16 17 0 19 36
3 46 -7 4 -10 29 -7 65 2 33 4 59 4 59 -1 0 -7 -9 -14 -20z m18 -120 c0 -5 -4
-10 -10 -10 -5 0 -10 5 -10 10 0 6 5 10 10 10 6 0 10 -4 10 -10z"/>
<path d="M674 1613 c2 -21 -1 -44 -7 -50 -14 -19 -3 -16 22 6 13 12 18 22 11
26 -5 3 -10 15 -10 25 0 10 -4 21 -10 25 -5 3 -8 -10 -6 -32z"/>
<path d="M160 1636 c0 -2 7 -7 16 -10 8 -3 12 -2 9 4 -6 10 -25 14 -25 6z"/>
<path d="M1480 1610 c-8 -5 -10 -10 -4 -10 6 0 11 -27 12 -67 3 -96 12 -91 11
6 0 44 -1 81 -2 81 -1 0 -9 -5 -17 -10z"/>
<path d="M40 1570 c0 -5 5 -10 10 -10 6 0 10 5 10 10 0 6 -4 10 -10 10 -5 0
-10 -4 -10 -10z"/>
<path d="M100 1560 c0 -5 5 -10 10 -10 6 0 10 5 10 10 0 6 -4 10 -10 10 -5 0
-10 -4 -10 -10z"/>
<path d="M1370 1561 c0 -6 4 -13 10 -16 6 -3 7 1 4 9 -7 18 -14 21 -14 7z"/>
<path d="M390 1529 c0 -5 5 -7 10 -4 6 3 10 8 10 11 0 2 -4 4 -10 4 -5 0 -10
-5 -10 -11z"/>
<path d="M220 1520 c0 -5 5 -10 10 -10 6 0 10 5 10 10 0 6 -4 10 -10 10 -5 0
-10 -4 -10 -10z"/>
<path d="M328 1513 c7 -3 16 -2 19 1 4 3 -2 6 -13 5 -11 0 -14 -3 -6 -6z"/>
<path d="M493 1496 c-12 -14 -7 -26 9 -26 5 0 6 5 3 10 -3 6 -1 10 4 10 6 0
11 5 11 10 0 14 -13 12 -27 -4z"/>
<path d="M77 1484 c6 -15 23 -19 23 -5 0 5 -7 11 -14 14 -10 4 -13 1 -9 -9z"/>
<path d="M188 1463 c7 -3 16 -2 19 1 4 3 -2 6 -13 5 -11 0 -14 -3 -6 -6z"/>
<path d="M336 1455 c4 -8 8 -15 10 -15 2 0 4 7 4 15 0 8 -4 15 -10 15 -5 0 -7
-7 -4 -15z"/>
<path d="M580 1456 c0 -9 5 -16 10 -16 6 0 10 4 10 9 0 6 -4 13 -10 16 -5 3
-10 -1 -10 -9z"/>
<path d="M140 1450 c0 -5 5 -10 10 -10 6 0 10 5 10 10 0 6 -4 10 -10 10 -5 0
-10 -4 -10 -10z"/>
<path d="M1484 1439 c-3 -6 -1 -16 5 -22 8 -8 11 -5 11 11 0 24 -5 28 -16 11z"/>
<path d="M341 1408 c-1 -12 -6 -15 -18 -11 -15 5 -16 3 -5 -8 15 -16 37 1 29
23 -4 9 -6 8 -6 -4z"/>
<path d="M117 1399 c7 -7 15 -10 18 -7 3 3 -2 9 -12 12 -14 6 -15 5 -6 -5z"/>
<path d="M1490 1393 c-1 -5 -2 -53 -4 -108 -4 -114 -14 -231 -22 -259 -4 -13
-2 -17 7 -14 10 3 15 27 16 79 2 41 6 90 10 109 3 19 6 38 5 41 -1 4 -2 41 -3
83 -1 42 -3 76 -5 76 -2 0 -4 -3 -4 -7z"/>
<path d="M200 1375 c7 -8 17 -15 22 -15 6 0 5 7 -2 15 -7 8 -17 15 -22 15 -6
0 -5 -7 2 -15z"/>
<path d="M105 1370 c3 -5 8 -10 11 -10 2 0 4 5 4 10 0 6 -5 10 -11 10 -5 0 -7
-4 -4 -10z"/>
<path d="M140 1360 c0 -5 5 -10 10 -10 6 0 10 5 10 10 0 6 -4 10 -10 10 -5 0
-10 -4 -10 -10z"/>
<path d="M567 1364 c7 -3 9 -13 6 -22 -5 -13 -3 -14 7 -5 14 13 5 33 -13 32
-9 0 -9 -2 0 -5z"/>
<path d="M440 1328 c0 -19 2 -20 10 -8 13 19 13 30 0 30 -5 0 -10 -10 -10 -22z"/>
<path d="M601 1334 c0 -11 3 -14 6 -6 3 7 2 16 -1 19 -3 4 -6 -2 -5 -13z"/>
<path d="M620 1340 c0 -5 5 -10 10 -10 6 0 10 5 10 10 0 6 -4 10 -10 10 -5 0
-10 -4 -10 -10z"/>
<path d="M1394 1250 c0 -58 1 -81 3 -52 2 28 2 76 0 105 -2 28 -3 5 -3 -53z"/>
<path d="M577 1301 c3 -11 0 -28 -7 -36 -10 -13 -9 -19 6 -36 24 -26 55 -21
73 13 15 25 14 29 -7 48 -13 12 -29 19 -36 17 -8 -3 -18 -1 -24 5 -8 8 -9 5
-5 -11z m58 -41 c0 -29 -38 -41 -48 -16 -10 26 4 47 27 44 15 -2 21 -10 21
-28z"/>
<path d="M608 1263 c7 -3 16 -2 19 1 4 3 -2 6 -13 5 -11 0 -14 -3 -6 -6z"/>
<path d="M1460 1276 c0 -9 5 -16 10 -16 6 0 10 4 10 9 0 6 -4 13 -10 16 -5 3
-10 -1 -10 -9z"/>
<path d="M155 1269 c-4 -6 -5 -12 -2 -15 2 -3 7 2 10 11 7 17 1 20 -8 4z"/>
<path d="M1462 1210 c0 -19 2 -27 5 -17 2 9 2 25 0 35 -3 9 -5 1 -5 -18z"/>
<path d="M101 1214 c0 -11 3 -14 6 -6 3 7 2 16 -1 19 -3 4 -6 -2 -5 -13z"/>
<path d="M132 1170 c0 -14 2 -19 5 -12 2 6 2 18 0 25 -3 6 -5 1 -5 -13z"/>
<path d="M223 1145 c0 -8 4 -15 9 -15 4 0 8 4 8 9 0 6 -4 12 -8 15 -5 3 -9 -1
-9 -9z"/>
<path d="M1391 1124 c0 -11 3 -14 6 -6 3 7 2 16 -1 19 -3 4 -6 -2 -5 -13z"/>
<path d="M270 1120 c0 -5 5 -10 10 -10 6 0 10 5 10 10 0 6 -4 10 -10 10 -5 0
-10 -4 -10 -10z"/>
<path d="M90 1100 c-13 -8 -12 -10 3 -10 9 0 17 5 17 10 0 12 -1 12 -20 0z"/>
<path d="M1380 1088 c0 -7 5 -20 10 -28 8 -12 10 -11 10 7 0 12 -4 25 -10 28
-5 3 -10 0 -10 -7z"/>
<path d="M215 1080 c3 -5 8 -10 11 -10 2 0 4 5 4 10 0 6 -5 10 -11 10 -5 0 -7
-4 -4 -10z"/>
<path d="M65 1044 c-33 -36 -42 -54 -26 -54 12 0 51 40 51 52 0 4 9 8 20 8 11
0 20 -6 20 -12 0 -7 7 -3 15 9 15 21 15 21 55 2 27 -13 38 -24 34 -34 -3 -8 1
-22 10 -30 21 -21 21 -42 1 -25 -9 8 -15 9 -15 2 0 -6 5 -14 10 -17 6 -4 8
-11 5 -16 -4 -5 -1 -9 5 -9 7 0 14 9 17 20 3 11 12 20 20 20 8 0 11 5 8 10 -4
6 -10 8 -15 5 -5 -3 -14 12 -21 34 -10 33 -19 43 -48 53 -20 7 -54 13 -76 13
-33 0 -46 -5 -70 -31z"/>
<path d="M7 1059 c7 -7 15 -10 18 -7 3 3 -2 9 -12 12 -14 6 -15 5 -6 -5z"/>
<path d="M1391 1024 c0 -11 3 -14 6 -6 3 7 2 16 -1 19 -3 4 -6 -2 -5 -13z"/>
<path d="M100 1023 c0 -3 10 -21 21 -40 16 -26 24 -31 30 -21 7 10 9 10 9 1 0
-7 5 -13 10 -13 21 0 8 19 -20 29 -16 5 -30 15 -30 21 0 6 5 8 10 5 6 -3 10
-2 10 3 0 5 -9 12 -20 15 -11 3 -20 3 -20 0z"/>
<path d="M79 985 c-3 -20 -11 -31 -26 -35 -18 -4 -20 -8 -12 -20 8 -11 12 -12
16 -2 2 6 11 12 19 12 9 0 12 5 8 12 -5 8 0 9 14 6 12 -4 22 -2 22 3 0 5 -4 9
-8 9 -5 0 -14 10 -19 23 -10 21 -11 21 -14 -8z"/>
<path d="M165 1000 c-3 -6 1 -7 9 -4 18 7 21 14 7 14 -6 0 -13 -4 -16 -10z"/>
<path d="M1468 998 c-12 -10 -14 -19 -7 -35 13 -35 29 -27 27 12 -1 19 -2 35
-3 35 -1 0 -8 -6 -17 -12z"/>
<path d="M193 935 c-3 -9 -3 -19 1 -22 3 -4 6 -1 6 5 0 7 7 12 16 12 8 0 12 5
9 10 -9 15 -25 12 -32 -5z"/>
<path d="M89 921 c-13 -11 -21 -21 -16 -22 4 -1 10 -2 15 -3 4 -1 14 -5 22
-10 9 -6 7 -1 -4 12 -20 23 -9 31 12 10 14 -14 16 0 3 20 -6 10 -13 8 -32 -7z"/>
<path d="M280 931 c0 -5 9 -11 20 -14 24 -6 27 8 4 17 -21 8 -24 8 -24 -3z"/>
<path d="M1368 895 c-8 -19 -11 -32 -5 -28 6 4 8 0 4 -10 -3 -10 -2 -17 2 -17
7 0 22 79 16 87 0 1 -8 -13 -17 -32z"/>
<path d="M1465 900 c1 -19 -3 -30 -12 -30 -7 0 -13 -8 -13 -17 0 -14 2 -15 9
-4 13 20 20 -8 10 -36 -5 -14 -5 -23 1 -23 6 0 10 -9 10 -21 0 -11 -4 -18 -9
-15 -4 3 -6 -6 -3 -19 10 -54 22 -20 22 63 0 48 3 97 6 110 5 15 2 22 -8 22
-10 0 -14 -10 -13 -30z"/>
<path d="M227 909 c7 -7 15 -10 18 -7 3 3 -2 9 -12 12 -14 6 -15 5 -6 -5z"/>
<path d="M291 900 c-4 -3 -11 -18 -14 -35 -6 -27 -5 -28 5 -8 6 12 18 25 27
28 21 8 43 -22 32 -44 -10 -18 13 -48 24 -31 3 6 1 10 -4 10 -6 0 -11 5 -11
11 0 5 5 7 10 4 15 -9 12 12 -5 45 -14 27 -41 36 -64 20z"/>
<path d="M45 891 c-8 -15 4 -75 18 -86 7 -5 12 -22 12 -36 -1 -19 4 -26 15
-24 8 1 22 -1 31 -6 11 -5 16 -3 16 6 0 8 -4 12 -8 9 -11 -7 -49 14 -49 27 0
6 9 5 23 -2 12 -6 19 -8 15 -4 -4 5 -3 14 3 22 8 8 8 13 1 13 -6 0 -12 -6 -15
-12 -6 -21 -39 12 -34 33 3 10 -2 24 -9 30 -8 7 -13 18 -10 26 6 15 0 18 -9 4z"/>
<path d="M160 890 c0 -5 5 -10 11 -10 5 0 7 5 4 10 -3 6 -8 10 -11 10 -2 0 -4
-4 -4 -10z"/>
<path d="M203 885 c-3 -9 -3 -18 -1 -21 3 -3 8 4 11 16 6 23 -1 27 -10 5z"/>
<path d="M245 880 c3 -5 8 -10 11 -10 2 0 4 5 4 10 0 6 -5 10 -11 10 -5 0 -7
-4 -4 -10z"/>
<path d="M130 864 c0 -8 5 -12 10 -9 6 3 10 10 10 16 0 5 -4 9 -10 9 -5 0 -10
-7 -10 -16z"/>
<path d="M1500 829 c0 -23 4 -38 10 -34 11 7 10 75 -2 75 -4 0 -8 -18 -8 -41z"/>
<path d="M305 841 c-3 -5 -1 -12 5 -16 5 -3 10 1 10 9 0 18 -6 21 -15 7z"/>
<path d="M150 836 c0 -2 7 -7 16 -10 8 -3 12 -2 9 4 -6 10 -25 14 -25 6z"/>
<path d="M190 820 c0 -5 -9 -19 -21 -31 -11 -11 -18 -23 -14 -27 3 -3 17 7 30
23 26 33 31 45 15 45 -5 0 -10 -4 -10 -10z"/>
<path d="M224 821 c3 -4 10 -21 16 -37 9 -23 13 -25 20 -14 6 8 10 20 10 25 0
6 -4 3 -9 -4 -8 -12 -11 -9 -16 12 -4 15 -11 27 -17 27 -5 0 -7 -4 -4 -9z"/>
<path d="M1365 794 c2 -46 15 -57 15 -11 0 20 -3 38 -8 41 -4 2 -7 -11 -7 -30z"/>
<path d="M293 803 c-7 -3 -13 -11 -13 -19 0 -18 8 -18 26 0 15 16 7 26 -13 19z"/>
<path d="M4 748 c-5 -7 -3 -8 6 -3 10 6 12 4 7 -9 -4 -9 -3 -15 2 -12 15 10
32 -48 25 -85 -8 -43 -8 -50 1 -71 5 -13 2 -18 -10 -18 -9 0 -13 -5 -10 -10 4
-6 11 -8 16 -5 5 4 9 0 9 -7 1 -19 39 -62 48 -53 4 4 1 10 -6 12 -7 3 -17 13
-22 24 -8 15 -7 19 4 19 10 0 13 -6 9 -16 -4 -11 0 -15 13 -14 32 4 42 1 41
-12 -1 -37 4 -47 19 -41 13 5 13 7 2 14 -7 5 -13 19 -13 31 0 13 -5 22 -12 21
-7 -2 -12 5 -11 15 3 39 -3 73 -11 67 -11 -6 -10 -45 1 -45 4 0 5 -7 1 -16 -6
-16 -7 -16 -18 -1 -7 9 -15 14 -18 11 -10 -10 -25 60 -16 72 5 6 5 15 1 19 -4
5 -2 5 4 2 15 -9 27 20 12 29 -7 4 -8 3 -4 -4 4 -7 2 -12 -3 -12 -16 0 -13 36
4 50 8 7 15 17 15 23 0 5 -8 2 -19 -7 -16 -15 -19 -15 -24 -1 -4 8 -1 15 5 15
7 0 6 5 -2 15 -15 18 -36 19 -46 3z"/>
<path d="M270 741 c0 -25 6 -27 13 -6 4 8 2 17 -3 20 -6 4 -10 -3 -10 -14z"/>
<path d="M320 745 c-9 -11 -10 -19 -3 -26 7 -7 12 -2 15 15 6 30 5 31 -12 11z"/>
<path d="M185 730 c3 -5 8 -10 11 -10 2 0 4 5 4 10 0 6 -5 10 -11 10 -5 0 -7
-4 -4 -10z"/>
<path d="M242 733 c-10 -4 -10 -8 -2 -18 12 -15 5 -55 -10 -55 -5 0 -7 -8 -3
-17 5 -15 4 -16 -8 -5 -11 10 -11 16 -1 32 16 25 15 40 -1 19 -7 -9 -16 -16
-22 -17 -5 0 -11 -6 -13 -14 -2 -9 0 -8 8 2 10 12 11 11 7 -8 -3 -12 -1 -20 3
-17 5 3 12 1 15 -5 5 -8 11 -8 20 0 8 7 19 8 26 4 9 -5 10 3 4 32 -4 21 -8 47
-7 57 0 9 0 17 -1 16 -1 0 -8 -3 -15 -6z"/>
<path d="M792 715 c0 -16 2 -22 5 -12 2 9 2 23 0 30 -3 6 -5 -1 -5 -18z"/>
<path d="M106 711 c4 -16 2 -21 -5 -17 -7 5 -8 0 -2 -15 4 -13 14 -25 22 -27
11 -3 11 -2 1 6 -10 7 -10 11 3 22 8 7 16 10 16 6 1 -3 2 -10 3 -15 0 -5 5
-13 10 -18 5 -5 6 -3 2 5 -4 7 -2 12 5 12 8 0 8 4 -1 15 -9 11 -9 15 -1 15 7
0 9 5 6 10 -4 6 -12 4 -21 -5 -20 -19 -28 -19 -20 1 3 8 2 13 -3 9 -5 -3 -12
1 -15 7 -3 7 -3 2 0 -11z"/>
<path d="M330 686 c0 -7 -7 -19 -15 -26 -9 -7 -13 -15 -10 -18 5 -5 44 38 45
51 0 4 -4 7 -10 7 -5 0 -10 -6 -10 -14z"/>
<path d="M1370 686 c0 -8 4 -17 9 -20 5 -4 7 3 4 14 -6 23 -13 26 -13 6z"/>
<path d="M1466 688 c-3 -7 -7 -26 -10 -43 -5 -24 -4 -27 4 -12 6 9 16 14 22
11 7 -5 8 -2 2 7 -5 8 -7 22 -6 32 4 19 -7 23 -12 5z"/>
<path d="M7 651 c-3 -12 -1 -24 4 -27 13 -8 24 25 12 37 -7 7 -12 3 -16 -10z"/>
<path d="M1500 646 c0 -8 4 -17 9 -21 6 -3 9 4 8 15 -1 23 -17 28 -17 6z"/>
<path d="M96 633 c5 -5 12 -12 16 -18 4 -6 8 -2 8 8 0 9 -7 17 -17 17 -9 0
-12 -3 -7 -7z"/>
<path d="M166 625 c4 -8 8 -15 10 -15 2 0 4 7 4 15 0 8 -4 15 -10 15 -5 0 -7
-7 -4 -15z"/>
<path d="M132 599 c3 -8 11 -13 17 -11 6 1 11 -3 11 -9 0 -6 7 -8 15 -5 8 3
22 9 30 12 11 5 15 -1 15 -21 0 -14 -4 -24 -9 -20 -5 3 -12 1 -16 -5 -3 -5 2
-10 12 -11 10 0 13 -3 7 -5 -7 -3 -10 -14 -7 -25 3 -10 1 -25 -5 -32 -6 -7 -9
-22 -6 -34 3 -11 1 -24 -6 -28 -8 -5 -8 -10 0 -20 8 -9 8 -15 0 -20 -5 -3 -10
-11 -10 -16 0 -5 10 -2 23 7 19 15 22 26 22 87 -1 38 1 64 3 58 9 -27 19 2 12
34 -6 25 -4 38 6 46 8 6 12 15 9 18 -5 9 -35 8 -50 -1 -11 -6 -31 -4 -59 8
-14 5 -17 3 -14 -7z"/>
<path d="M1465 589 c-4 -6 -5 -12 -2 -15 2 -3 7 2 10 11 7 17 1 20 -8 4z"/>
<path d="M1399 570 c-1 -14 -3 -41 -5 -60 -3 -19 -5 -65 -6 -102 -2 -54 -5
-68 -17 -69 -10 0 -6 -4 8 -10 17 -7 21 -13 14 -22 -6 -6 -11 -19 -11 -27 -1
-8 -4 -27 -8 -42 -4 -19 -2 -28 5 -28 7 0 9 -4 6 -10 -3 -5 -2 -10 3 -10 5 0
9 12 9 27 1 93 10 200 17 212 6 10 5 12 -2 7 -8 -5 -10 -1 -5 10 6 16 7 15 20
-2 7 -10 13 -24 13 -32 0 -7 5 -10 10 -7 7 4 8 11 1 18 -13 17 -2 65 19 80 12
8 15 18 9 32 -7 19 -8 19 -8 -2 -1 -25 -16 -31 -24 -10 -3 6 -6 -7 -6 -31 -1
-41 -2 -42 -18 -27 -14 14 -14 18 -2 26 11 7 11 9 1 9 -10 0 -12 8 -7 30 3 16
2 37 -4 47 -9 16 -11 15 -12 -7z"/>
<path d="M290 560 c0 -5 4 -10 9 -10 6 0 13 5 16 10 3 6 -1 10 -9 10 -9 0 -16
-4 -16 -10z"/>
<path d="M1506 555 c-9 -26 -7 -32 5 -12 6 10 9 21 6 23 -2 3 -7 -2 -11 -11z"/>
<path d="M250 550 c0 -5 5 -10 10 -10 6 0 10 5 10 10 0 6 -4 10 -10 10 -5 0
-10 -4 -10 -10z"/>
<path d="M442 530 c0 -14 2 -19 5 -12 2 6 2 18 0 25 -3 6 -5 1 -5 -13z"/>
<path d="M1360 531 c0 -11 4 -22 9 -25 4 -3 6 6 3 19 -5 30 -12 33 -12 6z"/>
<path d="M170 521 c0 -6 4 -13 10 -16 6 -3 7 1 4 9 -7 18 -14 21 -14 7z"/>
<path d="M270 519 c0 -5 5 -7 10 -4 6 3 10 8 10 11 0 2 -4 4 -10 4 -5 0 -10
-5 -10 -11z"/>
<path d="M14 501 c0 -11 4 -17 8 -15 4 3 8 0 8 -5 0 -6 -4 -11 -9 -11 -13 0
-19 -60 -7 -67 6 -3 8 -3 4 2 -5 5 1 15 13 23 18 12 22 12 33 -3 11 -15 13
-15 25 -1 12 14 10 16 -8 16 -12 0 -19 5 -16 10 10 16 -7 12 -27 -7 -10 -9
-18 -11 -18 -5 0 6 10 18 22 26 12 9 17 16 11 16 -6 0 -15 9 -18 20 -8 25 -21
26 -21 1z"/>
<path d="M106 474 c-8 -21 -8 -21 8 -21 8 0 11 8 8 19 -5 22 -8 23 -16 2z"/>
<path d="M340 474 c0 -8 -4 -12 -10 -9 -5 3 -10 1 -10 -4 0 -6 7 -11 15 -11 8
0 15 9 15 20 0 11 -2 20 -5 20 -3 0 -5 -7 -5 -16z"/>
<path d="M410 439 c0 -19 26 -33 35 -18 4 5 11 6 17 3 7 -4 8 -2 4 4 -4 6 -14
8 -22 5 -9 -3 -20 0 -25 8 -7 11 -9 11 -9 -2z"/>
<path d="M356 425 c4 -8 11 -15 16 -15 6 0 5 6 -2 15 -7 8 -14 15 -16 15 -2 0
-1 -7 2 -15z"/>
<path d="M1310 429 c0 -5 5 -7 10 -4 6 3 10 8 10 11 0 2 -4 4 -10 4 -5 0 -10
-5 -10 -11z"/>
<path d="M125 420 c-4 -6 -10 -8 -14 -5 -5 2 -6 -7 -3 -20 2 -14 8 -27 12 -30
4 -2 5 6 3 19 -3 13 0 27 7 31 17 10 23 -1 12 -22 -7 -12 -7 -25 -1 -36 16
-27 -7 -21 -30 9 -22 27 -23 26 -25 -16 -1 -16 -9 -29 -23 -35 -25 -11 -29
-20 -12 -30 6 -4 17 1 24 11 13 17 16 17 25 4 7 -11 5 -18 -5 -26 -8 -6 -15
-16 -15 -23 0 -13 -17 -15 -25 -1 -3 5 -13 6 -22 3 -13 -5 -15 -2 -9 13 5 13
4 16 -3 9 -6 -6 -14 -25 -17 -43 -7 -32 -6 -33 28 -29 37 4 61 15 54 25 -6 12
31 44 39 33 3 -6 14 -11 23 -11 14 0 14 2 3 9 -8 5 -10 14 -5 22 4 8 7 33 7
57 -1 24 2 54 7 68 8 20 7 24 -10 24 -10 0 -22 -5 -25 -10z m5 -106 c0 -8 5
-14 11 -14 5 0 7 -4 4 -10 -3 -5 -11 -10 -16 -10 -6 0 -8 4 -4 9 3 5 -1 16 -9
24 -8 8 -12 17 -9 21 9 8 23 -3 23 -20z m-86 -82 c2 -4 -4 -8 -15 -8 -10 0
-19 4 -19 8 0 4 6 8 14 8 8 0 17 -4 20 -8z"/>
<path d="M291 404 c10 -12 33 -13 44 -2 3 3 -8 8 -24 10 -23 3 -28 2 -20 -8z"/>
<path d="M845 410 c-3 -5 -1 -10 4 -10 6 0 11 5 11 10 0 6 -2 10 -4 10 -3 0
-8 -4 -11 -10z"/>
<path d="M452 390 c-26 -21 -28 -30 -7 -30 8 0 15 4 15 10 0 5 7 7 15 4 9 -4
15 0 15 9 0 24 -13 27 -38 7z"/>
<path d="M396 387 c3 -10 9 -15 12 -12 3 3 0 11 -7 18 -10 9 -11 8 -5 -6z"/>
<path d="M538 389 c-10 -5 -18 -16 -18 -23 0 -8 8 -17 18 -21 14 -5 15 -4 4 7
-10 10 -8 16 10 30 25 19 14 24 -14 7z"/>
<path d="M631 384 c0 -11 3 -14 6 -6 3 7 2 16 -1 19 -3 4 -6 -2 -5 -13z"/>
<path d="M11 372 c-12 -23 -10 -63 2 -55 5 3 7 14 4 24 -7 25 7 33 23 14 18
-22 30 -18 29 8 0 12 -3 16 -6 10 -7 -18 -23 -16 -23 2 0 21 -17 19 -29 -3z"/>
<path d="M251 376 c-8 -9 -11 -19 -7 -23 9 -9 29 13 24 27 -2 8 -8 7 -17 -4z"/>
<path d="M1060 380 c0 -5 5 -10 10 -10 6 0 10 5 10 10 0 6 -4 10 -10 10 -5 0
-10 -4 -10 -10z"/>
<path d="M320 370 c0 -5 11 -10 25 -10 14 0 25 5 25 10 0 6 -11 10 -25 10 -14
0 -25 -4 -25 -10z"/>
<path d="M835 358 l-20 -21 22 12 c23 12 40 31 26 30 -4 0 -17 -10 -28 -21z"/>
<path d="M867 354 c-10 -13 -14 -24 -10 -24 13 0 43 39 35 44 -4 2 -15 -7 -25
-20z"/>
<path d="M557 355 c3 -8 9 -12 14 -9 12 7 11 11 -5 17 -10 4 -13 1 -9 -8z"/>
<path d="M650 352 c0 -5 14 -7 30 -4 17 2 30 6 30 8 0 2 -13 4 -30 4 -16 0
-30 -4 -30 -8z"/>
<path d="M296 330 c6 -22 5 -23 -10 -11 -28 23 -49 -5 -36 -49 1 -3 5 5 10 17
10 26 40 21 40 -6 0 -14 2 -14 11 -1 8 12 9 10 7 -9 -2 -13 3 -26 10 -28 6 -3
12 2 12 11 0 9 7 16 15 16 8 0 15 9 15 20 0 11 -4 20 -10 20 -5 0 -10 -7 -10
-15 0 -8 -4 -15 -10 -15 -5 0 -10 6 -10 14 0 8 -9 24 -21 37 l-20 24 7 -25z"/>
<path d="M412 338 c-18 -18 -14 -38 7 -38 14 0 19 7 17 25 -1 28 -6 31 -24 13z"/>
<path d="M1305 340 c-3 -5 -1 -10 4 -10 6 0 11 5 11 10 0 6 -2 10 -4 10 -3 0
-8 -4 -11 -10z"/>
<path d="M610 330 c-8 -5 -10 -10 -5 -10 6 0 17 5 25 10 8 5 11 10 5 10 -5 0
-17 -5 -25 -10z"/>
<path d="M874 315 c-4 -8 -10 -12 -15 -9 -5 3 -9 0 -9 -5 0 -17 14 -13 33 9 9
11 12 20 7 20 -6 0 -13 -7 -16 -15z"/>
<path d="M658 303 c7 -3 16 -2 19 1 4 3 -2 6 -13 5 -11 0 -14 -3 -6 -6z"/>
<path d="M688 291 c-20 -20 -23 -31 -7 -31 5 0 7 5 3 12 -5 7 -1 9 12 6 14 -4
20 0 20 13 0 23 -6 23 -28 0z"/>
<path d="M760 300 c0 -5 5 -10 10 -10 6 0 10 5 10 10 0 6 -4 10 -10 10 -5 0
-10 -4 -10 -10z"/>
<path d="M610 290 c0 -5 5 -10 11 -10 5 0 7 -5 3 -12 -5 -7 -3 -8 6 -3 10 6
12 4 6 -10 -5 -15 -4 -16 9 -5 19 16 19 30 0 30 -8 0 -15 5 -15 10 0 6 -4 10
-10 10 -5 0 -10 -4 -10 -10z"/>
<path d="M791 289 c-1 -9 7 -23 16 -30 9 -8 14 -9 10 -2 -4 6 -1 14 5 16 8 4
7 6 -4 6 -9 1 -19 7 -21 14 -4 7 -6 6 -6 -4z"/>
<path d="M570 263 c-13 -15 -12 -16 4 -10 10 4 20 7 22 7 2 0 4 5 4 10 0 15
-13 12 -30 -7z"/>
<path d="M1021 264 c0 -11 3 -14 6 -6 3 7 2 16 -1 19 -3 4 -6 -2 -5 -13z"/>
<path d="M1340 264 c0 -8 5 -12 10 -9 6 4 8 11 5 16 -9 14 -15 11 -15 -7z"/>
<path d="M940 260 c0 -5 5 -9 11 -7 6 1 14 -4 17 -12 3 -8 0 -11 -7 -7 -6 4
-11 2 -11 -3 0 -14 17 -14 25 -1 7 12 -12 40 -26 40 -5 0 -9 -4 -9 -10z"/>
<path d="M268 248 c9 -9 15 -9 24 0 9 9 7 12 -12 12 -19 0 -21 -3 -12 -12z"/>
<path d="M350 251 c0 -6 5 -13 10 -16 6 -3 10 1 10 9 0 9 -4 16 -10 16 -5 0
-10 -4 -10 -9z"/>
<path d="M1130 250 c0 -5 5 -10 10 -10 6 0 10 5 10 10 0 6 -4 10 -10 10 -5 0
-10 -4 -10 -10z"/>
<path d="M845 240 c-24 -6 -18 -8 29 -9 33 0 57 1 55 3 -11 9 -57 12 -84 6z"/>
<path d="M1098 243 c7 -3 16 -2 19 1 4 3 -2 6 -13 5 -11 0 -14 -3 -6 -6z"/>
<path d="M1045 230 c-3 -5 1 -10 10 -10 9 0 13 5 10 10 -3 6 -8 10 -10 10 -2
0 -7 -4 -10 -10z"/>
<path d="M998 223 c6 -2 18 -2 25 0 6 3 1 5 -13 5 -14 0 -19 -2 -12 -5z"/>
<path d="M1319 203 c-10 -12 -11 -15 -1 -9 7 4 19 3 27 -4 11 -9 12 -7 8 9 -6
25 -16 26 -34 4z"/>
<path d="M1425 210 c-3 -5 -1 -10 4 -10 6 0 11 5 11 10 0 6 -2 10 -4 10 -3 0
-8 -4 -11 -10z"/>
<path d="M650 196 c0 -2 8 -10 18 -17 15 -13 16 -12 3 4 -13 16 -21 21 -21 13z"/>
<path d="M0 186 c0 -2 7 -7 16 -10 8 -3 12 -2 9 4 -6 10 -25 14 -25 6z"/>
<path d="M100 180 c0 -5 5 -10 11 -10 5 0 7 5 4 10 -3 6 -8 10 -11 10 -2 0 -4
-4 -4 -10z"/>
<path d="M700 186 c0 -2 8 -10 18 -17 15 -13 16 -12 3 4 -13 16 -21 21 -21 13z"/>
<path d="M760 186 c0 -2 7 -7 16 -10 8 -3 12 -2 9 4 -6 10 -25 14 -25 6z"/>
<path d="M1420 179 c0 -5 -4 -7 -10 -4 -5 3 -10 1 -10 -4 0 -6 7 -11 15 -11 8
0 15 7 15 15 0 8 -2 15 -5 15 -3 0 -5 -5 -5 -11z"/>
<path d="M40 169 c0 -5 5 -7 10 -4 6 3 10 8 10 11 0 2 -4 4 -10 4 -5 0 -10 -5
-10 -11z"/>
<path d="M188 170 c-2 -7 -18 -13 -35 -14 -18 -2 -39 -8 -47 -15 -10 -8 -16
-9 -21 -1 -3 5 -11 10 -18 10 -6 0 -2 -7 9 -16 19 -15 19 -16 -1 -9 -44 16
-71 12 -73 -9 -1 -15 1 -17 7 -7 7 10 12 8 25 -10 20 -29 23 -63 3 -39 -12 15
-37 25 -37 15 0 -8 40 -46 40 -37 0 4 9 -4 19 -17 14 -18 20 -21 26 -11 5 8 4
11 -1 7 -6 -3 -15 2 -21 12 -9 14 -8 25 2 45 8 15 11 25 7 22 -4 -2 -16 2 -27
10 -16 12 -17 14 -2 14 9 0 17 -3 17 -8 0 -4 16 -7 35 -8 24 0 32 3 25 11 -5
6 -5 16 0 25 7 11 10 11 10 2 0 -10 5 -10 21 -1 17 8 23 8 29 -1 5 -9 10 -6
15 9 4 13 5 25 2 27 -3 3 -7 0 -9 -6z"/>
<path d="M625 169 c-11 -16 -1 -19 13 -3 7 8 8 14 3 14 -5 0 -13 -5 -16 -11z"/>
<path d="M870 171 c0 -6 4 -13 10 -16 6 -3 7 1 4 9 -7 18 -14 21 -14 7z"/>
<path d="M260 160 c0 -5 5 -10 10 -10 6 0 10 5 10 10 0 6 -4 10 -10 10 -5 0
-10 -4 -10 -10z"/>
<path d="M306 161 c-4 -6 -3 -11 3 -11 6 0 9 -6 7 -12 -1 -7 -1 -10 1 -5 10
16 25 5 20 -14 -4 -15 -3 -19 4 -12 12 12 8 45 -5 43 -5 -1 -12 4 -16 10 -5 9
-9 9 -14 1z"/>
<path d="M791 161 c-8 -6 -9 -11 -3 -15 6 -3 14 -1 17 5 9 14 2 20 -14 10z"/>
<path d="M15 150 c3 -5 8 -10 11 -10 2 0 4 5 4 10 0 6 -5 10 -11 10 -5 0 -7
-4 -4 -10z"/>
<path d="M374 152 c4 -7 1 -12 -6 -12 -8 -1 -7 -5 5 -14 12 -9 14 -16 8 -21
-6 -3 -11 -12 -11 -18 0 -7 7 -4 14 6 15 19 11 53 -7 64 -6 3 -7 1 -3 -5z"/>
<path d="M423 153 c9 -2 23 -2 30 0 6 3 -1 5 -18 5 -16 0 -22 -2 -12 -5z"/>
<path d="M533 138 c-15 -24 -11 -35 13 -34 13 1 24 5 24 9 0 4 0 10 0 13 0 4
-8 0 -17 -7 -15 -13 -16 -12 -11 9 7 25 3 28 -9 10z"/>
<path d="M1280 136 c0 -8 4 -17 9 -20 5 -4 7 3 4 14 -6 23 -13 26 -13 6z"/>
<path d="M1343 142 l-22 -7 22 -11 c19 -9 23 -7 24 8 1 10 1 18 0 17 -1 -1
-12 -4 -24 -7z"/>
<path d="M285 130 c-4 -6 -11 -8 -16 -5 -5 4 -9 1 -9 -4 0 -16 16 -13 30 4 7
8 10 15 7 15 -3 0 -9 -5 -12 -10z"/>
<path d="M408 133 c7 -3 16 -2 19 1 4 3 -2 6 -13 5 -11 0 -14 -3 -6 -6z"/>
<path d="M592 123 c6 -7 15 -10 21 -6 6 3 7 1 3 -6 -4 -6 -12 -9 -17 -6 -5 4
-16 0 -24 -9 -9 -9 -11 -17 -5 -21 5 -3 10 -1 10 4 0 6 6 11 14 11 8 0 21 6
28 13 17 17 82 28 97 16 8 -6 8 -5 1 3 -7 8 -36 13 -75 13 -49 0 -61 -3 -53
-12z"/>
<path d="M758 133 c7 -3 16 -2 19 1 4 3 -2 6 -13 5 -11 0 -14 -3 -6 -6z"/>
<path d="M890 119 c0 -5 -4 -8 -8 -5 -4 2 -14 1 -22 -5 -11 -6 -12 -9 -2 -9 7
0 10 -4 7 -10 -3 -5 -1 -10 4 -10 6 0 11 5 11 11 0 6 6 9 14 6 10 -4 12 0 9
14 -6 21 -13 26 -13 8z"/>
<path d="M175 107 c-15 -12 -16 -15 -4 -22 8 -5 11 -5 7 0 -4 4 0 14 10 21 23
18 11 18 -13 1z"/>
<path d="M207 105 c-6 -15 10 -32 20 -21 4 3 0 6 -8 6 -8 1 -3 7 11 15 24 14
24 14 4 15 -12 0 -24 -7 -27 -15z"/>
<path d="M463 112 c-13 -2 -23 -5 -23 -7 0 -11 29 -68 30 -57 0 10 5 10 23 1
12 -7 25 -17 29 -23 5 -7 8 -7 8 -1 0 12 -36 45 -49 45 -5 0 -14 6 -20 14 -10
12 -7 15 16 18 15 2 24 5 18 9 -5 3 -20 3 -32 1z"/>
<path d="M1397 109 c7 -7 15 -10 18 -7 3 3 -2 9 -12 12 -14 6 -15 5 -6 -5z"/>
<path d="M1480 110 c8 -5 20 -10 25 -10 6 0 3 5 -5 10 -8 5 -19 10 -25 10 -5
0 -3 -5 5 -10z"/>
<path d="M645 100 c7 -12 32 -13 39 -2 2 4 -7 9 -20 10 -15 1 -22 -2 -19 -8z"/>
<path d="M822 94 c10 -10 20 -15 24 -12 3 4 -5 12 -18 18 -22 12 -22 12 -6 -6z"/>
<path d="M933 103 c-7 -3 -13 -11 -13 -18 0 -7 6 -16 13 -18 7 -3 6 -6 -5 -6
-9 -1 -19 3 -22 8 -3 5 -15 7 -27 4 -16 -4 -17 -8 -7 -14 10 -7 10 -9 -2 -9
-13 0 -13 -1 0 -10 8 -5 24 -9 35 -9 17 1 17 2 3 6 -10 2 -18 9 -18 13 0 6 10
6 24 0 19 -7 26 -5 30 6 3 9 11 12 17 8 8 -4 9 -3 5 4 -4 7 -14 12 -22 12 -8
0 -13 4 -9 10 3 5 12 7 20 3 8 -3 15 -3 15 0 0 8 -24 14 -37 10z"/>
<path d="M985 93 c5 -17 -1 -30 -22 -49 -15 -15 -21 -25 -13 -22 8 2 26 21 40
42 l24 38 18 -22 c10 -12 18 -18 18 -13 0 6 -9 18 -19 27 -14 13 -21 14 -26 6
-6 -9 -10 -9 -17 1 -6 10 -7 7 -3 -8z"/>
<path d="M1166 102 c-3 -5 1 -9 9 -9 8 0 15 4 15 9 0 4 -4 8 -9 8 -6 0 -12 -4
-15 -8z"/>
<path d="M746 85 c8 -19 14 -19 14 0 0 8 -4 15 -10 15 -5 0 -7 -7 -4 -15z"/>
<path d="M780 90 c0 -5 5 -10 11 -10 5 0 7 -4 4 -10 -3 -6 1 -7 9 -4 13 5 13
8 1 20 -16 16 -25 18 -25 4z"/>
<path d="M1430 90 c0 -5 5 -10 10 -10 6 0 10 5 10 10 0 6 -4 10 -10 10 -5 0
-10 -4 -10 -10z"/>
<path d="M102 65 c-15 -32 -15 -35 0 -35 6 0 8 3 5 6 -3 4 -2 15 4 26 6 11 9
22 6 24 -2 2 -9 -7 -15 -21z"/>
<path d="M410 75 c-11 -13 -10 -14 4 -9 9 3 16 10 16 15 0 13 -6 11 -20 -6z"/>
<path d="M527 71 c6 -23 30 -35 39 -19 4 6 3 8 -3 5 -6 -4 -13 2 -16 13 -3 11
-10 20 -15 20 -6 0 -8 -9 -5 -19z"/>
<path d="M70 64 c0 -8 5 -12 10 -9 6 3 10 10 10 16 0 5 -4 9 -10 9 -5 0 -10
-7 -10 -16z"/>
<path d="M183 57 c-6 -12 -7 -31 -3 -42 7 -19 7 -19 14 2 4 13 4 27 1 33 -8
13 6 13 25 -1 11 -8 12 -12 3 -16 -7 -2 -13 -10 -13 -16 1 -7 9 -2 19 10 11
13 27 23 36 23 15 0 15 3 5 15 -9 11 -15 12 -20 5 -5 -7 -15 -8 -32 -1 -22 8
-27 6 -35 -12z"/>
<path d="M613 73 c-41 -8 -37 -39 6 -34 7 2 11 -1 8 -6 -3 -4 1 -14 9 -21 12
-11 14 -10 14 3 0 11 8 16 23 15 12 -1 24 -1 27 0 23 8 46 7 52 -3 6 -9 8 -9
8 1 0 7 -7 20 -15 28 -13 14 -15 13 -15 -3 -1 -14 -4 -13 -15 7 l-15 25 3 -24
c2 -20 -3 -24 -31 -25 -17 0 -32 3 -32 8 0 4 -9 6 -20 3 -11 -3 -20 -1 -20 4
0 5 9 9 20 9 11 0 20 5 20 10 0 6 -1 9 -2 9 -2 -1 -13 -4 -25 -6z"/>
<path d="M1004 56 c-3 -14 -11 -26 -17 -26 -6 0 -8 -2 -5 -5 11 -11 37 7 32
23 -3 9 1 7 7 -5 7 -13 16 -23 21 -23 13 0 10 10 -12 37 l-19 25 -7 -26z"/>
<path d="M1080 68 c0 -10 27 -10 34 0 2 4 -4 8 -15 8 -10 0 -19 -4 -19 -8z"/>
<path d="M650 60 c0 -4 7 -7 15 -6 23 3 26 12 5 13 -11 1 -20 -2 -20 -7z"/>
<path d="M1220 59 c0 -5 9 -9 20 -9 11 0 20 2 20 4 0 2 -9 6 -20 9 -11 3 -20
1 -20 -4z"/>
<path d="M133 52 c-7 -4 -9 -13 -4 -21 6 -10 10 -9 15 5 8 20 4 25 -11 16z"/>
<path d="M315 50 c-3 -5 -3 -10 2 -10 4 0 1 -5 -7 -10 -12 -7 -10 -9 8 -7 12
0 22 7 22 14 0 16 -17 26 -25 13z"/>
<path d="M780 41 c10 -19 9 -25 -1 -32 -11 -7 -11 -9 -1 -9 7 0 22 8 33 19 17
16 18 19 5 24 -9 4 -16 1 -16 -5 0 -7 -7 -3 -16 8 -14 18 -15 18 -4 -5z"/>
<path d="M828 53 c7 -3 16 -2 19 1 4 3 -2 6 -13 5 -11 0 -14 -3 -6 -6z"/>
<path d="M1143 53 c-15 -6 -18 -53 -3 -53 5 0 7 7 3 15 -3 9 2 22 13 30 19 14
11 18 -13 8z"/>
<path d="M273 38 c-22 -10 -40 -38 -25 -38 9 0 52 38 52 45 0 6 0 6 -27 -7z"/>
<path d="M1065 40 c3 -5 8 -10 11 -10 2 0 4 5 4 10 0 6 -5 10 -11 10 -5 0 -7
-4 -4 -10z"/>
<path d="M1100 39 c0 -5 5 -7 10 -4 6 3 10 8 10 11 0 2 -4 4 -10 4 -5 0 -10
-5 -10 -11z"/>
<path d="M1186 28 c3 -5 10 -6 15 -3 13 9 11 12 -6 12 -8 0 -12 -4 -9 -9z"/>
<path d="M501 14 c0 -11 3 -14 6 -6 3 7 2 16 -1 19 -3 4 -6 -2 -5 -13z"/>
<path d="M843 15 c0 -8 4 -15 9 -15 4 0 8 7 8 15 0 8 -4 15 -8 15 -5 0 -9 -7
-9 -15z"/>
<path d="M1070 10 c0 -5 5 -10 10 -10 6 0 10 5 10 10 0 6 -4 10 -10 10 -5 0
-10 -4 -10 -10z"/>
</g>
</svg>
