<?xml version="1.0" standalone="no"?>
<!DOCTYPE svg PUBLIC "-//W3C//DTD SVG 20010904//EN"
 "http://www.w3.org/TR/2001/REC-SVG-20010904/DTD/svg10.dtd">
<svg version="1.0" xmlns="http://www.w3.org/2000/svg"
 width="600.000000pt" height="797.000000pt" viewBox="0 0 600.000000 797.000000"
 preserveAspectRatio="xMidYMid meet">
<g transform="translate(0.000000,797.000000) scale(0.100000,-0.100000)"
fill="#000000" stroke="none">
<path d="M2470 6231 l45 -6 -35 -8 c-19 -4 -50 -7 -68 -7 -31 1 -129 -47 -118
-57 3 -3 19 5 37 18 34 24 97 34 219 33 58 0 71 -4 123 -37 45 -29 55 -33 47
-17 -6 11 -15 20 -21 20 -5 0 -22 9 -37 20 -32 23 -141 50 -197 48 l-40 -1 45
-6z"/>
<path d="M2385 6155 c-104 -29 -168 -66 -158 -91 3 -9 -2 -14 -15 -14 -11 0
-22 -5 -24 -10 -2 -6 -32 -15 -68 -20 -36 -6 -85 -19 -110 -29 -46 -20 -92
-18 -119 3 -12 9 -13 8 -8 -6 9 -24 -8 -23 -33 2 -39 39 -211 56 -235 24 -11
-16 -14 -16 -45 0 -38 19 -70 21 -70 5 0 -6 9 -9 20 -6 14 3 20 0 20 -10 0
-11 -6 -13 -22 -8 -74 23 -120 -18 -94 -85 3 -8 1 -22 -4 -30 -8 -12 -12 -13
-19 -2 -6 11 -10 10 -15 -4 -3 -9 -9 -14 -12 -11 -19 19 -188 -122 -177 -148
3 -8 0 -15 -6 -15 -6 0 -11 5 -11 10 0 6 -24 -7 -52 -29 -29 -21 -73 -49 -97
-61 -24 -12 -49 -26 -55 -31 -73 -58 -70 -54 -69 -113 1 -31 -3 -56 -8 -56 -5
0 -9 -7 -9 -15 0 -9 -7 -18 -15 -21 -9 -4 -15 -11 -14 -18 3 -29 -14 -56 -37
-56 -27 0 -30 -8 -40 -130 -13 -148 -4 -186 55 -245 39 -39 91 -56 91 -30 0 8
-6 12 -14 9 -31 -12 -117 94 -116 143 1 10 12 -5 27 -34 18 -36 36 -57 61 -70
65 -33 66 -37 31 -118 -7 -16 -14 -34 -15 -40 -1 -5 -3 -14 -4 -20 -3 -15 -1
-108 3 -125 1 -8 7 -21 11 -29 19 -30 17 -109 -4 -170 -11 -33 -20 -77 -20
-98 0 -41 38 -130 94 -216 19 -30 32 -57 29 -60 -2 -3 -26 1 -51 9 -26 8 -94
17 -152 20 -103 6 -109 5 -300 -45 -204 -53 -337 -98 -380 -129 -14 -10 -43
-23 -65 -30 -49 -15 -72 -29 -62 -38 9 -9 86 15 108 33 8 7 24 13 34 13 10 0
23 7 30 17 7 9 23 17 36 19 13 1 26 3 29 4 22 8 96 -4 106 -17 6 -9 16 -13 21
-10 6 4 32 9 59 12 51 7 61 11 51 21 -3 3 -29 1 -58 -5 -51 -11 -75 -7 -50 8
9 6 7 10 -8 14 -12 3 -21 1 -21 -4 0 -5 -16 -9 -36 -9 -51 0 -33 18 26 26 27
4 47 10 44 15 -3 5 0 9 5 9 6 0 11 -8 11 -17 1 -16 1 -17 10 -2 6 10 34 23 62
29 29 7 65 19 80 27 15 7 29 13 30 12 7 -3 105 15 126 22 14 6 21 5 17 0 -5
-10 33 -9 50 1 15 8 145 -3 145 -12 0 -14 32 -21 45 -10 8 7 15 7 19 1 10 -16
43 -1 55 25 9 20 8 26 -4 30 -8 4 -12 10 -9 15 3 5 2 9 -3 9 -9 0 -39 61 -35
73 1 5 -1 6 -6 3 -5 -3 -15 10 -22 29 -8 19 -18 35 -22 35 -5 0 -6 6 -1 13 4
6 8 30 8 52 1 22 5 49 10 60 8 18 7 18 -8 7 -8 -8 -18 -23 -20 -35 -3 -12 -3
-4 -1 17 2 35 19 60 34 51 3 -2 6 18 8 43 2 26 7 64 11 85 7 30 6 37 -6 37 -9
0 -12 6 -9 18 18 59 17 226 -2 208 -3 -4 -8 -44 -9 -89 -4 -104 -5 -107 -15
-107 -14 0 -8 143 8 185 20 52 27 102 15 109 -11 7 -3 45 14 66 18 23 25 49
15 55 -6 4 -10 -3 -10 -14 0 -19 -10 -26 -32 -22 -4 0 -5 -7 -2 -17 4 -11 -1
-8 -15 8 -11 14 -21 30 -22 35 0 6 -2 27 -4 47 -1 20 -6 41 -9 46 -3 6 -2 12
2 14 5 1 15 23 23 48 8 25 20 44 27 42 7 -1 12 2 12 8 0 13 -6 13 -31 0 -10
-6 -19 -19 -19 -30 0 -10 -5 -22 -12 -26 -6 -4 -8 -3 -5 2 3 6 2 16 -3 24 -5
8 -11 -11 -15 -54 -8 -76 7 -132 50 -178 43 -47 8 -41 -40 6 l-45 45 0 81 c0
47 4 80 10 80 6 0 10 15 10 33 0 18 5 38 12 45 9 9 8 12 -5 12 -19 0 -36 -36
-38 -78 l-1 -27 -8 30 c-15 60 -12 72 21 79 18 3 42 17 54 30 21 23 41 71 36
90 -1 5 5 6 12 3 12 -4 13 1 7 29 -5 21 -4 37 2 40 6 4 5 9 -2 14 -17 10 -5
40 15 40 9 0 13 -4 10 -10 -3 -5 -3 -10 0 -10 3 0 11 14 17 31 7 20 15 28 25
25 9 -4 11 -2 7 6 -5 7 1 9 19 4 14 -3 29 -2 32 4 3 5 -2 10 -12 10 -14 1 -13
4 7 15 35 20 41 18 35 -8 -3 -12 -1 -34 5 -47 9 -23 10 -22 4 8 -3 20 -1 39 6
47 7 8 10 15 7 15 -3 0 4 11 17 25 25 27 36 31 36 14 0 -5 -5 -7 -12 -3 -7 5
-8 3 -4 -5 5 -7 14 -10 22 -7 9 3 14 -1 15 -12 0 -9 5 -3 10 13 15 50 40 91
70 111 15 10 31 28 34 39 6 19 6 19 14 1 7 -18 8 -18 14 -2 6 16 10 16 24 5
14 -12 15 -11 9 8 -6 18 -2 22 24 28 17 4 34 13 37 21 4 12 8 12 21 2 12 -10
16 -10 19 0 6 15 30 16 35 1 5 -14 48 6 48 21 0 6 5 10 10 10 6 0 10 -7 10
-15 0 -8 -4 -15 -10 -15 -5 0 -10 -4 -10 -9 0 -5 9 -7 21 -4 11 3 18 11 16 17
-3 7 3 23 13 36 13 17 22 21 36 15 11 -4 31 -7 47 -6 15 2 27 -2 27 -8 0 -6 5
-11 11 -11 5 0 8 4 5 9 -4 5 3 7 14 4 11 -3 20 -1 20 5 0 11 -46 21 -90 19
-14 -1 -35 3 -48 7 -19 6 -24 4 -29 -13 -4 -15 -13 -21 -32 -21 -15 0 -31 -3
-35 -7 -4 -4 -20 -8 -35 -8 -31 -1 -38 25 -11 37 10 4 6 7 -12 7 -41 1 -45 21
-5 21 29 0 36 -4 43 -27 5 -21 8 -24 11 -10 3 11 12 17 26 15 12 -2 23 2 24 7
0 6 -3 9 -8 8 -5 -2 -9 2 -9 7 0 13 27 13 35 -1 5 -7 13 -5 24 5 13 12 20 13
29 4 9 -9 12 -8 12 4 0 9 -6 19 -12 21 -7 3 -4 6 6 6 11 1 27 8 36 16 12 11
24 12 46 5 16 -5 48 -14 72 -20 23 -6 42 -16 42 -21 0 -6 -6 -9 -14 -6 -8 3
-34 11 -57 17 -24 7 -51 15 -60 20 -10 5 -19 2 -27 -11 -10 -15 -9 -19 0 -20
7 0 4 -4 -7 -9 -15 -6 -11 -8 17 -7 39 2 54 17 18 17 -11 0 -20 5 -20 10 0 14
12 12 36 -5 12 -8 24 -12 26 -9 3 2 16 0 29 -5 24 -10 23 -10 -5 -10 -48 -1
-17 -19 47 -26 39 -5 57 -4 57 4 0 6 -4 11 -10 11 -5 0 -10 3 -10 8 0 9 58 7
88 -2 12 -4 46 4 85 19 36 15 74 25 84 22 12 -3 8 -5 -9 -6 -16 0 -28 -5 -28
-10 0 -12 64 6 68 19 2 6 14 10 27 10 12 0 28 7 35 15 7 8 19 15 26 15 8 0 14
7 14 16 0 11 6 15 19 11 12 -3 22 1 25 10 5 11 1 13 -15 8 -15 -5 -19 -4 -15
4 4 6 24 11 44 12 30 0 33 2 17 9 -14 6 -16 9 -5 11 8 1 26 3 40 5 60 8 136
11 145 5 6 -3 33 -6 60 -7 28 0 61 -6 73 -13 32 -17 22 -25 -12 -10 -18 9 -33
9 -48 2 -13 -6 -32 -7 -43 -2 -27 11 -47 11 -41 0 3 -4 20 -12 38 -16 56 -13
66 -12 61 2 -4 10 1 10 26 2 23 -8 35 -8 45 0 14 12 49 4 41 -9 -3 -4 3 -14
12 -21 15 -12 16 -12 10 5 -7 16 -4 18 23 12 17 -3 29 -2 26 3 -7 10 -111 45
-186 61 -30 7 -63 17 -74 22 -13 7 -21 6 -26 -2 -5 -9 -9 -9 -14 -1 -9 14 -28
13 -91 -4z m-790 -165 c3 -5 -3 -10 -14 -10 -11 0 -23 5 -26 10 -3 6 3 10 14
10 11 0 23 -4 26 -10z m-80 -10 c18 -8 18 -9 -5 -9 -14 0 -34 4 -45 9 -18 8
-18 9 5 9 14 0 34 -4 45 -9z m-320 -300 c3 -5 1 -10 -4 -10 -6 0 -11 5 -11 10
0 6 2 10 4 10 3 0 8 -4 11 -10z m-384 -557 c-12 -20 -14 -14 -5 12 4 9 9 14
11 11 3 -2 0 -13 -6 -23z m149 -543 c0 -5 -4 -10 -10 -10 -5 0 -10 5 -10 10 0
6 5 10 10 10 6 0 10 -4 10 -10z"/>
<path d="M2620 6160 c8 -5 22 -9 30 -9 10 0 8 3 -5 9 -27 12 -43 12 -25 0z"/>
<path d="M2133 6112 c-23 -9 -45 -21 -50 -26 -10 -11 39 3 52 15 5 5 19 9 32
9 13 0 23 5 23 10 0 13 -7 12 -57 -8z"/>
<path d="M2754 6115 c11 -8 24 -15 30 -15 5 0 1 7 -10 15 -10 8 -23 14 -29 14
-5 0 -1 -6 9 -14z"/>
<path d="M2410 6110 c0 -5 5 -10 11 -10 5 0 7 5 4 10 -3 6 -8 10 -11 10 -2 0
-4 -4 -4 -10z"/>
<path d="M2135 6080 c-19 -8 -19 -9 2 -9 12 -1 25 4 28 9 7 12 -2 12 -30 0z"/>
<path d="M2330 6080 c-9 -6 -10 -10 -3 -10 6 0 15 5 18 10 8 12 4 12 -15 0z"/>
<path d="M2460 6086 c0 -2 7 -9 15 -16 13 -11 14 -10 9 4 -5 14 -24 23 -24 12z"/>
<path d="M2360 6070 c0 -5 7 -10 16 -10 8 0 12 5 9 10 -3 6 -10 10 -16 10 -5
0 -9 -4 -9 -10z"/>
<path d="M2820 6076 c0 -2 7 -6 15 -10 8 -3 15 -1 15 4 0 6 -7 10 -15 10 -8 0
-15 -2 -15 -4z"/>
<path d="M2560 6045 c0 -8 2 -15 4 -15 2 0 6 7 10 15 3 8 1 15 -4 15 -6 0 -10
-7 -10 -15z"/>
<path d="M2625 6050 c-3 -6 1 -7 9 -4 18 7 21 14 7 14 -6 0 -13 -4 -16 -10z"/>
<path d="M2744 6051 c4 -6 16 -11 27 -11 10 0 19 -3 19 -7 0 -5 10 -9 23 -9
86 -5 144 -17 226 -48 52 -20 96 -34 98 -32 5 5 -93 46 -109 46 -8 0 -18 4
-23 8 -17 15 -92 34 -180 46 -27 4 -58 10 -69 13 -12 3 -16 1 -12 -6z"/>
<path d="M1920 6028 c-20 -17 -21 -20 -5 -14 11 5 28 11 38 13 9 3 17 9 17 14
0 15 -24 9 -50 -13z"/>
<path d="M2008 6043 c7 -3 16 -2 19 1 4 3 -2 6 -13 5 -11 0 -14 -3 -6 -6z"/>
<path d="M2078 6043 c7 -3 16 -2 19 1 4 3 -2 6 -13 5 -11 0 -14 -3 -6 -6z"/>
<path d="M2345 6040 c-3 -5 -2 -10 4 -10 5 0 13 5 16 10 3 6 2 10 -4 10 -5 0
-13 -4 -16 -10z"/>
<path d="M1985 6020 c-3 -5 1 -10 10 -10 9 0 13 5 10 10 -3 6 -8 10 -10 10 -2
0 -7 -4 -10 -10z"/>
<path d="M2450 6010 c0 -5 5 -10 10 -10 6 0 10 5 10 10 0 6 -4 10 -10 10 -5 0
-10 -4 -10 -10z"/>
<path d="M2208 5996 c-10 -7 -18 -15 -18 -17 0 -10 45 -5 52 5 19 27 -4 35
-34 12z"/>
<path d="M2861 5998 c-26 -7 -31 -12 -21 -18 9 -6 17 -5 21 2 9 14 57 14 71 0
8 -8 4 -9 -12 -5 -17 5 -21 3 -15 -6 4 -8 17 -10 32 -6 20 5 24 3 20 -8 -4
-11 0 -13 13 -10 12 3 40 -12 79 -44 33 -26 60 -51 60 -55 2 -15 -28 -8 -41
10 -7 10 -20 22 -27 27 -8 5 -5 -6 8 -23 12 -18 27 -32 32 -32 6 0 7 -5 3 -12
-4 -6 3 -4 16 5 22 15 24 15 36 -1 18 -23 17 -35 -1 -28 -8 3 -15 1 -15 -4 0
-6 6 -10 14 -10 8 0 22 -10 30 -22 9 -13 16 -17 16 -9 0 8 -8 20 -17 27 -16
12 -14 13 19 14 24 0 41 -6 50 -18 7 -10 22 -22 32 -26 19 -7 19 -6 1 14 -22
24 -13 26 25 3 29 -17 64 -88 53 -106 -4 -6 0 -8 10 -4 9 3 18 3 21 -1 3 -4
-5 -9 -16 -9 -12 -1 -30 -11 -40 -21 -18 -18 -18 -20 -3 -36 12 -11 15 -26 12
-44 -3 -16 -2 -34 4 -42 7 -13 9 -12 9 2 0 12 6 15 23 10 20 -5 21 -4 8 11
-17 21 -9 80 13 103 10 9 24 13 36 9 11 -4 20 -2 20 4 0 6 -9 11 -20 11 -13 0
-18 5 -14 15 4 8 2 15 -4 15 -5 0 -24 21 -41 48 -40 61 -110 134 -123 126 -6
-4 1 -14 16 -23 28 -17 36 -34 11 -25 -8 4 -15 2 -15 -3 0 -5 -19 -7 -42 -4
-24 3 -42 9 -41 13 2 4 -13 23 -33 42 -20 19 -35 38 -34 42 1 5 -4 10 -11 13
-7 2 -9 -1 -5 -8 4 -6 3 -11 -3 -11 -5 0 -13 9 -16 20 -3 11 -12 20 -19 20 -8
0 -20 7 -27 16 -12 15 -11 16 11 11 20 -6 19 -4 -5 8 -16 8 -39 14 -50 15 -12
0 -25 4 -30 9 -17 16 -49 19 -84 9z m489 -393 c0 -8 -7 -15 -15 -15 -16 0 -20
12 -8 23 11 12 23 8 23 -8z"/>
<path d="M2256 5971 c-3 -5 1 -12 10 -15 24 -9 36 -7 29 4 -4 7 3 9 22 5 23
-4 24 -4 8 4 -26 12 -62 13 -69 2z"/>
<path d="M2450 5969 c0 -5 5 -7 10 -4 6 3 10 8 10 11 0 2 -4 4 -10 4 -5 0 -10
-5 -10 -11z"/>
<path d="M2395 5950 c3 -5 8 -10 11 -10 2 0 4 5 4 10 0 6 -5 10 -11 10 -5 0
-7 -4 -4 -10z"/>
<path d="M1898 5943 c7 -3 16 -2 19 1 4 3 -2 6 -13 5 -11 0 -14 -3 -6 -6z"/>
<path d="M2185 5940 c-4 -6 7 -10 27 -9 27 0 30 2 13 9 -27 12 -33 12 -40 0z"/>
<path d="M2314 5938 c-4 -7 -3 -8 4 -4 7 4 12 1 12 -7 0 -7 11 -19 25 -25 37
-17 37 -16 3 18 -34 34 -34 34 -44 18z"/>
<path d="M2371 5927 c14 -12 33 -35 44 -52 10 -16 20 -24 22 -18 6 16 -63 93
-81 93 -6 -1 0 -11 15 -23z"/>
<path d="M2455 5941 c-3 -5 -1 -12 5 -16 5 -3 10 1 10 9 0 18 -6 21 -15 7z"/>
<path d="M3082 5940 c2 -8 14 -16 26 -18 12 -2 22 -8 22 -14 0 -17 88 -98 106
-98 14 0 14 2 0 16 -9 8 -16 22 -16 29 0 8 -11 22 -25 31 -14 9 -23 20 -20 24
3 4 -12 11 -33 15 -20 4 -43 12 -51 18 -11 10 -13 9 -9 -3z m128 -80 c0 -5 -5
-10 -11 -10 -5 0 -7 5 -4 10 3 6 8 10 11 10 2 0 4 -4 4 -10z"/>
<path d="M1280 5920 c0 -5 5 -10 11 -10 5 0 7 5 4 10 -3 6 -8 10 -11 10 -2 0
-4 -4 -4 -10z"/>
<path d="M1365 5920 c-3 -5 1 -10 9 -10 9 0 16 5 16 10 0 6 -4 10 -9 10 -6 0
-13 -4 -16 -10z"/>
<path d="M2480 5913 c0 -11 9 -28 20 -38 11 -10 20 -25 20 -34 0 -10 3 -12 11
-4 7 7 3 22 -16 49 -34 50 -35 51 -35 27z"/>
<path d="M2940 5919 c0 -5 13 -9 28 -9 15 0 33 -5 40 -12 8 -8 12 -8 12 -1 0
6 -8 14 -17 18 -29 12 -63 14 -63 4z"/>
<path d="M1320 5910 c-12 -8 -11 -10 8 -10 12 0 22 5 22 10 0 13 -11 13 -30 0z"/>
<path d="M1610 5910 c0 -5 5 -10 10 -10 6 0 10 5 10 10 0 6 -4 10 -10 10 -5 0
-10 -4 -10 -10z"/>
<path d="M1780 5916 c0 -2 7 -7 16 -10 8 -3 12 -2 9 4 -6 10 -25 14 -25 6z"/>
<path d="M1626 5891 c-3 -5 8 -11 24 -13 32 -5 41 6 14 16 -22 8 -32 8 -38 -3z"/>
<path d="M2310 5891 c0 -5 5 -13 10 -16 6 -3 10 -2 10 4 0 5 -4 13 -10 16 -5
3 -10 2 -10 -4z"/>
<path d="M2558 5893 c7 -3 16 -2 19 1 4 3 -2 6 -13 5 -11 0 -14 -3 -6 -6z"/>
<path d="M2948 5893 c7 -3 16 -2 19 1 4 3 -2 6 -13 5 -11 0 -14 -3 -6 -6z"/>
<path d="M1330 5879 c0 -5 5 -7 10 -4 6 3 10 8 10 11 0 2 -4 4 -10 4 -5 0 -10
-5 -10 -11z"/>
<path d="M2230 5870 c0 -5 4 -10 9 -10 6 0 13 5 16 10 3 6 -1 10 -9 10 -9 0
-16 -4 -16 -10z"/>
<path d="M2397 5850 c14 -17 28 -28 30 -26 6 6 -38 56 -49 56 -4 0 4 -14 19
-30z"/>
<path d="M1850 5860 c0 -5 5 -10 11 -10 5 0 7 5 4 10 -3 6 -8 10 -11 10 -2 0
-4 -4 -4 -10z"/>
<path d="M1890 5859 c0 -5 5 -7 10 -4 6 3 10 8 10 11 0 2 -4 4 -10 4 -5 0 -10
-5 -10 -11z"/>
<path d="M2460 5861 c0 -6 4 -13 10 -16 6 -3 7 1 4 9 -7 18 -14 21 -14 7z"/>
<path d="M2171 5857 c2 -1 13 -9 24 -17 19 -14 19 -14 6 3 -7 9 -18 17 -24 17
-6 0 -8 -1 -6 -3z"/>
<path d="M2335 5840 c14 -16 20 -17 27 -8 5 9 8 9 8 2 0 -7 7 -15 15 -18 13
-5 12 -1 -2 19 -17 23 -41 36 -28 15 3 -5 1 -10 -4 -10 -6 0 -11 5 -11 10 0 6
-5 10 -12 10 -6 0 -3 -9 7 -20z"/>
<path d="M3008 5833 c7 -3 16 -2 19 1 4 3 -2 6 -13 5 -11 0 -14 -3 -6 -6z"/>
<path d="M2247 5817 c-4 -11 -2 -14 9 -10 7 3 14 1 14 -4 0 -6 11 -22 24 -36
14 -15 26 -34 29 -44 3 -12 5 -9 6 8 1 16 -5 29 -14 33 -8 3 -15 13 -15 22 0
10 -3 15 -6 11 -4 -3 -14 3 -24 15 -14 18 -18 19 -23 5z"/>
<path d="M1468 5813 c7 -3 16 -2 19 1 4 3 -2 6 -13 5 -11 0 -14 -3 -6 -6z"/>
<path d="M1833 5813 c9 -2 23 -2 30 0 6 3 -1 5 -18 5 -16 0 -22 -2 -12 -5z"/>
<path d="M2537 5799 c4 -13 8 -18 11 -10 2 7 -1 18 -6 23 -8 8 -9 4 -5 -13z"/>
<path d="M2783 5813 c9 -2 25 -2 35 0 9 3 1 5 -18 5 -19 0 -27 -2 -17 -5z"/>
<path d="M2352 5795 c-11 -12 -10 -15 3 -15 8 0 15 7 15 15 0 18 -2 18 -18 0z"/>
<path d="M1342 5770 c0 -14 2 -19 5 -12 2 6 2 18 0 25 -3 6 -5 1 -5 -13z"/>
<path d="M1827 5784 c-4 -4 -7 -14 -7 -23 0 -11 3 -12 11 -4 6 6 10 16 7 23
-2 6 -7 8 -11 4z"/>
<path d="M2360 5753 c0 -10 4 -14 8 -8 4 6 11 13 16 18 5 4 2 7 -7 7 -10 0
-17 -8 -17 -17z"/>
<path d="M2780 5750 c0 -13 11 -13 30 0 12 8 11 10 -7 10 -13 0 -23 -4 -23
-10z"/>
<path d="M3027 5753 c-10 -9 110 -62 141 -63 26 0 1 19 -33 26 -21 4 -32 10
-28 17 4 7 0 8 -11 4 -10 -4 -24 -1 -32 8 -17 16 -27 19 -37 8z"/>
<path d="M3194 5745 c1 -5 5 -15 9 -22 4 -6 4 -19 1 -30 -6 -16 -5 -16 10 2
15 17 17 17 12 3 -3 -10 -2 -17 2 -17 16 2 51 -14 47 -21 -3 -5 -1 -11 4 -14
18 -11 23 15 7 33 -9 10 -16 25 -16 34 0 9 -4 19 -10 22 -13 8 -13 3 0 -32
l10 -28 -20 25 c-11 14 -20 33 -20 42 0 10 -7 16 -19 15 -10 0 -18 -6 -17 -12z
m23 -17 c-3 -8 -6 -5 -6 6 -1 11 2 17 5 13 3 -3 4 -12 1 -19z"/>
<path d="M1784 5712 c-2 -37 -2 -37 8 -9 6 16 6 33 2 37 -5 5 -10 -7 -10 -28z"/>
<path d="M2155 5731 c6 -11 3 -13 -11 -9 -14 4 -20 0 -20 -13 0 -23 3 -23 22
-5 7 8 24 12 36 10 13 -2 16 -1 8 2 -8 4 -21 12 -29 18 -12 9 -13 8 -6 -3z"/>
<path d="M1037 5710 c-12 -12 -15 -20 -8 -25 6 -3 14 1 17 10 4 9 13 14 22 10
12 -4 13 -3 2 10 -7 8 -13 15 -14 14 0 0 -9 -8 -19 -19z"/>
<path d="M2860 5718 c0 -9 9 -19 19 -23 11 -3 34 -19 50 -34 27 -26 41 -29 41
-11 0 10 -90 73 -90 63 0 -4 -5 -1 -10 7 -8 13 -10 13 -10 -2z"/>
<path d="M2991 5714 c0 -11 3 -14 6 -6 3 7 2 16 -1 19 -3 4 -6 -2 -5 -13z"/>
<path d="M1830 5709 c0 -5 5 -7 10 -4 6 3 10 8 10 11 0 2 -4 4 -10 4 -5 0 -10
-5 -10 -11z"/>
<path d="M2704 5709 c-3 -5 9 -9 25 -9 17 0 31 2 31 4 0 8 -51 13 -56 5z"/>
<path d="M2085 5700 c3 -5 10 -10 16 -10 5 0 9 5 9 10 0 6 -7 10 -16 10 -8 0
-12 -4 -9 -10z"/>
<path d="M2785 5700 c-4 -6 6 -10 22 -10 22 0 25 2 13 10 -19 12 -27 12 -35 0z"/>
<path d="M2970 5695 c0 -5 5 -17 10 -25 5 -8 10 -10 10 -5 0 6 -5 17 -10 25
-5 8 -10 11 -10 5z"/>
<path d="M2160 5677 c0 -8 7 -14 15 -14 11 0 12 4 4 14 -6 7 -13 13 -15 13 -2
0 -4 -6 -4 -13z"/>
<path d="M2840 5682 c0 -5 18 -16 40 -25 22 -8 40 -14 40 -11 0 2 -18 13 -40
24 -22 11 -40 16 -40 12z"/>
<path d="M1470 5672 c0 -10 23 -22 41 -22 5 0 9 5 9 11 0 5 -5 7 -10 4 -6 -4
-17 -1 -25 5 -9 7 -15 8 -15 2z"/>
<path d="M2097 5663 c17 -2 37 -11 43 -19 14 -16 40 -19 40 -4 0 6 -9 10 -19
10 -11 0 -23 5 -26 10 -3 6 -21 9 -38 8 l-32 -1 32 -4z"/>
<path d="M1960 5650 c-20 -6 -21 -8 -5 -8 11 0 31 4 45 8 20 6 21 8 5 8 -11 0
-31 -4 -45 -8z"/>
<path d="M3091 5656 c11 -9 69 -15 64 -6 -3 6 -20 10 -37 10 -17 0 -29 -2 -27
-4z"/>
<path d="M2699 5629 l-24 -20 28 17 c15 9 27 18 27 20 0 8 -8 4 -31 -17z"/>
<path d="M2970 5634 c0 -12 28 -32 83 -57 31 -15 57 -33 57 -39 0 -6 2 -9 5
-6 12 12 -8 36 -43 51 -21 9 -48 26 -59 37 -21 19 -43 27 -43 14z"/>
<path d="M3287 5625 c-9 -8 -23 -15 -31 -15 -9 0 -16 -5 -16 -10 0 -6 8 -10
18 -8 21 4 58 36 50 43 -3 3 -13 -1 -21 -10z"/>
<path d="M2085 5620 c3 -5 8 -10 11 -10 2 0 4 5 4 10 0 6 -5 10 -11 10 -5 0
-7 -4 -4 -10z"/>
<path d="M2205 5611 c-3 -5 -1 -12 5 -16 5 -3 10 1 10 9 0 18 -6 21 -15 7z"/>
<path d="M2715 5600 c-3 -5 -1 -10 4 -10 6 0 11 5 11 10 0 6 -2 10 -4 10 -3 0
-8 -4 -11 -10z"/>
<path d="M3180 5598 c0 -4 11 -8 25 -8 14 0 25 4 25 10 0 5 -11 9 -25 8 -14
-1 -25 -6 -25 -10z"/>
<path d="M2048 5576 c-15 -11 -12 -13 28 -12 24 1 48 -4 52 -10 4 -6 18 -15
32 -19 17 -5 10 3 -20 24 -49 34 -66 37 -92 17z"/>
<path d="M1033 5564 c0 -7 4 -11 8 -8 4 2 10 -2 12 -8 4 -8 6 -7 6 3 1 9 -5
19 -12 22 -8 3 -14 -1 -14 -9z"/>
<path d="M1840 5559 c0 -5 5 -7 10 -4 6 3 10 8 10 11 0 2 -4 4 -10 4 -5 0 -10
-5 -10 -11z"/>
<path d="M1945 5540 c3 -5 8 -10 11 -10 2 0 4 5 4 10 0 6 -5 10 -11 10 -5 0
-7 -4 -4 -10z"/>
<path d="M1905 5530 c-3 -5 -1 -10 4 -10 6 0 11 5 11 10 0 6 -2 10 -4 10 -3 0
-8 -4 -11 -10z"/>
<path d="M2050 5536 c0 -2 9 -6 20 -9 11 -3 20 -1 20 4 0 5 -9 9 -20 9 -11 0
-20 -2 -20 -4z"/>
<path d="M1465 5520 c-3 -5 1 -10 10 -10 9 0 13 5 10 10 -3 6 -8 10 -10 10 -2
0 -7 -4 -10 -10z"/>
<path d="M3285 5520 c-3 -5 1 -10 9 -10 9 0 16 5 16 10 0 6 -4 10 -9 10 -6 0
-13 -4 -16 -10z"/>
<path d="M984 5505 c-18 -14 -18 -14 9 -15 15 0 27 4 27 9 0 18 -17 20 -36 6z"/>
<path d="M1075 5510 c-3 -5 -1 -10 4 -10 6 0 11 5 11 10 0 6 -2 10 -4 10 -3 0
-8 -4 -11 -10z"/>
<path d="M1395 5510 c3 -5 11 -10 16 -10 6 0 7 5 4 10 -3 6 -11 10 -16 10 -6
0 -7 -4 -4 -10z"/>
<path d="M3099 5509 c-15 -9 -15 -9 19 -13 12 -2 22 1 22 5 0 12 -26 18 -41 8z"/>
<path d="M3168 5513 c6 -2 18 -2 25 0 6 3 1 5 -13 5 -14 0 -19 -2 -12 -5z"/>
<path d="M2145 5486 c17 -7 34 -11 39 -8 13 7 -16 22 -44 21 -24 0 -24 0 5
-13z"/>
<path d="M3156 5484 c-19 -19 -20 -27 -3 -21 6 2 17 -3 23 -11 8 -12 11 -8 11
17 0 35 -8 39 -31 15z"/>
<path d="M3018 5483 c7 -3 16 -2 19 1 4 3 -2 6 -13 5 -11 0 -14 -3 -6 -6z"/>
<path d="M998 5458 c-3 -25 20 -60 34 -52 4 3 1 12 -7 21 -9 9 -13 23 -10 34
4 10 2 19 -4 19 -5 0 -11 -10 -13 -22z"/>
<path d="M2455 5470 c-3 -6 4 -9 19 -8 13 1 22 6 20 10 -7 11 -32 10 -39 -2z"/>
<path d="M3045 5470 c-7 -12 2 -12 30 0 19 8 19 9 -2 9 -12 1 -25 -3 -28 -9z"/>
<path d="M3325 5470 c-3 -5 6 -12 20 -16 14 -3 25 -10 25 -16 0 -5 4 -7 9 -3
5 3 16 -2 25 -10 8 -9 18 -14 22 -13 4 2 13 -8 21 -22 13 -22 13 -23 0 -7 -16
19 -37 23 -37 7 0 -5 3 -10 8 -10 4 0 12 -10 17 -22 6 -12 17 -23 25 -26 13
-3 13 -2 0 7 -8 5 -12 13 -8 16 3 3 14 -2 24 -12 17 -17 17 -18 -9 -21 -31 -4
-37 -22 -7 -22 23 0 24 -3 8 -32 -17 -30 -41 -48 -53 -40 -24 15 -43 10 -54
-14 -14 -31 -14 -57 0 -49 6 4 8 13 5 20 -7 20 20 38 46 32 12 -4 28 -1 35 5
16 13 17 -4 2 -19 -7 -7 -25 -9 -40 -6 -18 3 -29 1 -29 -6 0 -6 8 -11 19 -11
14 0 17 -6 14 -24 -3 -13 0 -27 6 -30 7 -4 11 1 11 14 0 11 16 36 36 55 25 25
35 42 31 55 -3 11 -1 23 4 26 14 8 10 56 -9 91 -18 34 -120 113 -146 113 -8 0
-18 -4 -21 -10z"/>
<path d="M2616 5435 c-9 -14 -12 -25 -6 -25 5 0 10 5 10 10 0 6 11 10 24 10
19 0 23 -4 19 -20 -4 -16 0 -20 23 -21 25 -1 23 -3 -16 -15 l-45 -13 44 5 c29
4 46 2 51 -6 5 -7 16 -9 29 -5 23 7 24 26 3 33 -8 2 -10 -3 -5 -14 4 -12 2
-15 -8 -12 -8 3 -14 14 -13 26 0 12 -5 18 -12 15 -7 -2 -21 5 -31 17 -32 39
-49 42 -67 15z"/>
<path d="M2371 5441 c-18 -12 -7 -41 16 -40 11 0 13 3 6 6 -25 10 -13 25 15
20 15 -3 34 -2 42 4 12 7 11 9 -5 9 -11 0 -29 3 -40 5 -11 3 -26 1 -34 -4z"/>
<path d="M2488 5443 c-22 -5 -23 -19 -3 -27 8 -3 14 0 12 5 -3 13 51 21 58 9
3 -5 12 -7 20 -4 42 17 -34 31 -87 17z"/>
<path d="M2325 5430 c-3 -5 -20 -13 -38 -18 -30 -8 -30 -9 -9 -14 16 -5 31 1
49 18 14 13 21 24 15 24 -6 0 -14 -4 -17 -10z"/>
<path d="M3267 5433 c-4 -3 -7 -11 -7 -17 0 -6 5 -5 12 2 6 6 9 14 7 17 -3 3
-9 2 -12 -2z"/>
<path d="M3046 5415 c-3 -9 0 -15 9 -15 9 0 12 6 9 15 -4 8 -7 15 -9 15 -2 0
-5 -7 -9 -15z"/>
<path d="M3230 5420 c0 -5 5 -10 11 -10 5 0 7 5 4 10 -3 6 -8 10 -11 10 -2 0
-4 -4 -4 -10z"/>
<path d="M3103 5404 c18 -9 39 -13 54 -9 35 8 25 15 -33 20 l-49 4 28 -15z"/>
<path d="M2570 5399 c0 -5 5 -7 10 -4 6 3 10 8 10 11 0 2 -4 4 -10 4 -5 0 -10
-5 -10 -11z"/>
<path d="M993 5385 c-3 -9 -3 -18 -1 -21 3 -3 8 4 11 16 6 23 -1 27 -10 5z"/>
<path d="M3286 5375 c-3 -8 -16 -15 -30 -15 -14 0 -28 -5 -32 -12 -5 -8 2 -9
26 -5 18 4 39 7 47 7 9 0 13 6 10 14 -3 8 -1 17 6 20 7 2 5 5 -4 5 -9 1 -19
-6 -23 -14z"/>
<path d="M3370 5380 c-13 -8 -12 -10 3 -10 9 0 17 5 17 10 0 12 -1 12 -20 0z"/>
<path d="M960 5375 c0 -5 5 -17 10 -25 5 -8 10 -10 10 -5 0 6 -5 17 -10 25 -5
8 -10 11 -10 5z"/>
<path d="M1020 5370 c0 -5 5 -10 10 -10 6 0 10 5 10 10 0 6 -4 10 -10 10 -5 0
-10 -4 -10 -10z"/>
<path d="M2250 5360 c-8 -11 -30 -28 -50 -37 -33 -17 -34 -18 -10 -21 13 -2
26 1 28 7 2 6 10 11 17 11 11 0 45 41 45 55 0 12 -17 4 -30 -15z"/>
<path d="M3112 5345 c6 -14 18 -25 27 -25 11 0 10 3 -5 15 -18 14 -18 14 9 15
16 0 26 -4 23 -9 -3 -5 2 -11 12 -13 11 -3 19 0 19 8 0 8 -4 14 -9 14 -5 0 -6
5 -3 10 4 6 -11 10 -39 10 -45 0 -45 0 -34 -25z"/>
<path d="M3320 5360 c0 -5 10 -10 23 -10 18 0 19 2 7 10 -19 13 -30 13 -30 0z"/>
<path d="M1851 5344 c0 -11 3 -14 6 -6 3 7 2 16 -1 19 -3 4 -6 -2 -5 -13z"/>
<path d="M2348 5353 c6 -2 18 -2 25 0 6 3 1 5 -13 5 -14 0 -19 -2 -12 -5z"/>
<path d="M2793 5343 c1 -14 8 -23 18 -23 10 0 19 -5 21 -11 3 -9 12 -9 33 -2
l30 10 -42 6 c-24 4 -46 15 -52 25 -9 15 -10 14 -8 -5z"/>
<path d="M995 5340 c-3 -6 1 -7 9 -4 18 7 21 14 7 14 -6 0 -13 -4 -16 -10z"/>
<path d="M798 5333 c6 -2 18 -2 25 0 6 3 1 5 -13 5 -14 0 -19 -2 -12 -5z"/>
<path d="M2610 5336 c0 -9 30 -14 35 -6 4 6 -3 10 -14 10 -12 0 -21 -2 -21 -4z"/>
<path d="M2730 5321 c0 -6 5 -13 10 -16 6 -3 10 1 10 9 0 9 -4 16 -10 16 -5 0
-10 -4 -10 -9z"/>
<path d="M3353 5290 c-1 -11 2 -22 6 -24 4 -3 7 4 8 14 1 11 -2 22 -6 24 -4 3
-7 -4 -8 -14z"/>
<path d="M1930 5290 c-8 -5 -12 -11 -9 -14 2 -3 11 -1 19 4 8 5 12 11 9 14 -2
3 -11 1 -19 -4z"/>
<path d="M2256 5284 c-9 -24 -7 -28 9 -14 17 14 20 30 6 30 -5 0 -12 -7 -15
-16z"/>
<path d="M2765 5290 c3 -5 11 -10 16 -10 6 0 7 5 4 10 -3 6 -11 10 -16 10 -6
0 -7 -4 -4 -10z"/>
<path d="M3385 5290 c-4 -6 5 -10 20 -10 15 0 24 4 20 10 -3 6 -12 10 -20 10
-8 0 -17 -4 -20 -10z"/>
<path d="M2125 5252 c-25 -19 -44 -37 -41 -39 6 -7 49 17 67 39 9 10 26 18 38
18 11 0 21 4 21 8 0 18 -42 5 -85 -26z"/>
<path d="M2729 5273 c-7 -10 -10 -15 -5 -11 5 4 17 3 27 -3 22 -11 26 3 5 20
-10 9 -16 7 -27 -6z"/>
<path d="M3120 5279 c0 -5 5 -7 10 -4 6 3 10 8 10 11 0 2 -4 4 -10 4 -5 0 -10
-5 -10 -11z"/>
<path d="M3218 5283 c7 -3 16 -2 19 1 4 3 -2 6 -13 5 -11 0 -14 -3 -6 -6z"/>
<path d="M3275 5270 c-3 -5 -24 -10 -46 -10 -22 0 -38 -4 -35 -9 3 -4 23 -5
43 -1 21 3 42 7 48 7 13 2 19 23 6 23 -5 0 -13 -4 -16 -10z"/>
<path d="M2830 5256 c0 -22 17 -28 24 -10 9 22 8 24 -9 24 -8 0 -15 -6 -15
-14z"/>
<path d="M2880 5249 c0 -5 5 -7 10 -4 6 3 10 8 10 11 0 2 -4 4 -10 4 -5 0 -10
-5 -10 -11z"/>
<path d="M973 5244 c3 -6 0 -27 -7 -48 -8 -22 -16 -34 -20 -27 -4 6 -13 11
-19 10 -9 0 -9 -2 1 -6 6 -2 12 -11 12 -18 0 -7 6 -16 13 -18 7 -4 6 -6 -5 -6
-9 -1 -19 5 -22 12 -3 6 -4 -14 -2 -47 3 -32 8 -61 11 -64 7 -7 25 17 25 33 0
6 -5 3 -10 -5 -8 -13 -10 -12 -10 3 0 9 8 17 18 17 21 1 54 25 45 33 -3 4 1 7
10 7 22 0 22 -16 1 -28 -9 -5 -14 -18 -12 -28 3 -15 7 -13 21 15 9 18 14 38
11 43 -4 5 -6 29 -6 51 l0 42 -13 -30 c-9 -20 -10 -32 -3 -36 6 -4 2 -10 -10
-13 -11 -4 -22 -16 -25 -26 -3 -11 -11 -20 -17 -20 -8 0 -9 7 -5 18 4 9 9 26
12 37 3 11 7 27 10 35 4 8 5 19 4 23 0 4 6 10 14 13 8 4 15 11 15 17 0 6 -3 7
-7 4 -3 -4 -13 -1 -21 6 -9 6 -13 7 -9 1z"/>
<path d="M2750 5230 c0 -5 7 -10 15 -10 8 0 15 5 15 10 0 6 -7 10 -15 10 -8 0
-15 -4 -15 -10z"/>
<path d="M2910 5220 c19 -13 30 -13 30 0 0 6 -10 10 -22 10 -19 0 -20 -2 -8
-10z"/>
<path d="M2950 5211 c0 -5 5 -13 10 -16 6 -3 10 -2 10 4 0 5 -4 13 -10 16 -5
3 -10 2 -10 -4z"/>
<path d="M930 5200 c0 -5 5 -10 11 -10 5 0 7 5 4 10 -3 6 -8 10 -11 10 -2 0
-4 -4 -4 -10z"/>
<path d="M2810 5200 c-13 -8 -12 -10 3 -10 9 0 17 5 17 10 0 12 -1 12 -20 0z"/>
<path d="M3310 5200 c-9 -6 -10 -10 -3 -10 6 0 15 5 18 10 8 12 4 12 -15 0z"/>
<path d="M2035 5190 c3 -5 15 -10 26 -10 11 0 17 5 14 10 -3 6 -15 10 -26 10
-11 0 -17 -4 -14 -10z"/>
<path d="M2888 5193 c6 -2 18 -2 25 0 6 3 1 5 -13 5 -14 0 -19 -2 -12 -5z"/>
<path d="M2976 5182 c-3 -5 6 -19 19 -30 17 -15 25 -17 25 -8 0 17 -37 50 -44
38z"/>
<path d="M3449 5143 c-16 -52 -20 -56 -32 -44 -6 6 -18 11 -26 11 -8 0 -11 -3
-7 -7 4 -5 13 -8 19 -8 5 0 12 -6 15 -14 3 -9 0 -12 -10 -9 -14 6 -49 -14 -50
-27 0 -4 5 -11 11 -15 19 -11 1 -42 -20 -37 -11 3 -19 0 -19 -5 0 -6 -6 -5
-15 2 -10 8 -15 9 -15 1 0 -6 13 -17 28 -25 27 -14 29 -13 51 20 13 19 27 34
32 34 19 0 8 19 -13 23 -22 4 -21 4 2 6 20 1 30 11 47 49 33 71 36 82 25 82
-6 0 -16 -17 -23 -37z"/>
<path d="M3355 5151 c-23 -3 -35 -9 -29 -13 15 -10 74 1 74 13 0 5 -1 8 -2 8
-2 -1 -21 -5 -43 -8z"/>
<path d="M1980 5120 c20 -13 33 -13 25 0 -3 6 -14 10 -23 10 -15 0 -15 -2 -2
-10z"/>
<path d="M3027 5124 c-3 -4 11 -27 31 -53 36 -44 49 -66 79 -121 l13 -25 0 28
c0 16 -7 36 -16 45 -15 15 -15 16 2 23 17 6 16 8 -8 18 -16 6 -28 15 -28 21 0
10 -53 70 -62 70 -3 0 -7 -3 -11 -6z"/>
<path d="M2118 5113 c7 -3 16 -2 19 1 4 3 -2 6 -13 5 -11 0 -14 -3 -6 -6z"/>
<path d="M3333 5085 c0 -22 2 -30 4 -17 2 12 2 30 0 40 -3 9 -5 -1 -4 -23z"/>
<path d="M3471 5093 c-7 -16 -13 -30 -13 -33 -1 -3 -8 -10 -17 -17 -13 -9 -11
-10 11 -6 17 3 25 10 22 18 -3 8 0 23 6 35 6 12 10 24 7 26 -2 2 -9 -8 -16
-23z"/>
<path d="M1912 5071 c-7 -17 -21 -32 -30 -34 -11 -3 -8 -5 8 -6 20 -1 27 6 36
34 13 43 4 46 -14 6z"/>
<path d="M1975 5040 c-3 -5 -1 -10 4 -10 6 0 11 5 11 10 0 6 -2 10 -4 10 -3 0
-8 -4 -11 -10z"/>
<path d="M2038 5023 c7 -3 16 -2 19 1 4 3 -2 6 -13 5 -11 0 -14 -3 -6 -6z"/>
<path d="M2355 5019 c-16 -5 -45 -8 -62 -5 -18 3 -35 0 -38 -5 -4 -5 5 -9 19
-9 14 0 26 -4 26 -9 0 -13 74 -11 83 2 6 9 10 9 14 0 2 -8 22 -13 44 -13 25 0
38 4 34 10 -4 6 -14 8 -24 5 -10 -3 -26 4 -39 15 -11 11 -22 20 -24 19 -2 0
-16 -5 -33 -10z"/>
<path d="M2520 5015 c0 -8 5 -15 10 -15 6 0 10 7 10 15 0 8 -4 15 -10 15 -5 0
-10 -7 -10 -15z"/>
<path d="M1941 5011 c-7 -5 -11 -15 -9 -22 3 -10 8 -7 17 9 13 24 12 26 -8 13z"/>
<path d="M2165 5010 c-16 -4 -23 -8 -15 -9 13 -1 13 -2 0 -12 -12 -8 -11 -9 5
-5 11 3 35 7 53 8 34 2 42 12 16 22 -17 7 -17 7 -59 -4z"/>
<path d="M1831 4994 c0 -11 3 -14 6 -6 3 7 2 16 -1 19 -3 4 -6 -2 -5 -13z"/>
<path d="M2570 5000 c-13 -8 -12 -10 3 -10 9 0 17 5 17 10 0 12 -1 12 -20 0z"/>
<path d="M3402 4988 c-7 -7 -12 -22 -12 -35 0 -27 -35 -32 -66 -8 -24 18 -31
19 -31 1 0 -8 6 -12 14 -9 18 7 27 -21 13 -46 -8 -17 -15 -19 -29 -12 -14 8
-21 5 -30 -12 -6 -12 -23 -27 -37 -34 -23 -11 -24 -10 -19 10 4 16 4 18 -3 8
-8 -10 -14 -11 -33 -1 -20 11 -19 7 9 -22 34 -36 39 -52 20 -64 -6 -4 -8 -3
-5 4 9 14 -3 43 -15 36 -5 -3 -7 -13 -4 -21 3 -8 1 -35 -5 -61 -15 -65 -13
-190 5 -243 8 -24 16 -57 18 -74 3 -27 6 -23 26 33 25 66 33 199 18 268 -6 26
-3 37 18 57 l26 26 -27 -2 c-18 -1 -28 3 -31 15 -3 13 4 16 33 14 19 -2 38 1
41 5 3 5 -2 9 -10 9 -9 0 -16 7 -16 15 0 13 11 15 64 11 59 -4 63 -2 59 15 -3
10 -1 19 5 19 10 0 28 97 20 105 -2 3 -10 -1 -16 -7z m-22 -93 c-13 -16 -40
-21 -40 -7 0 8 42 30 49 25 2 -1 -2 -9 -9 -18z m-174 -171 c-3 -8 -2 -14 2
-14 9 0 10 -14 11 -102 1 -88 -5 -138 -19 -152 -10 -8 -11 -4 -6 22 3 21 2 31
-4 27 -12 -8 -12 -7 -1 32 6 20 6 35 0 38 -5 4 -9 15 -9 25 0 14 5 18 18 13
16 -7 16 -6 0 11 -19 18 -24 51 -10 60 5 3 7 19 4 37 -3 23 -1 30 7 24 7 -4
10 -13 7 -21z"/>
<path d="M3202 4660 c0 -14 2 -19 5 -12 2 6 2 18 0 25 -3 6 -5 1 -5 -13z"/>
<path d="M2256 4981 c-4 -5 -2 -12 3 -15 5 -4 12 -2 15 3 4 5 2 12 -3 15 -5 4
-12 2 -15 -3z"/>
<path d="M3265 4980 c3 -5 11 -10 16 -10 6 0 7 5 4 10 -3 6 -11 10 -16 10 -6
0 -7 -4 -4 -10z"/>
<path d="M1994 4945 c-15 -23 -43 -37 -29 -15 4 6 -1 7 -11 3 -12 -4 -14 -8
-6 -11 22 -7 -7 -32 -37 -32 -20 0 -23 -2 -11 -10 22 -14 34 -12 60 10 13 11
31 20 41 20 10 0 21 5 24 10 3 6 15 10 26 10 11 0 18 4 15 9 -6 10 24 25 32
16 3 -3 0 -5 -6 -5 -7 0 -12 -3 -12 -7 0 -5 18 -8 39 -8 22 -1 38 2 35 7 -4 7
92 -19 110 -29 5 -3 7 0 4 8 -10 31 -115 60 -130 36 -6 -9 -8 -9 -8 1 0 8 -19
12 -60 12 -52 0 -61 -3 -76 -25z"/>
<path d="M2445 4960 c3 -5 8 -10 11 -10 2 0 4 5 4 10 0 6 -5 10 -11 10 -5 0
-7 -4 -4 -10z"/>
<path d="M2591 4956 c-16 -19 -11 -29 8 -17 7 5 12 14 9 21 -3 9 -8 7 -17 -4z"/>
<path d="M2886 4941 c-3 -5 0 -11 7 -14 8 -3 14 1 14 9 0 16 -13 19 -21 5z"/>
<path d="M2953 4942 c-8 -5 -6 -13 7 -30 10 -12 21 -22 25 -22 4 0 2 7 -5 15
-7 8 -9 15 -4 15 5 0 2 5 -6 10 -9 6 -10 10 -3 10 6 0 14 -4 18 -9 3 -6 13 -9
23 -9 9 0 26 -3 37 -7 16 -5 15 -3 -5 14 -25 21 -65 27 -87 13z"/>
<path d="M2391 4924 c0 -11 3 -14 6 -6 3 7 2 16 -1 19 -3 4 -6 -2 -5 -13z"/>
<path d="M3076 4924 c-4 -10 2 -14 19 -14 30 0 33 16 6 23 -12 3 -22 -1 -25
-9z"/>
<path d="M2285 4920 c-3 -5 -1 -10 4 -10 6 0 11 5 11 10 0 6 -2 10 -4 10 -3 0
-8 -4 -11 -10z"/>
<path d="M2560 4926 c0 -3 9 -10 20 -16 11 -6 20 -8 20 -6 0 3 -9 10 -20 16
-11 6 -20 8 -20 6z"/>
<path d="M2310 4900 c0 -5 7 -10 16 -10 8 0 12 5 9 10 -3 6 -10 10 -16 10 -5
0 -9 -4 -9 -10z"/>
<path d="M3290 4899 c0 -5 5 -7 10 -4 6 3 10 8 10 11 0 2 -4 4 -10 4 -5 0 -10
-5 -10 -11z"/>
<path d="M2791 4891 c-9 -6 -11 -14 -4 -26 9 -15 11 -14 15 9 3 14 5 26 4 26
0 0 -7 -4 -15 -9z"/>
<path d="M2705 4881 c-3 -5 -1 -12 4 -15 5 -3 11 1 15 9 6 16 -9 21 -19 6z"/>
<path d="M2880 4884 c0 -14 32 -35 48 -31 14 4 14 6 -5 12 -13 4 -23 11 -23
16 0 5 -4 9 -10 9 -5 0 -10 -3 -10 -6z"/>
<path d="M2940 4880 c0 -5 5 -10 10 -10 6 0 10 5 10 10 0 6 -4 10 -10 10 -5 0
-10 -4 -10 -10z"/>
<path d="M3058 4883 c31 -6 27 -24 -5 -22 -16 1 -41 -3 -56 -10 -16 -6 -33 -9
-38 -5 -5 3 -9 1 -9 -5 0 -6 17 -8 43 -5 23 2 62 4 87 4 40 0 43 1 28 14 -10
7 -18 18 -18 25 0 6 -12 10 -27 10 -24 -2 -25 -2 -5 -6z"/>
<path d="M828 4873 c7 -3 16 -2 19 1 4 3 -2 6 -13 5 -11 0 -14 -3 -6 -6z"/>
<path d="M1712 4857 c-10 -11 -9 -17 3 -27 20 -17 31 -6 19 21 -8 18 -11 19
-22 6z"/>
<path d="M2220 4855 c-12 -6 -33 -10 -46 -7 -13 2 -24 0 -24 -6 0 -5 -15 -13
-34 -16 -44 -8 -56 -41 -15 -41 15 0 31 4 36 9 5 5 1 7 -9 3 -10 -3 -20 -2
-23 2 -5 9 50 25 72 22 7 -1 22 3 33 9 13 7 42 9 77 4 47 -6 64 -14 100 -47
24 -22 43 -34 43 -27 0 49 -161 121 -210 95z"/>
<path d="M2605 4860 c3 -5 8 -10 11 -10 2 0 4 5 4 10 0 6 -5 10 -11 10 -5 0
-7 -4 -4 -10z"/>
<path d="M2833 4854 c-17 -18 -16 -24 3 -24 8 0 13 4 10 9 -4 5 -1 11 6 13 7
3 8 7 3 10 -6 3 -16 0 -22 -8z"/>
<path d="M1885 4830 c-3 -5 -1 -10 4 -10 6 0 11 5 11 10 0 6 -2 10 -4 10 -3 0
-8 -4 -11 -10z"/>
<path d="M1677 4823 c-4 -3 -7 -11 -7 -17 0 -6 5 -5 12 2 6 6 9 14 7 17 -3 3
-9 2 -12 -2z"/>
<path d="M2235 4820 c-3 -5 -1 -10 4 -10 6 0 11 5 11 10 0 6 -2 10 -4 10 -3 0
-8 -4 -11 -10z"/>
<path d="M2870 4802 c-29 -10 -2 -17 55 -14 58 3 69 1 110 -27 25 -17 56 -30
68 -30 17 1 18 2 5 6 -10 2 -18 8 -18 12 0 4 -20 18 -45 31 -40 21 -141 33
-175 22z"/>
<path d="M2190 4778 c-30 -12 -67 -29 -82 -39 -14 -11 -31 -19 -36 -19 -6 0
-12 -6 -15 -12 -3 -10 -8 -9 -23 2 -17 14 -18 14 -6 -2 9 -11 10 -18 2 -23
-13 -8 -13 -45 0 -45 5 0 9 5 7 12 -1 7 12 19 28 28 17 8 54 30 83 47 28 18
52 32 53 30 0 -1 2 -14 3 -29 2 -29 30 -57 57 -58 23 0 69 38 69 59 0 9 -5 22
-12 29 -27 27 14 11 57 -22 46 -34 48 -46 9 -46 -12 0 -37 -7 -55 -15 l-34
-15 40 3 c22 2 50 9 63 16 12 6 30 11 39 9 31 -6 24 20 -12 42 -19 12 -35 25
-35 30 0 4 -15 11 -32 15 -18 4 -40 9 -48 12 -44 11 -70 9 -120 -9z m95 -8
c-3 -5 -10 -10 -16 -10 -5 0 -9 5 -9 10 0 6 7 10 16 10 8 0 12 -4 9 -10z m4
-26 c11 -11 -12 -17 -29 -7 -15 10 -19 9 -24 -4 -4 -9 -9 -14 -11 -11 -3 3 -3
13 1 22 5 13 13 16 33 11 14 -4 28 -9 30 -11z m4 -39 c6 4 3 -1 -7 -9 -24 -19
-37 -20 -33 -3 1 6 -4 11 -11 9 -8 -1 -11 2 -7 8 4 7 12 7 26 0 11 -6 25 -8
32 -5z"/>
<path d="M2835 4790 c-3 -5 -1 -10 4 -10 6 0 11 5 11 10 0 6 -2 10 -4 10 -3 0
-8 -4 -11 -10z"/>
<path d="M1627 4757 c-27 -33 -34 -56 -40 -142 -3 -31 1 -54 9 -62 10 -11 12
-3 8 44 -6 74 12 138 43 152 23 11 30 26 15 35 -5 3 -21 -9 -35 -27z"/>
<path d="M852 4766 c7 -8 15 -12 17 -11 5 6 -10 25 -20 25 -5 0 -4 -6 3 -14z"/>
<path d="M2582 4766 c7 -8 15 -12 17 -11 5 6 -10 25 -20 25 -5 0 -4 -6 3 -14z"/>
<path d="M2780 4758 c-39 -42 -17 -105 39 -113 20 -3 52 -10 71 -15 32 -8 33
-8 16 5 -11 8 -27 15 -35 15 -29 0 -91 21 -91 30 0 6 14 10 31 10 16 0 28 4
25 9 -3 4 6 13 21 20 28 13 46 1 36 -25 -7 -18 43 -63 65 -59 9 2 20 4 24 4
21 2 30 45 18 82 -12 35 -14 37 -49 32 -20 -2 -45 -5 -56 -7 -36 -5 -75 -18
-75 -26 0 -15 -33 -21 -42 -8 -13 21 -9 26 12 21 12 -3 20 0 20 6 0 7 -4 9
-10 6 -5 -3 -10 -1 -10 5 0 7 8 9 20 5 23 -7 28 10 5 19 -8 3 -24 -4 -35 -16z
m150 -48 c0 -5 -2 -10 -4 -10 -3 0 -8 5 -11 10 -3 6 -1 10 4 10 6 0 11 -4 11
-10z m40 0 c0 -5 -7 -10 -15 -10 -8 0 -15 5 -15 10 0 6 7 10 15 10 8 0 15 -4
15 -10z m0 -35 c6 3 10 2 10 -3 0 -9 -31 -26 -34 -20 -1 2 -8 12 -16 22 -14
18 -14 19 8 7 12 -6 27 -9 32 -6z"/>
<path d="M2513 4756 c-25 -12 -29 -21 -13 -31 8 -5 7 -11 -1 -21 -7 -9 -8 -14
-1 -14 6 0 16 16 23 35 7 19 20 36 28 38 13 4 13 5 1 5 -8 0 -25 -5 -37 -12z"/>
<path d="M3100 4759 c0 -5 5 -7 10 -4 6 3 10 8 10 11 0 2 -4 4 -10 4 -5 0 -10
-5 -10 -11z"/>
<path d="M3007 4753 c-4 -3 -7 -11 -7 -17 0 -6 5 -5 12 2 6 6 9 14 7 17 -3 3
-9 2 -12 -2z"/>
<path d="M3351 4744 c0 -11 3 -14 6 -6 3 7 2 16 -1 19 -3 4 -6 -2 -5 -13z"/>
<path d="M2450 4740 c20 -13 33 -13 25 0 -3 6 -14 10 -23 10 -15 0 -15 -2 -2
-10z"/>
<path d="M2560 4725 c0 -8 7 -15 15 -15 8 0 15 4 15 9 0 5 -7 11 -15 15 -9 3
-15 0 -15 -9z"/>
<path d="M3026 4732 c-2 -4 0 -26 6 -48 17 -62 7 -77 -44 -69 -39 7 -41 6 -25
-9 10 -11 34 -17 64 -17 26 -1 58 -7 71 -15 27 -18 29 -4 3 20 -13 12 -27 16
-42 11 -23 -8 -23 -8 -5 20 15 23 16 31 6 50 -7 13 -10 27 -7 32 3 4 -1 14 -9
20 -7 7 -15 9 -18 5z"/>
<path d="M1830 4722 c0 -5 7 -9 15 -9 8 0 12 4 9 9 -3 4 -9 8 -15 8 -5 0 -9
-4 -9 -8z"/>
<path d="M3130 4723 c0 -5 -15 -8 -32 -6 -31 4 -32 3 -14 -11 11 -9 23 -16 27
-16 11 0 32 30 25 37 -3 3 -6 2 -6 -4z"/>
<path d="M1650 4709 c0 -5 5 -7 10 -4 6 3 10 8 10 11 0 2 -4 4 -10 4 -5 0 -10
-5 -10 -11z"/>
<path d="M3261 4694 c0 -11 3 -14 6 -6 3 7 2 16 -1 19 -3 4 -6 -2 -5 -13z"/>
<path d="M3325 4700 c-3 -5 1 -10 10 -10 9 0 13 5 10 10 -3 6 -8 10 -10 10 -2
0 -7 -4 -10 -10z"/>
<path d="M982 4670 c1 -14 -1 -31 -5 -37 -5 -7 -4 -13 1 -13 16 0 22 28 12 52
-10 23 -10 23 -8 -2z"/>
<path d="M1988 4683 c7 -3 16 -2 19 1 4 3 -2 6 -13 5 -11 0 -14 -3 -6 -6z"/>
<path d="M3090 4660 c-9 -18 -8 -20 12 -17 13 2 24 11 26 20 5 24 -25 21 -38
-3z"/>
<path d="M2072 4661 c-16 -10 59 -21 178 -25 47 -2 72 -2 55 0 -16 2 -46 8
-65 14 -52 13 -153 20 -168 11z"/>
<path d="M1968 4653 c7 -3 16 -2 19 1 4 3 -2 6 -13 5 -11 0 -14 -3 -6 -6z"/>
<path d="M1224 4630 c-32 -13 -89 -90 -103 -140 -29 -99 -2 -218 72 -313 16
-21 30 -44 31 -50 1 -7 13 -28 26 -47 14 -19 23 -36 20 -37 -3 -1 3 -12 13
-23 10 -12 15 -25 12 -30 -3 -6 0 -7 8 -5 7 3 19 -5 27 -20 7 -14 20 -25 27
-25 7 0 16 -6 19 -14 3 -8 12 -12 20 -9 8 3 14 0 14 -6 0 -6 7 -11 15 -11 25
0 17 19 -17 39 -53 31 -77 53 -108 99 -17 24 -30 45 -30 48 0 2 -21 39 -46 81
-56 92 -94 185 -94 230 0 77 42 183 80 203 51 27 121 3 184 -64 34 -36 45 -41
85 -43 33 -1 40 1 26 7 -11 5 -28 9 -38 9 -9 1 -37 21 -60 45 -46 46 -114 86
-144 85 -10 0 -28 -4 -39 -9z"/>
<path d="M2350 4630 c-13 -8 -13 -10 2 -10 9 0 20 5 23 10 8 13 -5 13 -25 0z"/>
<path d="M2302 4603 c7 -9 14 -11 16 -5 2 6 11 8 20 5 9 -3 14 -3 10 1 -3 4
-18 9 -32 10 -22 3 -24 1 -14 -11z"/>
<path d="M2850 4608 c19 -5 38 -14 41 -20 4 -7 9 -6 14 2 11 17 -14 30 -55 29
l-35 -1 35 -10z"/>
<path d="M3105 4610 c4 -6 11 -8 16 -5 14 9 11 15 -7 15 -8 0 -12 -5 -9 -10z"/>
<path d="M2430 4599 c0 -5 5 -7 10 -4 6 3 10 8 10 11 0 2 -4 4 -10 4 -5 0 -10
-5 -10 -11z"/>
<path d="M2277 4593 c-4 -3 -7 -11 -7 -17 0 -6 5 -5 12 2 6 6 9 14 7 17 -3 3
-9 2 -12 -2z"/>
<path d="M1250 4560 c0 -5 5 -10 10 -10 6 0 10 -4 10 -10 0 -5 -6 -7 -14 -4
-8 3 -17 1 -21 -5 -3 -6 2 -11 12 -11 20 0 55 34 46 44 -10 10 -43 7 -43 -4z"/>
<path d="M1200 4528 c0 -12 1 -19 3 -17 1 2 9 12 16 22 12 14 11 17 -3 17 -10
0 -16 -8 -16 -22z"/>
<path d="M1567 4526 c-4 -10 0 -12 14 -9 10 3 16 9 13 14 -8 13 -21 11 -27 -5z"/>
<path d="M1595 4500 c-4 -6 -3 -16 3 -22 13 -13 23 4 13 21 -7 10 -10 10 -16
1z"/>
<path d="M1175 4490 c4 -6 11 -8 16 -5 14 9 11 15 -7 15 -8 0 -12 -5 -9 -10z"/>
<path d="M1490 4480 l-45 -7 41 -1 c22 -1 45 -7 51 -13 7 -7 12 -4 16 10 3 13
1 20 -6 19 -7 0 -32 -4 -57 -8z"/>
<path d="M1350 4469 c0 -5 4 -7 10 -4 5 3 7 0 4 -8 -3 -8 2 -17 12 -21 24 -9
28 -2 12 23 -13 22 -38 29 -38 10z"/>
<path d="M1209 4459 c-2 -19 2 -93 6 -97 8 -9 35 13 35 28 0 31 -18 32 -23 3
-3 -19 -4 -13 -5 17 -1 32 1 41 8 30 5 -8 10 -10 10 -4 0 6 -7 17 -15 24 -12
10 -15 10 -16 -1z"/>
<path d="M1587 4446 c-8 -8 -17 -12 -21 -9 -3 4 -6 -1 -6 -10 0 -9 5 -17 12
-17 17 0 3 -11 -19 -14 -19 -3 -32 -46 -14 -46 6 0 11 7 11 15 0 8 5 15 10 15
6 0 10 -5 10 -11 0 -8 5 -7 16 2 10 8 14 23 12 41 -3 15 0 29 6 31 6 3 8 7 5
11 -4 4 -13 0 -22 -8z"/>
<path d="M2808 4433 c7 -3 16 -2 19 1 4 3 -2 6 -13 5 -11 0 -14 -3 -6 -6z"/>
<path d="M1383 4378 c-38 -26 -41 -38 -13 -38 11 0 20 -6 21 -12 0 -7 4 -3 9
10 13 30 34 29 28 -3 -6 -30 -3 -31 24 -5 19 17 19 20 5 20 -10 0 -22 11 -27
25 -5 14 -11 25 -12 25 -2 0 -18 -10 -35 -22z"/>
<path d="M2470 4381 c0 -6 4 -13 10 -16 6 -3 7 1 4 9 -7 18 -14 21 -14 7z"/>
<path d="M2818 4383 c7 -3 16 -2 19 1 4 3 -2 6 -13 5 -11 0 -14 -3 -6 -6z"/>
<path d="M1038 4363 c7 -3 16 -2 19 1 4 3 -2 6 -13 5 -11 0 -14 -3 -6 -6z"/>
<path d="M1217 4332 c-13 -14 -15 -22 -7 -27 6 -4 9 -13 6 -21 -6 -15 18 -66
47 -98 9 -11 17 -23 17 -28 0 -4 7 -8 15 -8 8 0 17 -11 21 -25 8 -30 39 -33
54 -5 8 16 8 18 -5 14 -15 -6 -85 57 -85 77 0 5 -4 8 -9 4 -8 -4 -24 53 -33
119 -3 17 -4 17 -21 -2z"/>
<path d="M3179 4338 c-6 -130 -36 -291 -51 -282 -4 3 -8 -12 -8 -33 0 -22 -5
-44 -11 -50 -7 -7 -6 -12 5 -16 13 -5 16 1 16 27 0 19 8 54 18 78 11 24 22 59
26 78 3 19 8 46 11 60 14 70 17 150 6 150 -6 0 -11 -6 -12 -12z"/>
<path d="M2458 4309 c-10 -17 -18 -46 -18 -65 0 -28 5 -37 28 -46 35 -14 152
-20 152 -8 0 19 -5 25 -17 22 -16 -4 -17 14 -1 24 11 7 22 9 81 16 9 1 17 6
17 10 0 4 9 8 19 8 42 0 28 19 -19 25 -44 6 -53 4 -85 -20 -23 -18 -35 -36
-35 -51 0 -20 -5 -24 -29 -24 -17 0 -33 5 -36 10 -4 6 -10 8 -14 5 -11 -6 -19
38 -16 88 2 45 -4 47 -27 6z"/>
<path d="M2728 4323 c6 -2 18 -2 25 0 6 3 1 5 -13 5 -14 0 -19 -2 -12 -5z"/>
<path d="M1299 4305 c-13 -56 40 -135 89 -135 15 0 32 -4 38 -9 5 -5 25 -11
44 -13 31 -3 35 0 38 22 2 23 1 23 -11 8 -15 -19 -29 -18 -72 4 -16 8 -42 18
-56 21 -15 4 -29 16 -32 27 -7 27 3 61 16 53 6 -4 7 -1 2 7 -6 10 -11 9 -21
-5 -14 -19 -14 -18 -27 25 -3 11 -5 10 -8 -5z"/>
<path d="M1360 4309 c0 -5 5 -7 10 -4 6 3 10 8 10 11 0 2 -4 4 -10 4 -5 0 -10
-5 -10 -11z"/>
<path d="M1581 4304 c0 -11 3 -14 6 -6 3 7 2 16 -1 19 -3 4 -6 -2 -5 -13z"/>
<path d="M952 4294 c-7 -8 -8 -14 -3 -14 10 0 25 19 20 25 -2 1 -10 -3 -17
-11z"/>
<path d="M1000 4285 c0 -40 19 -105 30 -105 13 0 13 17 0 25 -5 3 -10 23 -10
43 0 20 -5 44 -10 52 -7 12 -10 8 -10 -15z"/>
<path d="M1040 4291 c0 -25 6 -27 13 -6 4 8 2 17 -3 20 -6 4 -10 -3 -10 -14z"/>
<path d="M2912 4280 c0 -14 2 -19 5 -12 2 6 2 18 0 25 -3 6 -5 1 -5 -13z"/>
<path d="M2880 4282 c0 -16 -52 -35 -60 -21 -5 7 -10 7 -13 2 -4 -6 5 -15 18
-21 14 -7 25 -18 25 -27 0 -8 6 -15 14 -15 8 0 16 -5 18 -11 2 -6 12 -1 23 11
15 17 16 20 3 15 -14 -6 -16 0 -13 29 2 20 -1 39 -6 42 -5 3 -9 1 -9 -4z"/>
<path d="M1431 4264 c0 -11 3 -14 6 -6 3 7 2 16 -1 19 -3 4 -6 -2 -5 -13z"/>
<path d="M1056 4238 c4 -13 7 -29 7 -35 0 -7 4 -13 9 -13 9 0 10 16 2 48 -4
12 -11 22 -16 22 -5 0 -6 -10 -2 -22z"/>
<path d="M1440 4235 c0 -3 9 -14 20 -25 19 -19 36 -14 22 6 -8 11 -42 26 -42
19z"/>
<path d="M2797 4233 c-4 -4 -34 -6 -67 -6 -33 1 -57 -3 -54 -8 7 -13 121 -11
129 2 8 12 1 22 -8 12z"/>
<path d="M2680 4180 c0 -5 5 -10 11 -10 5 0 7 5 4 10 -3 6 -8 10 -11 10 -2 0
-4 -4 -4 -10z"/>
<path d="M2850 4165 c0 -8 5 -15 10 -15 6 0 10 7 10 15 0 8 -4 15 -10 15 -5 0
-10 -7 -10 -15z"/>
<path d="M1600 4098 c0 -16 4 -28 9 -28 6 0 11 -15 13 -32 3 -32 3 -32 9 -7 4
16 -1 40 -12 60 l-18 34 -1 -27z"/>
<path d="M1405 4100 c3 -5 8 -10 11 -10 2 0 4 5 4 10 0 6 -5 10 -11 10 -5 0
-7 -4 -4 -10z"/>
<path d="M1670 4101 c0 -5 5 -13 10 -16 6 -3 10 -2 10 4 0 5 -4 13 -10 16 -5
3 -10 2 -10 -4z"/>
<path d="M2645 4090 c3 -5 8 -10 11 -10 2 0 4 5 4 10 0 6 -5 10 -11 10 -5 0
-7 -4 -4 -10z"/>
<path d="M1036 4081 c-4 -5 -2 -12 3 -15 5 -4 12 -2 15 3 4 5 2 12 -3 15 -5 4
-12 2 -15 -3z"/>
<path d="M1377 4079 c7 -7 15 -10 18 -7 3 3 -2 9 -12 12 -14 6 -15 5 -6 -5z"/>
<path d="M1131 4075 c-10 -41 -5 -65 12 -65 10 0 16 -3 14 -7 -3 -5 8 -8 24
-8 l29 0 -23 17 c-12 10 -27 18 -34 18 -6 0 -14 12 -16 28 -2 15 -5 23 -6 17z"/>
<path d="M1170 4073 c0 -8 17 -19 63 -41 4 -2 7 1 7 6 0 7 -14 16 -62 40 -5 2
-8 0 -8 -5z"/>
<path d="M2557 4073 c-4 -3 -7 -11 -7 -17 0 -6 5 -4 10 4 9 13 11 13 20 0 8
-13 10 -12 10 3 0 17 -20 23 -33 10z"/>
<path d="M2675 4060 c-3 -5 -1 -10 4 -10 6 0 11 5 11 10 0 6 -2 10 -4 10 -3 0
-8 -4 -11 -10z"/>
<path d="M1444 4035 c31 -29 33 -41 7 -48 -15 -4 -21 1 -24 22 -3 22 -4 21 -6
-8 -1 -25 2 -32 14 -28 8 4 17 1 21 -5 8 -13 24 9 24 35 0 19 -34 57 -51 57
-7 0 0 -11 15 -25z"/>
<path d="M2704 4048 c-4 -7 -4 -10 1 -6 4 4 20 1 36 -7 32 -17 63 -20 54 -5
-3 6 -17 10 -30 10 -13 0 -27 5 -30 10 -8 14 -22 13 -31 -2z"/>
<path d="M1487 4039 c7 -7 15 -10 18 -7 3 3 -2 9 -12 12 -14 6 -15 5 -6 -5z"/>
<path d="M2625 4040 c28 -12 37 -12 30 0 -3 6 -16 10 -28 9 -21 0 -21 -1 -2
-9z"/>
<path d="M2930 4040 c0 -5 5 -10 11 -10 5 0 7 5 4 10 -3 6 -8 10 -11 10 -2 0
-4 -4 -4 -10z"/>
<path d="M1551 4004 c-1 -23 -7 -46 -13 -52 -18 -14 -50 -18 -66 -9 -7 5 -15
2 -19 -8 -3 -10 0 -21 8 -26 12 -8 12 -11 -1 -19 -10 -6 -11 -10 -3 -10 7 0
18 9 25 20 7 11 20 20 28 20 12 0 12 -2 2 -9 -11 -7 -10 -10 3 -15 9 -3 26 -6
37 -6 17 0 19 -4 14 -25 -8 -31 4 -32 24 -2 14 20 13 29 -11 102 -26 76 -28
78 -28 39z m19 -84 c0 -15 -7 -20 -25 -20 -29 0 -30 3 -9 24 21 22 34 20 34
-4z"/>
<path d="M2664 4012 c-7 -4 13 -8 45 -9 38 -1 50 2 36 7 -25 11 -67 12 -81 2z"/>
<path d="M2595 3992 c-16 -8 -31 -19 -33 -23 -2 -4 -9 -6 -17 -3 -7 3 -16 1
-19 -4 -3 -5 5 -12 19 -14 14 -3 23 -1 22 6 -1 6 9 10 23 8 19 -2 22 0 10 8
-13 8 -13 10 1 10 9 0 22 7 29 15 15 18 4 18 -35 -3z"/>
<path d="M2940 4001 c0 -5 7 -14 15 -21 16 -14 18 -10 9 14 -6 17 -24 22 -24
7z"/>
<path d="M2875 3992 c-14 -10 -18 -35 -4 -26 8 5 10 -1 7 -20 -3 -14 -1 -26 3
-26 5 0 8 18 7 40 -1 22 -2 40 -2 40 -1 0 -5 -4 -11 -8z"/>
<path d="M2906 3955 c4 -8 8 -15 10 -15 2 0 4 7 4 15 0 8 -4 15 -10 15 -5 0
-7 -7 -4 -15z"/>
<path d="M495 3950 c-3 -5 -3 -10 2 -11 4 0 23 -1 41 -2 28 -2 30 0 15 11 -20
15 -49 16 -58 2z"/>
<path d="M1080 3940 c-13 -8 -13 -10 2 -10 9 0 20 5 23 10 8 13 -5 13 -25 0z"/>
<path d="M2648 3943 c6 -2 18 -2 25 0 6 3 1 5 -13 5 -14 0 -19 -2 -12 -5z"/>
<path d="M580 3930 c0 -5 19 -9 41 -8 29 1 46 -4 54 -16 8 -10 16 -13 19 -7 3
5 -1 17 -10 25 -17 18 -104 23 -104 6z"/>
<path d="M2475 3930 c-5 -8 -27 -11 -65 -8 -52 4 -57 2 -52 -15 4 -15 11 -18
38 -13 89 17 283 23 364 12 92 -14 160 -38 160 -57 0 -10 3 -10 12 -1 7 7 22
12 35 12 13 0 23 5 23 10 0 6 -11 10 -25 10 -20 0 -25 5 -25 26 0 15 -4 23
-11 19 -6 -4 -8 -13 -5 -21 6 -17 -34 -20 -50 -4 -12 12 -64 19 -209 26 -60 3
-126 8 -146 11 -23 3 -39 0 -44 -7z"/>
<path d="M2748 3933 c7 -3 16 -2 19 1 4 3 -2 6 -13 5 -11 0 -14 -3 -6 -6z"/>
<path d="M3097 3921 c-3 -12 -1 -21 3 -21 14 0 19 15 11 29 -6 9 -10 7 -14 -8z"/>
<path d="M721 3904 c0 -11 3 -14 6 -6 3 7 2 16 -1 19 -3 4 -6 -2 -5 -13z"/>
<path d="M751 3901 c-18 -11 60 -18 109 -10 31 6 29 7 -17 8 -28 0 -57 3 -65
6 -7 3 -19 1 -27 -4z"/>
<path d="M907 3886 c3 -4 28 -6 55 -4 27 3 51 1 54 -4 3 -5 14 -6 24 -3 10 3
21 1 25 -4 5 -9 46 2 67 18 4 3 -46 6 -112 6 -65 0 -116 -4 -113 -9z"/>
<path d="M370 3870 c0 -5 5 -10 11 -10 5 0 7 5 4 10 -3 6 -8 10 -11 10 -2 0
-4 -4 -4 -10z"/>
<path d="M1752 3860 c0 -14 2 -19 5 -12 2 6 2 18 0 25 -3 6 -5 1 -5 -13z"/>
<path d="M848 3863 c7 -3 16 -2 19 1 4 3 -2 6 -13 5 -11 0 -14 -3 -6 -6z"/>
<path d="M1220 3860 c0 -5 5 -10 10 -10 6 0 10 5 10 10 0 6 -4 10 -10 10 -5 0
-10 -4 -10 -10z"/>
<path d="M1257 3859 c7 -7 15 -10 18 -7 3 3 -2 9 -12 12 -14 6 -15 5 -6 -5z"/>
<path d="M3090 3860 c0 -5 7 -10 15 -10 8 0 15 5 15 10 0 6 -7 10 -15 10 -8 0
-15 -4 -15 -10z"/>
<path d="M1280 3836 c0 -2 7 -6 15 -10 8 -3 15 -1 15 4 0 6 -7 10 -15 10 -8 0
-15 -2 -15 -4z"/>
<path d="M3043 3816 c0 -8 8 -11 20 -8 14 4 16 7 5 13 -19 12 -25 11 -25 -5z"/>
<path d="M1225 3802 c-27 -9 -30 -32 -4 -32 22 0 52 24 42 34 -7 7 -10 7 -38
-2z"/>
<path d="M1335 3800 c3 -5 8 -10 11 -10 2 0 4 5 4 10 0 6 -5 10 -11 10 -5 0
-7 -4 -4 -10z"/>
<path d="M2831 3794 c0 -11 3 -14 6 -6 3 7 2 16 -1 19 -3 4 -6 -2 -5 -13z"/>
<path d="M3045 3780 c-3 -5 1 -10 9 -10 9 0 16 5 16 10 0 6 -4 10 -9 10 -6 0
-13 -4 -16 -10z"/>
<path d="M2743 3770 c-17 -4 -46 -16 -63 -27 -25 -16 -28 -21 -16 -26 9 -4 16
-2 16 4 0 10 35 26 77 33 29 6 57 27 33 25 -8 -1 -29 -4 -47 -9z"/>
<path d="M160 3764 c0 -6 3 -14 8 -18 4 -4 7 -12 7 -17 0 -5 5 -9 10 -9 6 0
10 7 10 15 0 8 -4 15 -9 14 -5 0 -13 5 -17 13 -5 7 -9 8 -9 2z"/>
<path d="M1380 3760 c0 -5 7 -10 15 -10 8 0 15 5 15 10 0 6 -7 10 -15 10 -8 0
-15 -4 -15 -10z"/>
<path d="M462 3744 c-7 -8 -8 -14 -3 -14 10 0 25 19 20 25 -2 1 -10 -3 -17
-11z"/>
<path d="M3030 3748 c0 -8 -7 -21 -15 -28 -8 -6 -14 -15 -13 -18 2 -11 -14
-45 -34 -74 -10 -14 -18 -39 -18 -55 1 -22 12 -6 50 71 34 67 47 103 40 110
-7 7 -10 5 -10 -6z"/>
<path d="M1230 3741 c0 -5 6 -14 14 -21 12 -9 15 -8 13 9 -1 20 -27 31 -27 12z"/>
<path d="M2980 3726 c0 -22 3 -27 11 -19 8 8 8 16 0 30 -9 16 -10 14 -11 -11z"/>
<path d="M1324 3732 c-9 -5 -8 -10 2 -19 8 -8 15 -9 19 -3 3 6 1 10 -5 10 -6
0 -8 5 -5 10 7 12 4 12 -11 2z"/>
<path d="M1370 3730 c0 -5 5 -10 10 -10 6 0 10 5 10 10 0 6 -4 10 -10 10 -5 0
-10 -4 -10 -10z"/>
<path d="M2615 3730 c-3 -5 1 -10 9 -10 9 0 16 5 16 10 0 6 -4 10 -9 10 -6 0
-13 -4 -16 -10z"/>
<path d="M2761 3729 c17 -11 39 -12 39 -1 0 4 -12 8 -27 9 -19 1 -22 -1 -12
-8z"/>
<path d="M2810 3734 c0 -2 9 -8 20 -14 11 -6 20 -7 20 -2 0 6 -9 12 -20 15
-11 3 -20 3 -20 1z"/>
<path d="M1346 3688 c-9 -13 -22 -32 -30 -43 -14 -20 -15 -20 -40 4 -14 14
-26 20 -26 14 0 -6 6 -13 14 -16 7 -3 16 -15 19 -26 3 -12 2 -19 -3 -16 -4 3
-11 -6 -14 -20 -7 -27 -62 -95 -78 -95 -5 0 -19 -11 -32 -25 -13 -14 -37 -30
-55 -36 -17 -6 -29 -15 -26 -19 3 -4 -14 -6 -37 -3 -32 3 -39 2 -28 -6 9 -7
10 -11 3 -11 -6 0 -15 5 -18 10 -4 6 -14 9 -23 8 -9 -2 -22 8 -29 22 -7 14
-20 25 -30 25 -10 1 -24 5 -32 9 -10 6 -12 5 -7 -2 11 -18 -26 -49 -55 -47
-14 1 -36 9 -49 18 -13 9 -27 14 -32 11 -14 -9 33 -38 62 -40 34 -1 61 -14 54
-25 -3 -5 0 -9 5 -9 16 0 13 -36 -4 -50 -12 -10 -15 -10 -15 2 0 8 -7 15 -16
15 -10 0 -14 -7 -11 -19 3 -10 2 -18 -1 -19 -4 -1 -21 -2 -39 -4 -17 -1 -46
-10 -64 -19 -39 -19 -42 -20 -33 -3 4 7 3 9 -2 4 -5 -5 -9 -14 -9 -20 0 -7 -7
-12 -15 -12 -8 0 -26 -13 -39 -28 -13 -15 -30 -26 -37 -23 -7 3 -11 0 -8 -7 5
-13 -44 -40 -58 -31 -5 3 -8 2 -7 -3 1 -4 1 -15 0 -23 -1 -12 -5 -11 -16 4 -8
11 -18 16 -22 12 -4 -4 -2 -11 5 -15 10 -6 6 -12 -13 -25 -14 -9 -31 -14 -37
-10 -7 4 -8 3 -4 -4 5 -8 -1 -12 -18 -12 -13 0 -31 -7 -39 -15 -8 -8 -18 -11
-22 -7 -5 4 -5 -1 -2 -11 4 -10 3 -16 -2 -13 -4 3 -17 -4 -27 -15 -10 -11 -23
-18 -29 -15 -7 2 -18 -4 -26 -15 -7 -10 -18 -19 -24 -19 -5 0 -39 -18 -74 -40
-36 -21 -69 -36 -74 -33 -6 3 -7 1 -3 -5 8 -13 -23 -31 -43 -24 -8 2 -11 0 -7
-6 3 -6 -1 -17 -9 -25 -22 -23 -20 -43 4 -26 82 61 193 131 346 219 99 57 205
123 236 147 30 23 59 43 63 43 4 0 19 9 34 20 15 11 51 24 80 30 71 13 112 42
112 81 0 16 -4 29 -10 29 -16 0 -12 37 5 44 9 3 29 -7 49 -24 79 -70 192 -22
329 139 20 25 37 53 37 63 0 10 7 18 15 18 8 0 15 6 15 14 0 8 8 21 18 28 9 7
18 21 18 31 2 22 0 22 -20 -5z m-286 -298 c0 -5 -7 -10 -15 -10 -8 0 -15 5
-15 10 0 6 7 10 15 10 8 0 15 -4 15 -10z"/>
<path d="M2650 3680 c0 -5 5 -10 11 -10 5 0 7 5 4 10 -3 6 -8 10 -11 10 -2 0
-4 -4 -4 -10z"/>
<path d="M2700 3680 c0 -5 5 -10 10 -10 6 0 10 5 10 10 0 6 -4 10 -10 10 -5 0
-10 -4 -10 -10z"/>
<path d="M411 3660 c-13 -11 -19 -20 -13 -20 10 0 42 27 42 36 0 7 -4 5 -29
-16z"/>
<path d="M615 3650 c3 -5 10 -10 16 -10 5 0 9 5 9 10 0 6 -7 10 -16 10 -8 0
-12 -4 -9 -10z"/>
<path d="M2588 3653 c6 -2 18 -2 25 0 6 3 1 5 -13 5 -14 0 -19 -2 -12 -5z"/>
<path d="M210 3640 c0 -5 5 -10 11 -10 5 0 7 5 4 10 -3 6 -8 10 -11 10 -2 0
-4 -4 -4 -10z"/>
<path d="M245 3630 c3 -5 8 -10 11 -10 2 0 4 5 4 10 0 6 -5 10 -11 10 -5 0 -7
-4 -4 -10z"/>
<path d="M580 3630 c0 -5 7 -10 15 -10 8 0 15 5 15 10 0 6 -7 10 -15 10 -8 0
-15 -4 -15 -10z"/>
<path d="M281 3614 c0 -11 3 -14 6 -6 3 7 2 16 -1 19 -3 4 -6 -2 -5 -13z"/>
<path d="M345 3591 c-3 -5 -1 -12 5 -16 5 -3 10 -4 10 0 0 3 16 -1 35 -9 19
-8 35 -11 35 -6 0 5 -11 12 -25 16 -14 3 -25 10 -25 15 0 12 -27 12 -35 0z"/>
<path d="M1325 3580 c3 -5 8 -10 11 -10 2 0 4 5 4 10 0 6 -5 10 -11 10 -5 0
-7 -4 -4 -10z"/>
<path d="M322 3558 c-7 -7 -12 -23 -12 -37 0 -30 15 -17 24 22 7 30 5 32 -12
15z"/>
<path d="M453 3563 c-23 -9 -14 -20 32 -39 25 -10 45 -22 45 -26 0 -4 20 -13
45 -19 25 -6 48 -15 51 -20 3 -5 14 -9 25 -9 10 0 28 -5 39 -12 10 -7 23 -9
27 -5 10 11 -13 24 -54 32 -35 6 -85 28 -162 69 -34 19 -39 25 -25 29 11 3 13
5 4 5 -8 0 -21 -2 -27 -5z"/>
<path d="M518 3563 c7 -3 16 -2 19 1 4 3 -2 6 -13 5 -11 0 -14 -3 -6 -6z"/>
<path d="M595 3560 c-3 -5 -2 -10 4 -10 5 0 13 5 16 10 3 6 2 10 -4 10 -5 0
-13 -4 -16 -10z"/>
<path d="M698 3563 c6 -2 18 -2 25 0 6 3 1 5 -13 5 -14 0 -19 -2 -12 -5z"/>
<path d="M370 3540 c0 -5 5 -10 10 -10 6 0 10 5 10 10 0 6 -4 10 -10 10 -5 0
-10 -4 -10 -10z"/>
<path d="M748 3543 c7 -3 16 -2 19 1 4 3 -2 6 -13 5 -11 0 -14 -3 -6 -6z"/>
<path d="M840 3540 c0 -5 6 -10 14 -10 8 0 18 5 21 10 3 6 -3 10 -14 10 -12 0
-21 -4 -21 -10z"/>
<path d="M2919 3521 c-6 -17 -17 -31 -25 -31 -8 0 -14 -10 -14 -25 0 -16 -6
-25 -15 -25 -8 0 -15 -7 -15 -15 0 -9 -12 -20 -26 -25 -15 -6 -22 -14 -18 -22
4 -6 3 -8 -3 -5 -6 4 -25 0 -42 -9 -33 -16 -167 -24 -189 -10 -8 5 -10 2 -5
-10 4 -11 3 -15 -5 -10 -18 11 -67 -45 -64 -74 2 -20 1 -22 -8 -10 -9 12 -10
8 -6 -15 7 -33 0 -48 -26 -58 -22 -8 -24 -27 -3 -27 8 0 15 -7 15 -15 0 -8 -4
-15 -10 -15 -5 0 -10 -11 -10 -25 0 -13 -7 -28 -16 -33 -12 -7 -17 -25 -17
-68 -1 -33 -7 -65 -14 -72 -15 -16 -17 -81 -4 -114 5 -13 21 -62 36 -110 15
-49 32 -88 37 -88 10 0 6 27 -9 67 -6 16 -5 16 11 4 11 -9 16 -25 14 -45 -2
-25 -7 -31 -25 -29 -20 2 -21 0 -11 -27 5 -17 14 -30 19 -30 4 0 17 -21 28
-46 25 -56 32 -174 12 -198 -22 -27 -5 -30 28 -5 26 19 31 29 31 66 0 24 -11
67 -26 100 -17 38 -28 83 -31 129 -5 63 -3 74 16 93 27 27 27 53 -4 101 -14
22 -25 43 -25 47 0 4 -14 21 -31 39 -47 48 -48 95 -5 213 19 53 42 121 51 153
9 31 22 62 30 68 8 7 15 10 15 6 0 -3 11 -1 25 4 18 7 28 5 39 -5 12 -13 15
-13 20 1 5 12 18 13 70 8 58 -6 65 -5 75 14 6 11 24 23 40 27 19 4 28 11 25
20 -3 7 -1 16 5 20 6 3 11 1 11 -5 0 -6 5 -8 10 -5 6 3 10 19 10 35 0 16 6 33
13 37 20 12 47 72 36 79 -5 3 -14 -8 -20 -25z m-419 -728 c25 -50 28 -66 20
-87 -14 -38 -25 -32 -39 25 -7 28 -19 63 -27 78 -8 15 -17 43 -20 62 l-6 34
21 -25 c12 -14 35 -53 51 -87z m-75 27 c3 -5 1 -10 -4 -10 -6 0 -11 5 -11 10
0 6 2 10 4 10 3 0 8 -4 11 -10z m20 -50 c3 -13 9 -28 15 -34 5 -5 10 -17 10
-25 0 -26 -29 23 -35 60 -3 18 -3 31 0 28 3 -4 8 -17 10 -29z m45 -190 c0 -5
-4 -10 -10 -10 -5 0 -10 5 -10 10 0 6 5 10 10 10 6 0 10 -4 10 -10z"/>
<path d="M1066 3525 c10 -8 25 -15 33 -15 11 0 9 4 -5 15 -10 8 -25 15 -33 15
-11 0 -9 -4 5 -15z"/>
<path d="M1276 3507 c3 -10 9 -15 12 -12 3 3 0 11 -7 18 -10 9 -11 8 -5 -6z"/>
<path d="M2010 3480 c20 -13 43 -13 35 0 -3 6 -16 10 -28 10 -18 0 -19 -2 -7
-10z"/>
<path d="M2065 3471 c-6 -10 63 -36 72 -27 3 3 -3 8 -13 11 -10 4 -27 11 -36
16 -10 5 -19 5 -23 0z"/>
<path d="M2390 3465 c7 -8 17 -15 22 -15 6 0 5 7 -2 15 -7 8 -17 15 -22 15 -6
0 -5 -7 2 -15z"/>
<path d="M210 3454 c0 -8 5 -12 10 -9 6 4 8 11 5 16 -9 14 -15 11 -15 -7z"/>
<path d="M1252 3450 c0 -14 2 -19 5 -12 2 6 2 18 0 25 -3 6 -5 1 -5 -13z"/>
<path d="M1215 3450 c-3 -5 -1 -10 4 -10 6 0 11 5 11 10 0 6 -2 10 -4 10 -3 0
-8 -4 -11 -10z"/>
<path d="M442 3420 c37 -31 45 -32 29 -2 -6 11 -22 22 -36 25 -25 4 -25 4 7
-23z"/>
<path d="M122 3420 c0 -14 2 -19 5 -12 2 6 2 18 0 25 -3 6 -5 1 -5 -13z"/>
<path d="M950 3431 c0 -6 4 -13 10 -16 6 -3 7 1 4 9 -7 18 -14 21 -14 7z"/>
<path d="M2160 3426 c0 -9 30 -14 35 -6 4 6 -3 10 -14 10 -12 0 -21 -2 -21 -4z"/>
<path d="M82 3400 c0 -14 2 -19 5 -12 2 6 2 18 0 25 -3 6 -5 1 -5 -13z"/>
<path d="M2200 3400 c0 -5 19 -10 43 -9 32 0 37 2 22 9 -28 12 -65 12 -65 0z"/>
<path d="M525 3390 c3 -5 13 -10 21 -10 8 0 14 5 14 10 0 6 -9 10 -21 10 -11
0 -17 -4 -14 -10z"/>
<path d="M1170 3390 c0 -13 18 -22 24 -11 3 5 -1 11 -9 15 -8 3 -15 1 -15 -4z"/>
<path d="M190 3381 c0 -5 9 -7 20 -4 11 3 20 7 20 9 0 2 -9 4 -20 4 -11 0 -20
-4 -20 -9z"/>
<path d="M730 3380 c-13 -8 -13 -10 2 -10 9 0 20 5 23 10 8 13 -5 13 -25 0z"/>
<path d="M910 3386 c0 -11 30 -39 36 -34 2 3 -5 13 -16 23 -11 10 -20 15 -20
11z"/>
<path d="M2655 3380 c-3 -5 1 -10 10 -10 9 0 13 5 10 10 -3 6 -8 10 -10 10 -2
0 -7 -4 -10 -10z"/>
<path d="M1236 3372 c-3 -5 1 -9 9 -9 8 0 15 4 15 9 0 4 -4 8 -9 8 -6 0 -12
-4 -15 -8z"/>
<path d="M2275 3370 c-3 -5 3 -10 15 -10 12 0 18 5 15 10 -3 6 -10 10 -15 10
-5 0 -12 -4 -15 -10z"/>
<path d="M161 3354 c0 -11 3 -14 6 -6 3 7 2 16 -1 19 -3 4 -6 -2 -5 -13z"/>
<path d="M549 3357 c6 -6 27 -10 48 -11 21 -1 44 -5 51 -10 10 -6 13 -3 10 10
-3 15 -13 19 -61 19 -36 1 -54 -2 -48 -8z"/>
<path d="M1270 3365 c0 -5 5 -17 10 -25 5 -8 10 -10 10 -5 0 6 -5 17 -10 25
-5 8 -10 11 -10 5z"/>
<path d="M990 3352 c0 -4 31 -43 68 -87 38 -44 89 -111 115 -150 50 -75 78
-115 144 -203 23 -32 56 -81 73 -110 31 -51 80 -94 250 -214 61 -43 196 -176
302 -299 26 -30 45 -45 41 -34 -4 11 -12 24 -20 28 -7 4 -13 14 -13 21 0 7
-28 42 -63 77 -79 81 -119 133 -109 144 4 5 1 5 -6 1 -15 -9 -75 41 -66 55 3
5 -1 6 -9 3 -17 -6 -120 73 -112 86 4 6 -1 7 -11 3 -13 -5 -15 -3 -9 7 5 8 4
11 -3 7 -15 -10 -42 3 -42 20 0 8 -4 12 -9 9 -9 -6 -69 35 -67 45 1 4 -7 16
-17 27 -9 10 -15 26 -12 35 4 8 2 18 -4 22 -7 4 -9 -1 -5 -12 4 -16 4 -16 -8
1 -7 11 -20 27 -28 35 -9 9 -26 34 -39 54 -13 21 -28 43 -34 50 -32 35 -57 79
-51 90 4 6 4 9 -1 5 -14 -13 -64 64 -55 83 6 11 5 16 -5 16 -7 0 -11 -7 -8
-16 2 -9 -3 -2 -13 14 -9 17 -30 43 -45 59 -21 20 -28 35 -24 50 5 15 4 17 -3
8 -7 -11 -14 -8 -30 13 -12 15 -19 31 -16 36 3 5 -3 6 -12 2 -11 -4 -15 -2
-11 4 4 6 -2 13 -13 16 -11 3 -20 2 -20 -1z"/>
<path d="M1080 3350 c8 -5 20 -10 25 -10 6 0 3 5 -5 10 -8 5 -19 10 -25 10 -5
0 -3 -5 5 -10z"/>
<path d="M2380 3355 c0 -20 38 -43 62 -38 15 3 25 9 22 14 -3 5 -16 6 -30 3
-17 -4 -26 -1 -30 10 -6 15 -24 23 -24 11z"/>
<path d="M2518 3353 c7 -3 16 -2 19 1 4 3 -2 6 -13 5 -11 0 -14 -3 -6 -6z"/>
<path d="M700 3341 c0 -5 8 -12 18 -16 16 -6 16 -7 -2 -21 -25 -18 -9 -18 24
1 23 12 23 14 7 21 -15 5 -16 9 -5 15 9 6 4 9 -14 9 -16 0 -28 -4 -28 -9z"/>
<path d="M140 3319 c0 -5 5 -7 10 -4 6 3 10 8 10 11 0 2 -4 4 -10 4 -5 0 -10
-5 -10 -11z"/>
<path d="M2670 3305 c-8 -9 -8 -15 -2 -15 12 0 26 19 19 26 -2 2 -10 -2 -17
-11z"/>
<path d="M996 3258 c3 -4 11 -5 19 -1 21 7 19 12 -4 10 -11 0 -18 -5 -15 -9z"/>
<path d="M1046 3178 c3 -5 10 -6 15 -3 13 9 11 12 -6 12 -8 0 -12 -4 -9 -9z"/>
<path d="M2427 3125 c-4 -8 -2 -17 3 -20 6 -4 10 3 10 14 0 25 -6 27 -13 6z"/>
<path d="M189 2973 c-13 -15 -12 -15 9 -4 23 12 28 21 13 21 -5 0 -15 -7 -22
-17z"/>
<path d="M1325 2960 c3 -5 8 -10 11 -10 2 0 4 5 4 10 0 6 -5 10 -11 10 -5 0
-7 -4 -4 -10z"/>
<path d="M1958 2873 c7 -3 16 -2 19 1 4 3 -2 6 -13 5 -11 0 -14 -3 -6 -6z"/>
<path d="M2541 2864 c0 -11 3 -14 6 -6 3 7 2 16 -1 19 -3 4 -6 -2 -5 -13z"/>
<path d="M2013 2853 c9 -2 23 -2 30 0 6 3 -1 5 -18 5 -16 0 -22 -2 -12 -5z"/>
<path d="M2650 2800 c14 -11 30 -20 35 -20 6 0 -1 9 -15 20 -14 11 -29 20 -35
20 -5 0 1 -9 15 -20z"/>
<path d="M2298 2773 c7 -3 16 -2 19 1 4 3 -2 6 -13 5 -11 0 -14 -3 -6 -6z"/>
<path d="M2726 2755 c10 -8 23 -15 27 -15 4 0 18 -11 31 -25 18 -19 25 -22 29
-12 3 8 -11 24 -36 40 -44 29 -87 39 -51 12z"/>
<path d="M2282 2730 c-7 -11 -9 -20 -4 -20 4 0 13 9 20 20 7 11 9 20 4 20 -4
0 -13 -9 -20 -20z"/>
<path d="M2828 2683 c6 -2 18 -2 25 0 6 3 1 5 -13 5 -14 0 -19 -2 -12 -5z"/>
<path d="M1485 2660 c3 -5 8 -10 11 -10 2 0 4 5 4 10 0 6 -5 10 -11 10 -5 0
-7 -4 -4 -10z"/>
<path d="M2157 2659 c7 -7 15 -10 18 -7 3 3 -2 9 -12 12 -14 6 -15 5 -6 -5z"/>
<path d="M2855 2660 c3 -5 8 -10 11 -10 2 0 4 5 4 10 0 6 -5 10 -11 10 -5 0
-7 -4 -4 -10z"/>
<path d="M1500 2636 c0 -2 7 -7 16 -10 8 -3 12 -2 9 4 -6 10 -25 14 -25 6z"/>
<path d="M2900 2621 c0 -5 5 -13 10 -16 6 -3 10 -2 10 4 0 5 -4 13 -10 16 -5
3 -10 2 -10 -4z"/>
<path d="M1540 2616 c0 -2 7 -7 16 -10 8 -3 12 -2 9 4 -6 10 -25 14 -25 6z"/>
<path d="M2980 2541 c0 -5 7 -14 15 -21 8 -7 15 -19 15 -26 0 -8 6 -14 14 -14
8 0 17 -8 19 -17 3 -13 5 -14 6 -3 0 8 -10 28 -24 44 -14 16 -25 33 -25 38 0
4 -4 8 -10 8 -5 0 -10 -4 -10 -9z"/>
<path d="M65 2489 l-70 -5 60 -4 c33 -1 70 -4 82 -5 35 -4 233 -140 332 -229
109 -98 147 -136 180 -184 43 -64 90 -141 97 -162 3 -8 14 -34 24 -56 10 -23
22 -59 26 -80 4 -22 18 -68 32 -104 13 -36 28 -101 32 -145 8 -85 59 -230 60
-172 0 16 -4 37 -10 47 -5 10 -14 51 -20 92 -12 82 -50 228 -86 331 -13 37
-24 69 -24 72 0 3 -6 21 -15 40 -60 144 -272 347 -565 538 -48 31 -55 33 -135
26z"/>
<path d="M1726 2472 c-3 -5 3 -15 12 -24 9 -8 31 -32 47 -53 37 -48 54 -65 64
-65 8 0 35 -50 33 -61 0 -3 8 -10 19 -17 16 -10 19 -9 19 3 0 17 -8 28 -56 81
-17 19 -37 34 -44 34 -7 0 -10 7 -6 15 3 9 -10 27 -39 48 -24 19 -42 37 -38
41 3 3 4 6 0 6 -3 0 -8 -4 -11 -8z"/>
<path d="M158 2447 c8 -9 11 -21 7 -26 -3 -7 0 -8 9 -5 22 8 20 17 -6 33 -21
13 -22 13 -10 -2z"/>
<path d="M3061 2447 c-1 -5 12 -27 28 -50 15 -23 31 -49 35 -57 3 -8 4 -3 1
13 -3 15 -13 36 -23 46 -9 10 -22 26 -29 37 -6 10 -12 15 -12 11z"/>
<path d="M200 2380 c8 -5 20 -10 25 -10 6 0 3 5 -5 10 -8 5 -19 10 -25 10 -5
0 -3 -5 5 -10z"/>
<path d="M3140 2310 c0 -5 5 -10 10 -10 6 0 10 5 10 10 0 6 -4 10 -10 10 -5 0
-10 -4 -10 -10z"/>
<path d="M516 2275 c10 -8 24 -14 29 -14 6 0 1 6 -9 14 -11 8 -24 15 -30 15
-5 0 -1 -7 10 -15z"/>
<path d="M3150 2276 c0 -9 5 -16 10 -16 6 0 10 4 10 9 0 6 -4 13 -10 16 -5 3
-10 -1 -10 -9z"/>
<path d="M2215 2270 c-112 -7 -211 -25 -220 -39 -2 -5 -15 -6 -28 -4 -13 3
-50 -4 -82 -15 -33 -11 -73 -23 -89 -26 -16 -4 -41 -16 -54 -27 -14 -10 -30
-19 -37 -19 -52 0 -342 -295 -430 -438 -5 -9 -14 -21 -20 -28 -5 -6 -26 -31
-45 -55 -19 -24 -54 -64 -79 -88 -61 -61 -223 -242 -290 -326 -30 -38 -60 -75
-66 -82 -43 -51 -173 -236 -220 -314 -23 -38 -54 -80 -125 -169 -42 -52 -91
-117 -110 -145 -19 -27 -90 -105 -158 -174 -137 -137 -185 -201 -151 -201 5 0
7 5 3 12 -5 8 -2 9 9 5 9 -3 16 -3 14 2 -4 15 64 83 78 77 9 -3 12 0 9 8 -3 7
2 20 10 29 9 9 16 19 16 24 1 14 60 67 67 60 3 -4 11 3 18 16 6 12 17 21 23
19 7 -1 12 6 12 15 0 15 2 16 10 3 8 -12 10 -10 10 8 0 13 4 20 10 17 6 -3 10
1 10 9 0 9 5 16 11 16 5 0 7 4 4 10 -3 5 -1 15 5 22 6 7 38 50 71 96 33 45 65
80 70 76 5 -3 12 3 16 13 4 9 17 27 28 38 12 11 20 26 18 33 -3 8 1 10 11 6
12 -4 15 -2 11 9 -4 8 0 17 8 20 8 3 18 18 21 33 4 15 17 36 28 46 12 10 17
18 12 18 -5 0 -1 5 8 11 10 5 18 18 18 27 1 23 22 49 38 46 7 -1 8 0 2 3 -16
7 -12 26 4 20 8 -3 17 1 20 9 3 9 1 12 -4 9 -6 -3 -10 -4 -10 -1 0 3 12 12 28
20 15 8 21 15 14 16 -7 0 -10 5 -7 10 4 6 11 7 17 4 7 -5 9 -2 6 8 -4 8 2 20
13 27 11 6 17 16 14 22 -4 5 -3 9 2 8 22 -4 32 3 35 23 2 13 7 22 13 20 5 -2
13 7 17 19 6 16 12 19 20 11 12 -12 41 -5 32 9 -3 5 0 9 5 9 6 0 11 6 11 13
-1 6 -9 2 -20 -11 -11 -13 -21 -18 -25 -12 -3 6 1 17 10 26 8 9 23 30 31 46
19 37 62 78 81 78 8 0 11 5 8 10 -3 6 -1 10 6 10 7 0 10 3 6 6 -3 4 -1 12 6
19 7 6 23 27 37 45 32 42 56 68 100 105 28 24 31 25 15 5 -11 -13 -30 -35 -42
-49 -12 -13 -19 -30 -16 -37 3 -8 -2 -17 -11 -20 -9 -4 -23 -19 -31 -35 -18
-33 -18 -39 -5 -39 6 0 10 6 10 13 0 11 30 51 65 88 8 9 15 20 15 25 0 5 17
28 38 51 59 67 77 91 77 105 0 7 10 21 22 31 12 9 31 37 43 62 12 25 25 45 30
45 7 0 23 38 21 52 0 4 6 5 14 2 11 -5 14 -2 9 12 -4 11 -3 16 1 11 5 -4 15 7
22 24 7 17 22 33 33 36 11 3 20 8 20 12 0 14 50 62 58 57 12 -7 34 18 30 35
-2 7 15 23 37 35 22 13 36 24 31 24 -6 0 -1 6 9 14 11 8 25 12 31 9 7 -3 19 5
26 16 7 12 16 21 21 21 4 0 38 14 75 32 70 32 130 50 171 49 14 -1 28 3 31 9
7 11 57 19 148 25 30 2 56 6 59 9 10 10 48 7 61 -6 8 -8 15 -8 24 0 9 7 43 9
93 6 44 -3 93 -5 110 -5 18 0 25 -3 16 -8 -10 -6 -9 -10 3 -14 9 -4 16 -2 16
3 0 6 5 10 11 10 5 0 7 -6 3 -12 -6 -10 -4 -10 8 0 11 9 18 10 23 2 3 -5 14
-10 24 -10 10 0 24 -7 31 -15 7 -8 24 -15 39 -15 20 0 23 -2 11 -10 -8 -5 -10
-10 -5 -11 44 -4 69 -13 85 -29 11 -11 24 -20 30 -20 5 0 24 -13 42 -30 18
-16 42 -37 54 -47 67 -57 91 -82 104 -108 8 -16 23 -37 32 -47 10 -10 20 -29
24 -43 3 -14 10 -25 15 -25 5 0 8 -3 7 -7 0 -5 1 -15 5 -23 30 -78 61 -261 61
-364 0 -22 2 -34 4 -28 8 24 18 11 20 -25 3 -54 12 -93 22 -93 14 0 6 -35 -10
-42 -12 -5 -11 -7 4 -7 16 -1 18 -7 14 -46 -3 -24 -2 -43 2 -40 3 2 3 -24 -2
-57 -4 -34 -6 -80 -3 -102 2 -22 0 -45 -5 -51 -4 -5 -10 -28 -12 -50 -3 -37
-5 -39 -48 -51 -58 -16 -102 -33 -169 -67 -29 -14 -58 -24 -62 -21 -5 3 -9 -9
-9 -26 0 -18 -4 -29 -10 -25 -5 3 -10 -1 -10 -9 0 -9 -13 -41 -30 -71 -33 -61
-34 -65 -21 -65 5 0 13 10 17 23 4 12 9 24 13 27 3 3 20 33 36 67 17 37 38 66
50 69 11 4 43 17 70 29 78 35 127 53 160 59 30 6 30 6 8 -10 -13 -9 -23 -25
-23 -36 0 -10 -4 -16 -10 -13 -5 3 -10 2 -10 -3 0 -5 -10 -14 -22 -20 -13 -6
-17 -11 -9 -11 11 -1 11 -4 0 -17 -7 -9 -12 -28 -11 -43 3 -44 -40 -76 -133
-97 -68 -16 -85 -25 -117 -58 -21 -21 -38 -46 -38 -55 0 -16 6 -16 95 -1 52
10 101 23 110 30 8 6 20 10 26 8 7 -2 -4 -14 -24 -27 -20 -12 -37 -25 -37 -27
0 -3 5 -2 10 1 6 3 10 2 10 -4 0 -5 -9 -13 -20 -16 -11 -3 -20 -12 -20 -19 0
-7 -10 -18 -22 -24 -13 -6 -17 -11 -10 -11 6 -1 21 8 32 19 11 11 22 20 25 20
11 0 -11 -37 -33 -54 -13 -10 -21 -24 -18 -31 6 -17 -18 -38 -47 -42 -12 -1
-55 -5 -96 -7 -40 -3 -76 -7 -79 -10 -3 -3 0 -16 6 -28 6 -13 11 -17 11 -10 1
6 8 12 16 12 8 0 15 4 15 9 0 6 25 9 55 8 44 -2 55 -5 52 -17 -2 -8 -8 -14
-14 -13 -6 1 -9 -6 -6 -16 3 -11 -9 -32 -33 -57 -21 -21 -37 -44 -36 -50 1 -6
-6 -18 -15 -25 -17 -13 -17 -13 -3 6 14 19 14 19 -2 6 -10 -7 -16 -17 -13 -21
3 -5 -6 -21 -21 -37 -17 -18 -21 -29 -13 -32 15 -5 57 43 141 161 35 49 66 88
70 88 5 0 8 8 8 18 0 11 11 32 26 48 25 29 67 109 68 130 1 6 9 19 19 29 22
21 39 63 32 75 -5 8 10 49 42 118 12 25 21 32 44 32 16 0 29 5 29 10 0 6 -9
10 -20 10 -24 0 -26 13 -5 30 8 7 15 18 15 25 0 7 6 17 13 23 38 32 55 383 24
512 -28 114 -45 203 -53 265 -11 90 -11 98 -13 128 0 16 -5 26 -11 22 -6 -4
-10 6 -10 24 0 30 -28 103 -42 109 -5 2 -8 9 -8 16 0 7 -9 21 -20 31 -11 10
-20 22 -20 27 0 22 -125 144 -204 198 -127 88 -224 125 -346 135 -47 3 -101 7
-120 9 -19 2 -84 0 -145 -4z m-899 -577 c-10 -10 -19 5 -10 18 6 11 8 11 12 0
2 -7 1 -15 -2 -18z m-70 -88 c-14 -14 -28 -25 -32 -25 -4 0 3 11 16 25 13 14
27 25 32 25 5 0 -2 -11 -16 -25z m1784 -1045 c-13 -9 -13 -11 0 -20 13 -8 11
-11 -7 -16 -13 -4 -20 -10 -17 -15 3 -5 4 -9 2 -9 -18 0 -172 -31 -181 -37
-13 -7 6 19 38 53 20 21 107 49 165 53 13 1 13 0 0 -9z"/>
<path d="M545 2240 c-8 -13 3 -30 18 -30 8 0 7 3 -2 9 -7 5 -10 14 -7 20 4 6
5 11 2 11 -3 0 -8 -4 -11 -10z"/>
<path d="M3170 2241 c0 -6 5 -13 10 -16 6 -3 10 1 10 9 0 9 -4 16 -10 16 -5 0
-10 -4 -10 -9z"/>
<path d="M1680 2220 c6 -11 15 -20 20 -20 6 0 2 9 -7 20 -10 11 -19 20 -21 20
-1 0 2 -9 8 -20z"/>
<path d="M2368 2233 c7 -3 16 -2 19 1 4 3 -2 6 -13 5 -11 0 -14 -3 -6 -6z"/>
<path d="M2318 2223 c6 -2 18 -2 25 0 6 3 1 5 -13 5 -14 0 -19 -2 -12 -5z"/>
<path d="M574 2198 c-4 -7 -3 -8 4 -4 7 4 17 4 23 0 7 -4 8 -9 1 -13 -5 -3 3
-18 18 -33 20 -19 31 -24 41 -16 11 8 10 9 -3 4 -16 -5 -23 5 -15 18 3 6 -45
56 -54 56 -4 0 -11 -5 -15 -12z"/>
<path d="M2295 2200 c3 -5 8 -10 11 -10 2 0 4 5 4 10 0 6 -5 10 -11 10 -5 0
-7 -4 -4 -10z"/>
<path d="M3190 2201 c0 -6 5 -13 10 -16 6 -3 10 1 10 9 0 9 -4 16 -10 16 -5 0
-10 -4 -10 -9z"/>
<path d="M2245 2190 c-19 -8 -19 -9 3 -9 12 -1 22 4 22 9 0 6 -1 10 -2 9 -2 0
-12 -4 -23 -9z"/>
<path d="M2125 2180 l-30 -8 35 0 c19 0 44 3 55 8 18 8 18 9 -5 8 -14 0 -38
-4 -55 -8z"/>
<path d="M3221 2164 c0 -11 3 -14 6 -6 3 7 2 16 -1 19 -3 4 -6 -2 -5 -13z"/>
<path d="M2130 2146 c0 -2 13 -6 29 -8 17 -2 28 -1 25 4 -5 8 -54 12 -54 4z"/>
<path d="M2230 2140 c-13 -8 -13 -10 2 -10 9 0 20 5 23 10 8 13 -5 13 -25 0z"/>
<path d="M2718 2143 c7 -3 16 -2 19 1 4 3 -2 6 -13 5 -11 0 -14 -3 -6 -6z"/>
<path d="M2040 2132 c0 -4 10 -9 22 -9 18 -2 20 0 8 7 -18 12 -30 13 -30 2z"/>
<path d="M1750 2120 c0 -5 5 -10 10 -10 6 0 10 5 10 10 0 6 -4 10 -10 10 -5 0
-10 -4 -10 -10z"/>
<path d="M3241 2114 c0 -11 3 -14 6 -6 3 7 2 16 -1 19 -3 4 -6 -2 -5 -13z"/>
<path d="M569 2073 c-13 -16 -12 -17 4 -4 9 7 17 15 17 17 0 8 -8 3 -21 -13z"/>
<path d="M3240 2046 c0 -8 5 -16 10 -18 6 -2 15 -26 19 -53 7 -40 9 -43 10
-17 0 18 -6 48 -13 67 -16 37 -26 45 -26 21z"/>
<path d="M1620 1980 c-12 -8 -10 -10 8 -10 13 0 20 4 17 10 -7 12 -6 12 -25 0z"/>
<path d="M1530 1940 c-8 -5 -12 -10 -7 -10 4 0 -2 -9 -13 -20 -12 -12 -25 -18
-31 -15 -5 4 -8 3 -7 -2 4 -16 -13 -51 -27 -57 -8 -3 -15 -12 -15 -20 0 -17
50 26 68 59 7 12 12 15 12 6 0 -15 40 25 40 41 0 4 12 8 26 8 14 0 23 4 19 10
-8 13 -45 13 -65 0z"/>
<path d="M1630 1900 c-8 -5 -12 -11 -9 -14 2 -3 11 -1 19 4 8 5 12 11 9 14 -2
3 -11 1 -19 -4z"/>
<path d="M1915 1890 c3 -5 8 -10 11 -10 2 0 4 5 4 10 0 6 -5 10 -11 10 -5 0
-7 -4 -4 -10z"/>
<path d="M3282 1876 c-1 -13 5 -41 13 -63 l15 -38 -6 55 c-6 59 -18 85 -22 46z"/>
<path d="M1593 1872 c-17 -11 10 -44 31 -36 24 9 19 26 -6 19 -17 -6 -20 -4
-15 9 7 18 7 19 -10 8z"/>
<path d="M1550 1851 c0 -5 -3 -17 -7 -27 -4 -11 -3 -15 4 -11 14 9 24 47 12
47 -5 0 -9 -4 -9 -9z"/>
<path d="M1785 1830 c4 -6 11 -8 16 -5 14 9 11 15 -7 15 -8 0 -12 -5 -9 -10z"/>
<path d="M1556 1800 c-24 -29 -33 -50 -22 -50 9 0 59 71 54 76 -3 3 -17 -9
-32 -26z"/>
<path d="M1500 1810 c-12 -7 -10 -9 7 -7 12 0 19 5 17 9 -6 10 -6 10 -24 -2z"/>
<path d="M2641 1774 c0 -11 3 -14 6 -6 3 7 2 16 -1 19 -3 4 -6 -2 -5 -13z"/>
<path d="M1680 1760 c0 -5 5 -10 10 -10 6 0 10 5 10 10 0 6 -4 10 -10 10 -5 0
-10 -4 -10 -10z"/>
<path d="M1421 1744 c0 -11 3 -14 6 -6 3 7 2 16 -1 19 -3 4 -6 -2 -5 -13z"/>
<path d="M1486 1741 c-12 -5 -16 -10 -9 -14 13 -8 43 2 43 14 0 10 -8 10 -34
0z"/>
<path d="M3311 1714 c0 -11 3 -14 6 -6 3 7 2 16 -1 19 -3 4 -6 -2 -5 -13z"/>
<path d="M1442 1678 c-11 -13 -27 -29 -34 -35 -7 -7 -26 -26 -43 -43 -16 -16
-39 -30 -50 -31 -18 0 -18 -1 -2 -7 15 -6 9 -16 -38 -61 -50 -48 -65 -71 -49
-71 3 0 33 30 67 67 95 103 118 123 129 117 6 -4 7 2 3 16 -4 13 -3 20 2 17 9
-6 29 12 47 41 12 20 -9 13 -32 -10z"/>
<path d="M3310 1549 c0 -5 5 -7 10 -4 6 3 10 8 10 11 0 2 -4 4 -10 4 -5 0 -10
-5 -10 -11z"/>
<path d="M3310 1486 c0 -44 17 -89 30 -81 5 3 10 12 10 18 0 7 -4 6 -10 -3 -7
-11 -10 0 -10 37 0 28 -4 55 -10 58 -6 4 -10 -8 -10 -29z"/>
<path d="M1163 1383 c-2 -18 2 -33 7 -33 6 0 10 9 10 20 0 10 8 24 18 29 18
11 18 11 -13 15 -16 2 -20 -4 -22 -31z"/>
<path d="M1521 1394 c0 -11 3 -14 6 -6 3 7 2 16 -1 19 -3 4 -6 -2 -5 -13z"/>
<path d="M2900 1381 c0 -6 5 -13 10 -16 6 -3 10 1 10 9 0 9 -4 16 -10 16 -5 0
-10 -4 -10 -9z"/>
<path d="M1136 1354 c5 -19 4 -25 -5 -20 -6 4 -11 1 -11 -8 0 -9 -5 -16 -12
-16 -6 0 -8 -3 -5 -7 4 -3 16 2 27 12 21 19 28 65 10 65 -6 0 -8 -11 -4 -26z"/>
<path d="M3337 1357 c-4 -15 -5 -32 -2 -36 2 -5 7 -24 9 -42 3 -19 8 -56 11
-84 4 -27 11 -55 17 -62 5 -6 9 -20 8 -30 -5 -40 0 -116 7 -110 8 8 4 127 -5
141 -3 6 -7 22 -9 36 -2 14 -9 68 -16 120 -10 74 -14 89 -20 67z"/>
<path d="M1035 1340 c-3 -5 -1 -10 4 -10 6 0 11 5 11 10 0 6 -2 10 -4 10 -3 0
-8 -4 -11 -10z"/>
<path d="M1688 1323 c7 -3 16 -2 19 1 4 3 -2 6 -13 5 -11 0 -14 -3 -6 -6z"/>
<path d="M1421 1301 c-7 -5 -11 -15 -9 -22 3 -10 8 -7 17 9 13 24 12 26 -8 13z"/>
<path d="M0 1279 c0 -5 5 -7 10 -4 5 3 10 8 10 11 0 2 -4 4 -10 4 -5 0 -10 -5
-10 -11z"/>
<path d="M1070 1275 c0 -10 -7 -15 -17 -13 -10 2 -18 -4 -19 -12 -3 -36 -5
-40 -21 -40 -13 0 -14 -3 -6 -11 9 -9 16 -8 27 4 9 9 16 21 16 27 0 6 12 22
28 35 22 20 24 24 10 25 -10 0 -18 -7 -18 -15z"/>
<path d="M936 1264 c-9 -24 -7 -54 4 -54 6 0 10 16 10 35 0 38 -4 44 -14 19z"/>
<path d="M960 1270 c0 -5 5 -10 11 -10 5 0 7 5 4 10 -3 6 -8 10 -11 10 -2 0
-4 -4 -4 -10z"/>
<path d="M1377 1265 c-4 -8 -2 -17 3 -20 6 -4 10 3 10 14 0 25 -6 27 -13 6z"/>
<path d="M1351 1241 c-1 -27 2 -32 11 -23 8 8 8 17 0 34 -10 22 -11 21 -11
-11z"/>
<path d="M1315 1211 c-3 -5 -1 -12 5 -16 5 -3 10 1 10 9 0 18 -6 21 -15 7z"/>
<path d="M1555 1209 c-11 -16 -1 -19 13 -3 7 8 8 14 3 14 -5 0 -13 -5 -16 -11z"/>
<path d="M2631 1204 c0 -11 3 -14 6 -6 3 7 2 16 -1 19 -3 4 -6 -2 -5 -13z"/>
<path d="M950 1170 c0 -5 3 -9 8 -7 4 1 7 -2 7 -8 0 -5 -5 -9 -11 -7 -6 1 -14
-4 -17 -11 -3 -9 2 -13 16 -11 12 1 25 3 30 3 14 2 7 39 -9 45 -21 8 -24 8
-24 -4z"/>
<path d="M1253 1137 c-28 -23 -54 -50 -56 -60 -5 -17 -4 -17 11 -4 9 8 29 25
45 37 23 20 63 71 55 70 -2 0 -26 -20 -55 -43z"/>
<path d="M1600 1170 c0 -5 7 -7 15 -4 8 4 15 8 15 10 0 2 -7 4 -15 4 -8 0 -15
-4 -15 -10z"/>
<path d="M920 1080 c0 -5 5 -10 10 -10 6 0 10 5 10 10 0 6 -4 10 -10 10 -5 0
-10 -4 -10 -10z"/>
<path d="M781 1044 c0 -11 3 -14 6 -6 3 7 2 16 -1 19 -3 4 -6 -2 -5 -13z"/>
<path d="M895 1035 c-5 -11 -19 -33 -32 -48 -13 -16 -23 -35 -23 -43 0 -8 -6
-14 -14 -14 -21 0 -40 -26 -23 -33 20 -8 46 17 53 52 4 17 18 40 31 51 15 11
23 26 20 37 -4 16 -5 16 -12 -2z"/>
<path d="M1425 1020 c-3 -5 1 -10 10 -10 9 0 13 5 10 10 -3 6 -8 10 -10 10 -2
0 -7 -4 -10 -10z"/>
<path d="M1265 1000 c-16 -7 -17 -9 -3 -9 9 -1 20 4 23 9 7 11 7 11 -20 0z"/>
<path d="M785 991 c-3 -5 -1 -12 5 -16 5 -3 10 1 10 9 0 18 -6 21 -15 7z"/>
<path d="M1131 979 c-30 -33 -26 -43 6 -13 14 13 24 27 21 30 -3 3 -15 -5 -27
-17z"/>
<path d="M3148 983 c7 -3 16 -2 19 1 4 3 -2 6 -13 5 -11 0 -14 -3 -6 -6z"/>
<path d="M3384 909 c4 -37 9 -86 10 -110 4 -56 24 -129 36 -129 5 0 7 -6 5
-12 -3 -7 2 -35 10 -63 14 -48 15 -48 10 -10 -3 22 -5 55 -5 72 0 18 -3 32 -7
32 -21 -3 -24 3 -12 18 10 11 10 14 2 9 -8 -4 -13 -2 -13 6 0 11 -14 131 -24
216 -2 12 -7 26 -11 30 -4 4 -4 -23 -1 -59z"/>
<path d="M760 930 c0 -5 5 -10 10 -10 6 0 10 5 10 10 0 6 -4 10 -10 10 -5 0
-10 -4 -10 -10z"/>
<path d="M1075 929 c-11 -17 1 -21 15 -4 8 9 8 15 2 15 -6 0 -14 -5 -17 -11z"/>
<path d="M730 898 c-12 -22 -12 -22 6 -6 10 10 15 20 12 24 -4 3 -12 -5 -18
-18z"/>
<path d="M871 894 c0 -11 3 -14 6 -6 3 7 2 16 -1 19 -3 4 -6 -2 -5 -13z"/>
<path d="M1130 900 c-8 -5 -12 -12 -9 -15 4 -3 12 1 19 10 14 17 11 19 -10 5z"/>
<path d="M1025 882 c-29 -6 -43 -22 -19 -22 20 0 52 16 44 23 -3 2 -14 1 -25
-1z"/>
<path d="M791 853 c0 -25 1 -26 9 -8 12 27 12 35 0 35 -5 0 -10 -12 -9 -27z"/>
<path d="M180 860 l-25 -8 28 -1 c15 -1 27 4 27 9 0 6 -1 10 -2 9 -2 -1 -14
-5 -28 -9z"/>
<path d="M991 837 c-9 -12 -8 -16 3 -20 19 -7 32 11 19 24 -6 6 -14 5 -22 -4z"/>
<path d="M771 818 c0 -10 -5 -18 -11 -18 -5 0 -10 -7 -10 -15 0 -8 5 -15 10
-15 14 0 23 25 17 47 -4 17 -5 17 -6 1z"/>
<path d="M925 775 c-16 -7 -29 -16 -27 -19 8 -19 0 -37 -15 -34 -10 2 -17 -3
-15 -10 1 -7 -5 -15 -13 -18 -8 -3 -13 -10 -10 -15 7 -10 75 51 75 67 0 7 11
15 25 18 14 4 25 11 25 16 0 13 -7 12 -45 -5z"/>
<path d="M726 754 c5 -18 3 -25 -3 -21 -7 4 -11 -8 -11 -31 -1 -20 -6 -52 -11
-69 -5 -18 -8 -33 -6 -33 9 0 28 46 29 70 1 14 7 35 14 48 9 16 10 27 2 42
-15 28 -22 25 -14 -6z"/>
<path d="M870 761 c0 -5 5 -13 10 -16 6 -3 10 -2 10 4 0 5 -4 13 -10 16 -5 3
-10 2 -10 -4z"/>
<path d="M950 710 c-13 -11 -18 -20 -12 -20 6 0 14 5 17 10 3 6 15 10 26 10
10 0 19 5 19 10 0 16 -25 11 -50 -10z"/>
<path d="M170 710 c0 -5 5 -10 11 -10 5 0 7 5 4 10 -3 6 -8 10 -11 10 -2 0 -4
-4 -4 -10z"/>
<path d="M771 692 c0 -18 4 -42 9 -53 8 -13 7 -25 0 -40 -6 -11 -9 -25 -6 -32
2 -7 8 -2 11 10 4 13 11 21 15 18 5 -3 11 -1 15 5 3 5 2 10 -3 10 -5 0 -13 15
-18 33 -4 17 -11 43 -15 57 -6 23 -7 22 -8 -8z"/>
<path d="M3050 710 c0 -5 5 -10 10 -10 6 0 10 5 10 10 0 6 -4 10 -10 10 -5 0
-10 -4 -10 -10z"/>
<path d="M2963 686 c0 -11 5 -13 18 -6 11 6 19 6 22 0 3 -6 4 -5 3 2 -4 19
-43 22 -43 4z"/>
<path d="M3029 679 c0 -8 -14 -25 -31 -39 l-31 -24 6 24 c6 24 5 24 -18 -5
l-25 -30 -1 30 c-2 29 -2 29 -8 -5 -4 -19 -7 -36 -6 -37 2 -6 95 31 95 37 0 5
13 11 30 15 33 7 46 20 30 30 -5 3 -10 0 -10 -7 -1 -8 -6 -6 -15 6 -11 15 -15
16 -16 5z"/>
<path d="M905 660 c-3 -5 -2 -10 4 -10 5 0 13 5 16 10 3 6 2 10 -4 10 -5 0
-13 -4 -16 -10z"/>
<path d="M3110 660 c0 -5 5 -10 11 -10 5 0 7 5 4 10 -3 6 -8 10 -11 10 -2 0
-4 -4 -4 -10z"/>
<path d="M451 618 c-5 -13 -18 -32 -30 -42 -24 -22 -28 -38 -6 -30 8 4 15 11
15 16 0 6 10 19 22 29 11 11 17 19 12 19 -5 0 -3 4 5 9 9 6 10 11 2 15 -6 4
-15 -3 -20 -16z"/>
<path d="M2877 598 l-18 -31 23 15 c13 9 24 23 26 32 6 27 -12 18 -31 -16z"/>
<path d="M326 583 c-6 -14 -5 -15 5 -6 7 7 10 15 7 18 -3 3 -9 -2 -12 -12z"/>
<path d="M740 549 c0 -5 -4 -8 -9 -5 -5 3 -11 -3 -14 -13 -2 -11 -15 -21 -28
-23 -13 -1 -29 -13 -35 -25 -6 -13 -14 -20 -17 -16 -4 3 -7 2 -7 -4 0 -6 -25
-26 -55 -44 -56 -35 -67 -49 -39 -49 18 0 74 40 125 90 20 19 48 44 63 55 28
22 41 45 26 45 -6 0 -10 -5 -10 -11z"/>
<path d="M677 543 c-4 -3 -7 -11 -7 -17 0 -6 5 -5 12 2 6 6 9 14 7 17 -3 3 -9
2 -12 -2z"/>
<path d="M2710 539 c0 -5 5 -7 10 -4 6 3 10 8 10 11 0 2 -4 4 -10 4 -5 0 -10
-5 -10 -11z"/>
<path d="M3464 524 c3 -9 6 -25 6 -37 0 -16 3 -18 9 -9 10 17 2 62 -11 62 -6
0 -7 -7 -4 -16z"/>
<path d="M2785 520 c-3 -5 -2 -10 4 -10 5 0 13 5 16 10 3 6 2 10 -4 10 -5 0
-13 -4 -16 -10z"/>
<path d="M780 492 c0 -11 24 -22 48 -22 21 0 5 15 -25 25 -13 3 -23 2 -23 -3z"/>
<path d="M2766 481 c-4 -7 -5 -15 -2 -18 9 -9 19 4 14 18 -4 11 -6 11 -12 0z"/>
<path d="M2732 450 c1 -21 -6 -36 -20 -46 -12 -8 -22 -21 -22 -29 0 -8 -7 -18
-16 -23 -9 -5 -14 -17 -12 -28 3 -18 5 -17 26 4 12 12 20 27 17 32 -4 6 -3 10
2 10 17 0 52 66 47 88 -9 32 -23 27 -22 -8z"/>
<path d="M4400 450 c-93 -9 -507 -21 -715 -22 -112 0 -123 -1 -75 -9 71 -12
164 -13 267 -4 73 7 89 5 134 -14 43 -19 61 -21 116 -15 42 4 60 10 52 15 -10
6 -6 9 14 9 15 0 27 -4 27 -10 0 -5 12 -10 28 -10 25 0 96 -39 115 -64 6 -8
10 -7 14 2 2 6 9 12 14 12 6 0 7 -4 4 -10 -3 -5 0 -10 7 -10 7 0 24 -3 38 -6
18 -4 21 -3 11 4 -7 5 -10 15 -6 22 5 9 2 10 -14 5 -13 -4 -21 -2 -21 5 0 7
-6 8 -19 1 -14 -8 -22 -7 -30 3 -6 7 -8 15 -5 18 3 3 -11 9 -30 12 -48 9 -53
22 -10 24 19 1 39 4 45 8 5 3 33 2 62 -2 40 -5 47 -9 32 -15 -14 -5 -15 -8 -4
-8 15 -1 39 17 39 30 0 3 -12 5 -27 2 -23 -3 -24 -2 -8 5 16 6 170 9 215 3 6
0 10 -9 10 -18 0 -16 1 -16 16 -1 13 13 22 14 45 6 16 -6 36 -8 44 -4 8 3 29
-1 47 -8 18 -8 37 -14 42 -14 5 0 13 -7 18 -16 10 -18 28 -21 28 -5 0 5 -4 8
-8 5 -5 -3 -9 1 -9 9 0 10 5 11 19 4 10 -6 16 -14 13 -20 -4 -5 -1 -9 4 -9 14
0 14 -47 1 -55 -5 -3 -10 -15 -10 -26 0 -13 -4 -18 -12 -13 -7 4 -8 3 -4 -5 4
-6 3 -18 -3 -25 -9 -10 -7 -15 5 -20 9 -4 18 -5 18 -4 15 26 27 69 32 111 5
43 3 55 -12 68 -50 44 -362 77 -554 59z m23 -17 c-7 -2 -19 -2 -25 0 -7 3 -2
5 12 5 14 0 19 -2 13 -5z m-410 -10 c-7 -2 -19 -2 -25 0 -7 3 -2 5 12 5 14 0
19 -2 13 -5z m127 -14 c0 -5 -5 -7 -10 -4 -6 4 -17 2 -24 -5 -9 -6 -26 -8 -42
-4 -25 7 -26 8 -9 15 30 11 85 10 85 -2z"/>
<path d="M2918 443 c7 -3 16 -2 19 1 4 3 -2 6 -13 5 -11 0 -14 -3 -6 -6z"/>
<path d="M3480 430 c0 -5 4 -10 8 -10 5 0 9 -21 11 -46 1 -26 13 -68 26 -94
14 -28 28 -80 34 -127 12 -95 24 -128 50 -142 31 -17 33 -13 10 19 -18 23 -20
32 -10 44 10 11 9 15 -5 18 -19 3 -31 68 -13 68 8 0 8 4 0 13 -13 16 -5 27 21
27 10 0 18 5 18 10 0 6 12 10 28 10 22 1 24 2 10 10 -17 11 -48 4 -48 -11 0
-5 -11 -8 -24 -7 -14 1 -22 6 -19 10 2 5 -5 25 -17 45 -15 26 -20 48 -17 79 3
40 17 75 17 43 0 -15 18 -19 113 -23 37 -1 65 -8 77 -19 18 -15 20 -15 20 -1
0 8 4 13 9 10 5 -3 11 0 14 8 4 10 24 13 75 12 39 0 68 2 65 7 -2 4 -2 7 2 7
3 0 10 -11 15 -25 6 -16 17 -25 30 -25 12 0 19 -4 15 -9 -5 -10 26 -3 75 17
l25 10 -28 7 c-16 4 -38 3 -50 -2 -12 -6 -31 -7 -42 -2 -14 5 -16 8 -5 9 8 2
18 2 23 1 4 0 7 4 7 9 0 34 -173 39 -209 6 -20 -18 -51 -21 -51 -5 0 8 -17 10
-52 6 -30 -4 -44 -3 -34 2 19 7 18 8 -5 14 -13 4 -51 7 -84 7 -55 1 -58 2 -41
15 19 14 18 15 -12 15 -18 0 -32 -4 -32 -10z m47 -52 c-3 -8 -6 -5 -6 6 -1 11
2 17 5 13 3 -3 4 -12 1 -19z m103 2 c0 -5 -2 -10 -4 -10 -3 0 -8 5 -11 10 -3
6 -1 10 4 10 6 0 11 -4 11 -10z"/>
<path d="M2780 420 c-8 -5 -12 -11 -9 -14 2 -3 11 -1 19 4 8 5 12 11 9 14 -2
3 -11 1 -19 -4z"/>
<path d="M2828 423 c7 -3 16 -2 19 1 4 3 -2 6 -13 5 -11 0 -14 -3 -6 -6z"/>
<path d="M4602 410 c-15 -24 2 -28 25 -4 13 12 18 13 24 3 4 -7 5 -17 3 -21
-3 -4 0 -8 6 -8 6 0 10 10 8 23 -4 30 -48 35 -66 7z"/>
<path d="M2900 408 c0 -4 9 -8 20 -8 11 0 20 4 20 8 0 4 -9 8 -20 8 -11 0 -20
-4 -20 -8z"/>
<path d="M3017 395 c-15 -20 -15 -25 -3 -25 8 0 23 -3 33 -6 17 -5 17 -5 0 6
-12 7 -16 18 -12 31 8 25 4 24 -18 -6z"/>
<path d="M4560 410 c0 -5 5 -10 10 -10 6 0 10 5 10 10 0 6 -4 10 -10 10 -5 0
-10 -4 -10 -10z"/>
<path d="M4360 402 c0 -12 19 -26 26 -19 2 2 -2 10 -11 17 -9 8 -15 8 -15 2z"/>
<path d="M2827 394 c-4 -4 -17 -8 -29 -9 -13 -1 -29 -3 -35 -4 -7 0 -13 -7
-13 -15 0 -12 6 -12 38 0 20 7 45 13 54 14 23 0 34 20 10 20 -10 0 -22 -3 -25
-6z"/>
<path d="M3102 380 c-10 -17 -10 -20 3 -20 8 0 15 9 15 20 0 11 -1 20 -3 20
-1 0 -8 -9 -15 -20z"/>
<path d="M4760 380 c0 -5 5 -10 11 -10 5 0 7 5 4 10 -3 6 -8 10 -11 10 -2 0
-4 -4 -4 -10z"/>
<path d="M4143 373 c-13 -2 -23 -11 -23 -19 0 -8 -10 -14 -22 -14 -37 0 -46
-11 -39 -47 1 -5 6 -1 11 7 9 13 11 13 21 0 8 -12 9 -10 4 8 -5 16 -3 23 7 21
27 -3 49 1 44 10 -7 11 47 34 70 29 22 -4 31 -28 10 -28 -9 0 -16 -7 -16 -15
0 -19 2 -19 28 4 12 10 18 22 14 26 -4 4 6 0 22 -10 25 -16 26 -20 12 -30 -9
-7 -12 -16 -8 -20 4 -4 0 -6 -8 -3 -8 3 -21 -2 -28 -11 -11 -14 -11 -14 -6 2
5 13 2 16 -11 11 -9 -4 -20 -2 -24 5 -5 7 -14 5 -30 -10 -16 -15 -20 -24 -12
-32 15 -15 14 -27 -2 -21 -8 3 -18 -1 -24 -8 -15 -18 2 -58 24 -58 15 0 16 -2
3 -10 -9 -6 -10 -10 -3 -10 6 0 18 7 27 15 13 13 15 13 21 -4 3 -10 15 -21 25
-24 11 -3 20 -11 20 -19 0 -10 -3 -9 -11 2 -8 12 -9 10 -4 -7 4 -16 0 -25 -17
-34 -22 -12 -22 -11 -8 6 11 14 12 19 2 22 -6 3 -10 8 -8 12 3 4 -4 7 -14 7
-10 0 -16 -6 -13 -13 3 -7 9 -13 14 -13 4 0 6 -7 3 -15 -4 -8 -10 -15 -16 -15
-5 0 -7 4 -4 9 3 5 -1 12 -10 15 -13 5 -15 2 -11 -15 3 -11 3 -18 0 -15 -4 3
-12 1 -19 -5 -15 -12 -44 -5 -44 11 0 5 11 10 25 10 14 0 25 6 25 13 0 17 -33
15 -54 -2 -19 -16 -21 -37 -3 -48 8 -4 17 -17 21 -28 7 -19 8 -19 21 6 10 18
26 29 51 33 95 18 112 48 60 106 -20 22 -36 44 -36 48 0 22 35 52 68 57 93 16
99 36 28 83 -50 32 -87 38 -153 25z m167 -73 c0 -5 -4 -10 -10 -10 -5 0 -10 5
-10 10 0 6 5 10 10 10 6 0 10 -4 10 -10z m-90 -30 c0 -5 -11 -10 -25 -10 -14
0 -25 5 -25 10 0 6 11 10 25 10 14 0 25 -4 25 -10z m-46 -56 c25 -9 19 -24 -9
-24 -16 0 -25 6 -25 15 0 16 9 19 34 9z"/>
<path d="M4465 371 c-3 -5 -2 -12 3 -15 5 -3 9 1 9 9 0 17 -3 19 -12 6z"/>
<path d="M4590 364 c0 -8 5 -12 10 -9 6 3 10 10 10 16 0 5 -4 9 -10 9 -5 0
-10 -7 -10 -16z"/>
<path d="M4626 355 c-3 -8 -1 -15 3 -15 5 0 11 7 15 15 3 8 1 15 -3 15 -5 0
-11 -7 -15 -15z"/>
<path d="M440 304 c-30 -30 -107 -104 -170 -163 -63 -60 -112 -112 -108 -116
4 -4 42 26 84 66 113 109 124 119 133 119 5 0 19 16 32 35 13 19 32 38 41 41
9 3 20 14 23 25 4 10 10 19 14 19 4 0 16 7 27 15 19 14 19 14 -1 14 -11 0 -45
-24 -75 -55z"/>
<path d="M3029 333 c36 -15 82 -14 88 2 1 6 -23 11 -60 12 l-62 1 34 -15z"/>
<path d="M2740 329 c0 -5 5 -7 10 -4 6 3 10 8 10 11 0 2 -4 4 -10 4 -5 0 -10
-5 -10 -11z"/>
<path d="M2884 330 c-5 -5 -44 -11 -87 -12 -43 -2 -78 -8 -81 -14 -5 -14 15
-14 89 -3 89 14 105 18 105 29 0 13 -13 13 -26 0z"/>
<path d="M2637 300 c-14 -43 -62 -131 -65 -120 -2 5 -8 10 -13 10 -14 0 -11
-28 4 -33 7 -2 -2 -12 -20 -23 -25 -15 -31 -24 -27 -40 4 -13 0 -25 -9 -31 -8
-4 -17 -21 -21 -38 -7 -30 -7 -30 18 7 15 20 26 43 26 51 0 7 10 24 22 37 26
28 68 88 68 97 0 4 7 14 16 24 9 10 14 30 12 51 -3 32 -4 32 -11 8z"/>
<path d="M3816 303 c-4 -9 -1 -23 7 -30 11 -12 18 -11 43 2 l29 16 -32 -6
c-25 -5 -33 -3 -33 7 0 11 9 13 33 10 40 -6 33 3 -10 11 -23 5 -33 2 -37 -10z"/>
<path d="M3760 295 c-8 -10 -5 -13 15 -11 28 1 33 11 11 19 -8 3 -20 0 -26 -8z"/>
<path d="M4010 300 c19 -13 30 -13 30 0 0 6 -10 10 -22 10 -19 0 -20 -2 -8
-10z"/>
<path d="M4370 296 c-5 -5 -10 -15 -10 -22 0 -6 -22 -14 -50 -18 -83 -11 -94
-38 -39 -105 15 -18 25 -40 24 -50 -2 -9 -4 -19 -4 -22 -1 -7 -68 -35 -103
-43 -16 -4 -28 -13 -28 -22 0 -12 5 -14 18 -9 9 5 31 10 49 13 22 3 30 8 26
18 -3 8 0 14 7 14 6 0 8 -5 5 -10 -3 -6 -1 -10 4 -10 6 0 11 -5 11 -11 0 -5
-4 -7 -10 -4 -5 3 -10 2 -10 -2 0 -5 19 -10 42 -10 27 -1 38 1 29 6 -11 7 -9
13 8 30 l21 21 -22 1 c-22 0 -22 1 -3 9 11 5 16 9 10 10 -5 0 -2 5 8 11 25 15
21 42 -10 69 -26 22 -26 24 -7 31 10 4 13 8 6 8 -7 1 -26 -6 -43 -14 -28 -15
-30 -15 -39 11 -13 34 -10 36 42 39 46 3 67 -3 49 -15 -7 -3 8 -7 32 -6 36 0
43 3 45 20 0 11 -4 26 -10 33 -6 8 -8 16 -4 20 3 3 6 1 6 -6 0 -7 5 -9 10 -6
18 11 10 23 -20 27 -16 3 -34 0 -40 -6z m44 -51 c6 -16 -10 -20 -38 -9 -24 9
-19 24 8 24 13 0 26 -7 30 -15z m-97 -80 c0 -17 0 -17 -22 -9 -13 5 -14 8 -3
15 19 12 25 11 25 -6z m37 -46 c6 -5 2 -11 -7 -15 -18 -6 -47 11 -47 28 0 10
39 1 54 -13z m-34 -86 c0 -20 -34 -12 -38 9 -2 12 2 15 17 11 12 -3 21 -12 21
-20z"/>
<path d="M4600 301 c0 -6 5 -13 10 -16 6 -3 10 1 10 9 0 9 -4 16 -10 16 -5 0
-10 -4 -10 -9z"/>
<path d="M3910 289 c0 -5 5 -7 10 -4 6 3 10 8 10 11 0 2 -4 4 -10 4 -5 0 -10
-5 -10 -11z"/>
<path d="M3481 274 c0 -11 3 -14 6 -6 3 7 2 16 -1 19 -3 4 -6 -2 -5 -13z"/>
<path d="M4550 286 c0 -2 9 -6 20 -9 11 -3 20 -1 20 4 0 5 -9 9 -20 9 -11 0
-20 -2 -20 -4z"/>
<path d="M3714 266 c-10 -8 -16 -18 -11 -22 4 -4 7 -2 7 4 0 7 9 12 20 12 11
0 20 -4 20 -10 0 -5 -6 -10 -14 -10 -21 0 -28 -17 -10 -24 8 -3 12 -2 9 4 -6
10 7 14 33 11 7 -1 3 9 -9 23 -27 31 -21 29 -45 12z"/>
<path d="M3780 260 c-8 -5 -10 -10 -5 -10 6 0 17 5 25 10 8 5 11 10 5 10 -5 0
-17 -5 -25 -10z"/>
<path d="M4530 250 c0 -5 5 -10 10 -10 6 0 10 5 10 10 0 6 -4 10 -10 10 -5 0
-10 -4 -10 -10z"/>
<path d="M4560 250 c0 -6 5 -10 10 -10 6 0 8 -11 4 -25 -4 -15 -2 -25 5 -25
17 0 13 57 -4 64 -8 3 -15 1 -15 -4z"/>
<path d="M2925 230 c-2 -4 27 -7 66 -8 38 -1 73 -3 77 -4 4 0 17 3 29 8 15 6
-7 9 -73 9 -53 1 -97 -2 -99 -5z"/>
<path d="M4078 228 c5 -5 16 -8 23 -6 8 3 3 7 -10 11 -17 4 -21 3 -13 -5z"/>
<path d="M2667 212 c-9 -10 -17 -26 -17 -35 0 -9 -4 -17 -9 -17 -5 0 -13 -12
-19 -27 -5 -16 -20 -38 -32 -51 -12 -13 -19 -26 -16 -29 3 -3 -5 -14 -17 -23
-12 -10 -19 -22 -15 -26 9 -9 48 24 48 41 0 6 7 20 16 31 12 15 15 15 10 2 -2
-9 1 -19 8 -21 9 -4 12 7 12 35 -1 22 3 42 8 46 5 3 6 0 2 -6 -4 -7 -5 -12 -2
-12 8 0 47 92 43 103 -1 4 -10 0 -20 -11z"/>
<path d="M4506 215 c4 -8 8 -15 10 -15 2 0 4 7 4 15 0 8 -4 15 -10 15 -5 0 -7
-7 -4 -15z"/>
<path d="M4542 210 c-8 -13 -8 -20 -2 -20 6 0 13 7 17 15 9 24 -1 27 -15 5z"/>
<path d="M5309 216 c-2 -3 -95 -6 -206 -7 -164 -2 -200 -4 -196 -15 3 -9 -2
-14 -13 -15 -11 0 -14 -3 -6 -6 6 -2 12 -9 12 -14 0 -6 -4 -8 -9 -5 -4 3 -7
-12 -5 -33 2 -29 -2 -43 -16 -56 -21 -19 -28 -65 -10 -65 5 0 7 8 4 18 -5 16
-5 16 9 -1 8 -9 18 -17 22 -17 4 0 2 7 -5 15 -7 8 -10 22 -6 31 5 14 10 13 43
-5 45 -23 80 -32 99 -24 24 9 15 20 -12 15 -24 -4 -43 9 -44 31 0 4 25 7 55 7
32 0 55 -4 55 -10 0 -13 32 -9 42 5 11 14 10 25 -3 25 -5 0 -7 -4 -4 -10 12
-19 -19 -10 -42 12 -21 19 -27 21 -56 10 -34 -12 -77 -6 -89 12 -5 7 -8 4 -8
-6 0 -10 10 -20 24 -24 17 -4 22 -11 19 -25 -3 -10 -9 -16 -14 -13 -5 3 -7 10
-3 15 3 6 0 10 -7 8 -30 -4 -39 2 -39 24 0 43 11 66 28 60 14 -4 14 -3 3 5 -7
5 -10 15 -6 21 5 9 10 9 21 0 7 -6 11 -15 8 -20 -3 -5 0 -9 5 -9 6 0 11 4 11
10 0 5 7 7 15 4 11 -5 13 -2 9 10 -4 12 0 16 15 16 12 0 21 -4 21 -8 0 -12 44
-10 52 2 5 7 8 7 8 -1 0 -15 46 -18 54 -4 3 5 44 7 91 6 47 -1 88 2 91 7 11
17 33 6 85 -42 40 -36 49 -50 35 -50 -10 0 -37 20 -60 43 -34 36 -44 41 -54
31 -10 -11 -7 -19 14 -43 16 -18 32 -28 43 -24 14 4 14 3 1 -6 -8 -6 -10 -11
-5 -11 6 0 -30 -21 -79 -45 -49 -25 -79 -45 -67 -45 11 0 56 18 98 40 43 22
95 43 115 46 21 4 36 10 33 14 -6 9 72 23 85 15 5 -3 11 4 15 15 4 11 11 17
17 14 6 -4 8 -3 5 3 -4 6 24 13 76 17 74 7 107 10 145 14 7 1 10 7 7 12 -3 6
4 10 17 9 13 0 18 -3 11 -5 -7 -3 -10 -11 -7 -19 3 -7 -3 -15 -13 -18 -11 -3
-7 -4 8 -4 18 1 25 6 22 14 -9 22 15 14 35 -12 14 -18 23 -22 28 -14 4 7 -4
22 -19 35 -15 13 -27 26 -27 29 0 11 45 -18 72 -46 30 -33 33 -31 -79 -50 -40
-7 -73 -16 -73 -20 0 -5 -6 -7 -12 -4 -7 2 -38 6 -68 9 -38 4 -50 3 -40 -4 8
-5 33 -10 55 -10 25 0 35 -3 27 -9 -11 -6 -11 -13 0 -37 17 -40 18 -41 28 -24
7 10 10 11 10 3 0 -7 5 -13 10 -13 16 0 12 14 -10 37 -14 16 -16 24 -7 31 13
11 67 23 107 23 14 1 40 3 59 6 26 3 31 7 20 14 -11 7 -11 9 -1 9 17 0 6 40
-16 57 -8 7 -13 16 -9 19 4 4 13 1 22 -6 12 -10 15 -10 15 2 0 11 -17 17 -67
21 -76 8 -617 9 -624 3z m132 -32 c15 -18 57 -18 94 2 35 18 276 26 282 9 1
-6 -16 -10 -39 -11 -62 -1 -160 -14 -183 -25 -11 -5 -44 -15 -72 -23 -43 -10
-53 -11 -53 0 0 7 -13 18 -30 26 -16 7 -30 16 -30 20 0 5 -7 8 -16 8 -8 0 -13
4 -10 9 8 12 42 3 57 -15z m-464 10 c-3 -3 -12 -4 -19 -1 -8 3 -5 6 6 6 11 1
17 -2 13 -5z m540 0 c-3 -3 -12 -4 -19 -1 -8 3 -5 6 6 6 11 1 17 -2 13 -5z"/>
<path d="M4091 184 c0 -11 3 -14 6 -6 3 7 2 16 -1 19 -3 4 -6 -2 -5 -13z"/>
<path d="M2903 180 c26 -17 177 -26 177 -11 0 6 -15 11 -34 11 -18 0 -62 3
-97 6 -51 4 -60 3 -46 -6z"/>
<path d="M3610 169 c0 -5 5 -7 10 -4 6 3 10 8 10 11 0 2 -4 4 -10 4 -5 0 -10
-5 -10 -11z"/>
<path d="M4530 162 c0 -4 11 -9 26 -10 14 -1 23 2 19 8 -7 12 -45 14 -45 2z"/>
<path d="M5187 154 c-1 -2 -53 -5 -115 -6 -68 -2 -116 -8 -123 -15 -9 -9 -3
-10 27 -5 67 11 127 6 139 -12 7 -9 18 -16 25 -16 9 0 7 6 -5 20 -18 20 -17
20 48 20 48 0 66 -4 65 -12 -2 -9 7 -12 27 -11 16 1 33 -3 37 -10 4 -6 10 -8
14 -4 10 10 -36 57 -55 57 -13 -1 -12 -3 3 -11 15 -9 16 -13 5 -20 -19 -12
-29 -11 -26 3 2 10 -57 30 -66 22z"/>
<path d="M4510 140 c0 -5 5 -10 11 -10 5 0 7 5 4 10 -3 6 -8 10 -11 10 -2 0
-4 -4 -4 -10z"/>
<path d="M5615 130 l-30 -20 28 0 c16 0 26 4 23 9 -4 5 0 11 6 14 7 2 11 7 8
10 -3 3 -19 -3 -35 -13z"/>
<path d="M5798 126 c-13 -9 -31 -11 -65 -5 -92 15 -103 6 -14 -11 42 -8 58 -7
82 5 16 9 29 18 29 20 0 9 -15 5 -32 -9z"/>
<path d="M5863 133 c9 -2 25 -2 35 0 9 3 1 5 -18 5 -19 0 -27 -2 -17 -5z"/>
<path d="M5169 112 c11 -20 15 -21 28 -10 9 7 17 11 19 8 1 -3 6 -1 11 4 5 5
-2 6 -16 3 -14 -3 -32 -1 -40 6 -12 10 -13 9 -2 -11z"/>
<path d="M4501 98 c-7 -11 -7 -18 -1 -18 5 0 10 4 10 9 0 5 12 11 28 13 l27 3
-26 6 c-19 4 -29 1 -38 -13z"/>
<path d="M5238 93 c7 -3 16 -2 19 1 4 3 -2 6 -13 5 -11 0 -14 -3 -6 -6z"/>
<path d="M5320 93 c-8 -4 -21 -12 -28 -20 -22 -21 8 -16 38 7 24 19 20 24 -10
13z"/>
<path d="M5500 90 c0 -10 111 -11 145 -2 20 6 3 8 -58 8 -48 0 -87 -3 -87 -6z"/>
<path d="M3160 80 c-13 -8 -12 -10 3 -10 9 0 17 5 17 10 0 12 -1 12 -20 0z"/>
<path d="M4360 76 c0 -2 8 -10 18 -17 15 -13 16 -12 3 4 -13 16 -21 21 -21 13z"/>
<path d="M4510 70 c-8 -5 -10 -10 -5 -10 6 0 17 5 25 10 8 5 11 10 5 10 -5 0
-17 -5 -25 -10z"/>
<path d="M5250 70 c0 -5 5 -10 10 -10 6 0 10 5 10 10 0 6 -4 10 -10 10 -5 0
-10 -4 -10 -10z"/>
<path d="M5540 70 c-90 -4 -123 -9 -150 -25 -19 -11 -37 -23 -40 -26 -3 -4
-12 -9 -20 -12 -8 -2 -1 -3 15 -1 17 3 42 13 57 24 48 36 84 37 115 4 25 -26
34 -29 95 -29 36 0 61 3 55 7 -9 6 -9 8 -1 8 7 0 15 7 18 16 5 13 3 14 -7 6
-18 -15 -90 -26 -120 -18 -14 3 -27 12 -30 19 -4 11 13 14 81 15 91 2 100 -1
118 -32 6 -11 17 -22 25 -24 11 -4 11 -1 -2 14 -9 10 -19 26 -22 35 -7 21 -45
25 -187 19z"/>
<path d="M2860 60 c-9 -6 -10 -10 -3 -10 6 0 15 5 18 10 8 12 4 12 -15 0z"/>
<path d="M3088 63 c7 -3 16 -2 19 1 4 3 -2 6 -13 5 -11 0 -14 -3 -6 -6z"/>
<path d="M5848 63 c-19 -5 -25 -23 -9 -23 5 0 13 -9 16 -20 3 -11 13 -20 21
-20 11 0 12 4 4 19 -21 40 -5 42 35 5 15 -14 30 -22 33 -19 4 3 -7 17 -23 30
-29 23 -29 24 -5 18 14 -4 29 -11 33 -17 6 -8 10 -8 13 1 3 7 12 9 20 6 8 -3
14 1 14 11 0 13 -12 16 -67 15 -38 -1 -76 -3 -85 -6z"/>
<path d="M4527 43 c-11 -11 -17 -13 -17 -5 0 7 -7 12 -15 12 -8 0 -15 -5 -15
-11 0 -5 5 -7 12 -3 8 5 9 2 5 -10 -4 -11 -3 -15 4 -10 6 4 14 2 18 -4 4 -7
12 1 18 18 13 35 13 35 -10 13z"/>
<path d="M5230 50 c0 -6 7 -10 15 -10 8 0 15 2 15 4 0 2 -7 6 -15 10 -8 3 -15
1 -15 -4z"/>
<path d="M3065 27 c-4 -10 -5 -21 -1 -24 10 -10 18 4 13 24 -4 17 -4 17 -12 0z"/>
<path d="M4340 30 c0 -5 5 -10 10 -10 6 0 10 5 10 10 0 6 -4 10 -10 10 -5 0
-10 -4 -10 -10z"/>
<path d="M5195 30 c-3 -5 1 -10 9 -10 9 0 16 5 16 10 0 6 -4 10 -9 10 -6 0
-13 -4 -16 -10z"/>
<path d="M5455 20 c-19 -8 -19 -9 3 -9 12 -1 22 4 22 9 0 6 -1 10 -2 9 -2 0
-12 -4 -23 -9z"/>
<path d="M5165 10 c-3 -5 -1 -10 4 -10 6 0 11 5 11 10 0 6 -2 10 -4 10 -3 0
-8 -4 -11 -10z"/>
<path d="M5960 10 c0 -5 5 -10 11 -10 5 0 7 5 4 10 -3 6 -8 10 -11 10 -2 0 -4
-4 -4 -10z"/>
</g>
</svg>
